<svg width="80" height="636" viewBox="0 0 80 636" fill="none" xmlns="http://www.w3.org/2000/svg">
<rect width="80" height="636" rx="16" fill="white"/>
<rect x="0.5" y="0.5" width="79" height="635" rx="15.5" stroke="black" stroke-opacity="0.1"/>
<rect x="24" y="31" width="32" height="32" rx="16" fill="#7AFD3D"/>
<path d="M38.411 43.6888H43.3116C45.5191 43.6888 46.6229 45.0685 46.6229 47.0001V48.3798C46.6229 51.1391 44.9672 53.0707 41.9319 53.0707H36.656L37.241 50.7252H41.3469C43.3116 50.7252 44.2774 49.4835 44.2774 47.7948V47.6899C44.2774 46.7242 43.8635 46.0343 42.6218 46.0343H37.826L38.411 43.6888Z" fill="#1B340F"/>
<path d="M41.3304 47.403H37.0754C36.4794 47.403 35.9606 47.8113 35.8116 48.3853L35.6737 48.9482C35.624 49.1524 35.7785 49.3511 35.9882 49.3511H40.2432C40.8392 49.3511 41.358 48.9427 41.507 48.3687L41.6449 47.8058C41.7001 47.6016 41.5401 47.403 41.3304 47.403Z" fill="#1B340F"/>
<path d="M41.8958 49.4862H37.2632C35.1765 49.4862 34.1331 48.1007 34.1331 46.1609V44.7754C34.1331 42.0043 35.6982 40.0646 38.5674 40.0646H43.5547L43.0018 42.42H39.1204C37.2632 42.42 36.3503 43.667 36.3503 45.3628V45.4682C36.3503 46.438 36.7415 47.1308 37.9153 47.1308H42.4488L41.8958 49.4862Z" fill="#1B340F"/>
<path opacity="0.5" d="M31.25 87H48.75" stroke="black"/>
<g opacity="0.4">
<path d="M35.8334 119.958H34.1667C32.15 119.958 31.0417 118.85 31.0417 116.833V115.167C31.0417 113.15 32.15 112.042 34.1667 112.042H35.8334C37.85 112.042 38.9584 113.15 38.9584 115.167V116.833C38.9584 118.85 37.85 119.958 35.8334 119.958ZM34.1667 113.292C32.85 113.292 32.2917 113.85 32.2917 115.167V116.833C32.2917 118.15 32.85 118.708 34.1667 118.708H35.8334C37.15 118.708 37.7084 118.15 37.7084 116.833V115.167C37.7084 113.85 37.15 113.292 35.8334 113.292H34.1667Z" fill="black"/>
<path d="M45.8334 119.958H44.1667C42.15 119.958 41.0417 118.85 41.0417 116.833V115.167C41.0417 113.15 42.15 112.042 44.1667 112.042H45.8334C47.85 112.042 48.9584 113.15 48.9584 115.167V116.833C48.9584 118.85 47.85 119.958 45.8334 119.958ZM44.1667 113.292C42.85 113.292 42.2917 113.85 42.2917 115.167V116.833C42.2917 118.15 42.85 118.708 44.1667 118.708H45.8334C47.15 118.708 47.7084 118.15 47.7084 116.833V115.167C47.7084 113.85 47.15 113.292 45.8334 113.292H44.1667Z" fill="black"/>
<path d="M45.8334 129.958H44.1667C42.15 129.958 41.0417 128.85 41.0417 126.833V125.167C41.0417 123.15 42.15 122.042 44.1667 122.042H45.8334C47.85 122.042 48.9584 123.15 48.9584 125.167V126.833C48.9584 128.85 47.85 129.958 45.8334 129.958ZM44.1667 123.292C42.85 123.292 42.2917 123.85 42.2917 125.167V126.833C42.2917 128.15 42.85 128.708 44.1667 128.708H45.8334C47.15 128.708 47.7084 128.15 47.7084 126.833V125.167C47.7084 123.85 47.15 123.292 45.8334 123.292H44.1667Z" fill="black"/>
<path d="M35.8334 129.958H34.1667C32.15 129.958 31.0417 128.85 31.0417 126.833V125.167C31.0417 123.15 32.15 122.042 34.1667 122.042H35.8334C37.85 122.042 38.9584 123.15 38.9584 125.167V126.833C38.9584 128.85 37.85 129.958 35.8334 129.958ZM34.1667 123.292C32.85 123.292 32.2917 123.85 32.2917 125.167V126.833C32.2917 128.15 32.85 128.708 34.1667 128.708H35.8334C37.15 128.708 37.7084 128.15 37.7084 126.833V125.167C37.7084 123.85 37.15 123.292 35.8334 123.292H34.1667Z" fill="black"/>
</g>
<g opacity="0.4">
<path d="M38.3334 163.678L41.6667 167.012L46.4226 162.256L48.3334 164.167V159.167H43.3334L45.2442 161.077L41.6667 164.655L38.3334 161.322L31.9109 167.744L33.0892 168.922L38.3334 163.678Z" fill="black"/>
</g>
<path d="M40 202.333C35.405 202.333 31.6667 206.072 31.6667 210.667C31.6667 211.958 31.9617 213.204 32.5425 214.371C32.6842 214.654 32.9725 214.833 33.2884 214.833H46.7109C47.0267 214.833 47.3159 214.654 47.4575 214.371C48.0384 213.204 48.3334 211.958 48.3334 210.667C48.3334 206.072 44.595 202.333 40 202.333ZM46.175 213.167H33.825C33.4984 212.368 33.3334 211.529 33.3334 210.667C33.3334 206.991 36.3242 204 40 204C43.6759 204 46.6667 206.991 46.6667 210.667C46.6667 211.529 46.5017 212.368 46.175 213.167Z" fill="black"/>
<path d="M39.1159 209.783C38.9759 209.875 38.8467 210.001 38.7492 210.149C38.3617 210.739 38.5259 211.53 39.1159 211.917C39.705 212.304 40.4967 212.14 40.8834 211.55L44.185 206.518C44.19 206.509 44.1909 206.498 44.185 206.489C44.1767 206.477 44.16 206.473 44.1475 206.481L39.1159 209.783Z" fill="black"/>
<path d="M43.3334 261.958H32.5C31.7 261.958 31.0417 261.3 31.0417 260.5V249.667C31.0417 245.983 32.9834 244.042 36.6667 244.042H43.3334C47.0167 244.042 48.9584 245.983 48.9584 249.667V256.333C48.9584 260.017 47.0167 261.958 43.3334 261.958ZM36.6667 245.292C33.6834 245.292 32.2917 246.683 32.2917 249.667V260.5C32.2917 260.617 32.3834 260.708 32.5 260.708H43.3334C46.3167 260.708 47.7084 259.317 47.7084 256.333V249.667C47.7084 246.683 46.3167 245.292 43.3334 245.292H36.6667Z" fill="#7C7F89"/>
<circle cx="47.3275" cy="246.06" r="2.5" fill="#FF6B4B"/>
<g opacity="0.4">
<path d="M40 309.63C39.33 309.63 38.65 309.48 38.12 309.17L32.62 306C30.38 304.49 30.24 304.26 30.24 301.89V296.11C30.24 293.74 30.37 293.51 32.57 292.02L38.11 288.82C39.16 288.21 40.81 288.21 41.86 288.82L47.38 292C49.62 293.51 49.76 293.74 49.76 296.11V301.88C49.76 304.25 49.63 304.48 47.43 305.97L41.89 309.17C41.35 309.48 40.67 309.63 40 309.63ZM40 289.87C39.58 289.87 39.17 289.95 38.88 290.12L33.38 293.3C31.75 294.4 31.75 294.4 31.75 296.11V301.88C31.75 303.59 31.75 303.59 33.42 304.72L38.88 307.87C39.47 308.21 40.54 308.21 41.13 307.87L46.63 304.69C48.25 303.59 48.25 303.59 48.25 301.88V296.11C48.25 294.4 48.25 294.4 46.58 293.27L41.12 290.12C40.83 289.95 40.42 289.87 40 289.87Z" fill="black"/>
<path d="M40 302.75C37.93 302.75 36.25 301.07 36.25 299C36.25 296.93 37.93 295.25 40 295.25C42.07 295.25 43.75 296.93 43.75 299C43.75 301.07 42.07 302.75 40 302.75ZM40 296.75C38.76 296.75 37.75 297.76 37.75 299C37.75 300.24 38.76 301.25 40 301.25C41.24 301.25 42.25 300.24 42.25 299C42.25 297.76 41.24 296.75 40 296.75Z" fill="black"/>
</g>
</svg>
