<svg width="240" height="80" viewBox="0 0 240 80" fill="none" xmlns="http://www.w3.org/2000/svg">
<rect width="240" height="79.308" rx="20.5931" fill="white"/>
<rect x="0.5" y="0.5" width="239" height="78.308" rx="20.0931" stroke="black" stroke-opacity="0.1"/>
<path d="M33.9264 28.6539C33.7604 28.6539 33.6044 28.6879 33.4577 28.7426L31.8591 27.4339C31.8984 27.2912 31.9264 27.1432 31.9264 26.9872C31.9264 26.0632 31.1837 25.3206 30.2597 25.3206C29.3357 25.3206 28.5931 26.0632 28.5931 26.9872C28.5931 27.2512 28.6597 27.4972 28.7677 27.7186L26.8284 30.0106C26.7511 29.9972 26.6737 29.9872 26.5931 29.9872C26.4737 29.9872 26.3611 30.0072 26.2517 30.0366L24.5431 28.3279C24.5731 28.2192 24.5931 28.1066 24.5931 27.9872C24.5931 27.2486 23.9984 26.6539 23.2597 26.6539C22.5211 26.6539 21.9264 27.2486 21.9264 27.9872C21.9264 28.7259 22.5211 29.3206 23.2597 29.3206C23.3791 29.3206 23.4917 29.3006 23.6011 29.2712L25.3097 30.9799C25.2797 31.0886 25.2597 31.2012 25.2597 31.3206C25.2597 32.0592 25.8544 32.6539 26.5931 32.6539C27.3317 32.6539 27.9264 32.0592 27.9264 31.3206C27.9264 31.1626 27.8944 31.0139 27.8444 30.8732L29.7864 28.5786C29.9377 28.6226 30.0944 28.6539 30.2597 28.6539C30.5337 28.6539 30.7877 28.5826 31.0151 28.4666L32.6144 29.7752C32.6037 29.8446 32.5931 29.9146 32.5931 29.9872C32.5931 30.7259 33.1877 31.3206 33.9264 31.3206C34.6651 31.3206 35.2597 30.7259 35.2597 29.9872C35.2597 29.2486 34.6651 28.6539 33.9264 28.6539Z" fill="black"/>
<path d="M26.905 55.6539L26.317 53.9619H22.741L22.153 55.6539H20.653L23.701 47.2539H25.357L28.393 55.6539H26.905ZM23.197 52.6659H25.861L24.529 48.8739L23.197 52.6659ZM31.892 55.8099C30.988 55.8099 30.232 55.5059 29.624 54.8979C29.024 54.2899 28.724 53.5419 28.724 52.6539C28.724 51.7579 29.024 51.0099 29.624 50.4099C30.232 49.8019 30.988 49.4979 31.892 49.4979C32.476 49.4979 33.008 49.6379 33.488 49.9179C33.968 50.1979 34.328 50.5739 34.568 51.0459L33.452 51.6939C33.316 51.4059 33.108 51.1819 32.828 51.0219C32.556 50.8539 32.24 50.7699 31.88 50.7699C31.352 50.7699 30.908 50.9499 30.548 51.3099C30.196 51.6699 30.02 52.1179 30.02 52.6539C30.02 53.1899 30.196 53.6379 30.548 53.9979C30.908 54.3579 31.352 54.5379 31.88 54.5379C32.232 54.5379 32.548 54.4539 32.828 54.2859C33.116 54.1179 33.332 53.8939 33.476 53.6139L34.592 54.2499C34.336 54.7299 33.968 55.1099 33.488 55.3899C33.008 55.6699 32.476 55.8099 31.892 55.8099ZM38.8767 50.9019H37.3887V53.7819C37.3887 54.0299 37.4447 54.2099 37.5567 54.3219C37.6687 54.4259 37.8327 54.4859 38.0487 54.5019C38.2727 54.5099 38.5487 54.5059 38.8767 54.4899V55.6539C37.8847 55.7739 37.1727 55.6899 36.7407 55.4019C36.3087 55.1059 36.0927 54.5659 36.0927 53.7819V50.9019H34.9887V49.6539H36.0927V48.3579L37.3887 47.9739V49.6539H38.8767V50.9019ZM41.2762 48.5139C41.1162 48.6739 40.9242 48.7539 40.7002 48.7539C40.4762 48.7539 40.2802 48.6739 40.1122 48.5139C39.9522 48.3459 39.8722 48.1499 39.8722 47.9259C39.8722 47.7019 39.9522 47.5099 40.1122 47.3499C40.2722 47.1819 40.4682 47.0979 40.7002 47.0979C40.9322 47.0979 41.1282 47.1819 41.2882 47.3499C41.4482 47.5099 41.5282 47.7019 41.5282 47.9259C41.5282 48.1499 41.4442 48.3459 41.2762 48.5139ZM40.0522 55.6539V49.6539H41.3482V55.6539H40.0522ZM46.921 49.6539H48.337L45.997 55.6539H44.497L42.157 49.6539H43.573L45.253 54.2139L46.921 49.6539ZM50.3816 48.5139C50.2216 48.6739 50.0296 48.7539 49.8056 48.7539C49.5816 48.7539 49.3856 48.6739 49.2176 48.5139C49.0576 48.3459 48.9776 48.1499 48.9776 47.9259C48.9776 47.7019 49.0576 47.5099 49.2176 47.3499C49.3776 47.1819 49.5736 47.0979 49.8056 47.0979C50.0376 47.0979 50.2336 47.1819 50.3936 47.3499C50.5536 47.5099 50.6336 47.7019 50.6336 47.9259C50.6336 48.1499 50.5496 48.3459 50.3816 48.5139ZM49.1576 55.6539V49.6539H50.4536V55.6539H49.1576ZM55.3064 50.9019H53.8184V53.7819C53.8184 54.0299 53.8744 54.2099 53.9864 54.3219C54.0984 54.4259 54.2624 54.4859 54.4784 54.5019C54.7024 54.5099 54.9784 54.5059 55.3064 54.4899V55.6539C54.3144 55.7739 53.6024 55.6899 53.1704 55.4019C52.7384 55.1059 52.5224 54.5659 52.5224 53.7819V50.9019H51.4184V49.6539H52.5224V48.3579L53.8184 47.9739V49.6539H55.3064V50.9019ZM60.643 49.6539H62.023L59.719 55.8459C59.143 57.3979 58.167 58.1339 56.791 58.0539V56.8419C57.199 56.8659 57.527 56.7779 57.775 56.5779C58.023 56.3859 58.227 56.0819 58.387 55.6659L58.447 55.5459L55.903 49.6539H57.319L59.107 54.0099L60.643 49.6539Z" fill="black"/>
<path d="M91.101 60.099V60.9949H90.9832V60.2948L90.6901 60.7824H90.6748L90.3817 60.2961V60.9949H90.2626V60.099H90.397L90.6824 60.5725L90.9666 60.099H91.101ZM91.8109 60.3549H91.9222V60.9949H91.8109V60.8848C91.7554 60.9693 91.6748 61.0115 91.569 61.0115C91.4794 61.0115 91.403 60.9791 91.3399 60.9142C91.2768 60.8485 91.2452 60.7688 91.2452 60.6749C91.2452 60.581 91.2768 60.5017 91.3399 60.4368C91.403 60.3711 91.4794 60.3383 91.569 60.3383C91.6748 60.3383 91.7554 60.3805 91.8109 60.465V60.3549ZM91.5831 60.904C91.6479 60.904 91.7021 60.8822 91.7456 60.8387C91.7891 60.7944 91.8109 60.7398 91.8109 60.6749C91.8109 60.6101 91.7891 60.5559 91.7456 60.5124C91.7021 60.468 91.6479 60.4458 91.5831 60.4458C91.5191 60.4458 91.4653 60.468 91.4218 60.5124C91.3783 60.5559 91.3565 60.6101 91.3565 60.6749C91.3565 60.7398 91.3783 60.7944 91.4218 60.8387C91.4653 60.8822 91.5191 60.904 91.5831 60.904ZM92.5376 60.3549H92.6566L92.3955 61.0345C92.3682 61.1071 92.3298 61.1621 92.2804 61.1997C92.2317 61.238 92.1754 61.2551 92.1114 61.2508V61.1472C92.1899 61.1532 92.2475 61.1096 92.2842 61.0166L92.2957 60.9923L92.0167 60.3549H92.1357L92.3533 60.8566L92.5376 60.3549ZM93.2385 60.099H93.3409V60.9949H93.2232V60.227L93.0325 60.2833L93.003 60.1809L93.2385 60.099Z" fill="white" fill-opacity="0.6"/>
<rect x="90.0145" y="20.593" width="2.85914" height="2.85914" fill="#3C3D3E" fill-opacity="0.1"/>
<rect x="90.0145" y="23.4521" width="2.85914" height="35.1436" fill="#FF6B4B"/>
<path d="M97.9836 60.099V60.9949H97.8659V60.2948L97.5728 60.7824H97.5574L97.2643 60.2961V60.9949H97.1453V60.099H97.2797L97.5651 60.5725L97.8492 60.099H97.9836ZM98.6936 60.3549H98.8049V60.9949H98.6936V60.8848C98.6381 60.9693 98.5575 61.0115 98.4517 61.0115C98.3621 61.0115 98.2857 60.9791 98.2226 60.9142C98.1594 60.8485 98.1279 60.7688 98.1279 60.6749C98.1279 60.581 98.1594 60.5017 98.2226 60.4368C98.2857 60.3711 98.3621 60.3383 98.4517 60.3383C98.5575 60.3383 98.6381 60.3805 98.6936 60.465V60.3549ZM98.4657 60.904C98.5306 60.904 98.5848 60.8822 98.6283 60.8387C98.6718 60.7944 98.6936 60.7398 98.6936 60.6749C98.6936 60.6101 98.6718 60.5559 98.6283 60.5124C98.5848 60.468 98.5306 60.4458 98.4657 60.4458C98.4017 60.4458 98.348 60.468 98.3045 60.5124C98.261 60.5559 98.2392 60.6101 98.2392 60.6749C98.2392 60.7398 98.261 60.7944 98.3045 60.8387C98.348 60.8822 98.4017 60.904 98.4657 60.904ZM99.4203 60.3549H99.5393L99.2782 61.0345C99.2509 61.1071 99.2125 61.1621 99.163 61.1997C99.1144 61.238 99.0581 61.2551 98.9941 61.2508V61.1472C99.0726 61.1532 99.1302 61.1096 99.1669 61.0166L99.1784 60.9923L98.8994 60.3549H99.0184L99.236 60.8566L99.4203 60.3549ZM99.9139 60.9949V60.8976L100.23 60.5751C100.314 60.4906 100.357 60.4181 100.357 60.3575C100.357 60.3072 100.341 60.2679 100.311 60.2397C100.28 60.2116 100.242 60.1975 100.198 60.1975C100.114 60.1975 100.052 60.2376 100.014 60.3178L99.9139 60.2589C99.942 60.2009 99.9808 60.157 100.03 60.1271C100.081 60.0973 100.136 60.0823 100.197 60.0823C100.272 60.0823 100.337 60.1071 100.393 60.1566C100.448 60.206 100.476 60.2726 100.476 60.3562C100.476 60.4467 100.422 60.5452 100.316 60.6519L100.087 60.8797H100.492V60.9949H99.9139Z" fill="white" fill-opacity="0.6"/>
<rect x="97.098" y="20.593" width="2.85914" height="25.1366" fill="#3C3D3E" fill-opacity="0.1"/>
<rect x="97.0979" y="45.7296" width="2.85914" height="12.8661" fill="#FF6B4B"/>
<path d="M105.062 60.099V60.9949H104.944V60.2948L104.651 60.7824H104.636L104.343 60.2961V60.9949H104.224V60.099H104.358L104.644 60.5725L104.928 60.099H105.062ZM105.772 60.3549H105.883V60.9949H105.772V60.8848C105.717 60.9693 105.636 61.0115 105.53 61.0115C105.441 61.0115 105.364 60.9791 105.301 60.9142C105.238 60.8485 105.206 60.7688 105.206 60.6749C105.206 60.581 105.238 60.5017 105.301 60.4368C105.364 60.3711 105.441 60.3383 105.53 60.3383C105.636 60.3383 105.717 60.3805 105.772 60.465V60.3549ZM105.544 60.904C105.609 60.904 105.663 60.8822 105.707 60.8387C105.75 60.7944 105.772 60.7398 105.772 60.6749C105.772 60.6101 105.75 60.5559 105.707 60.5124C105.663 60.468 105.609 60.4458 105.544 60.4458C105.48 60.4458 105.427 60.468 105.383 60.5124C105.34 60.5559 105.318 60.6101 105.318 60.6749C105.318 60.7398 105.34 60.7944 105.383 60.8387C105.427 60.8822 105.48 60.904 105.544 60.904ZM106.499 60.3549H106.618L106.357 61.0345C106.33 61.1071 106.291 61.1621 106.242 61.1997C106.193 61.238 106.137 61.2551 106.073 61.2508V61.1472C106.151 61.1532 106.209 61.1096 106.245 61.0166L106.257 60.9923L105.978 60.3549H106.097L106.315 60.8566L106.499 60.3549ZM107.351 60.4663C107.419 60.4791 107.475 60.5085 107.518 60.5546C107.562 60.6007 107.584 60.6591 107.584 60.7299C107.584 60.817 107.554 60.8857 107.494 60.936C107.434 60.9863 107.362 61.0115 107.277 61.0115C107.208 61.0115 107.148 60.9962 107.095 60.9654C107.042 60.9339 107.004 60.8886 106.982 60.8298L107.082 60.7709C107.108 60.8537 107.173 60.895 107.277 60.895C107.332 60.895 107.377 60.8805 107.412 60.8515C107.447 60.8225 107.465 60.782 107.465 60.7299C107.465 60.6779 107.447 60.6374 107.412 60.6084C107.377 60.5785 107.332 60.5636 107.277 60.5636H107.246L107.199 60.4906L107.406 60.2103H107.008V60.099H107.545V60.2039L107.351 60.4663Z" fill="white" fill-opacity="0.6"/>
<rect x="104.181" y="20.593" width="2.85914" height="17.1548" fill="#3C3D3E" fill-opacity="0.1"/>
<rect x="104.181" y="37.7478" width="2.85914" height="20.8479" fill="#FF6B4B"/>
<path d="M112.117 60.099V60.9949H111.999V60.2948L111.706 60.7824H111.691L111.398 60.2961V60.9949H111.278V60.099H111.413L111.698 60.5725L111.982 60.099H112.117ZM112.827 60.3549H112.938V60.9949H112.827V60.8848C112.771 60.9693 112.691 61.0115 112.585 61.0115C112.495 61.0115 112.419 60.9791 112.356 60.9142C112.293 60.8485 112.261 60.7688 112.261 60.6749C112.261 60.581 112.293 60.5017 112.356 60.4368C112.419 60.3711 112.495 60.3383 112.585 60.3383C112.691 60.3383 112.771 60.3805 112.827 60.465V60.3549ZM112.599 60.904C112.664 60.904 112.718 60.8822 112.761 60.8387C112.805 60.7944 112.827 60.7398 112.827 60.6749C112.827 60.6101 112.805 60.5559 112.761 60.5124C112.718 60.468 112.664 60.4458 112.599 60.4458C112.535 60.4458 112.481 60.468 112.438 60.5124C112.394 60.5559 112.372 60.6101 112.372 60.6749C112.372 60.7398 112.394 60.7944 112.438 60.8387C112.481 60.8822 112.535 60.904 112.599 60.904ZM113.553 60.3549H113.672L113.411 61.0345C113.384 61.1071 113.346 61.1621 113.296 61.1997C113.248 61.238 113.191 61.2551 113.127 61.2508V61.1472C113.206 61.1532 113.263 61.1096 113.3 61.0166L113.312 60.9923L113.033 60.3549H113.152L113.369 60.8566L113.553 60.3549ZM114.716 60.7133V60.8247H114.608V60.9949H114.489V60.8247H114.032V60.7133L114.353 60.099H114.481L114.16 60.7133H114.489V60.4599H114.608V60.7133H114.716Z" fill="white" fill-opacity="0.6"/>
<rect x="111.265" y="20.593" width="2.85914" height="30.6166" fill="#3C3D3E" fill-opacity="0.1"/>
<rect x="111.265" y="51.2096" width="2.85914" height="7.38611" fill="#FF6B4B"/>
<path d="M119.224 60.099V60.9949H119.106V60.2948L118.813 60.7824H118.798L118.505 60.2961V60.9949H118.386V60.099H118.52L118.806 60.5725L119.09 60.099H119.224ZM119.934 60.3549H120.045V60.9949H119.934V60.8848C119.878 60.9693 119.798 61.0115 119.692 61.0115C119.602 61.0115 119.526 60.9791 119.463 60.9142C119.4 60.8485 119.368 60.7688 119.368 60.6749C119.368 60.581 119.4 60.5017 119.463 60.4368C119.526 60.3711 119.602 60.3383 119.692 60.3383C119.798 60.3383 119.878 60.3805 119.934 60.465V60.3549ZM119.706 60.904C119.771 60.904 119.825 60.8822 119.869 60.8387C119.912 60.7944 119.934 60.7398 119.934 60.6749C119.934 60.6101 119.912 60.5559 119.869 60.5124C119.825 60.468 119.771 60.4458 119.706 60.4458C119.642 60.4458 119.588 60.468 119.545 60.5124C119.501 60.5559 119.48 60.6101 119.48 60.6749C119.48 60.7398 119.501 60.7944 119.545 60.8387C119.588 60.8822 119.642 60.904 119.706 60.904ZM120.661 60.3549H120.78L120.519 61.0345C120.491 61.1071 120.453 61.1621 120.403 61.1997C120.355 61.238 120.298 61.2551 120.234 61.2508V61.1472C120.313 61.1532 120.371 61.1096 120.407 61.0166L120.419 60.9923L120.14 60.3549H120.259L120.476 60.8566L120.661 60.3549ZM121.454 60.4484C121.538 60.4484 121.609 60.4735 121.667 60.5239C121.726 60.5734 121.756 60.6421 121.756 60.7299C121.756 60.817 121.726 60.8857 121.666 60.936C121.606 60.9863 121.534 61.0115 121.449 61.0115C121.38 61.0115 121.319 60.9953 121.266 60.9629C121.212 60.9296 121.174 60.8818 121.153 60.8195L121.254 60.7619C121.266 60.8055 121.289 60.8387 121.323 60.8618C121.357 60.884 121.399 60.895 121.449 60.895C121.505 60.895 121.551 60.8805 121.586 60.8515C121.621 60.8225 121.638 60.782 121.638 60.7299C121.638 60.6779 121.621 60.6374 121.586 60.6084C121.551 60.5785 121.506 60.5636 121.451 60.5636H121.198L121.231 60.099H121.721V60.2103H121.339L121.323 60.4484H121.454Z" fill="white" fill-opacity="0.6"/>
<rect x="118.348" y="20.593" width="2.85914" height="24.1835" fill="#3C3D3E" fill-opacity="0.1"/>
<rect x="118.348" y="44.7766" width="2.85914" height="13.8192" fill="#FF6B4B"/>
<path d="M126.311 60.099V60.9949H126.193V60.2948L125.9 60.7824H125.884L125.591 60.2961V60.9949H125.472V60.099H125.607L125.892 60.5725L126.176 60.099H126.311ZM127.021 60.3549H127.132V60.9949H127.021V60.8848C126.965 60.9693 126.884 61.0115 126.779 61.0115C126.689 61.0115 126.613 60.9791 126.55 60.9142C126.486 60.8485 126.455 60.7688 126.455 60.6749C126.455 60.581 126.486 60.5017 126.55 60.4368C126.613 60.3711 126.689 60.3383 126.779 60.3383C126.884 60.3383 126.965 60.3805 127.021 60.465V60.3549ZM126.793 60.904C126.858 60.904 126.912 60.8822 126.955 60.8387C126.999 60.7944 127.021 60.7398 127.021 60.6749C127.021 60.6101 126.999 60.5559 126.955 60.5124C126.912 60.468 126.858 60.4458 126.793 60.4458C126.729 60.4458 126.675 60.468 126.631 60.5124C126.588 60.5559 126.566 60.6101 126.566 60.6749C126.566 60.7398 126.588 60.7944 126.631 60.8387C126.675 60.8822 126.729 60.904 126.793 60.904ZM127.747 60.3549H127.866L127.605 61.0345C127.578 61.1071 127.54 61.1621 127.49 61.1997C127.441 61.238 127.385 61.2551 127.321 61.2508V61.1472C127.4 61.1532 127.457 61.1096 127.494 61.0166L127.505 60.9923L127.226 60.3549H127.345L127.563 60.8566L127.747 60.3549ZM128.539 60.4087C128.629 60.4087 128.702 60.4368 128.761 60.4932C128.819 60.5486 128.848 60.6207 128.848 60.7095C128.848 60.7982 128.819 60.8707 128.761 60.927C128.702 60.9834 128.629 61.0115 128.539 61.0115C128.449 61.0115 128.374 60.9834 128.316 60.927C128.259 60.8707 128.231 60.7982 128.231 60.7095C128.231 60.6403 128.249 60.5806 128.284 60.5303L128.572 60.099H128.708L128.497 60.4113C128.516 60.4095 128.53 60.4087 128.539 60.4087ZM128.401 60.8464C128.437 60.8805 128.483 60.8976 128.539 60.8976C128.595 60.8976 128.641 60.8805 128.676 60.8464C128.712 60.8114 128.73 60.7658 128.73 60.7095C128.73 60.6531 128.712 60.6079 128.676 60.5738C128.641 60.5397 128.595 60.5226 128.539 60.5226C128.482 60.5226 128.436 60.5397 128.401 60.5738C128.366 60.6079 128.348 60.6531 128.348 60.7095C128.348 60.7658 128.366 60.8114 128.401 60.8464Z" fill="white" fill-opacity="0.6"/>
<rect x="125.432" y="20.593" width="2.85914" height="15.2487" fill="#3C3D3E" fill-opacity="0.1"/>
<rect x="125.432" y="35.8418" width="2.85914" height="22.754" fill="#FF6B4B"/>
<path d="M133.425 60.099V60.9949H133.307V60.2948L133.014 60.7824H132.998L132.705 60.2961V60.9949H132.586V60.099H132.721L133.006 60.5725L133.29 60.099H133.425ZM134.135 60.3549H134.246V60.9949H134.135V60.8848C134.079 60.9693 133.998 61.0115 133.893 61.0115C133.803 61.0115 133.727 60.9791 133.664 60.9142C133.6 60.8485 133.569 60.7688 133.569 60.6749C133.569 60.581 133.6 60.5017 133.664 60.4368C133.727 60.3711 133.803 60.3383 133.893 60.3383C133.998 60.3383 134.079 60.3805 134.135 60.465V60.3549ZM133.907 60.904C133.972 60.904 134.026 60.8822 134.069 60.8387C134.113 60.7944 134.135 60.7398 134.135 60.6749C134.135 60.6101 134.113 60.5559 134.069 60.5124C134.026 60.468 133.972 60.4458 133.907 60.4458C133.843 60.4458 133.789 60.468 133.745 60.5124C133.702 60.5559 133.68 60.6101 133.68 60.6749C133.68 60.7398 133.702 60.7944 133.745 60.8387C133.789 60.8822 133.843 60.904 133.907 60.904ZM134.861 60.3549H134.98L134.719 61.0345C134.692 61.1071 134.654 61.1621 134.604 61.1997C134.555 61.238 134.499 61.2551 134.435 61.2508V61.1472C134.514 61.1532 134.571 61.1096 134.608 61.0166L134.619 60.9923L134.34 60.3549H134.459L134.677 60.8566L134.861 60.3549ZM135.332 60.099H135.891V60.2052L135.565 60.9949H135.441L135.764 60.2116H135.332V60.099Z" fill="white" fill-opacity="0.6"/>
<rect x="132.515" y="20.593" width="2.85914" height="18.227" fill="#3C3D3E" fill-opacity="0.1"/>
<rect x="132.515" y="38.8201" width="2.85914" height="19.7757" fill="#FF6B4B"/>
<path d="M140.467 60.099V60.9949H140.349V60.2948L140.056 60.7824H140.041L139.748 60.2961V60.9949H139.629V60.099H139.763L140.048 60.5725L140.332 60.099H140.467ZM141.177 60.3549H141.288V60.9949H141.177V60.8848C141.121 60.9693 141.041 61.0115 140.935 61.0115C140.845 61.0115 140.769 60.9791 140.706 60.9142C140.643 60.8485 140.611 60.7688 140.611 60.6749C140.611 60.581 140.643 60.5017 140.706 60.4368C140.769 60.3711 140.845 60.3383 140.935 60.3383C141.041 60.3383 141.121 60.3805 141.177 60.465V60.3549ZM140.949 60.904C141.014 60.904 141.068 60.8822 141.112 60.8387C141.155 60.7944 141.177 60.7398 141.177 60.6749C141.177 60.6101 141.155 60.5559 141.112 60.5124C141.068 60.468 141.014 60.4458 140.949 60.4458C140.885 60.4458 140.831 60.468 140.788 60.5124C140.744 60.5559 140.722 60.6101 140.722 60.6749C140.722 60.7398 140.744 60.7944 140.788 60.8387C140.831 60.8822 140.885 60.904 140.949 60.904ZM141.904 60.3549H142.023L141.761 61.0345C141.734 61.1071 141.696 61.1621 141.646 61.1997C141.598 61.238 141.541 61.2551 141.477 61.2508V61.1472C141.556 61.1532 141.613 61.1096 141.65 61.0166L141.662 60.9923L141.383 60.3549H141.502L141.719 60.8566L141.904 60.3549ZM142.873 60.5316C142.917 60.5537 142.951 60.5836 142.976 60.6212C143 60.6587 143.013 60.7014 143.013 60.7491C143.013 60.831 142.984 60.8955 142.927 60.9424C142.87 60.9885 142.796 61.0115 142.706 61.0115C142.616 61.0115 142.543 60.9885 142.485 60.9424C142.428 60.8955 142.4 60.831 142.4 60.7491C142.4 60.7014 142.412 60.6587 142.437 60.6212C142.462 60.5836 142.496 60.5537 142.539 60.5316C142.466 60.4855 142.429 60.4202 142.429 60.3357C142.429 60.2547 142.456 60.1924 142.51 60.1489C142.564 60.1045 142.63 60.0823 142.706 60.0823C142.782 60.0823 142.848 60.1045 142.901 60.1489C142.956 60.1924 142.983 60.2547 142.983 60.3357C142.983 60.4202 142.947 60.4855 142.873 60.5316ZM142.706 60.1962C142.66 60.1962 142.622 60.2082 142.592 60.2321C142.562 60.256 142.547 60.2914 142.547 60.3383C142.547 60.3835 142.562 60.4189 142.593 60.4445C142.624 60.4693 142.661 60.4816 142.706 60.4816C142.75 60.4816 142.787 60.4693 142.818 60.4445C142.849 60.4189 142.864 60.3835 142.864 60.3383C142.864 60.2914 142.849 60.256 142.819 60.2321C142.79 60.2082 142.752 60.1962 142.706 60.1962ZM142.706 60.8976C142.763 60.8976 142.808 60.8844 142.842 60.8579C142.877 60.8306 142.895 60.7918 142.895 60.7415C142.895 60.692 142.877 60.654 142.842 60.6276C142.808 60.6002 142.763 60.5866 142.706 60.5866C142.649 60.5866 142.604 60.6002 142.569 60.6276C142.534 60.654 142.517 60.692 142.517 60.7415C142.517 60.7918 142.534 60.8306 142.569 60.8579C142.604 60.8844 142.649 60.8976 142.706 60.8976Z" fill="white" fill-opacity="0.6"/>
<rect x="139.599" y="20.593" width="2.85914" height="18.227" fill="#3C3D3E" fill-opacity="0.1"/>
<rect x="139.599" y="38.8201" width="2.85914" height="19.7757" fill="#FF6B4B"/>
<path d="M147.561 60.099V60.9949H147.443V60.2948L147.15 60.7824H147.135L146.842 60.2961V60.9949H146.723V60.099H146.857L147.142 60.5725L147.427 60.099H147.561ZM148.271 60.3549H148.382V60.9949H148.271V60.8848C148.215 60.9693 148.135 61.0115 148.029 61.0115C147.939 61.0115 147.863 60.9791 147.8 60.9142C147.737 60.8485 147.705 60.7688 147.705 60.6749C147.705 60.581 147.737 60.5017 147.8 60.4368C147.863 60.3711 147.939 60.3383 148.029 60.3383C148.135 60.3383 148.215 60.3805 148.271 60.465V60.3549ZM148.043 60.904C148.108 60.904 148.162 60.8822 148.206 60.8387C148.249 60.7944 148.271 60.7398 148.271 60.6749C148.271 60.6101 148.249 60.5559 148.206 60.5124C148.162 60.468 148.108 60.4458 148.043 60.4458C147.979 60.4458 147.925 60.468 147.882 60.5124C147.838 60.5559 147.816 60.6101 147.816 60.6749C147.816 60.7398 147.838 60.7944 147.882 60.8387C147.925 60.8822 147.979 60.904 148.043 60.904ZM148.998 60.3549H149.117L148.855 61.0345C148.828 61.1071 148.79 61.1621 148.74 61.1997C148.692 61.238 148.635 61.2551 148.571 61.2508V61.1472C148.65 61.1532 148.707 61.1096 148.744 61.0166L148.756 60.9923L148.477 60.3549H148.596L148.813 60.8566L148.998 60.3549ZM150.098 60.3831C150.098 60.4522 150.079 60.5124 150.043 60.5636H150.044L149.755 60.9949H149.62L149.833 60.6813C149.814 60.683 149.8 60.6839 149.789 60.6839C149.699 60.6839 149.625 60.6561 149.567 60.6007C149.509 60.5444 149.481 60.4718 149.481 60.3831C149.481 60.2944 149.509 60.2223 149.567 60.1668C149.625 60.1105 149.699 60.0823 149.789 60.0823C149.88 60.0823 149.954 60.1105 150.011 60.1668C150.069 60.2223 150.098 60.2944 150.098 60.3831ZM149.651 60.2474C149.616 60.2816 149.599 60.3268 149.599 60.3831C149.599 60.4394 149.616 60.4851 149.651 60.52C149.687 60.5542 149.733 60.5712 149.789 60.5712C149.846 60.5712 149.891 60.5542 149.926 60.52C149.962 60.4851 149.98 60.4394 149.98 60.3831C149.98 60.3268 149.963 60.2816 149.928 60.2474C149.893 60.2133 149.847 60.1962 149.789 60.1962C149.733 60.1962 149.687 60.2133 149.651 60.2474Z" fill="white" fill-opacity="0.6"/>
<rect x="146.682" y="20.593" width="2.85914" height="18.227" fill="#3C3D3E" fill-opacity="0.1"/>
<rect x="146.682" y="38.8201" width="2.85914" height="19.7757" fill="#FF6B4B"/>
<path d="M154.583 60.099V60.9949H154.465V60.2948L154.172 60.7824H154.157L153.864 60.2961V60.9949H153.745V60.099H153.879L154.165 60.5725L154.449 60.099H154.583ZM155.293 60.3549H155.404V60.9949H155.293V60.8848C155.238 60.9693 155.157 61.0115 155.051 61.0115C154.962 61.0115 154.885 60.9791 154.822 60.9142C154.759 60.8485 154.727 60.7688 154.727 60.6749C154.727 60.581 154.759 60.5017 154.822 60.4368C154.885 60.3711 154.962 60.3383 155.051 60.3383C155.157 60.3383 155.238 60.3805 155.293 60.465V60.3549ZM155.065 60.904C155.13 60.904 155.184 60.8822 155.228 60.8387C155.271 60.7944 155.293 60.7398 155.293 60.6749C155.293 60.6101 155.271 60.5559 155.228 60.5124C155.184 60.468 155.13 60.4458 155.065 60.4458C155.001 60.4458 154.947 60.468 154.904 60.5124C154.86 60.5559 154.839 60.6101 154.839 60.6749C154.839 60.7398 154.86 60.7944 154.904 60.8387C154.947 60.8822 155.001 60.904 155.065 60.904ZM156.02 60.3549H156.139L155.878 61.0345C155.85 61.1071 155.812 61.1621 155.763 61.1997C155.714 61.238 155.658 61.2551 155.594 61.2508V61.1472C155.672 61.1532 155.73 61.1096 155.766 61.0166L155.778 60.9923L155.499 60.3549H155.618L155.835 60.8566L156.02 60.3549ZM156.721 60.099H156.823V60.9949H156.705V60.227L156.515 60.2833L156.485 60.1809L156.721 60.099ZM157.581 60.8848C157.521 60.9693 157.436 61.0115 157.327 61.0115C157.217 61.0115 157.133 60.9693 157.072 60.8848C157.011 60.8003 156.981 60.6877 156.981 60.5469C156.981 60.4061 157.011 60.2935 157.072 60.209C157.133 60.1246 157.217 60.0823 157.327 60.0823C157.436 60.0823 157.521 60.1246 157.581 60.209C157.642 60.2935 157.672 60.4061 157.672 60.5469C157.672 60.6877 157.642 60.8003 157.581 60.8848ZM157.159 60.8042C157.198 60.8648 157.254 60.895 157.327 60.895C157.399 60.895 157.455 60.8648 157.494 60.8042C157.534 60.7436 157.554 60.6578 157.554 60.5469C157.554 60.436 157.534 60.3502 157.494 60.2897C157.455 60.2282 157.399 60.1975 157.327 60.1975C157.254 60.1975 157.198 60.2278 157.159 60.2884C157.12 60.349 157.1 60.4351 157.1 60.5469C157.1 60.6578 157.12 60.7436 157.159 60.8042Z" fill="white" fill-opacity="0.6"/>
<rect x="153.766" y="20.593" width="2.85914" height="18.227" fill="#3C3D3E" fill-opacity="0.1"/>
<rect x="153.766" y="38.8201" width="2.85914" height="19.7757" fill="#FF6B4B"/>
<path d="M161.525 60.099V60.9949H161.407V60.2948L161.114 60.7824H161.098L160.805 60.2961V60.9949H160.686V60.099H160.821L161.106 60.5725L161.39 60.099H161.525ZM162.235 60.3549H162.346V60.9949H162.235V60.8848C162.179 60.9693 162.099 61.0115 161.993 61.0115C161.903 61.0115 161.827 60.9791 161.764 60.9142C161.7 60.8485 161.669 60.7688 161.669 60.6749C161.669 60.581 161.7 60.5017 161.764 60.4368C161.827 60.3711 161.903 60.3383 161.993 60.3383C162.099 60.3383 162.179 60.3805 162.235 60.465V60.3549ZM162.007 60.904C162.072 60.904 162.126 60.8822 162.169 60.8387C162.213 60.7944 162.235 60.7398 162.235 60.6749C162.235 60.6101 162.213 60.5559 162.169 60.5124C162.126 60.468 162.072 60.4458 162.007 60.4458C161.943 60.4458 161.889 60.468 161.846 60.5124C161.802 60.5559 161.78 60.6101 161.78 60.6749C161.78 60.7398 161.802 60.7944 161.846 60.8387C161.889 60.8822 161.943 60.904 162.007 60.904ZM162.961 60.3549H163.08L162.819 61.0345C162.792 61.1071 162.754 61.1621 162.704 61.1997C162.655 61.238 162.599 61.2551 162.535 61.2508V61.1472C162.614 61.1532 162.671 61.1096 162.708 61.0166L162.719 60.9923L162.44 60.3549H162.559L162.777 60.8566L162.961 60.3549ZM163.662 60.099H163.765V60.9949H163.647V60.227L163.456 60.2833L163.427 60.1809L163.662 60.099ZM164.118 60.099H164.221V60.9949H164.103V60.227L163.912 60.2833L163.883 60.1809L164.118 60.099Z" fill="white" fill-opacity="0.6"/>
<rect x="160.849" y="20.593" width="2.85914" height="18.227" fill="#3C3D3E" fill-opacity="0.1"/>
<rect x="160.849" y="38.8201" width="2.85914" height="19.7757" fill="#FF6B4B"/>
<path d="M168.316 60.099V60.9949H168.198V60.2948L167.905 60.7824H167.89L167.597 60.2961V60.9949H167.478V60.099H167.612L167.897 60.5725L168.181 60.099H168.316ZM169.026 60.3549H169.137V60.9949H169.026V60.8848C168.97 60.9693 168.89 61.0115 168.784 61.0115C168.694 61.0115 168.618 60.9791 168.555 60.9142C168.492 60.8485 168.46 60.7688 168.46 60.6749C168.46 60.581 168.492 60.5017 168.555 60.4368C168.618 60.3711 168.694 60.3383 168.784 60.3383C168.89 60.3383 168.97 60.3805 169.026 60.465V60.3549ZM168.798 60.904C168.863 60.904 168.917 60.8822 168.961 60.8387C169.004 60.7944 169.026 60.7398 169.026 60.6749C169.026 60.6101 169.004 60.5559 168.961 60.5124C168.917 60.468 168.863 60.4458 168.798 60.4458C168.734 60.4458 168.68 60.468 168.637 60.5124C168.593 60.5559 168.571 60.6101 168.571 60.6749C168.571 60.7398 168.593 60.7944 168.637 60.8387C168.68 60.8822 168.734 60.904 168.798 60.904ZM169.753 60.3549H169.872L169.61 61.0345C169.583 61.1071 169.545 61.1621 169.495 61.1997C169.447 61.238 169.39 61.2551 169.326 61.2508V61.1472C169.405 61.1532 169.462 61.1096 169.499 61.0166L169.511 60.9923L169.232 60.3549H169.351L169.568 60.8566L169.753 60.3549ZM170.453 60.099H170.556V60.9949H170.438V60.227L170.247 60.2833L170.218 60.1809L170.453 60.099ZM170.702 60.9949V60.8976L171.018 60.5751C171.103 60.4906 171.145 60.4181 171.145 60.3575C171.145 60.3072 171.13 60.2679 171.099 60.2397C171.068 60.2116 171.031 60.1975 170.986 60.1975C170.902 60.1975 170.841 60.2376 170.802 60.3178L170.702 60.2589C170.73 60.2009 170.769 60.157 170.819 60.1271C170.869 60.0973 170.925 60.0823 170.985 60.0823C171.06 60.0823 171.126 60.1071 171.181 60.1566C171.236 60.206 171.264 60.2726 171.264 60.3562C171.264 60.4467 171.211 60.5452 171.104 60.6519L170.875 60.8797H171.281V60.9949H170.702Z" fill="white" fill-opacity="0.6"/>
<rect x="167.933" y="20.593" width="2.85914" height="18.227" fill="#3C3D3E" fill-opacity="0.1"/>
<rect x="167.933" y="38.8201" width="2.85914" height="19.7757" fill="#FF6B4B"/>
<rect x="195.407" y="27.6539" width="24" height="24" rx="12" fill="#7AFD3D"/>
<path d="M207.5 32.0609L213.995 43.3109H201.005L207.5 32.0609Z" fill="#12121B"/>
</svg>
