<svg width="240" height="183" viewBox="0 0 240 183" fill="none" xmlns="http://www.w3.org/2000/svg">
<rect width="240" height="182.707" rx="20.5931" fill="white"/>
<rect x="0.5" y="0.5" width="239" height="181.707" rx="20.0931" stroke="black" stroke-opacity="0.1"/>
<path d="M33.9264 28.593C33.7604 28.593 33.6044 28.627 33.4577 28.6816L31.8591 27.373C31.8984 27.2303 31.9264 27.0823 31.9264 26.9263C31.9264 26.0023 31.1837 25.2596 30.2597 25.2596C29.3357 25.2596 28.5931 26.0023 28.5931 26.9263C28.5931 27.1903 28.6597 27.4363 28.7677 27.6576L26.8284 29.9496C26.7511 29.9363 26.6737 29.9263 26.5931 29.9263C26.4737 29.9263 26.3611 29.9463 26.2517 29.9756L24.5431 28.267C24.5731 28.1583 24.5931 28.0456 24.5931 27.9263C24.5931 27.1876 23.9984 26.593 23.2597 26.593C22.5211 26.593 21.9264 27.1876 21.9264 27.9263C21.9264 28.665 22.5211 29.2596 23.2597 29.2596C23.3791 29.2596 23.4917 29.2396 23.6011 29.2103L25.3097 30.919C25.2797 31.0276 25.2597 31.1403 25.2597 31.2596C25.2597 31.9983 25.8544 32.593 26.5931 32.593C27.3317 32.593 27.9264 31.9983 27.9264 31.2596C27.9264 31.1016 27.8944 30.953 27.8444 30.8123L29.7864 28.5176C29.9377 28.5616 30.0944 28.593 30.2597 28.593C30.5337 28.593 30.7877 28.5216 31.0151 28.4056L32.6144 29.7143C32.6037 29.7836 32.5931 29.8536 32.5931 29.9263C32.5931 30.665 33.1877 31.2596 33.9264 31.2596C34.6651 31.2596 35.2597 30.665 35.2597 29.9263C35.2597 29.1876 34.6651 28.593 33.9264 28.593Z" fill="black"/>
<path d="M24.529 47.193C25.321 47.193 25.981 47.457 26.509 47.985C27.045 48.513 27.313 49.169 27.313 49.953C27.313 50.729 27.045 51.385 26.509 51.921C25.981 52.449 25.321 52.713 24.529 52.713H22.813V55.593H21.433V47.193H24.529ZM24.529 51.417C24.937 51.417 25.273 51.281 25.537 51.009C25.801 50.729 25.933 50.377 25.933 49.953C25.933 49.529 25.801 49.181 25.537 48.909C25.273 48.629 24.937 48.489 24.529 48.489H22.813V51.417H24.529ZM29.0253 53.145C29.1213 53.601 29.3413 53.953 29.6853 54.201C30.0293 54.441 30.4493 54.561 30.9453 54.561C31.6333 54.561 32.1493 54.313 32.4933 53.817L33.5613 54.441C32.9693 55.313 32.0933 55.749 30.9333 55.749C29.9573 55.749 29.1693 55.453 28.5693 54.861C27.9693 54.261 27.6693 53.505 27.6693 52.593C27.6693 51.697 27.9653 50.949 28.5573 50.349C29.1493 49.741 29.9093 49.437 30.8373 49.437C31.7173 49.437 32.4373 49.745 32.9973 50.361C33.5653 50.977 33.8493 51.725 33.8493 52.605C33.8493 52.741 33.8333 52.921 33.8013 53.145H29.0253ZM29.0133 52.089H32.5413C32.4533 51.601 32.2493 51.233 31.9293 50.985C31.6173 50.737 31.2493 50.613 30.8253 50.613C30.3453 50.613 29.9453 50.745 29.6253 51.009C29.3053 51.273 29.1013 51.633 29.0133 52.089ZM36.2857 50.601C36.6137 49.857 37.2297 49.485 38.1337 49.485V50.889C37.6377 50.857 37.2057 50.977 36.8377 51.249C36.4697 51.513 36.2857 51.953 36.2857 52.569V55.593H34.9897V49.593H36.2857V50.601ZM42.2352 48.285C41.2912 48.197 40.8192 48.593 40.8192 49.473V49.593H42.2352V50.841H40.8192V55.593H39.5232V50.841H38.6112V49.593H39.5232V49.473C39.5232 48.649 39.7512 48.025 40.2072 47.601C40.6712 47.169 41.3472 46.981 42.2352 47.037V48.285ZM45.5443 55.749C44.6643 55.749 43.9163 55.445 43.3003 54.837C42.6843 54.229 42.3763 53.481 42.3763 52.593C42.3763 51.705 42.6843 50.957 43.3003 50.349C43.9163 49.741 44.6643 49.437 45.5443 49.437C46.4323 49.437 47.1803 49.741 47.7883 50.349C48.4043 50.957 48.7123 51.705 48.7123 52.593C48.7123 53.481 48.4043 54.229 47.7883 54.837C47.1803 55.445 46.4323 55.749 45.5443 55.749ZM44.2123 53.949C44.5723 54.309 45.0163 54.489 45.5443 54.489C46.0723 54.489 46.5163 54.309 46.8763 53.949C47.2363 53.589 47.4163 53.137 47.4163 52.593C47.4163 52.049 47.2363 51.597 46.8763 51.237C46.5163 50.877 46.0723 50.697 45.5443 50.697C45.0163 50.697 44.5723 50.877 44.2123 51.237C43.8523 51.597 43.6723 52.049 43.6723 52.593C43.6723 53.137 43.8523 53.589 44.2123 53.949ZM51.1802 50.601C51.5082 49.857 52.1242 49.485 53.0282 49.485V50.889C52.5322 50.857 52.1002 50.977 51.7322 51.249C51.3642 51.513 51.1802 51.953 51.1802 52.569V55.593H49.8842V49.593H51.1802V50.601ZM60.5378 49.437C61.2178 49.437 61.7658 49.657 62.1818 50.097C62.5978 50.537 62.8058 51.129 62.8058 51.873V55.593H61.5098V51.957C61.5098 51.541 61.4058 51.221 61.1978 50.997C60.9898 50.765 60.7058 50.649 60.3458 50.649C59.9458 50.649 59.6258 50.781 59.3858 51.045C59.1538 51.309 59.0378 51.705 59.0378 52.233V55.593H57.7418V51.957C57.7418 51.541 57.6418 51.221 57.4418 50.997C57.2498 50.765 56.9738 50.649 56.6138 50.649C56.2218 50.649 55.9018 50.785 55.6538 51.057C55.4058 51.321 55.2818 51.713 55.2818 52.233V55.593H53.9858V49.593H55.2818V50.313C55.6658 49.729 56.2378 49.437 56.9978 49.437C57.7658 49.437 58.3338 49.753 58.7018 50.385C59.1018 49.753 59.7138 49.437 60.5378 49.437ZM68.9448 49.593H70.2408V55.593H68.9448V54.729C68.4568 55.409 67.7568 55.749 66.8448 55.749C66.0208 55.749 65.3168 55.445 64.7328 54.837C64.1488 54.221 63.8568 53.473 63.8568 52.593C63.8568 51.705 64.1488 50.957 64.7328 50.349C65.3168 49.741 66.0208 49.437 66.8448 49.437C67.7568 49.437 68.4568 49.773 68.9448 50.445V49.593ZM65.6928 53.973C66.0528 54.333 66.5048 54.513 67.0488 54.513C67.5928 54.513 68.0448 54.333 68.4048 53.973C68.7648 53.605 68.9448 53.145 68.9448 52.593C68.9448 52.041 68.7648 51.585 68.4048 51.225C68.0448 50.857 67.5928 50.673 67.0488 50.673C66.5048 50.673 66.0528 50.857 65.6928 51.225C65.3328 51.585 65.1528 52.041 65.1528 52.593C65.1528 53.145 65.3328 53.605 65.6928 53.973ZM74.9074 49.437C75.5954 49.437 76.1514 49.657 76.5754 50.097C76.9994 50.537 77.2114 51.141 77.2114 51.909V55.593H75.9154V52.041C75.9154 51.593 75.7954 51.249 75.5554 51.009C75.3154 50.769 74.9874 50.649 74.5714 50.649C74.1154 50.649 73.7474 50.793 73.4674 51.081C73.1874 51.361 73.0474 51.793 73.0474 52.377V55.593H71.7514V49.593H73.0474V50.361C73.4394 49.745 74.0594 49.437 74.9074 49.437ZM81.4389 55.749C80.5349 55.749 79.7789 55.445 79.1709 54.837C78.5709 54.229 78.2709 53.481 78.2709 52.593C78.2709 51.697 78.5709 50.949 79.1709 50.349C79.7789 49.741 80.5349 49.437 81.4389 49.437C82.0229 49.437 82.5549 49.577 83.0349 49.857C83.5149 50.137 83.8749 50.513 84.1149 50.985L82.9989 51.633C82.8629 51.345 82.6549 51.121 82.3749 50.961C82.1029 50.793 81.7869 50.709 81.4269 50.709C80.8989 50.709 80.4549 50.889 80.0949 51.249C79.7429 51.609 79.5669 52.057 79.5669 52.593C79.5669 53.129 79.7429 53.577 80.0949 53.937C80.4549 54.297 80.8989 54.477 81.4269 54.477C81.7789 54.477 82.0949 54.393 82.3749 54.225C82.6629 54.057 82.8789 53.833 83.0229 53.553L84.1389 54.189C83.8829 54.669 83.5149 55.049 83.0349 55.329C82.5549 55.609 82.0229 55.749 81.4389 55.749ZM86.0019 53.145C86.0979 53.601 86.3179 53.953 86.6619 54.201C87.0059 54.441 87.4259 54.561 87.9219 54.561C88.6099 54.561 89.1259 54.313 89.4699 53.817L90.5379 54.441C89.9459 55.313 89.0699 55.749 87.9099 55.749C86.9339 55.749 86.1459 55.453 85.5459 54.861C84.9459 54.261 84.6459 53.505 84.6459 52.593C84.6459 51.697 84.9419 50.949 85.5339 50.349C86.1259 49.741 86.8859 49.437 87.8139 49.437C88.6939 49.437 89.4139 49.745 89.9739 50.361C90.5419 50.977 90.8259 51.725 90.8259 52.605C90.8259 52.741 90.8099 52.921 90.7779 53.145H86.0019ZM85.9899 52.089H89.5179C89.4299 51.601 89.2259 51.233 88.9059 50.985C88.5939 50.737 88.2259 50.613 87.8019 50.613C87.3219 50.613 86.9219 50.745 86.6019 51.009C86.2819 51.273 86.0779 51.633 85.9899 52.089Z" fill="black"/>
<g clip-path="url(#clip0_82_4234)">
<path opacity="0.1" d="M24.8466 160.091C22.522 160.017 20.6869 158.071 20.8716 155.753C22.581 134.295 32.0929 114.146 47.6887 99.1682C64.2993 83.216 86.4925 74.3966 109.522 74.5963C132.551 74.7961 154.588 83.9991 170.919 100.237C186.253 115.483 195.414 135.794 196.751 157.278C196.895 159.6 195.027 161.514 192.701 161.547C190.376 161.581 188.475 159.721 188.319 157.4C187.021 138.117 178.754 119.904 164.981 106.21C150.21 91.523 130.278 83.1992 109.449 83.0185C88.6195 82.8379 68.5464 90.8147 53.5227 105.243C39.514 118.696 30.9324 136.763 29.3005 156.021C29.1041 158.338 27.1713 160.165 24.8466 160.091Z" fill="#8C8292"/>
<path d="M24.8442 160.171C22.5194 160.099 20.6825 158.155 20.8651 155.836C21.8348 143.52 25.3838 131.529 31.2995 120.647C37.8866 108.531 47.2242 98.1289 58.562 90.2771C69.8997 82.4253 82.9214 77.3427 96.5803 75.438C108.847 73.7273 121.321 74.6226 133.191 78.0465C135.426 78.6911 136.6 81.0944 135.849 83.2958C135.098 85.4971 132.708 86.6618 130.47 86.0285C119.85 83.0232 108.705 82.2511 97.7436 83.7798C85.3895 85.5026 73.6119 90.0995 63.3572 97.2013C53.1026 104.303 44.657 113.711 38.6992 124.67C33.4129 134.394 30.2161 145.098 29.2942 156.097C29.0999 158.414 27.1689 160.242 24.8442 160.171Z" fill="#B346E9"/>
<path d="M80.905 125.731H94.6509V128.82L87.0521 147.353H83.3144L90.7897 129.128H80.905V125.731ZM110.951 144.697C109.469 146.735 107.389 147.755 104.712 147.755C102.035 147.755 99.9444 146.735 98.4411 144.697C96.9584 142.658 96.2171 139.94 96.2171 136.542C96.2171 133.144 96.9584 130.426 98.4411 128.387C99.9444 126.348 102.035 125.329 104.712 125.329C107.389 125.329 109.469 126.348 110.951 128.387C112.455 130.426 113.206 133.144 113.206 136.542C113.206 139.94 112.455 142.658 110.951 144.697ZM104.712 144.295C106.318 144.295 107.543 143.626 108.388 142.287C109.232 140.949 109.654 139.034 109.654 136.542C109.654 134.05 109.232 132.135 108.388 130.796C107.543 129.458 106.318 128.789 104.712 128.789C103.126 128.789 101.901 129.458 101.036 130.796C100.192 132.135 99.7694 134.05 99.7694 136.542C99.7694 139.034 100.192 140.949 101.036 142.287C101.901 143.626 103.126 144.295 104.712 144.295ZM124.029 133.793C123.081 134.74 121.887 135.214 120.445 135.214C119.004 135.214 117.799 134.74 116.831 133.793C115.863 132.825 115.379 131.651 115.379 130.271C115.379 128.892 115.863 127.728 116.831 126.781C117.799 125.813 119.004 125.329 120.445 125.329C121.887 125.329 123.081 125.803 124.029 126.75C124.996 127.697 125.48 128.871 125.48 130.271C125.48 131.651 124.996 132.825 124.029 133.793ZM120.415 132.495C121.073 132.495 121.609 132.279 122.021 131.847C122.433 131.414 122.639 130.889 122.639 130.271C122.639 129.633 122.433 129.098 122.021 128.665C121.609 128.233 121.073 128.016 120.415 128.016C119.776 128.016 119.251 128.233 118.839 128.665C118.427 129.098 118.221 129.633 118.221 130.271C118.221 130.889 118.427 131.414 118.839 131.847C119.251 132.279 119.776 132.495 120.415 132.495ZM117.202 144.172L131.442 128.325L133.11 129.283L118.87 145.16L117.202 144.172ZM130.33 147.724C128.889 147.724 127.684 147.25 126.716 146.303C125.748 145.335 125.264 144.161 125.264 142.782C125.264 141.402 125.748 140.238 126.716 139.291C127.684 138.323 128.889 137.839 130.33 137.839C131.751 137.839 132.945 138.323 133.913 139.291C134.881 140.238 135.365 141.402 135.365 142.782C135.365 144.161 134.881 145.335 133.913 146.303C132.945 147.25 131.751 147.724 130.33 147.724ZM130.299 145.006C130.958 145.006 131.494 144.789 131.905 144.357C132.317 143.925 132.523 143.399 132.523 142.782C132.523 142.143 132.317 141.608 131.905 141.175C131.494 140.743 130.958 140.527 130.299 140.527C129.661 140.527 129.136 140.743 128.724 141.175C128.312 141.608 128.106 142.143 128.106 142.782C128.106 143.399 128.312 143.925 128.724 144.357C129.136 144.789 129.661 145.006 130.299 145.006Z" fill="black"/>
</g>
<defs>
<clipPath id="clip0_82_4234">
<rect width="176.328" height="87.5205" fill="white" transform="translate(20.593 74.593)"/>
</clipPath>
</defs>
</svg>
