<svg width="133" height="43" viewBox="0 0 133 43" fill="none" xmlns="http://www.w3.org/2000/svg">
<rect y="0.592529" width="42" height="42" rx="12" fill="#71E83A"/>
<path d="M17.9169 15.1682H27.4251C31.708 15.1682 33.8495 17.8451 33.8495 21.5926V24.2695C33.8495 29.6232 30.6373 33.3707 24.7482 33.3707H14.512L15.647 28.8201H23.6133C27.4251 28.8201 29.2989 26.411 29.2989 23.1345V22.9311C29.2989 21.0573 28.4958 19.7188 26.0867 19.7188H16.782L17.9169 15.1682Z" fill="#1B340F"/>
<path d="M23.5811 22.3743H15.3257C14.1693 22.3743 13.1628 23.1666 12.8737 24.2802L12.6061 25.3723C12.5097 25.7685 12.8095 26.154 13.2164 26.154H21.4718C22.6282 26.154 23.6346 25.3616 23.9237 24.2481L24.1914 23.1559C24.2985 22.7597 23.988 22.3743 23.5811 22.3743Z" fill="#1B340F"/>
<path d="M24.6782 26.4163H15.6902C11.6415 26.4163 9.61717 23.7281 9.61717 19.9646V17.2764C9.61717 11.9 12.6537 8.13655 18.2206 8.13655H27.8969L26.824 12.7065H19.2935C15.6902 12.7065 13.9189 15.1258 13.9189 18.4162V18.6205C13.9189 20.5022 14.678 21.8463 16.9554 21.8463H25.7511L24.6782 26.4163Z" fill="#1B340F"/>
<mask id="path-5-outside-1_82_4390" maskUnits="userSpaceOnUse" x="54.3365" y="16.5925" width="76" height="12" fill="black">
<rect fill="white" x="54.3365" y="16.5925" width="76" height="12"/>
<path d="M55.0824 25.0985C55.0824 24.9927 55.1202 24.902 55.1957 24.8264C55.2713 24.7508 55.362 24.713 55.4678 24.713H56.216C56.4276 24.713 56.5486 24.8189 56.5788 25.0305C56.6544 25.3479 56.8131 25.62 57.0549 25.8467C57.2968 26.0583 57.584 26.1641 57.9165 26.1641H61.8163C62.1942 26.1641 62.5116 26.0281 62.7686 25.756C63.0255 25.4688 63.154 25.1363 63.154 24.7584C63.154 24.3805 63.0255 24.0555 62.7686 23.7834C62.5116 23.5114 62.1942 23.3753 61.8163 23.3753H58.0752C57.6973 23.3753 57.3421 23.3073 57.0096 23.1713C56.6922 23.0352 56.405 22.8463 56.148 22.6044C55.9062 22.3626 55.7097 22.083 55.5585 21.7655C55.4225 21.433 55.3545 21.0778 55.3545 20.6999C55.3545 20.322 55.4225 19.9744 55.5585 19.6569C55.7097 19.3244 55.9062 19.0372 56.148 18.7954C56.405 18.5384 56.6922 18.3419 57.0096 18.2059C57.3421 18.0547 57.6973 17.9791 58.0752 17.9791H61.7709C62.1035 17.9791 62.4209 18.0396 62.7232 18.1605C63.0406 18.2814 63.3127 18.4477 63.5394 18.6593C63.7813 18.8709 63.9778 19.1203 64.1289 19.4075C64.2952 19.6947 64.401 20.0046 64.4464 20.3371C64.4464 20.5941 64.3179 20.7226 64.0609 20.7226H63.3354C63.1087 20.7226 62.9802 20.6168 62.9499 20.4052C62.8895 20.118 62.7459 19.8837 62.5192 19.7023C62.2924 19.5058 62.0279 19.4075 61.7256 19.4075H58.0526C57.7049 19.4075 57.4101 19.536 57.1683 19.793C56.9265 20.0348 56.8055 20.3296 56.8055 20.6772C56.8055 21.0249 56.9265 21.3272 57.1683 21.5842C57.4101 21.8411 57.7049 21.9696 58.0526 21.9696H61.7936C62.1866 21.9696 62.5569 22.0452 62.9046 22.1963C63.2523 22.3324 63.5546 22.5289 63.8115 22.7858C64.0685 23.0277 64.2725 23.3224 64.4237 23.6701C64.5749 24.0026 64.6504 24.3654 64.6504 24.7584C64.6504 25.1514 64.5749 25.5217 64.4237 25.8694C64.2725 26.2019 64.0685 26.4967 63.8115 26.7536C63.5546 27.0106 63.2523 27.2146 62.9046 27.3658C62.5569 27.517 62.1866 27.5925 61.7936 27.5925H57.8938C57.5311 27.5925 57.1834 27.5321 56.8509 27.4111C56.5335 27.2751 56.2463 27.0937 55.9893 26.867C55.7475 26.6403 55.5434 26.3757 55.3771 26.0734C55.2109 25.7711 55.1126 25.4461 55.0824 25.0985ZM70.3695 18.3646C70.4149 18.2588 70.4905 18.1681 70.5963 18.0925C70.7172 18.0169 70.8306 17.9791 70.9364 17.9791H71.7526C71.8584 17.9791 71.9642 18.0169 72.07 18.0925C72.1909 18.1681 72.2816 18.2588 72.3421 18.3646L77.0354 27.2071C77.0657 27.2978 77.0808 27.3582 77.0808 27.3885C77.0808 27.5245 77.0052 27.5925 76.8541 27.5925H75.8111C75.6448 27.5925 75.5088 27.5018 75.403 27.3205L74.3373 25.3252H69.9161C69.7649 25.3252 69.6893 25.2572 69.6893 25.1212C69.6893 25.0909 69.7045 25.0305 69.7347 24.9398L70.0975 24.2369C70.2033 24.0555 70.3393 23.9648 70.5056 23.9648H73.6118L71.3218 19.4982L67.3313 27.3205C67.3011 27.396 67.2407 27.464 67.15 27.5245C67.0744 27.5699 66.9988 27.5925 66.9232 27.5925H65.9483C65.7971 27.5925 65.7216 27.5245 65.7216 27.3885C65.7216 27.3582 65.7367 27.2978 65.7669 27.2071L70.3695 18.3646ZM81.8735 18.3646C81.9188 18.2588 81.9944 18.1681 82.1002 18.0925C82.2211 18.0169 82.3345 17.9791 82.4403 17.9791H83.2565C83.3624 17.9791 83.4682 18.0169 83.574 18.0925C83.6949 18.1681 83.7856 18.2588 83.846 18.3646L88.5394 27.2071C88.5696 27.2978 88.5847 27.3582 88.5847 27.3885C88.5847 27.5245 88.5092 27.5925 88.358 27.5925H87.315C87.1488 27.5925 87.0127 27.5018 86.9069 27.3205L85.8413 25.3252H81.42C81.2689 25.3252 81.1933 25.2572 81.1933 25.1212C81.1933 25.0909 81.2084 25.0305 81.2386 24.9398L81.6014 24.2369C81.7072 24.0555 81.8433 23.9648 82.0095 23.9648H85.1157L82.8258 19.4982L78.8353 27.3205C78.8051 27.396 78.7446 27.464 78.6539 27.5245C78.5783 27.5699 78.5028 27.5925 78.4272 27.5925H77.4522C77.3011 27.5925 77.2255 27.5245 77.2255 27.3885C77.2255 27.3582 77.2406 27.2978 77.2708 27.2071L81.8735 18.3646ZM89.7271 25.0985C89.7271 24.9927 89.7648 24.902 89.8404 24.8264C89.916 24.7508 90.0067 24.713 90.1125 24.713H90.8607C91.0723 24.713 91.1933 24.8189 91.2235 25.0305C91.2991 25.3479 91.4578 25.62 91.6996 25.8467C91.9415 26.0583 92.2287 26.1641 92.5612 26.1641H96.461C96.8389 26.1641 97.1563 26.0281 97.4132 25.756C97.6702 25.4688 97.7987 25.1363 97.7987 24.7584C97.7987 24.3805 97.6702 24.0555 97.4132 23.7834C97.1563 23.5114 96.8389 23.3753 96.461 23.3753H92.7199C92.342 23.3753 91.9868 23.3073 91.6543 23.1713C91.3369 23.0352 91.0497 22.8463 90.7927 22.6044C90.5509 22.3626 90.3544 22.083 90.2032 21.7655C90.0672 21.433 89.9991 21.0778 89.9991 20.6999C89.9991 20.322 90.0672 19.9744 90.2032 19.6569C90.3544 19.3244 90.5509 19.0372 90.7927 18.7954C91.0497 18.5384 91.3369 18.3419 91.6543 18.2059C91.9868 18.0547 92.342 17.9791 92.7199 17.9791H96.4156C96.7482 17.9791 97.0656 18.0396 97.3679 18.1605C97.6853 18.2814 97.9574 18.4477 98.1841 18.6593C98.426 18.8709 98.6225 19.1203 98.7736 19.4075C98.9399 19.6947 99.0457 20.0046 99.0911 20.3371C99.0911 20.5941 98.9626 20.7226 98.7056 20.7226H97.9801C97.7533 20.7226 97.6249 20.6168 97.5946 20.4052C97.5342 20.118 97.3906 19.8837 97.1638 19.7023C96.9371 19.5058 96.6726 19.4075 96.3703 19.4075H92.6972C92.3496 19.4075 92.0548 19.536 91.813 19.793C91.5711 20.0348 91.4502 20.3296 91.4502 20.6772C91.4502 21.0249 91.5711 21.3272 91.813 21.5842C92.0548 21.8411 92.3496 21.9696 92.6972 21.9696H96.4383C96.8313 21.9696 97.2016 22.0452 97.5493 22.1963C97.8969 22.3324 98.1992 22.5289 98.4562 22.7858C98.7132 23.0277 98.9172 23.3224 99.0684 23.6701C99.2195 24.0026 99.2951 24.3654 99.2951 24.7584C99.2951 25.1514 99.2195 25.5217 99.0684 25.8694C98.9172 26.2019 98.7132 26.4967 98.4562 26.7536C98.1992 27.0106 97.8969 27.2146 97.5493 27.3658C97.2016 27.517 96.8313 27.5925 96.4383 27.5925H92.5385C92.1758 27.5925 91.8281 27.5321 91.4956 27.4111C91.1781 27.2751 90.8909 27.0937 90.634 26.867C90.3921 26.6403 90.1881 26.3757 90.0218 26.0734C89.8555 25.7711 89.7573 25.4461 89.7271 25.0985ZM107.71 19.4075C107.71 19.2413 107.748 19.075 107.824 18.9087C107.914 18.7273 108.028 18.5686 108.164 18.4326C108.3 18.2966 108.451 18.1907 108.617 18.1152C108.799 18.0245 108.973 17.9791 109.139 17.9791H116.508C116.689 17.9791 116.863 18.0245 117.029 18.1152C117.195 18.1907 117.346 18.2966 117.482 18.4326C117.619 18.5686 117.724 18.7273 117.8 18.9087C117.891 19.075 117.936 19.2413 117.936 19.4075V26.1641C117.936 26.3304 117.891 26.5042 117.8 26.6856C117.724 26.8519 117.619 27.003 117.482 27.1391C117.346 27.2751 117.195 27.3885 117.029 27.4792C116.863 27.5547 116.689 27.5925 116.508 27.5925H109.139C108.973 27.5925 108.799 27.5547 108.617 27.4792C108.451 27.3885 108.3 27.2751 108.164 27.1391C108.028 27.003 107.914 26.8519 107.824 26.6856C107.748 26.5042 107.71 26.3304 107.71 26.1641V19.4075ZM109.275 26.1641H116.372V19.4075H109.275V26.1641ZM120.143 25.0985C120.143 24.9927 120.18 24.902 120.256 24.8264C120.332 24.7508 120.422 24.713 120.528 24.713H121.276C121.488 24.713 121.609 24.8189 121.639 25.0305C121.715 25.3479 121.873 25.62 122.115 25.8467C122.357 26.0583 122.644 26.1641 122.977 26.1641H126.877C127.254 26.1641 127.572 26.0281 127.829 25.756C128.086 25.4688 128.214 25.1363 128.214 24.7584C128.214 24.3805 128.086 24.0555 127.829 23.7834C127.572 23.5114 127.254 23.3753 126.877 23.3753H123.136C122.758 23.3753 122.402 23.3073 122.07 23.1713C121.752 23.0352 121.465 22.8463 121.208 22.6044C120.966 22.3626 120.77 22.083 120.619 21.7655C120.483 21.433 120.415 21.0778 120.415 20.6999C120.415 20.322 120.483 19.9744 120.619 19.6569C120.77 19.3244 120.966 19.0372 121.208 18.7954C121.465 18.5384 121.752 18.3419 122.07 18.2059C122.402 18.0547 122.758 17.9791 123.136 17.9791H126.831C127.164 17.9791 127.481 18.0396 127.784 18.1605C128.101 18.2814 128.373 18.4477 128.6 18.6593C128.842 18.8709 129.038 19.1203 129.189 19.4075C129.356 19.6947 129.461 20.0046 129.507 20.3371C129.507 20.5941 129.378 20.7226 129.121 20.7226H128.396C128.169 20.7226 128.04 20.6168 128.01 20.4052C127.95 20.118 127.806 19.8837 127.579 19.7023C127.353 19.5058 127.088 19.4075 126.786 19.4075H123.113C122.765 19.4075 122.47 19.536 122.229 19.793C121.987 20.0348 121.866 20.3296 121.866 20.6772C121.866 21.0249 121.987 21.3272 122.229 21.5842C122.47 21.8411 122.765 21.9696 123.113 21.9696H126.854C127.247 21.9696 127.617 22.0452 127.965 22.1963C128.313 22.3324 128.615 22.5289 128.872 22.7858C129.129 23.0277 129.333 23.3224 129.484 23.6701C129.635 24.0026 129.711 24.3654 129.711 24.7584C129.711 25.1514 129.635 25.5217 129.484 25.8694C129.333 26.2019 129.129 26.4967 128.872 26.7536C128.615 27.0106 128.313 27.2146 127.965 27.3658C127.617 27.517 127.247 27.5925 126.854 27.5925H122.954C122.591 27.5925 122.244 27.5321 121.911 27.4111C121.594 27.2751 121.307 27.0937 121.05 26.867C120.808 26.6403 120.604 26.3757 120.437 26.0734C120.271 25.7711 120.173 25.4461 120.143 25.0985Z"/>
</mask>
<path d="M55.0824 25.0985C55.0824 24.9927 55.1202 24.902 55.1957 24.8264C55.2713 24.7508 55.362 24.713 55.4678 24.713H56.216C56.4276 24.713 56.5486 24.8189 56.5788 25.0305C56.6544 25.3479 56.8131 25.62 57.0549 25.8467C57.2968 26.0583 57.584 26.1641 57.9165 26.1641H61.8163C62.1942 26.1641 62.5116 26.0281 62.7686 25.756C63.0255 25.4688 63.154 25.1363 63.154 24.7584C63.154 24.3805 63.0255 24.0555 62.7686 23.7834C62.5116 23.5114 62.1942 23.3753 61.8163 23.3753H58.0752C57.6973 23.3753 57.3421 23.3073 57.0096 23.1713C56.6922 23.0352 56.405 22.8463 56.148 22.6044C55.9062 22.3626 55.7097 22.083 55.5585 21.7655C55.4225 21.433 55.3545 21.0778 55.3545 20.6999C55.3545 20.322 55.4225 19.9744 55.5585 19.6569C55.7097 19.3244 55.9062 19.0372 56.148 18.7954C56.405 18.5384 56.6922 18.3419 57.0096 18.2059C57.3421 18.0547 57.6973 17.9791 58.0752 17.9791H61.7709C62.1035 17.9791 62.4209 18.0396 62.7232 18.1605C63.0406 18.2814 63.3127 18.4477 63.5394 18.6593C63.7813 18.8709 63.9778 19.1203 64.1289 19.4075C64.2952 19.6947 64.401 20.0046 64.4464 20.3371C64.4464 20.5941 64.3179 20.7226 64.0609 20.7226H63.3354C63.1087 20.7226 62.9802 20.6168 62.9499 20.4052C62.8895 20.118 62.7459 19.8837 62.5192 19.7023C62.2924 19.5058 62.0279 19.4075 61.7256 19.4075H58.0526C57.7049 19.4075 57.4101 19.536 57.1683 19.793C56.9265 20.0348 56.8055 20.3296 56.8055 20.6772C56.8055 21.0249 56.9265 21.3272 57.1683 21.5842C57.4101 21.8411 57.7049 21.9696 58.0526 21.9696H61.7936C62.1866 21.9696 62.5569 22.0452 62.9046 22.1963C63.2523 22.3324 63.5546 22.5289 63.8115 22.7858C64.0685 23.0277 64.2725 23.3224 64.4237 23.6701C64.5749 24.0026 64.6504 24.3654 64.6504 24.7584C64.6504 25.1514 64.5749 25.5217 64.4237 25.8694C64.2725 26.2019 64.0685 26.4967 63.8115 26.7536C63.5546 27.0106 63.2523 27.2146 62.9046 27.3658C62.5569 27.517 62.1866 27.5925 61.7936 27.5925H57.8938C57.5311 27.5925 57.1834 27.5321 56.8509 27.4111C56.5335 27.2751 56.2463 27.0937 55.9893 26.867C55.7475 26.6403 55.5434 26.3757 55.3771 26.0734C55.2109 25.7711 55.1126 25.4461 55.0824 25.0985ZM70.3695 18.3646C70.4149 18.2588 70.4905 18.1681 70.5963 18.0925C70.7172 18.0169 70.8306 17.9791 70.9364 17.9791H71.7526C71.8584 17.9791 71.9642 18.0169 72.07 18.0925C72.1909 18.1681 72.2816 18.2588 72.3421 18.3646L77.0354 27.2071C77.0657 27.2978 77.0808 27.3582 77.0808 27.3885C77.0808 27.5245 77.0052 27.5925 76.8541 27.5925H75.8111C75.6448 27.5925 75.5088 27.5018 75.403 27.3205L74.3373 25.3252H69.9161C69.7649 25.3252 69.6893 25.2572 69.6893 25.1212C69.6893 25.0909 69.7045 25.0305 69.7347 24.9398L70.0975 24.2369C70.2033 24.0555 70.3393 23.9648 70.5056 23.9648H73.6118L71.3218 19.4982L67.3313 27.3205C67.3011 27.396 67.2407 27.464 67.15 27.5245C67.0744 27.5699 66.9988 27.5925 66.9232 27.5925H65.9483C65.7971 27.5925 65.7216 27.5245 65.7216 27.3885C65.7216 27.3582 65.7367 27.2978 65.7669 27.2071L70.3695 18.3646ZM81.8735 18.3646C81.9188 18.2588 81.9944 18.1681 82.1002 18.0925C82.2211 18.0169 82.3345 17.9791 82.4403 17.9791H83.2565C83.3624 17.9791 83.4682 18.0169 83.574 18.0925C83.6949 18.1681 83.7856 18.2588 83.846 18.3646L88.5394 27.2071C88.5696 27.2978 88.5847 27.3582 88.5847 27.3885C88.5847 27.5245 88.5092 27.5925 88.358 27.5925H87.315C87.1488 27.5925 87.0127 27.5018 86.9069 27.3205L85.8413 25.3252H81.42C81.2689 25.3252 81.1933 25.2572 81.1933 25.1212C81.1933 25.0909 81.2084 25.0305 81.2386 24.9398L81.6014 24.2369C81.7072 24.0555 81.8433 23.9648 82.0095 23.9648H85.1157L82.8258 19.4982L78.8353 27.3205C78.8051 27.396 78.7446 27.464 78.6539 27.5245C78.5783 27.5699 78.5028 27.5925 78.4272 27.5925H77.4522C77.3011 27.5925 77.2255 27.5245 77.2255 27.3885C77.2255 27.3582 77.2406 27.2978 77.2708 27.2071L81.8735 18.3646ZM89.7271 25.0985C89.7271 24.9927 89.7648 24.902 89.8404 24.8264C89.916 24.7508 90.0067 24.713 90.1125 24.713H90.8607C91.0723 24.713 91.1933 24.8189 91.2235 25.0305C91.2991 25.3479 91.4578 25.62 91.6996 25.8467C91.9415 26.0583 92.2287 26.1641 92.5612 26.1641H96.461C96.8389 26.1641 97.1563 26.0281 97.4132 25.756C97.6702 25.4688 97.7987 25.1363 97.7987 24.7584C97.7987 24.3805 97.6702 24.0555 97.4132 23.7834C97.1563 23.5114 96.8389 23.3753 96.461 23.3753H92.7199C92.342 23.3753 91.9868 23.3073 91.6543 23.1713C91.3369 23.0352 91.0497 22.8463 90.7927 22.6044C90.5509 22.3626 90.3544 22.083 90.2032 21.7655C90.0672 21.433 89.9991 21.0778 89.9991 20.6999C89.9991 20.322 90.0672 19.9744 90.2032 19.6569C90.3544 19.3244 90.5509 19.0372 90.7927 18.7954C91.0497 18.5384 91.3369 18.3419 91.6543 18.2059C91.9868 18.0547 92.342 17.9791 92.7199 17.9791H96.4156C96.7482 17.9791 97.0656 18.0396 97.3679 18.1605C97.6853 18.2814 97.9574 18.4477 98.1841 18.6593C98.426 18.8709 98.6225 19.1203 98.7736 19.4075C98.9399 19.6947 99.0457 20.0046 99.0911 20.3371C99.0911 20.5941 98.9626 20.7226 98.7056 20.7226H97.9801C97.7533 20.7226 97.6249 20.6168 97.5946 20.4052C97.5342 20.118 97.3906 19.8837 97.1638 19.7023C96.9371 19.5058 96.6726 19.4075 96.3703 19.4075H92.6972C92.3496 19.4075 92.0548 19.536 91.813 19.793C91.5711 20.0348 91.4502 20.3296 91.4502 20.6772C91.4502 21.0249 91.5711 21.3272 91.813 21.5842C92.0548 21.8411 92.3496 21.9696 92.6972 21.9696H96.4383C96.8313 21.9696 97.2016 22.0452 97.5493 22.1963C97.8969 22.3324 98.1992 22.5289 98.4562 22.7858C98.7132 23.0277 98.9172 23.3224 99.0684 23.6701C99.2195 24.0026 99.2951 24.3654 99.2951 24.7584C99.2951 25.1514 99.2195 25.5217 99.0684 25.8694C98.9172 26.2019 98.7132 26.4967 98.4562 26.7536C98.1992 27.0106 97.8969 27.2146 97.5493 27.3658C97.2016 27.517 96.8313 27.5925 96.4383 27.5925H92.5385C92.1758 27.5925 91.8281 27.5321 91.4956 27.4111C91.1781 27.2751 90.8909 27.0937 90.634 26.867C90.3921 26.6403 90.1881 26.3757 90.0218 26.0734C89.8555 25.7711 89.7573 25.4461 89.7271 25.0985ZM107.71 19.4075C107.71 19.2413 107.748 19.075 107.824 18.9087C107.914 18.7273 108.028 18.5686 108.164 18.4326C108.3 18.2966 108.451 18.1907 108.617 18.1152C108.799 18.0245 108.973 17.9791 109.139 17.9791H116.508C116.689 17.9791 116.863 18.0245 117.029 18.1152C117.195 18.1907 117.346 18.2966 117.482 18.4326C117.619 18.5686 117.724 18.7273 117.8 18.9087C117.891 19.075 117.936 19.2413 117.936 19.4075V26.1641C117.936 26.3304 117.891 26.5042 117.8 26.6856C117.724 26.8519 117.619 27.003 117.482 27.1391C117.346 27.2751 117.195 27.3885 117.029 27.4792C116.863 27.5547 116.689 27.5925 116.508 27.5925H109.139C108.973 27.5925 108.799 27.5547 108.617 27.4792C108.451 27.3885 108.3 27.2751 108.164 27.1391C108.028 27.003 107.914 26.8519 107.824 26.6856C107.748 26.5042 107.71 26.3304 107.71 26.1641V19.4075ZM109.275 26.1641H116.372V19.4075H109.275V26.1641ZM120.143 25.0985C120.143 24.9927 120.18 24.902 120.256 24.8264C120.332 24.7508 120.422 24.713 120.528 24.713H121.276C121.488 24.713 121.609 24.8189 121.639 25.0305C121.715 25.3479 121.873 25.62 122.115 25.8467C122.357 26.0583 122.644 26.1641 122.977 26.1641H126.877C127.254 26.1641 127.572 26.0281 127.829 25.756C128.086 25.4688 128.214 25.1363 128.214 24.7584C128.214 24.3805 128.086 24.0555 127.829 23.7834C127.572 23.5114 127.254 23.3753 126.877 23.3753H123.136C122.758 23.3753 122.402 23.3073 122.07 23.1713C121.752 23.0352 121.465 22.8463 121.208 22.6044C120.966 22.3626 120.77 22.083 120.619 21.7655C120.483 21.433 120.415 21.0778 120.415 20.6999C120.415 20.322 120.483 19.9744 120.619 19.6569C120.77 19.3244 120.966 19.0372 121.208 18.7954C121.465 18.5384 121.752 18.3419 122.07 18.2059C122.402 18.0547 122.758 17.9791 123.136 17.9791H126.831C127.164 17.9791 127.481 18.0396 127.784 18.1605C128.101 18.2814 128.373 18.4477 128.6 18.6593C128.842 18.8709 129.038 19.1203 129.189 19.4075C129.356 19.6947 129.461 20.0046 129.507 20.3371C129.507 20.5941 129.378 20.7226 129.121 20.7226H128.396C128.169 20.7226 128.04 20.6168 128.01 20.4052C127.95 20.118 127.806 19.8837 127.579 19.7023C127.353 19.5058 127.088 19.4075 126.786 19.4075H123.113C122.765 19.4075 122.47 19.536 122.229 19.793C121.987 20.0348 121.866 20.3296 121.866 20.6772C121.866 21.0249 121.987 21.3272 122.229 21.5842C122.47 21.8411 122.765 21.9696 123.113 21.9696H126.854C127.247 21.9696 127.617 22.0452 127.965 22.1963C128.313 22.3324 128.615 22.5289 128.872 22.7858C129.129 23.0277 129.333 23.3224 129.484 23.6701C129.635 24.0026 129.711 24.3654 129.711 24.7584C129.711 25.1514 129.635 25.5217 129.484 25.8694C129.333 26.2019 129.129 26.4967 128.872 26.7536C128.615 27.0106 128.313 27.2146 127.965 27.3658C127.617 27.517 127.247 27.5925 126.854 27.5925H122.954C122.591 27.5925 122.244 27.5321 121.911 27.4111C121.594 27.2751 121.307 27.0937 121.05 26.867C120.808 26.6403 120.604 26.3757 120.437 26.0734C120.271 25.7711 120.173 25.4461 120.143 25.0985Z" fill="black"/>
<path d="M55.0824 25.0985H54.5824V25.1202L54.5843 25.1418L55.0824 25.0985ZM55.1957 24.8264L54.8422 24.4729H54.8422L55.1957 24.8264ZM56.5788 25.0305L56.0838 25.1012L56.0871 25.1239L56.0924 25.1463L56.5788 25.0305ZM57.0549 25.8467L56.713 26.2115L56.7192 26.2173L56.7257 26.223L57.0549 25.8467ZM62.7686 25.756L63.1322 26.0994L63.1412 26.0894L62.7686 25.756ZM62.7686 23.7834L62.4051 24.1268L62.7686 23.7834ZM57.0096 23.1713L56.8126 23.6309L56.8203 23.634L57.0096 23.1713ZM56.148 22.6044L55.7945 22.958L55.7998 22.9634L55.8053 22.9685L56.148 22.6044ZM55.5585 21.7655L55.0957 21.9549L55.1011 21.9678L55.1071 21.9805L55.5585 21.7655ZM55.5585 19.6569L55.1032 19.45L55.0989 19.46L55.5585 19.6569ZM56.148 18.7954L56.5016 19.1489L56.5016 19.1489L56.148 18.7954ZM57.0096 18.2059L57.2066 18.6655L57.2165 18.661L57.0096 18.2059ZM62.7232 18.1605L62.5375 18.6248L62.5452 18.6278L62.7232 18.1605ZM63.5394 18.6593L63.1983 19.0249L63.2042 19.0303L63.2102 19.0356L63.5394 18.6593ZM64.1289 19.4075L63.6865 19.6404L63.6912 19.6493L63.6962 19.6581L64.1289 19.4075ZM64.4464 20.3371H64.9464V20.3032L64.9418 20.2696L64.4464 20.3371ZM62.9499 20.4052L63.4449 20.3344L63.4426 20.3182L63.4392 20.3021L62.9499 20.4052ZM62.5192 19.7023L62.1917 20.0801L62.1991 20.0866L62.2068 20.0927L62.5192 19.7023ZM57.1683 19.793L57.5219 20.1465L57.5272 20.1412L57.5324 20.1357L57.1683 19.793ZM57.1683 21.5842L57.5324 21.2415H57.5324L57.1683 21.5842ZM62.9046 22.1963L62.7052 22.6549L62.7138 22.6586L62.7224 22.662L62.9046 22.1963ZM63.8115 22.7858L63.458 23.1394L63.4633 23.1447L63.4688 23.1499L63.8115 22.7858ZM64.4237 23.6701L63.9651 23.8695L63.9685 23.877L64.4237 23.6701ZM64.4237 25.8694L64.8789 26.0763L64.8822 26.0687L64.4237 25.8694ZM63.8115 26.7536L63.458 26.4001L63.8115 26.7536ZM62.9046 27.3658L62.7052 26.9073L62.9046 27.3658ZM56.8509 27.4111L56.6539 27.8707L56.6668 27.8762L56.68 27.881L56.8509 27.4111ZM55.9893 26.867L55.6473 27.2318L55.6528 27.2369L55.6585 27.2419L55.9893 26.867ZM55.3771 26.0734L54.939 26.3144H54.939L55.3771 26.0734ZM55.5824 25.0985C55.5824 25.1065 55.5807 25.1233 55.5723 25.1434C55.5639 25.1635 55.5536 25.1757 55.5493 25.18L54.8422 24.4729C54.6739 24.6411 54.5824 24.8586 54.5824 25.0985H55.5824ZM55.5493 25.18C55.545 25.1843 55.5328 25.1946 55.5128 25.2029C55.4926 25.2113 55.4758 25.213 55.4678 25.213V24.213C55.2279 24.213 55.0105 24.3046 54.8422 24.4729L55.5493 25.18ZM55.4678 25.213H56.216V24.213H55.4678V25.213ZM56.216 25.213C56.2398 25.213 56.1925 25.218 56.1362 25.1687C56.0805 25.12 56.08 25.0742 56.0838 25.1012L57.0738 24.9598C57.0474 24.7751 56.9713 24.5706 56.7947 24.4161C56.6174 24.261 56.4039 24.213 56.216 24.213V25.213ZM56.0924 25.1463C56.1911 25.5607 56.4008 25.9188 56.713 26.2115L57.3969 25.4819C57.2254 25.3211 57.1177 25.1351 57.0652 24.9147L56.0924 25.1463ZM56.7257 26.223C57.0621 26.5173 57.4675 26.6641 57.9165 26.6641V25.6641C57.7005 25.6641 57.5315 25.5993 57.3842 25.4704L56.7257 26.223ZM57.9165 26.6641H61.8163V25.6641H57.9165V26.6641ZM61.8163 26.6641C62.3302 26.6641 62.7796 26.4725 63.1321 26.0993L62.4051 25.4127C62.2436 25.5837 62.0581 25.6641 61.8163 25.6641V26.6641ZM63.1412 26.0894C63.4784 25.7125 63.654 25.262 63.654 24.7584H62.654C62.654 25.0106 62.5727 25.2251 62.3959 25.4226L63.1412 26.0894ZM63.654 24.7584C63.654 24.2542 63.4776 23.806 63.1321 23.4401L62.4051 24.1268C62.5734 24.305 62.654 24.5068 62.654 24.7584H63.654ZM63.1321 23.4401C62.7796 23.0669 62.3302 22.8753 61.8163 22.8753V23.8753C62.0581 23.8753 62.2436 23.9558 62.4051 24.1268L63.1321 23.4401ZM61.8163 22.8753H58.0752V23.8753H61.8163V22.8753ZM58.0752 22.8753C57.7589 22.8753 57.4683 22.8187 57.1989 22.7085L56.8203 23.634C57.216 23.7959 57.6358 23.8753 58.0752 23.8753V22.8753ZM57.2066 22.7117C56.9441 22.5992 56.706 22.443 56.4907 22.2403L55.8053 22.9685C56.104 23.2496 56.4402 23.4712 56.8126 23.6308L57.2066 22.7117ZM56.5016 22.2509C56.3011 22.0505 56.1373 21.818 56.0099 21.5506L55.1071 21.9805C55.282 22.3479 55.5112 22.6747 55.7945 22.958L56.5016 22.2509ZM56.0213 21.5762C55.9111 21.3069 55.8545 21.0163 55.8545 20.6999H54.8545C54.8545 21.1393 54.9339 21.5591 55.0957 21.9549L56.0213 21.5762ZM55.8545 20.6999C55.8545 20.3833 55.9111 20.1034 56.0181 19.8539L55.0989 19.46C54.9338 19.8453 54.8545 20.2607 54.8545 20.6999H55.8545ZM56.0137 19.8638C56.1417 19.5821 56.3049 19.3456 56.5016 19.1489L55.7945 18.4418C55.5074 18.7289 55.2776 19.0667 55.1033 19.45L56.0137 19.8638ZM56.5016 19.1489C56.7159 18.9345 56.9506 18.7751 57.2066 18.6654L56.8126 17.7463C56.4337 17.9087 56.094 18.1423 55.7945 18.4418L56.5016 19.1489ZM57.2165 18.661C57.4818 18.5405 57.7662 18.4791 58.0752 18.4791V17.4791C57.6285 17.4791 57.2025 17.569 56.8027 17.7507L57.2165 18.661ZM58.0752 18.4791H61.7709V17.4791H58.0752V18.4791ZM61.7709 18.4791C62.0413 18.4791 62.2955 18.528 62.5375 18.6248L62.9089 17.6963C62.5463 17.5512 62.1657 17.4791 61.7709 17.4791V18.4791ZM62.5452 18.6278C62.808 18.7279 63.0232 18.8614 63.1983 19.0249L63.8806 18.2938C63.6023 18.034 63.2733 17.835 62.9012 17.6933L62.5452 18.6278ZM63.2102 19.0356C63.4054 19.2064 63.5637 19.407 63.6865 19.6404L64.5714 19.1747C64.3919 18.8337 64.1572 18.5355 63.8687 18.283L63.2102 19.0356ZM63.6962 19.6581C63.8295 19.8883 63.9143 20.1359 63.951 20.4047L64.9418 20.2696C64.8877 19.8733 64.7609 19.5012 64.5617 19.157L63.6962 19.6581ZM63.9464 20.3371C63.9464 20.3885 63.9339 20.3353 63.9965 20.2727C64.0591 20.2101 64.1123 20.2226 64.0609 20.2226V21.2226C64.2665 21.2226 64.5125 21.1709 64.7036 20.9798C64.8946 20.7887 64.9464 20.5427 64.9464 20.3371H63.9464ZM64.0609 20.2226H63.3354V21.2226H64.0609V20.2226ZM63.3354 20.2226C63.2961 20.2226 63.3338 20.2136 63.3868 20.2573C63.4122 20.2782 63.4289 20.3017 63.4383 20.3204C63.4468 20.3375 63.4464 20.3447 63.4449 20.3344L62.455 20.4759C62.4826 20.6689 62.5656 20.8764 62.7511 21.0292C62.9326 21.1787 63.1479 21.2226 63.3354 21.2226V20.2226ZM63.4392 20.3021C63.3552 19.9029 63.1498 19.5665 62.8315 19.3119L62.2068 20.0927C62.342 20.2009 62.4238 20.3331 62.4607 20.5082L63.4392 20.3021ZM62.8466 19.3244C62.5282 19.0485 62.1472 18.9075 61.7256 18.9075V19.9075C61.9086 19.9075 62.0566 19.9631 62.1917 20.0801L62.8466 19.3244ZM61.7256 18.9075H58.0526V19.9075H61.7256V18.9075ZM58.0526 18.9075C57.5647 18.9075 57.1389 19.0947 56.8042 19.4503L57.5324 20.1357C57.6814 19.9774 57.8451 19.9075 58.0526 19.9075V18.9075ZM56.8147 19.4394C56.4774 19.7768 56.3055 20.1994 56.3055 20.6772H57.3055C57.3055 20.4597 57.3755 20.2929 57.5219 20.1465L56.8147 19.4394ZM56.3055 20.6772C56.3055 21.1544 56.4765 21.5787 56.8042 21.9268L57.5324 21.2415C57.3764 21.0757 57.3055 20.8954 57.3055 20.6772H56.3055ZM56.8042 21.9268C57.1389 22.2825 57.5647 22.4696 58.0526 22.4696V21.4696C57.8451 21.4696 57.6814 21.3998 57.5324 21.2415L56.8042 21.9268ZM58.0526 22.4696H61.7936V21.4696H58.0526V22.4696ZM61.7936 22.4696C62.1206 22.4696 62.4228 22.5321 62.7052 22.6549L63.104 21.7378C62.6911 21.5583 62.2526 21.4696 61.7936 21.4696V22.4696ZM62.7224 22.662C63.0076 22.7736 63.2511 22.9325 63.458 23.1394L64.1651 22.4323C63.858 22.1252 63.4969 21.8912 63.0868 21.7307L62.7224 22.662ZM63.4688 23.1499C63.6728 23.3419 63.839 23.5793 63.9652 23.8694L64.8822 23.4707C64.7061 23.0655 64.4641 22.7134 64.1542 22.4217L63.4688 23.1499ZM63.9685 23.877C64.0879 24.1397 64.1504 24.4313 64.1504 24.7584H65.1504C65.1504 24.2995 65.0618 23.8655 64.8789 23.4632L63.9685 23.877ZM64.1504 24.7584C64.1504 25.0854 64.088 25.3876 63.9652 25.67L64.8822 26.0687C65.0617 25.6559 65.1504 25.2174 65.1504 24.7584H64.1504ZM63.9685 25.6625C63.842 25.9407 63.6723 26.1857 63.458 26.4001L64.1651 27.1072C64.4647 26.8076 64.703 26.4631 64.8789 26.0763L63.9685 25.6625ZM63.458 26.4001C63.2473 26.6108 62.9979 26.78 62.7052 26.9073L63.104 27.8243C63.5066 27.6493 63.8619 27.4104 64.1651 27.1072L63.458 26.4001ZM62.7052 26.9073C62.4228 27.0301 62.1206 27.0925 61.7936 27.0925V28.0925C62.2526 28.0925 62.6911 28.0038 63.104 27.8243L62.7052 26.9073ZM61.7936 27.0925H57.8938V28.0925H61.7936V27.0925ZM57.8938 27.0925C57.5879 27.0925 57.2981 27.0417 57.0218 26.9412L56.68 27.881C57.0687 28.0224 57.4743 28.0925 57.8938 28.0925V27.0925ZM57.0478 26.9516C56.7789 26.8363 56.5369 26.6834 56.3201 26.4921L55.6585 27.2419C55.9556 27.5041 56.2881 27.7139 56.6539 27.8707L57.0478 26.9516ZM56.3313 26.5022C56.1293 26.3129 55.9572 26.0906 55.8152 25.8325L54.939 26.3144C55.1296 26.6609 55.3656 26.9676 55.6473 27.2318L56.3313 26.5022ZM55.8152 25.8325C55.6829 25.5919 55.6048 25.3343 55.5805 25.0552L54.5843 25.1418C54.6204 25.558 54.7388 25.9504 54.939 26.3144L55.8152 25.8325ZM70.3695 18.3646L70.8131 18.5954L70.8217 18.5788L70.8291 18.5615L70.3695 18.3646ZM70.5963 18.0925L70.3313 17.6685L70.3182 17.6767L70.3057 17.6856L70.5963 18.0925ZM72.07 18.0925L71.7794 18.4994L71.792 18.5083L71.805 18.5165L72.07 18.0925ZM72.3421 18.3646L72.7837 18.1302L72.7801 18.1233L72.7762 18.1165L72.3421 18.3646ZM77.0354 27.2071L77.5098 27.049L77.4966 27.0095L77.4771 26.9727L77.0354 27.2071ZM75.403 27.3205L74.9619 27.556L74.9664 27.5643L74.9711 27.5724L75.403 27.3205ZM74.3373 25.3252L74.7784 25.0897L74.6371 24.8252H74.3373V25.3252ZM69.7347 24.9398L69.2904 24.7105L69.2726 24.7449L69.2604 24.7817L69.7347 24.9398ZM70.0975 24.2369L69.6656 23.985L69.6591 23.9961L69.6532 24.0076L70.0975 24.2369ZM73.6118 23.9648V24.4648H74.43L74.0567 23.7367L73.6118 23.9648ZM71.3218 19.4982L71.7667 19.2701L71.3207 18.4001L70.8764 19.271L71.3218 19.4982ZM67.3313 27.3205L66.886 27.0932L66.8756 27.1136L66.8671 27.1348L67.3313 27.3205ZM67.15 27.5245L67.4072 27.9533L67.4174 27.9471L67.4273 27.9405L67.15 27.5245ZM65.7669 27.2071L65.3234 26.9762L65.3051 27.0114L65.2926 27.049L65.7669 27.2071ZM70.8291 18.5615C70.8339 18.5503 70.8457 18.5288 70.8869 18.4994L70.3057 17.6856C70.1353 17.8073 69.9959 17.9672 69.91 18.1676L70.8291 18.5615ZM70.8613 18.5165C70.9295 18.4738 70.9515 18.4791 70.9364 18.4791V17.4791C70.7096 17.4791 70.5049 17.56 70.3313 17.6685L70.8613 18.5165ZM70.9364 18.4791H71.7526V17.4791H70.9364V18.4791ZM71.7526 18.4791C71.7447 18.4791 71.7409 18.4775 71.7431 18.4783C71.7463 18.4795 71.7584 18.4843 71.7794 18.4994L72.3606 17.6856C72.1897 17.5636 71.9845 17.4791 71.7526 17.4791V18.4791ZM71.805 18.5165C71.8679 18.5558 71.895 18.5899 71.908 18.6126L72.7762 18.1165C72.6683 17.9277 72.514 17.7804 72.335 17.6685L71.805 18.5165ZM71.9005 18.599L76.5938 27.4415L77.4771 26.9727L72.7837 18.1302L71.9005 18.599ZM76.5611 27.3652C76.5674 27.384 76.5724 27.3999 76.5764 27.4131C76.5804 27.4264 76.5829 27.4358 76.5844 27.4417C76.586 27.4481 76.5857 27.4478 76.5848 27.4423C76.5843 27.4394 76.5834 27.4336 76.5826 27.4255C76.5818 27.4176 76.5808 27.4049 76.5808 27.3885H77.5808C77.5808 27.3088 77.5638 27.2365 77.5545 27.1992C77.5427 27.1518 77.5271 27.1008 77.5098 27.049L76.5611 27.3652ZM76.5808 27.3885C76.5808 27.365 76.5897 27.2598 76.6896 27.1699C76.7795 27.089 76.8648 27.0925 76.8541 27.0925V28.0925C76.9945 28.0925 77.1931 28.0621 77.3586 27.9132C77.5341 27.7552 77.5808 27.548 77.5808 27.3885H76.5808ZM76.8541 27.0925H75.8111V28.0925H76.8541V27.0925ZM75.8111 27.0925C75.8156 27.0925 75.8245 27.0932 75.8357 27.0966C75.8471 27.1 75.856 27.1047 75.8617 27.1085C75.8724 27.1156 75.86 27.1115 75.8349 27.0685L74.9711 27.5724C75.1392 27.8606 75.4188 28.0925 75.8111 28.0925V27.0925ZM75.844 27.0849L74.7784 25.0897L73.8963 25.5608L74.9619 27.556L75.844 27.0849ZM74.3373 24.8252H69.9161V25.8252H74.3373V24.8252ZM69.9161 24.8252C69.9053 24.8252 69.9906 24.8217 70.0805 24.9026C70.1804 24.9925 70.1894 25.0977 70.1894 25.1212H69.1893C69.1893 25.2807 69.2361 25.4879 69.4116 25.6459C69.577 25.7948 69.7757 25.8252 69.9161 25.8252V24.8252ZM70.1894 25.1212C70.1894 25.1376 70.1884 25.1503 70.1876 25.1582C70.1868 25.1663 70.1859 25.1721 70.1854 25.175C70.1845 25.1805 70.1842 25.1808 70.1858 25.1744C70.1872 25.1685 70.1898 25.1591 70.1938 25.1458C70.1977 25.1326 70.2028 25.1167 70.209 25.0979L69.2604 24.7817C69.2431 24.8335 69.2274 24.8845 69.2156 24.9319C69.2063 24.9692 69.1893 25.0415 69.1893 25.1212H70.1894ZM70.179 25.1691L70.5418 24.4662L69.6532 24.0076L69.2904 24.7105L70.179 25.1691ZM70.5294 24.4888C70.5545 24.4458 70.5669 24.4418 70.5562 24.4489C70.5505 24.4527 70.5416 24.4574 70.5302 24.4607C70.519 24.4641 70.5101 24.4648 70.5056 24.4648V23.4648C70.1133 23.4648 69.8337 23.6968 69.6656 23.985L70.5294 24.4888ZM70.5056 24.4648H73.6118V23.4648H70.5056V24.4648ZM74.0567 23.7367L71.7667 19.2701L70.8769 19.7263L73.1669 24.1929L74.0567 23.7367ZM70.8764 19.271L66.886 27.0932L67.7767 27.5477L71.7672 19.7254L70.8764 19.271ZM66.8671 27.1348C66.8759 27.1129 66.8859 27.1001 66.8896 27.096C66.8927 27.0925 66.8892 27.0975 66.8726 27.1085L67.4273 27.9405C67.5741 27.8426 67.717 27.7027 67.7956 27.5061L66.8671 27.1348ZM66.8927 27.0958C66.8865 27.0995 66.8866 27.0985 66.8929 27.0966C66.8997 27.0946 66.9102 27.0925 66.9232 27.0925V28.0925C67.1036 28.0925 67.267 28.0374 67.4072 27.9533L66.8927 27.0958ZM66.9232 27.0925H65.9483V28.0925H66.9232V27.0925ZM65.9483 27.0925C65.9375 27.0925 66.0228 27.089 66.1127 27.1699C66.2126 27.2598 66.2216 27.365 66.2216 27.3885H65.2216C65.2216 27.548 65.2683 27.7552 65.4438 27.9132C65.6092 28.0621 65.8079 28.0925 65.9483 28.0925V27.0925ZM66.2216 27.3885C66.2216 27.4049 66.2206 27.4176 66.2198 27.4255C66.219 27.4336 66.2181 27.4394 66.2176 27.4423C66.2167 27.4478 66.2164 27.4481 66.218 27.4417C66.2194 27.4358 66.222 27.4264 66.226 27.4131C66.2299 27.3999 66.235 27.384 66.2412 27.3652L65.2926 27.049C65.2753 27.1008 65.2597 27.1519 65.2478 27.1992C65.2385 27.2365 65.2216 27.3088 65.2216 27.3885H66.2216ZM66.2104 27.4379L70.8131 18.5954L69.926 18.1337L65.3234 26.9762L66.2104 27.4379ZM81.8735 18.3646L82.317 18.5954L82.3257 18.5788L82.3331 18.5615L81.8735 18.3646ZM82.1002 18.0925L81.8352 17.6685L81.8221 17.6767L81.8096 17.6856L82.1002 18.0925ZM83.574 18.0925L83.2834 18.4994L83.2959 18.5083L83.309 18.5165L83.574 18.0925ZM83.846 18.3646L84.2877 18.1302L84.284 18.1233L84.2802 18.1165L83.846 18.3646ZM88.5394 27.2071L89.0137 27.049L89.0005 27.0095L88.981 26.9727L88.5394 27.2071ZM86.9069 27.3205L86.4659 27.556L86.4703 27.5643L86.475 27.5724L86.9069 27.3205ZM85.8413 25.3252L86.2823 25.0897L86.1411 24.8252H85.8413V25.3252ZM81.2386 24.9398L80.7943 24.7105L80.7766 24.7449L80.7643 24.7817L81.2386 24.9398ZM81.6014 24.2369L81.1695 23.985L81.163 23.9961L81.1571 24.0076L81.6014 24.2369ZM85.1157 23.9648V24.4648H85.934L85.5607 23.7367L85.1157 23.9648ZM82.8258 19.4982L83.2707 19.2701L82.8246 18.4001L82.3804 19.271L82.8258 19.4982ZM78.8353 27.3205L78.3899 27.0932L78.3795 27.1136L78.3711 27.1348L78.8353 27.3205ZM78.6539 27.5245L78.9112 27.9533L78.9214 27.9471L78.9313 27.9405L78.6539 27.5245ZM77.2708 27.2071L76.8273 26.9762L76.809 27.0114L76.7965 27.049L77.2708 27.2071ZM82.3331 18.5615C82.3379 18.5503 82.3496 18.5288 82.3908 18.4994L81.8096 17.6856C81.6392 17.8073 81.4998 17.9672 81.4139 18.1676L82.3331 18.5615ZM82.3652 18.5165C82.4335 18.4738 82.4555 18.4791 82.4403 18.4791V17.4791C82.2135 17.4791 82.0088 17.56 81.8352 17.6685L82.3652 18.5165ZM82.4403 18.4791H83.2565V17.4791H82.4403V18.4791ZM83.2565 18.4791C83.2487 18.4791 83.2448 18.4775 83.2471 18.4783C83.2502 18.4795 83.2623 18.4843 83.2834 18.4994L83.8646 17.6856C83.6937 17.5636 83.4884 17.4791 83.2565 17.4791V18.4791ZM83.309 18.5165C83.3718 18.5558 83.3989 18.5899 83.4119 18.6126L84.2802 18.1165C84.1723 17.9277 84.018 17.7804 83.839 17.6685L83.309 18.5165ZM83.4044 18.599L88.0977 27.4415L88.981 26.9727L84.2877 18.1302L83.4044 18.599ZM88.065 27.3652C88.0713 27.384 88.0764 27.3999 88.0803 27.4131C88.0843 27.4264 88.0868 27.4358 88.0883 27.4417C88.0899 27.4481 88.0896 27.4478 88.0887 27.4423C88.0882 27.4394 88.0873 27.4336 88.0865 27.4255C88.0857 27.4176 88.0847 27.4049 88.0847 27.3885H89.0847C89.0847 27.3088 89.0678 27.2365 89.0585 27.1992C89.0466 27.1518 89.031 27.1008 89.0137 27.049L88.065 27.3652ZM88.0847 27.3885C88.0847 27.365 88.0937 27.2598 88.1936 27.1699C88.2834 27.089 88.3687 27.0925 88.358 27.0925V28.0925C88.4984 28.0925 88.6971 28.0621 88.8625 27.9132C89.038 27.7552 89.0847 27.548 89.0847 27.3885H88.0847ZM88.358 27.0925H87.315V28.0925H88.358V27.0925ZM87.315 27.0925C87.3195 27.0925 87.3284 27.0932 87.3397 27.0966C87.351 27.1 87.36 27.1047 87.3657 27.1085C87.3763 27.1156 87.3639 27.1115 87.3388 27.0685L86.475 27.5724C86.6431 27.8606 86.9227 28.0925 87.315 28.0925V27.0925ZM87.348 27.0849L86.2823 25.0897L85.4002 25.5608L86.4659 27.556L87.348 27.0849ZM85.8413 24.8252H81.42V25.8252H85.8413V24.8252ZM81.42 24.8252C81.4093 24.8252 81.4946 24.8217 81.5845 24.9026C81.6844 24.9925 81.6933 25.0977 81.6933 25.1212H80.6933C80.6933 25.2807 80.74 25.4879 80.9155 25.6459C81.081 25.7948 81.2796 25.8252 81.42 25.8252V24.8252ZM81.6933 25.1212C81.6933 25.1376 81.6923 25.1503 81.6915 25.1582C81.6907 25.1663 81.6898 25.1721 81.6893 25.175C81.6884 25.1805 81.6881 25.1808 81.6897 25.1744C81.6912 25.1685 81.6937 25.1591 81.6977 25.1458C81.7017 25.1326 81.7067 25.1167 81.713 25.0979L80.7643 24.7817C80.747 24.8335 80.7314 24.8845 80.7196 24.9319C80.7102 24.9692 80.6933 25.0415 80.6933 25.1212H81.6933ZM81.683 25.1691L82.0457 24.4662L81.1571 24.0076L80.7943 24.7105L81.683 25.1691ZM82.0333 24.4888C82.0584 24.4458 82.0708 24.4418 82.0601 24.4489C82.0545 24.4527 82.0455 24.4574 82.0342 24.4607C82.0229 24.4641 82.014 24.4648 82.0095 24.4648V23.4648C81.6172 23.4648 81.3376 23.6968 81.1695 23.985L82.0333 24.4888ZM82.0095 24.4648H85.1157V23.4648H82.0095V24.4648ZM85.5607 23.7367L83.2707 19.2701L82.3808 19.7263L84.6708 24.1929L85.5607 23.7367ZM82.3804 19.271L78.3899 27.0932L79.2807 27.5477L83.2711 19.7254L82.3804 19.271ZM78.3711 27.1348C78.3798 27.1129 78.3899 27.1001 78.3936 27.096C78.3967 27.0925 78.3931 27.0975 78.3766 27.1085L78.9313 27.9405C79.0781 27.8426 79.2209 27.7027 79.2995 27.5061L78.3711 27.1348ZM78.3967 27.0958C78.3904 27.0995 78.3905 27.0985 78.3969 27.0966C78.4036 27.0946 78.4142 27.0925 78.4272 27.0925V28.0925C78.6075 28.0925 78.771 28.0374 78.9112 27.9533L78.3967 27.0958ZM78.4272 27.0925H77.4522V28.0925H78.4272V27.0925ZM77.4522 27.0925C77.4415 27.0925 77.5268 27.089 77.6167 27.1699C77.7166 27.2598 77.7255 27.365 77.7255 27.3885H76.7255C76.7255 27.548 76.7722 27.7552 76.9477 27.9132C77.1132 28.0621 77.3118 28.0925 77.4522 28.0925V27.0925ZM77.7255 27.3885C77.7255 27.4049 77.7245 27.4176 77.7237 27.4255C77.7229 27.4336 77.722 27.4394 77.7215 27.4423C77.7206 27.4478 77.7203 27.4481 77.7219 27.4417C77.7234 27.4358 77.7259 27.4264 77.7299 27.4131C77.7339 27.3999 77.7389 27.384 77.7452 27.3652L76.7965 27.049C76.7792 27.1008 76.7636 27.1519 76.7518 27.1992C76.7424 27.2365 76.7255 27.3088 76.7255 27.3885H77.7255ZM77.7144 27.4379L82.317 18.5954L81.43 18.1337L76.8273 26.9762L77.7144 27.4379ZM89.7271 25.0985H89.2271V25.1202L89.2289 25.1418L89.7271 25.0985ZM89.8404 24.8264L89.4869 24.4729L89.8404 24.8264ZM91.2235 25.0305L90.7285 25.1012L90.7318 25.1239L90.7371 25.1463L91.2235 25.0305ZM91.6996 25.8467L91.3577 26.2115L91.3639 26.2173L91.3704 26.223L91.6996 25.8467ZM97.4132 25.756L97.7769 26.0994L97.7859 26.0894L97.4132 25.756ZM97.4132 23.7834L97.0497 24.1268H97.0497L97.4132 23.7834ZM91.6543 23.1713L91.4573 23.6309L91.465 23.634L91.6543 23.1713ZM90.7927 22.6044L90.4391 22.958L90.4445 22.9634L90.45 22.9685L90.7927 22.6044ZM90.2032 21.7655L89.7404 21.9549L89.7457 21.9678L89.7518 21.9805L90.2032 21.7655ZM90.2032 19.6569L89.7479 19.45L89.7436 19.46L90.2032 19.6569ZM90.7927 18.7954L91.1463 19.1489V19.1489L90.7927 18.7954ZM91.6543 18.2059L91.8513 18.6655L91.8612 18.661L91.6543 18.2059ZM97.3679 18.1605L97.1822 18.6248L97.1899 18.6278L97.3679 18.1605ZM98.1841 18.6593L97.843 19.0249L97.8488 19.0303L97.8549 19.0356L98.1841 18.6593ZM98.7736 19.4075L98.3312 19.6404L98.3359 19.6493L98.3409 19.6581L98.7736 19.4075ZM99.0911 20.3371H99.5911V20.3032L99.5865 20.2696L99.0911 20.3371ZM97.5946 20.4052L98.0896 20.3344L98.0873 20.3182L98.0839 20.3021L97.5946 20.4052ZM97.1638 19.7023L96.8364 20.0801L96.8438 20.0866L96.8515 20.0927L97.1638 19.7023ZM91.813 19.793L92.1665 20.1465L92.1719 20.1412L92.1771 20.1357L91.813 19.793ZM91.813 21.5842L92.1771 21.2415L91.813 21.5842ZM97.5493 22.1963L97.3499 22.6549L97.3584 22.6586L97.3671 22.662L97.5493 22.1963ZM98.4562 22.7858L98.1027 23.1394L98.108 23.1447L98.1135 23.1499L98.4562 22.7858ZM99.0684 23.6701L98.6098 23.8695L98.6132 23.877L99.0684 23.6701ZM99.0684 25.8694L99.5236 26.0763L99.5269 26.0687L99.0684 25.8694ZM98.4562 26.7536L98.1027 26.4001L98.4562 26.7536ZM97.5493 27.3658L97.3499 26.9073L97.5493 27.3658ZM91.4956 27.4111L91.2986 27.8707L91.3115 27.8762L91.3247 27.881L91.4956 27.4111ZM90.634 26.867L90.292 27.2318L90.2975 27.2369L90.3032 27.2419L90.634 26.867ZM90.0218 26.0734L89.5837 26.3144L90.0218 26.0734ZM90.2271 25.0985C90.2271 25.1065 90.2253 25.1233 90.2169 25.1434C90.2086 25.1635 90.1983 25.1757 90.194 25.18L89.4869 24.4729C89.3186 24.6411 89.2271 24.8586 89.2271 25.0985H90.2271ZM90.194 25.18C90.1897 25.1843 90.1775 25.1946 90.1574 25.2029C90.1373 25.2113 90.1205 25.213 90.1125 25.213V24.213C89.8726 24.213 89.6551 24.3046 89.4869 24.4729L90.194 25.18ZM90.1125 25.213H90.8607V24.213H90.1125V25.213ZM90.8607 25.213C90.8845 25.213 90.8372 25.218 90.7809 25.1687C90.7252 25.12 90.7247 25.0742 90.7285 25.1012L91.7185 24.9598C91.6921 24.7751 91.6159 24.5706 91.4394 24.4161C91.2621 24.261 91.0486 24.213 90.8607 24.213V25.213ZM90.7371 25.1463C90.8357 25.5607 91.0455 25.9188 91.3577 26.2115L92.0416 25.4819C91.87 25.3211 91.7624 25.1351 91.7099 24.9147L90.7371 25.1463ZM91.3704 26.223C91.7068 26.5173 92.1122 26.6641 92.5612 26.6641V25.6641C92.3452 25.6641 92.1762 25.5993 92.0289 25.4704L91.3704 26.223ZM92.5612 26.6641H96.461V25.6641H92.5612V26.6641ZM96.461 26.6641C96.9749 26.6641 97.4243 26.4725 97.7768 26.0993L97.0497 25.4127C96.8883 25.5837 96.7028 25.6641 96.461 25.6641V26.6641ZM97.7859 26.0894C98.1231 25.7125 98.2987 25.262 98.2987 24.7584H97.2987C97.2987 25.0106 97.2174 25.2251 97.0406 25.4226L97.7859 26.0894ZM98.2987 24.7584C98.2987 24.2542 98.1223 23.806 97.7768 23.4401L97.0497 24.1268C97.2181 24.305 97.2987 24.5068 97.2987 24.7584H98.2987ZM97.7768 23.4401C97.4243 23.0669 96.9749 22.8753 96.461 22.8753V23.8753C96.7028 23.8753 96.8883 23.9558 97.0497 24.1268L97.7768 23.4401ZM96.461 22.8753H92.7199V23.8753H96.461V22.8753ZM92.7199 22.8753C92.4035 22.8753 92.113 22.8187 91.8436 22.7085L91.465 23.634C91.8607 23.7959 92.2805 23.8753 92.7199 23.8753V22.8753ZM91.8512 22.7117C91.5888 22.5992 91.3507 22.443 91.1354 22.2403L90.45 22.9685C90.7486 23.2496 91.0849 23.4712 91.4573 23.6308L91.8512 22.7117ZM91.1463 22.2509C90.9458 22.0505 90.782 21.818 90.6546 21.5506L89.7518 21.9805C89.9267 22.3479 90.1559 22.6747 90.4391 22.958L91.1463 22.2509ZM90.666 21.5762C90.5558 21.3069 90.4991 21.0163 90.4991 20.6999H89.4991C89.4991 21.1393 89.5785 21.5591 89.7404 21.9549L90.666 21.5762ZM90.4991 20.6999C90.4991 20.3833 90.5558 20.1034 90.6628 19.8539L89.7436 19.46C89.5785 19.8453 89.4991 20.2607 89.4991 20.6999H90.4991ZM90.6584 19.8638C90.7864 19.5821 90.9496 19.3456 91.1463 19.1489L90.4391 18.4418C90.1521 18.7289 89.9223 19.0667 89.748 19.45L90.6584 19.8638ZM91.1463 19.1489C91.3606 18.9345 91.5953 18.7751 91.8512 18.6654L91.4573 17.7463C91.0784 17.9087 90.7387 18.1423 90.4391 18.4418L91.1463 19.1489ZM91.8612 18.661C92.1265 18.5405 92.4109 18.4791 92.7199 18.4791V17.4791C92.2732 17.4791 91.8472 17.569 91.4474 17.7507L91.8612 18.661ZM92.7199 18.4791H96.4156V17.4791H92.7199V18.4791ZM96.4156 18.4791C96.6859 18.4791 96.9402 18.528 97.1822 18.6248L97.5536 17.6963C97.191 17.5512 96.8104 17.4791 96.4156 17.4791V18.4791ZM97.1899 18.6278C97.4527 18.7279 97.6679 18.8614 97.843 19.0249L98.5253 18.2938C98.2469 18.034 97.918 17.835 97.5459 17.6933L97.1899 18.6278ZM97.8549 19.0356C98.05 19.2064 98.2083 19.407 98.3312 19.6404L99.2161 19.1747C99.0366 18.8337 98.8019 18.5355 98.5134 18.283L97.8549 19.0356ZM98.3409 19.6581C98.4742 19.8883 98.559 20.1359 98.5956 20.4047L99.5865 20.2696C99.5324 19.8733 99.4056 19.5012 99.2063 19.157L98.3409 19.6581ZM98.5911 20.3371C98.5911 20.3885 98.5785 20.3353 98.6411 20.2727C98.7037 20.2101 98.757 20.2226 98.7056 20.2226V21.2226C98.9112 21.2226 99.1572 21.1709 99.3482 20.9798C99.5393 20.7887 99.5911 20.5427 99.5911 20.3371H98.5911ZM98.7056 20.2226H97.9801V21.2226H98.7056V20.2226ZM97.9801 20.2226C97.9408 20.2226 97.9785 20.2136 98.0315 20.2573C98.0569 20.2782 98.0736 20.3017 98.0829 20.3204C98.0915 20.3375 98.0911 20.3447 98.0896 20.3344L97.0997 20.4759C97.1272 20.6689 97.2103 20.8764 97.3958 21.0292C97.5773 21.1787 97.7926 21.2226 97.9801 21.2226V20.2226ZM98.0839 20.3021C97.9998 19.9029 97.7945 19.5665 97.4762 19.3119L96.8515 20.0927C96.9867 20.2009 97.0685 20.3331 97.1054 20.5082L98.0839 20.3021ZM97.4913 19.3244C97.1729 19.0485 96.7919 18.9075 96.3703 18.9075V19.9075C96.5533 19.9075 96.7013 19.9631 96.8364 20.0801L97.4913 19.3244ZM96.3703 18.9075H92.6972V19.9075H96.3703V18.9075ZM92.6972 18.9075C92.2094 18.9075 91.7836 19.0947 91.4489 19.4503L92.1771 20.1357C92.3261 19.9774 92.4898 19.9075 92.6972 19.9075V18.9075ZM91.4594 19.4394C91.1221 19.7768 90.9502 20.1994 90.9502 20.6772H91.9502C91.9502 20.4597 92.0202 20.2929 92.1665 20.1465L91.4594 19.4394ZM90.9502 20.6772C90.9502 21.1544 91.1212 21.5787 91.4489 21.9268L92.1771 21.2415C92.0211 21.0757 91.9502 20.8954 91.9502 20.6772H90.9502ZM91.4489 21.9268C91.7836 22.2825 92.2094 22.4696 92.6972 22.4696V21.4696C92.4898 21.4696 92.3261 21.3998 92.1771 21.2415L91.4489 21.9268ZM92.6972 22.4696H96.4383V21.4696H92.6972V22.4696ZM96.4383 22.4696C96.7653 22.4696 97.0675 22.5321 97.3499 22.6549L97.7486 21.7378C97.3358 21.5583 96.8973 21.4696 96.4383 21.4696V22.4696ZM97.3671 22.662C97.6523 22.7736 97.8958 22.9325 98.1027 23.1394L98.8098 22.4323C98.5027 22.1252 98.1416 21.8912 97.7315 21.7307L97.3671 22.662ZM98.1135 23.1499C98.3175 23.3419 98.4837 23.5793 98.6098 23.8694L99.5269 23.4707C99.3508 23.0655 99.1088 22.7134 98.7989 22.4217L98.1135 23.1499ZM98.6132 23.877C98.7326 24.1397 98.7951 24.4313 98.7951 24.7584H99.7951C99.7951 24.2995 99.7064 23.8655 99.5236 23.4632L98.6132 23.877ZM98.7951 24.7584C98.7951 25.0854 98.7326 25.3876 98.6098 25.67L99.5269 26.0687C99.7064 25.6559 99.7951 25.2174 99.7951 24.7584H98.7951ZM98.6132 25.6625C98.4867 25.9407 98.317 26.1857 98.1027 26.4001L98.8098 27.1072C99.1093 26.8076 99.3477 26.4631 99.5236 26.0763L98.6132 25.6625ZM98.1027 26.4001C97.892 26.6108 97.6426 26.78 97.3499 26.9073L97.7486 27.8243C98.1513 27.6493 98.5065 27.4104 98.8098 27.1072L98.1027 26.4001ZM97.3499 26.9073C97.0675 27.0301 96.7653 27.0925 96.4383 27.0925V28.0925C96.8973 28.0925 97.3358 28.0038 97.7486 27.8243L97.3499 26.9073ZM96.4383 27.0925H92.5385V28.0925H96.4383V27.0925ZM92.5385 27.0925C92.2325 27.0925 91.9428 27.0417 91.6664 26.9412L91.3247 27.881C91.7134 28.0224 92.119 28.0925 92.5385 28.0925V27.0925ZM91.6925 26.9516C91.4235 26.8363 91.1816 26.6834 90.9648 26.4921L90.3032 27.2419C90.6003 27.5041 90.9327 27.7139 91.2986 27.8707L91.6925 26.9516ZM90.976 26.5022C90.774 26.3129 90.6019 26.0906 90.4599 25.8325L89.5837 26.3144C89.7743 26.6609 90.0103 26.9676 90.292 27.2318L90.976 26.5022ZM90.4599 25.8325C90.3276 25.5919 90.2495 25.3343 90.2252 25.0552L89.2289 25.1418C89.2651 25.558 89.3835 25.9504 89.5837 26.3144L90.4599 25.8325ZM107.824 18.9087L107.377 18.6851L107.372 18.6934L107.369 18.7018L107.824 18.9087ZM108.164 18.4326L107.81 18.079L108.164 18.4326ZM108.617 18.1152L108.824 18.5704L108.833 18.5665L108.841 18.5624L108.617 18.1152ZM117.029 18.1152L116.79 18.5541L116.806 18.5628L116.822 18.5704L117.029 18.1152ZM117.8 18.9087L117.338 19.101L117.348 19.1252L117.361 19.1482L117.8 18.9087ZM117.8 26.6856L117.353 26.462L117.349 26.4703L117.345 26.4787L117.8 26.6856ZM117.482 27.1391L117.129 26.7855L117.482 27.1391ZM117.029 27.4792L117.236 27.9343L117.252 27.9268L117.268 27.9181L117.029 27.4792ZM108.617 27.4792L108.378 27.9181L108.401 27.9306L108.425 27.9407L108.617 27.4792ZM108.164 27.1391L107.81 27.4926L108.164 27.1391ZM107.824 26.6856L107.362 26.8779L107.372 26.9021L107.385 26.925L107.824 26.6856ZM109.275 26.1641H108.775V26.6641H109.275V26.1641ZM116.372 26.1641V26.6641H116.872V26.1641H116.372ZM116.372 19.4075H116.872V18.9075H116.372V19.4075ZM109.275 19.4075V18.9075H108.775V19.4075H109.275ZM108.21 19.4075C108.21 19.3194 108.23 19.2234 108.279 19.1156L107.369 18.7018C107.266 18.9266 107.21 19.1631 107.21 19.4075H108.21ZM108.271 19.1323C108.339 18.9964 108.421 18.8822 108.517 18.7861L107.81 18.079C107.634 18.2551 107.49 18.4583 107.377 18.6851L108.271 19.1323ZM108.517 18.7861C108.613 18.6902 108.715 18.6198 108.824 18.5704L108.41 17.66C108.187 17.7617 107.986 17.9029 107.81 18.079L108.517 18.7861ZM108.841 18.5624C108.968 18.4989 109.065 18.4791 109.139 18.4791V17.4791C108.88 17.4791 108.629 17.5501 108.394 17.668L108.841 18.5624ZM109.139 18.4791H116.508V17.4791H109.139V18.4791ZM116.508 18.4791C116.602 18.4791 116.693 18.5017 116.79 18.5541L117.268 17.6762C117.032 17.5473 116.776 17.4791 116.508 17.4791V18.4791ZM116.822 18.5704C116.931 18.6198 117.033 18.6902 117.129 18.7861L117.836 18.079C117.66 17.9029 117.46 17.7617 117.236 17.66L116.822 18.5704ZM117.129 18.7861C117.218 18.875 117.287 18.9786 117.338 19.101L118.261 18.7164C118.161 18.4761 118.019 18.2623 117.836 18.079L117.129 18.7861ZM117.361 19.1482C117.417 19.2513 117.436 19.336 117.436 19.4075H118.436C118.436 19.1466 118.364 18.8987 118.239 18.6693L117.361 19.1482ZM117.436 19.4075V26.1641H118.436V19.4075H117.436ZM117.436 26.1641C117.436 26.2376 117.416 26.335 117.353 26.462L118.247 26.9092C118.365 26.6734 118.436 26.4232 118.436 26.1641H117.436ZM117.345 26.4787C117.295 26.5875 117.225 26.6896 117.129 26.7855L117.836 27.4926C118.012 27.3165 118.153 27.1162 118.255 26.8925L117.345 26.4787ZM117.129 26.7855C117.026 26.8883 116.913 26.9728 116.79 27.0402L117.268 27.9181C117.477 27.8042 117.667 27.6619 117.836 27.4926L117.129 26.7855ZM116.822 27.024C116.72 27.0702 116.617 27.0925 116.508 27.0925V28.0925C116.761 28.0925 117.005 28.0392 117.236 27.9343L116.822 27.024ZM116.508 27.0925H109.139V28.0925H116.508V27.0925ZM109.139 27.0925C109.049 27.0925 108.941 27.0724 108.81 27.0176L108.425 27.9407C108.656 28.0371 108.896 28.0925 109.139 28.0925V27.0925ZM108.857 27.0402C108.733 26.9728 108.62 26.8883 108.517 26.7855L107.81 27.4926C107.98 27.6619 108.169 27.8042 108.378 27.9181L108.857 27.0402ZM108.517 26.7855C108.415 26.6827 108.33 26.5699 108.263 26.4462L107.385 26.925C107.499 27.1339 107.641 27.3234 107.81 27.4926L108.517 26.7855ZM108.285 26.4933C108.231 26.362 108.21 26.2535 108.21 26.1641H107.21C107.21 26.4073 107.266 26.6465 107.362 26.8779L108.285 26.4933ZM108.21 26.1641V19.4075H107.21V26.1641H108.21ZM109.275 26.6641H116.372V25.6641H109.275V26.6641ZM116.872 26.1641V19.4075H115.872V26.1641H116.872ZM116.372 18.9075H109.275V19.9075H116.372V18.9075ZM108.775 19.4075V26.1641H109.775V19.4075H108.775ZM120.143 25.0985H119.643V25.1202L119.645 25.1418L120.143 25.0985ZM120.256 24.8264L119.902 24.4729L120.256 24.8264ZM121.639 25.0305L121.144 25.1012L121.147 25.1239L121.153 25.1463L121.639 25.0305ZM122.115 25.8467L121.773 26.2115L121.78 26.2173L121.786 26.223L122.115 25.8467ZM127.829 25.756L128.193 26.0994L128.201 26.0894L127.829 25.756ZM127.829 23.7834L127.465 24.1268L127.829 23.7834ZM122.07 23.1713L121.873 23.6309L121.881 23.634L122.07 23.1713ZM121.208 22.6044L120.855 22.958L120.86 22.9634L120.866 22.9685L121.208 22.6044ZM120.619 21.7655L120.156 21.9549L120.161 21.9678L120.167 21.9805L120.619 21.7655ZM120.619 19.6569L120.164 19.45L120.159 19.46L120.619 19.6569ZM121.208 18.7954L121.562 19.1489V19.1489L121.208 18.7954ZM122.07 18.2059L122.267 18.6655L122.277 18.661L122.07 18.2059ZM127.784 18.1605L127.598 18.6248L127.606 18.6278L127.784 18.1605ZM128.6 18.6593L128.259 19.0249L128.264 19.0303L128.271 19.0356L128.6 18.6593ZM129.189 19.4075L128.747 19.6404L128.751 19.6493L128.757 19.6581L129.189 19.4075ZM129.507 20.3371H130.007V20.3032L130.002 20.2696L129.507 20.3371ZM128.01 20.4052L128.505 20.3344L128.503 20.3182L128.5 20.3021L128.01 20.4052ZM127.579 19.7023L127.252 20.0801L127.259 20.0866L127.267 20.0927L127.579 19.7023ZM122.229 19.793L122.582 20.1465L122.588 20.1412L122.593 20.1357L122.229 19.793ZM122.229 21.5842L122.593 21.2415L122.229 21.5842ZM127.965 22.1963L127.766 22.6549L127.774 22.6586L127.783 22.662L127.965 22.1963ZM128.872 22.7858L128.518 23.1394L128.524 23.1447L128.529 23.1499L128.872 22.7858ZM129.484 23.6701L129.025 23.8695L129.029 23.877L129.484 23.6701ZM129.484 25.8694L129.939 26.0763L129.943 26.0687L129.484 25.8694ZM128.872 26.7536L128.518 26.4001L128.872 26.7536ZM127.965 27.3658L127.766 26.9073L127.965 27.3658ZM121.911 27.4111L121.714 27.8707L121.727 27.8762L121.74 27.881L121.911 27.4111ZM121.05 26.867L120.708 27.2318L120.713 27.2369L120.719 27.2419L121.05 26.867ZM120.437 26.0734L119.999 26.3144L120.437 26.0734ZM120.643 25.0985C120.643 25.1065 120.641 25.1233 120.633 25.1434C120.624 25.1635 120.614 25.1757 120.61 25.18L119.902 24.4729C119.734 24.6411 119.643 24.8586 119.643 25.0985H120.643ZM120.61 25.18C120.605 25.1843 120.593 25.1946 120.573 25.2029C120.553 25.2113 120.536 25.213 120.528 25.213V24.213C120.288 24.213 120.071 24.3046 119.902 24.4729L120.61 25.18ZM120.528 25.213H121.276V24.213H120.528V25.213ZM121.276 25.213C121.3 25.213 121.253 25.218 121.196 25.1687C121.141 25.12 121.14 25.0742 121.144 25.1012L122.134 24.9598C122.108 24.7751 122.032 24.5706 121.855 24.4161C121.678 24.261 121.464 24.213 121.276 24.213V25.213ZM121.153 25.1463C121.251 25.5607 121.461 25.9188 121.773 26.2115L122.457 25.4819C122.286 25.3211 122.178 25.1351 122.126 24.9147L121.153 25.1463ZM121.786 26.223C122.122 26.5173 122.528 26.6641 122.977 26.6641V25.6641C122.761 25.6641 122.592 25.5993 122.444 25.4704L121.786 26.223ZM122.977 26.6641H126.877V25.6641H122.977V26.6641ZM126.877 26.6641C127.391 26.6641 127.84 26.4725 128.192 26.0993L127.465 25.4127C127.304 25.5837 127.118 25.6641 126.877 25.6641V26.6641ZM128.201 26.0894C128.539 25.7125 128.714 25.262 128.714 24.7584H127.714C127.714 25.0106 127.633 25.2251 127.456 25.4226L128.201 26.0894ZM128.714 24.7584C128.714 24.2542 128.538 23.806 128.192 23.4401L127.465 24.1268C127.634 24.305 127.714 24.5068 127.714 24.7584H128.714ZM128.192 23.4401C127.84 23.0669 127.391 22.8753 126.877 22.8753V23.8753C127.118 23.8753 127.304 23.9558 127.465 24.1268L128.192 23.4401ZM126.877 22.8753H123.136V23.8753H126.877V22.8753ZM123.136 22.8753C122.819 22.8753 122.529 22.8187 122.259 22.7085L121.881 23.634C122.276 23.7959 122.696 23.8753 123.136 23.8753V22.8753ZM122.267 22.7117C122.004 22.5992 121.766 22.443 121.551 22.2403L120.866 22.9685C121.164 23.2496 121.501 23.4712 121.873 23.6308L122.267 22.7117ZM121.562 22.2509C121.361 22.0505 121.198 21.818 121.07 21.5506L120.167 21.9805C120.342 22.3479 120.572 22.6747 120.855 22.958L121.562 22.2509ZM121.082 21.5762C120.971 21.3069 120.915 21.0163 120.915 20.6999H119.915C119.915 21.1393 119.994 21.5591 120.156 21.9549L121.082 21.5762ZM120.915 20.6999C120.915 20.3833 120.971 20.1034 121.078 19.8539L120.159 19.46C119.994 19.8453 119.915 20.2607 119.915 20.6999H120.915ZM121.074 19.8638C121.202 19.5821 121.365 19.3456 121.562 19.1489L120.855 18.4418C120.568 18.7289 120.338 19.0667 120.164 19.45L121.074 19.8638ZM121.562 19.1489C121.776 18.9345 122.011 18.7751 122.267 18.6654L121.873 17.7463C121.494 17.9087 121.154 18.1423 120.855 18.4418L121.562 19.1489ZM122.277 18.661C122.542 18.5405 122.826 18.4791 123.136 18.4791V17.4791C122.689 17.4791 122.263 17.569 121.863 17.7507L122.277 18.661ZM123.136 18.4791H126.831V17.4791H123.136V18.4791ZM126.831 18.4791C127.102 18.4791 127.356 18.528 127.598 18.6248L127.969 17.6963C127.607 17.5512 127.226 17.4791 126.831 17.4791V18.4791ZM127.606 18.6278C127.868 18.7279 128.083 18.8614 128.259 19.0249L128.941 18.2938C128.663 18.034 128.334 17.835 127.962 17.6933L127.606 18.6278ZM128.271 19.0356C128.466 19.2064 128.624 19.407 128.747 19.6404L129.632 19.1747C129.452 18.8337 129.218 18.5355 128.929 18.283L128.271 19.0356ZM128.757 19.6581C128.89 19.8883 128.975 20.1359 129.011 20.4047L130.002 20.2696C129.948 19.8733 129.821 19.5012 129.622 19.157L128.757 19.6581ZM129.007 20.3371C129.007 20.3885 128.994 20.3353 129.057 20.2727C129.119 20.2101 129.173 20.2226 129.121 20.2226V21.2226C129.327 21.2226 129.573 21.1709 129.764 20.9798C129.955 20.7887 130.007 20.5427 130.007 20.3371H129.007ZM129.121 20.2226H128.396V21.2226H129.121V20.2226ZM128.396 20.2226C128.356 20.2226 128.394 20.2136 128.447 20.2573C128.473 20.2782 128.489 20.3017 128.499 20.3204C128.507 20.3375 128.507 20.3447 128.505 20.3344L127.515 20.4759C127.543 20.6689 127.626 20.8764 127.811 21.0292C127.993 21.1787 128.208 21.2226 128.396 21.2226V20.2226ZM128.5 20.3021C128.415 19.9029 128.21 19.5665 127.892 19.3119L127.267 20.0927C127.402 20.2009 127.484 20.3331 127.521 20.5082L128.5 20.3021ZM127.907 19.3244C127.589 19.0485 127.207 18.9075 126.786 18.9075V19.9075C126.969 19.9075 127.117 19.9631 127.252 20.0801L127.907 19.3244ZM126.786 18.9075H123.113V19.9075H126.786V18.9075ZM123.113 18.9075C122.625 18.9075 122.199 19.0947 121.865 19.4503L122.593 20.1357C122.742 19.9774 122.905 19.9075 123.113 19.9075V18.9075ZM121.875 19.4394C121.538 19.7768 121.366 20.1994 121.366 20.6772H122.366C122.366 20.4597 122.436 20.2929 122.582 20.1465L121.875 19.4394ZM121.366 20.6772C121.366 21.1544 121.537 21.5787 121.865 21.9268L122.593 21.2415C122.437 21.0757 122.366 20.8954 122.366 20.6772H121.366ZM121.865 21.9268C122.199 22.2825 122.625 22.4696 123.113 22.4696V21.4696C122.905 21.4696 122.742 21.3998 122.593 21.2415L121.865 21.9268ZM123.113 22.4696H126.854V21.4696H123.113V22.4696ZM126.854 22.4696C127.181 22.4696 127.483 22.5321 127.766 22.6549L128.164 21.7378C127.751 21.5583 127.313 21.4696 126.854 21.4696V22.4696ZM127.783 22.662C128.068 22.7736 128.311 22.9325 128.518 23.1394L129.225 22.4323C128.918 22.1252 128.557 21.8912 128.147 21.7307L127.783 22.662ZM128.529 23.1499C128.733 23.3419 128.899 23.5793 129.025 23.8694L129.943 23.4707C129.766 23.0655 129.524 22.7134 129.215 22.4217L128.529 23.1499ZM129.029 23.877C129.148 24.1397 129.211 24.4313 129.211 24.7584H130.211C130.211 24.2995 130.122 23.8655 129.939 23.4632L129.029 23.877ZM129.211 24.7584C129.211 25.0854 129.148 25.3876 129.025 25.67L129.943 26.0687C130.122 25.6559 130.211 25.2174 130.211 24.7584H129.211ZM129.029 25.6625C128.902 25.9407 128.733 26.1857 128.518 26.4001L129.225 27.1072C129.525 26.8076 129.763 26.4631 129.939 26.0763L129.029 25.6625ZM128.518 26.4001C128.308 26.6108 128.058 26.78 127.766 26.9073L128.164 27.8243C128.567 27.6493 128.922 27.4104 129.225 27.1072L128.518 26.4001ZM127.766 26.9073C127.483 27.0301 127.181 27.0925 126.854 27.0925V28.0925C127.313 28.0925 127.751 28.0038 128.164 27.8243L127.766 26.9073ZM126.854 27.0925H122.954V28.0925H126.854V27.0925ZM122.954 27.0925C122.648 27.0925 122.358 27.0417 122.082 26.9412L121.74 27.881C122.129 28.0224 122.535 28.0925 122.954 28.0925V27.0925ZM122.108 26.9516C121.839 26.8363 121.597 26.6834 121.38 26.4921L120.719 27.2419C121.016 27.5041 121.348 27.7139 121.714 27.8707L122.108 26.9516ZM121.392 26.5022C121.19 26.3129 121.018 26.0906 120.876 25.8325L119.999 26.3144C120.19 26.6609 120.426 26.9676 120.708 27.2318L121.392 26.5022ZM120.876 25.8325C120.743 25.5919 120.665 25.3343 120.641 25.0552L119.645 25.1418C119.681 25.558 119.799 25.9504 119.999 26.3144L120.876 25.8325Z" fill="black" mask="url(#path-5-outside-1_82_4390)"/>
</svg>
