<svg width="129" height="43" viewBox="0 0 129 43" fill="none" xmlns="http://www.w3.org/2000/svg">
<rect y="0.592529" width="42" height="42" rx="21" fill="#7AFD3D"/>
<path d="M31.0813 15.2831L28.5554 16.7331L21.0245 12.5701L13.2597 17.0606V19.9607L21.0245 15.6573L25.7956 18.4171L23.0359 19.9607L21.0245 18.7913L10.4999 24.7786V15.2831L21.0245 9.34253L31.0813 15.2831Z" fill="black"/>
<path d="M10.7806 27.632L13.3065 26.1819L20.8375 30.345L28.6023 25.8545V22.9544L20.8375 27.2577L16.0663 24.498L18.8261 22.9544L20.8375 24.1238L31.3621 18.1364V27.632L20.8375 33.5725L10.7806 27.632Z" fill="black"/>
<mask id="path-4-outside-1_82_4390" maskUnits="userSpaceOnUse" x="51" y="16.5925" width="76" height="12" fill="black">
<rect fill="white" x="51" y="16.5925" width="76" height="12"/>
<path d="M51.7458 25.0985C51.7458 24.9927 51.7836 24.902 51.8592 24.8264C51.9348 24.7508 52.0255 24.713 52.1313 24.713H52.8795C53.0911 24.713 53.212 24.8189 53.2423 25.0305C53.3178 25.3479 53.4765 25.62 53.7184 25.8467C53.9602 26.0583 54.2474 26.1641 54.58 26.1641H58.4797C58.8576 26.1641 59.1751 26.0281 59.432 25.756C59.689 25.4688 59.8175 25.1363 59.8175 24.7584C59.8175 24.3805 59.689 24.0555 59.432 23.7834C59.1751 23.5114 58.8576 23.3753 58.4797 23.3753H54.7387C54.3608 23.3753 54.0056 23.3073 53.673 23.1713C53.3556 23.0352 53.0684 22.8463 52.8115 22.6044C52.5696 22.3626 52.3731 22.083 52.222 21.7655C52.0859 21.433 52.0179 21.0778 52.0179 20.6999C52.0179 20.322 52.0859 19.9744 52.222 19.6569C52.3731 19.3244 52.5696 19.0372 52.8115 18.7954C53.0684 18.5384 53.3556 18.3419 53.673 18.2059C54.0056 18.0547 54.3608 17.9791 54.7387 17.9791H58.4344C58.7669 17.9791 59.0844 18.0396 59.3867 18.1605C59.7041 18.2814 59.9762 18.4477 60.2029 18.6593C60.4447 18.8709 60.6412 19.1203 60.7924 19.4075C60.9587 19.6947 61.0645 20.0046 61.1098 20.3371C61.1098 20.5941 60.9813 20.7226 60.7244 20.7226H59.9988C59.7721 20.7226 59.6436 20.6168 59.6134 20.4052C59.5529 20.118 59.4093 19.8837 59.1826 19.7023C58.9559 19.5058 58.6914 19.4075 58.389 19.4075H54.716C54.3684 19.4075 54.0736 19.536 53.8318 19.793C53.5899 20.0348 53.469 20.3296 53.469 20.6772C53.469 21.0249 53.5899 21.3272 53.8318 21.5842C54.0736 21.8411 54.3684 21.9696 54.716 21.9696H58.4571C58.8501 21.9696 59.2204 22.0452 59.5681 22.1963C59.9157 22.3324 60.218 22.5289 60.475 22.7858C60.7319 23.0277 60.936 23.3224 61.0871 23.6701C61.2383 24.0026 61.3139 24.3654 61.3139 24.7584C61.3139 25.1514 61.2383 25.5217 61.0871 25.8694C60.936 26.2019 60.7319 26.4967 60.475 26.7536C60.218 27.0106 59.9157 27.2146 59.5681 27.3658C59.2204 27.517 58.8501 27.5925 58.4571 27.5925H54.5573C54.1945 27.5925 53.8469 27.5321 53.5143 27.4111C53.1969 27.2751 52.9097 27.0937 52.6528 26.867C52.4109 26.6403 52.2068 26.3757 52.0406 26.0734C51.8743 25.7711 51.7761 25.4461 51.7458 25.0985ZM67.033 18.3646C67.0783 18.2588 67.1539 18.1681 67.2597 18.0925C67.3806 18.0169 67.494 17.9791 67.5998 17.9791H68.4161C68.5219 17.9791 68.6277 18.0169 68.7335 18.0925C68.8544 18.1681 68.9451 18.2588 69.0056 18.3646L73.6989 27.2071C73.7291 27.2978 73.7442 27.3582 73.7442 27.3885C73.7442 27.5245 73.6687 27.5925 73.5175 27.5925H72.4745C72.3083 27.5925 72.1722 27.5018 72.0664 27.3205L71.0008 25.3252H66.5795C66.4284 25.3252 66.3528 25.2572 66.3528 25.1212C66.3528 25.0909 66.3679 25.0305 66.3981 24.9398L66.7609 24.2369C66.8667 24.0555 67.0028 23.9648 67.169 23.9648H70.2752L67.9853 19.4982L63.9948 27.3205C63.9646 27.396 63.9041 27.464 63.8134 27.5245C63.7378 27.5699 63.6623 27.5925 63.5867 27.5925H62.6117C62.4606 27.5925 62.385 27.5245 62.385 27.3885C62.385 27.3582 62.4001 27.2978 62.4304 27.2071L67.033 18.3646ZM78.5369 18.3646C78.5823 18.2588 78.6579 18.1681 78.7637 18.0925C78.8846 18.0169 78.998 17.9791 79.1038 17.9791H79.92C80.0258 17.9791 80.1316 18.0169 80.2374 18.0925C80.3583 18.1681 80.449 18.2588 80.5095 18.3646L85.2028 27.2071C85.2331 27.2978 85.2482 27.3582 85.2482 27.3885C85.2482 27.5245 85.1726 27.5925 85.0214 27.5925H83.9785C83.8122 27.5925 83.6762 27.5018 83.5704 27.3205L82.5047 25.3252H78.0835C77.9323 25.3252 77.8567 25.2572 77.8567 25.1212C77.8567 25.0909 77.8719 25.0305 77.9021 24.9398L78.2649 24.2369C78.3707 24.0555 78.5067 23.9648 78.673 23.9648H81.7792L79.4892 19.4982L75.4987 27.3205C75.4685 27.396 75.4081 27.464 75.3174 27.5245C75.2418 27.5699 75.1662 27.5925 75.0906 27.5925H74.1157C73.9645 27.5925 73.889 27.5245 73.889 27.3885C73.889 27.3582 73.9041 27.2978 73.9343 27.2071L78.5369 18.3646ZM86.3905 25.0985C86.3905 24.9927 86.4283 24.902 86.5039 24.8264C86.5795 24.7508 86.6701 24.713 86.776 24.713H87.5242C87.7358 24.713 87.8567 24.8189 87.8869 25.0305C87.9625 25.3479 88.1212 25.62 88.3631 25.8467C88.6049 26.0583 88.8921 26.1641 89.2247 26.1641H93.1244C93.5023 26.1641 93.8197 26.0281 94.0767 25.756C94.3337 25.4688 94.4621 25.1363 94.4621 24.7584C94.4621 24.3805 94.3337 24.0555 94.0767 23.7834C93.8197 23.5114 93.5023 23.3753 93.1244 23.3753H89.3834C89.0055 23.3753 88.6503 23.3073 88.3177 23.1713C88.0003 23.0352 87.7131 22.8463 87.4561 22.6044C87.2143 22.3626 87.0178 22.083 86.8666 21.7655C86.7306 21.433 86.6626 21.0778 86.6626 20.6999C86.6626 20.322 86.7306 19.9744 86.8666 19.6569C87.0178 19.3244 87.2143 19.0372 87.4561 18.7954C87.7131 18.5384 88.0003 18.3419 88.3177 18.2059C88.6503 18.0547 89.0055 17.9791 89.3834 17.9791H93.0791C93.4116 17.9791 93.729 18.0396 94.0314 18.1605C94.3488 18.2814 94.6209 18.4477 94.8476 18.6593C95.0894 18.8709 95.2859 19.1203 95.4371 19.4075C95.6034 19.6947 95.7092 20.0046 95.7545 20.3371C95.7545 20.5941 95.626 20.7226 95.3691 20.7226H94.6435C94.4168 20.7226 94.2883 20.6168 94.2581 20.4052C94.1976 20.118 94.054 19.8837 93.8273 19.7023C93.6006 19.5058 93.336 19.4075 93.0337 19.4075H89.3607C89.013 19.4075 88.7183 19.536 88.4764 19.793C88.2346 20.0348 88.1137 20.3296 88.1137 20.6772C88.1137 21.0249 88.2346 21.3272 88.4764 21.5842C88.7183 21.8411 89.013 21.9696 89.3607 21.9696H93.1018C93.4948 21.9696 93.8651 22.0452 94.2127 22.1963C94.5604 22.3324 94.8627 22.5289 95.1197 22.7858C95.3766 23.0277 95.5807 23.3224 95.7318 23.6701C95.883 24.0026 95.9586 24.3654 95.9586 24.7584C95.9586 25.1514 95.883 25.5217 95.7318 25.8694C95.5807 26.2019 95.3766 26.4967 95.1197 26.7536C94.8627 27.0106 94.5604 27.2146 94.2127 27.3658C93.8651 27.517 93.4948 27.5925 93.1018 27.5925H89.202C88.8392 27.5925 88.4916 27.5321 88.159 27.4111C87.8416 27.2751 87.5544 27.0937 87.2974 26.867C87.0556 26.6403 86.8515 26.3757 86.6853 26.0734C86.519 25.7711 86.4207 25.4461 86.3905 25.0985ZM104.374 19.4075C104.374 19.2413 104.412 19.075 104.487 18.9087C104.578 18.7273 104.691 18.5686 104.827 18.4326C104.963 18.2966 105.114 18.1907 105.281 18.1152C105.462 18.0245 105.636 17.9791 105.802 17.9791H113.171C113.352 17.9791 113.526 18.0245 113.692 18.1152C113.859 18.1907 114.01 18.2966 114.146 18.4326C114.282 18.5686 114.388 18.7273 114.463 18.9087C114.554 19.075 114.599 19.2413 114.599 19.4075V26.1641C114.599 26.3304 114.554 26.5042 114.463 26.6856C114.388 26.8519 114.282 27.003 114.146 27.1391C114.01 27.2751 113.859 27.3885 113.692 27.4792C113.526 27.5547 113.352 27.5925 113.171 27.5925H105.802C105.636 27.5925 105.462 27.5547 105.281 27.4792C105.114 27.3885 104.963 27.2751 104.827 27.1391C104.691 27.003 104.578 26.8519 104.487 26.6856C104.412 26.5042 104.374 26.3304 104.374 26.1641V19.4075ZM105.938 26.1641H113.035V19.4075H105.938V26.1641ZM116.806 25.0985C116.806 24.9927 116.844 24.902 116.919 24.8264C116.995 24.7508 117.086 24.713 117.192 24.713H117.94C118.151 24.713 118.272 24.8189 118.303 25.0305C118.378 25.3479 118.537 25.62 118.779 25.8467C119.021 26.0583 119.308 26.1641 119.64 26.1641H123.54C123.918 26.1641 124.235 26.0281 124.492 25.756C124.749 25.4688 124.878 25.1363 124.878 24.7584C124.878 24.3805 124.749 24.0555 124.492 23.7834C124.235 23.5114 123.918 23.3753 123.54 23.3753H119.799C119.421 23.3753 119.066 23.3073 118.733 23.1713C118.416 23.0352 118.129 22.8463 117.872 22.6044C117.63 22.3626 117.433 22.083 117.282 21.7655C117.146 21.433 117.078 21.0778 117.078 20.6999C117.078 20.322 117.146 19.9744 117.282 19.6569C117.433 19.3244 117.63 19.0372 117.872 18.7954C118.129 18.5384 118.416 18.3419 118.733 18.2059C119.066 18.0547 119.421 17.9791 119.799 17.9791H123.495C123.827 17.9791 124.145 18.0396 124.447 18.1605C124.764 18.2814 125.036 18.4477 125.263 18.6593C125.505 18.8709 125.702 19.1203 125.853 19.4075C126.019 19.6947 126.125 20.0046 126.17 20.3371C126.17 20.5941 126.042 20.7226 125.785 20.7226H125.059C124.832 20.7226 124.704 20.6168 124.674 20.4052C124.613 20.118 124.47 19.8837 124.243 19.7023C124.016 19.5058 123.752 19.4075 123.449 19.4075H119.776C119.429 19.4075 119.134 19.536 118.892 19.793C118.65 20.0348 118.529 20.3296 118.529 20.6772C118.529 21.0249 118.65 21.3272 118.892 21.5842C119.134 21.8411 119.429 21.9696 119.776 21.9696H123.517C123.91 21.9696 124.281 22.0452 124.628 22.1963C124.976 22.3324 125.278 22.5289 125.535 22.7858C125.792 23.0277 125.996 23.3224 126.147 23.6701C126.299 24.0026 126.374 24.3654 126.374 24.7584C126.374 25.1514 126.299 25.5217 126.147 25.8694C125.996 26.2019 125.792 26.4967 125.535 26.7536C125.278 27.0106 124.976 27.2146 124.628 27.3658C124.281 27.517 123.91 27.5925 123.517 27.5925H119.618C119.255 27.5925 118.907 27.5321 118.575 27.4111C118.257 27.2751 117.97 27.0937 117.713 26.867C117.471 26.6403 117.267 26.3757 117.101 26.0734C116.935 25.7711 116.836 25.4461 116.806 25.0985Z"/>
</mask>
<path d="M51.7458 25.0985C51.7458 24.9927 51.7836 24.902 51.8592 24.8264C51.9348 24.7508 52.0255 24.713 52.1313 24.713H52.8795C53.0911 24.713 53.212 24.8189 53.2423 25.0305C53.3178 25.3479 53.4765 25.62 53.7184 25.8467C53.9602 26.0583 54.2474 26.1641 54.58 26.1641H58.4797C58.8576 26.1641 59.1751 26.0281 59.432 25.756C59.689 25.4688 59.8175 25.1363 59.8175 24.7584C59.8175 24.3805 59.689 24.0555 59.432 23.7834C59.1751 23.5114 58.8576 23.3753 58.4797 23.3753H54.7387C54.3608 23.3753 54.0056 23.3073 53.673 23.1713C53.3556 23.0352 53.0684 22.8463 52.8115 22.6044C52.5696 22.3626 52.3731 22.083 52.222 21.7655C52.0859 21.433 52.0179 21.0778 52.0179 20.6999C52.0179 20.322 52.0859 19.9744 52.222 19.6569C52.3731 19.3244 52.5696 19.0372 52.8115 18.7954C53.0684 18.5384 53.3556 18.3419 53.673 18.2059C54.0056 18.0547 54.3608 17.9791 54.7387 17.9791H58.4344C58.7669 17.9791 59.0844 18.0396 59.3867 18.1605C59.7041 18.2814 59.9762 18.4477 60.2029 18.6593C60.4447 18.8709 60.6412 19.1203 60.7924 19.4075C60.9587 19.6947 61.0645 20.0046 61.1098 20.3371C61.1098 20.5941 60.9813 20.7226 60.7244 20.7226H59.9988C59.7721 20.7226 59.6436 20.6168 59.6134 20.4052C59.5529 20.118 59.4093 19.8837 59.1826 19.7023C58.9559 19.5058 58.6914 19.4075 58.389 19.4075H54.716C54.3684 19.4075 54.0736 19.536 53.8318 19.793C53.5899 20.0348 53.469 20.3296 53.469 20.6772C53.469 21.0249 53.5899 21.3272 53.8318 21.5842C54.0736 21.8411 54.3684 21.9696 54.716 21.9696H58.4571C58.8501 21.9696 59.2204 22.0452 59.5681 22.1963C59.9157 22.3324 60.218 22.5289 60.475 22.7858C60.7319 23.0277 60.936 23.3224 61.0871 23.6701C61.2383 24.0026 61.3139 24.3654 61.3139 24.7584C61.3139 25.1514 61.2383 25.5217 61.0871 25.8694C60.936 26.2019 60.7319 26.4967 60.475 26.7536C60.218 27.0106 59.9157 27.2146 59.5681 27.3658C59.2204 27.517 58.8501 27.5925 58.4571 27.5925H54.5573C54.1945 27.5925 53.8469 27.5321 53.5143 27.4111C53.1969 27.2751 52.9097 27.0937 52.6528 26.867C52.4109 26.6403 52.2068 26.3757 52.0406 26.0734C51.8743 25.7711 51.7761 25.4461 51.7458 25.0985ZM67.033 18.3646C67.0783 18.2588 67.1539 18.1681 67.2597 18.0925C67.3806 18.0169 67.494 17.9791 67.5998 17.9791H68.4161C68.5219 17.9791 68.6277 18.0169 68.7335 18.0925C68.8544 18.1681 68.9451 18.2588 69.0056 18.3646L73.6989 27.2071C73.7291 27.2978 73.7442 27.3582 73.7442 27.3885C73.7442 27.5245 73.6687 27.5925 73.5175 27.5925H72.4745C72.3083 27.5925 72.1722 27.5018 72.0664 27.3205L71.0008 25.3252H66.5795C66.4284 25.3252 66.3528 25.2572 66.3528 25.1212C66.3528 25.0909 66.3679 25.0305 66.3981 24.9398L66.7609 24.2369C66.8667 24.0555 67.0028 23.9648 67.169 23.9648H70.2752L67.9853 19.4982L63.9948 27.3205C63.9646 27.396 63.9041 27.464 63.8134 27.5245C63.7378 27.5699 63.6623 27.5925 63.5867 27.5925H62.6117C62.4606 27.5925 62.385 27.5245 62.385 27.3885C62.385 27.3582 62.4001 27.2978 62.4304 27.2071L67.033 18.3646ZM78.5369 18.3646C78.5823 18.2588 78.6579 18.1681 78.7637 18.0925C78.8846 18.0169 78.998 17.9791 79.1038 17.9791H79.92C80.0258 17.9791 80.1316 18.0169 80.2374 18.0925C80.3583 18.1681 80.449 18.2588 80.5095 18.3646L85.2028 27.2071C85.2331 27.2978 85.2482 27.3582 85.2482 27.3885C85.2482 27.5245 85.1726 27.5925 85.0214 27.5925H83.9785C83.8122 27.5925 83.6762 27.5018 83.5704 27.3205L82.5047 25.3252H78.0835C77.9323 25.3252 77.8567 25.2572 77.8567 25.1212C77.8567 25.0909 77.8719 25.0305 77.9021 24.9398L78.2649 24.2369C78.3707 24.0555 78.5067 23.9648 78.673 23.9648H81.7792L79.4892 19.4982L75.4987 27.3205C75.4685 27.396 75.4081 27.464 75.3174 27.5245C75.2418 27.5699 75.1662 27.5925 75.0906 27.5925H74.1157C73.9645 27.5925 73.889 27.5245 73.889 27.3885C73.889 27.3582 73.9041 27.2978 73.9343 27.2071L78.5369 18.3646ZM86.3905 25.0985C86.3905 24.9927 86.4283 24.902 86.5039 24.8264C86.5795 24.7508 86.6701 24.713 86.776 24.713H87.5242C87.7358 24.713 87.8567 24.8189 87.8869 25.0305C87.9625 25.3479 88.1212 25.62 88.3631 25.8467C88.6049 26.0583 88.8921 26.1641 89.2247 26.1641H93.1244C93.5023 26.1641 93.8197 26.0281 94.0767 25.756C94.3337 25.4688 94.4621 25.1363 94.4621 24.7584C94.4621 24.3805 94.3337 24.0555 94.0767 23.7834C93.8197 23.5114 93.5023 23.3753 93.1244 23.3753H89.3834C89.0055 23.3753 88.6503 23.3073 88.3177 23.1713C88.0003 23.0352 87.7131 22.8463 87.4561 22.6044C87.2143 22.3626 87.0178 22.083 86.8666 21.7655C86.7306 21.433 86.6626 21.0778 86.6626 20.6999C86.6626 20.322 86.7306 19.9744 86.8666 19.6569C87.0178 19.3244 87.2143 19.0372 87.4561 18.7954C87.7131 18.5384 88.0003 18.3419 88.3177 18.2059C88.6503 18.0547 89.0055 17.9791 89.3834 17.9791H93.0791C93.4116 17.9791 93.729 18.0396 94.0314 18.1605C94.3488 18.2814 94.6209 18.4477 94.8476 18.6593C95.0894 18.8709 95.2859 19.1203 95.4371 19.4075C95.6034 19.6947 95.7092 20.0046 95.7545 20.3371C95.7545 20.5941 95.626 20.7226 95.3691 20.7226H94.6435C94.4168 20.7226 94.2883 20.6168 94.2581 20.4052C94.1976 20.118 94.054 19.8837 93.8273 19.7023C93.6006 19.5058 93.336 19.4075 93.0337 19.4075H89.3607C89.013 19.4075 88.7183 19.536 88.4764 19.793C88.2346 20.0348 88.1137 20.3296 88.1137 20.6772C88.1137 21.0249 88.2346 21.3272 88.4764 21.5842C88.7183 21.8411 89.013 21.9696 89.3607 21.9696H93.1018C93.4948 21.9696 93.8651 22.0452 94.2127 22.1963C94.5604 22.3324 94.8627 22.5289 95.1197 22.7858C95.3766 23.0277 95.5807 23.3224 95.7318 23.6701C95.883 24.0026 95.9586 24.3654 95.9586 24.7584C95.9586 25.1514 95.883 25.5217 95.7318 25.8694C95.5807 26.2019 95.3766 26.4967 95.1197 26.7536C94.8627 27.0106 94.5604 27.2146 94.2127 27.3658C93.8651 27.517 93.4948 27.5925 93.1018 27.5925H89.202C88.8392 27.5925 88.4916 27.5321 88.159 27.4111C87.8416 27.2751 87.5544 27.0937 87.2974 26.867C87.0556 26.6403 86.8515 26.3757 86.6853 26.0734C86.519 25.7711 86.4207 25.4461 86.3905 25.0985ZM104.374 19.4075C104.374 19.2413 104.412 19.075 104.487 18.9087C104.578 18.7273 104.691 18.5686 104.827 18.4326C104.963 18.2966 105.114 18.1907 105.281 18.1152C105.462 18.0245 105.636 17.9791 105.802 17.9791H113.171C113.352 17.9791 113.526 18.0245 113.692 18.1152C113.859 18.1907 114.01 18.2966 114.146 18.4326C114.282 18.5686 114.388 18.7273 114.463 18.9087C114.554 19.075 114.599 19.2413 114.599 19.4075V26.1641C114.599 26.3304 114.554 26.5042 114.463 26.6856C114.388 26.8519 114.282 27.003 114.146 27.1391C114.01 27.2751 113.859 27.3885 113.692 27.4792C113.526 27.5547 113.352 27.5925 113.171 27.5925H105.802C105.636 27.5925 105.462 27.5547 105.281 27.4792C105.114 27.3885 104.963 27.2751 104.827 27.1391C104.691 27.003 104.578 26.8519 104.487 26.6856C104.412 26.5042 104.374 26.3304 104.374 26.1641V19.4075ZM105.938 26.1641H113.035V19.4075H105.938V26.1641ZM116.806 25.0985C116.806 24.9927 116.844 24.902 116.919 24.8264C116.995 24.7508 117.086 24.713 117.192 24.713H117.94C118.151 24.713 118.272 24.8189 118.303 25.0305C118.378 25.3479 118.537 25.62 118.779 25.8467C119.021 26.0583 119.308 26.1641 119.64 26.1641H123.54C123.918 26.1641 124.235 26.0281 124.492 25.756C124.749 25.4688 124.878 25.1363 124.878 24.7584C124.878 24.3805 124.749 24.0555 124.492 23.7834C124.235 23.5114 123.918 23.3753 123.54 23.3753H119.799C119.421 23.3753 119.066 23.3073 118.733 23.1713C118.416 23.0352 118.129 22.8463 117.872 22.6044C117.63 22.3626 117.433 22.083 117.282 21.7655C117.146 21.433 117.078 21.0778 117.078 20.6999C117.078 20.322 117.146 19.9744 117.282 19.6569C117.433 19.3244 117.63 19.0372 117.872 18.7954C118.129 18.5384 118.416 18.3419 118.733 18.2059C119.066 18.0547 119.421 17.9791 119.799 17.9791H123.495C123.827 17.9791 124.145 18.0396 124.447 18.1605C124.764 18.2814 125.036 18.4477 125.263 18.6593C125.505 18.8709 125.702 19.1203 125.853 19.4075C126.019 19.6947 126.125 20.0046 126.17 20.3371C126.17 20.5941 126.042 20.7226 125.785 20.7226H125.059C124.832 20.7226 124.704 20.6168 124.674 20.4052C124.613 20.118 124.47 19.8837 124.243 19.7023C124.016 19.5058 123.752 19.4075 123.449 19.4075H119.776C119.429 19.4075 119.134 19.536 118.892 19.793C118.65 20.0348 118.529 20.3296 118.529 20.6772C118.529 21.0249 118.65 21.3272 118.892 21.5842C119.134 21.8411 119.429 21.9696 119.776 21.9696H123.517C123.91 21.9696 124.281 22.0452 124.628 22.1963C124.976 22.3324 125.278 22.5289 125.535 22.7858C125.792 23.0277 125.996 23.3224 126.147 23.6701C126.299 24.0026 126.374 24.3654 126.374 24.7584C126.374 25.1514 126.299 25.5217 126.147 25.8694C125.996 26.2019 125.792 26.4967 125.535 26.7536C125.278 27.0106 124.976 27.2146 124.628 27.3658C124.281 27.517 123.91 27.5925 123.517 27.5925H119.618C119.255 27.5925 118.907 27.5321 118.575 27.4111C118.257 27.2751 117.97 27.0937 117.713 26.867C117.471 26.6403 117.267 26.3757 117.101 26.0734C116.935 25.7711 116.836 25.4461 116.806 25.0985Z" fill="black"/>
<path d="M51.7458 25.0985H51.2458V25.1202L51.2477 25.1418L51.7458 25.0985ZM51.8592 24.8264L51.5056 24.4729H51.5056L51.8592 24.8264ZM53.2423 25.0305L52.7473 25.1012L52.7505 25.1239L52.7559 25.1463L53.2423 25.0305ZM53.7184 25.8467L53.3764 26.2115L53.3827 26.2173L53.3891 26.223L53.7184 25.8467ZM59.432 25.756L59.7957 26.0994L59.8046 26.0894L59.432 25.756ZM59.432 23.7834L59.0685 24.1268L59.432 23.7834ZM53.673 23.1713L53.4761 23.6309L53.4837 23.634L53.673 23.1713ZM52.8115 22.6044L52.4579 22.958L52.4633 22.9634L52.4688 22.9685L52.8115 22.6044ZM52.222 21.7655L51.7592 21.9549L51.7645 21.9678L51.7705 21.9805L52.222 21.7655ZM52.222 19.6569L51.7667 19.45L51.7624 19.46L52.222 19.6569ZM52.8115 18.7954L53.165 19.1489L53.165 19.1489L52.8115 18.7954ZM53.673 18.2059L53.87 18.6655L53.8799 18.661L53.673 18.2059ZM59.3867 18.1605L59.2009 18.6248L59.2087 18.6278L59.3867 18.1605ZM60.2029 18.6593L59.8617 19.0249L59.8676 19.0303L59.8736 19.0356L60.2029 18.6593ZM60.7924 19.4075L60.3499 19.6404L60.3546 19.6493L60.3597 19.6581L60.7924 19.4075ZM61.1098 20.3371H61.6098V20.3032L61.6052 20.2696L61.1098 20.3371ZM59.6134 20.4052L60.1084 20.3344L60.1061 20.3182L60.1027 20.3021L59.6134 20.4052ZM59.1826 19.7023L58.8551 20.0801L58.8626 20.0866L58.8703 20.0927L59.1826 19.7023ZM53.8318 19.793L54.1853 20.1465L54.1907 20.1412L54.1959 20.1357L53.8318 19.793ZM53.8318 21.5842L54.1959 21.2415H54.1959L53.8318 21.5842ZM59.5681 22.1963L59.3687 22.6549L59.3772 22.6586L59.3859 22.662L59.5681 22.1963ZM60.475 22.7858L60.1214 23.1394L60.1268 23.1447L60.1323 23.1499L60.475 22.7858ZM61.0871 23.6701L60.6286 23.8695L60.632 23.877L61.0871 23.6701ZM61.0871 25.8694L61.5424 26.0763L61.5457 26.0687L61.0871 25.8694ZM60.475 26.7536L60.1214 26.4001L60.475 26.7536ZM59.5681 27.3658L59.3687 26.9073L59.5681 27.3658ZM53.5143 27.4111L53.3174 27.8707L53.3303 27.8762L53.3435 27.881L53.5143 27.4111ZM52.6528 26.867L52.3108 27.2318L52.3163 27.2369L52.3219 27.2419L52.6528 26.867ZM52.0406 26.0734L51.6025 26.3144H51.6025L52.0406 26.0734ZM52.2458 25.0985C52.2458 25.1065 52.2441 25.1233 52.2357 25.1434C52.2274 25.1635 52.2171 25.1757 52.2127 25.18L51.5056 24.4729C51.3374 24.6411 51.2458 24.8586 51.2458 25.0985H52.2458ZM52.2127 25.18C52.2084 25.1843 52.1963 25.1946 52.1762 25.2029C52.1561 25.2113 52.1393 25.213 52.1313 25.213V24.213C51.8914 24.213 51.6739 24.3046 51.5056 24.4729L52.2127 25.18ZM52.1313 25.213H52.8795V24.213H52.1313V25.213ZM52.8795 25.213C52.9032 25.213 52.856 25.218 52.7996 25.1687C52.744 25.12 52.7434 25.0742 52.7473 25.1012L53.7372 24.9598C53.7109 24.7751 53.6347 24.5706 53.4581 24.4161C53.2809 24.261 53.0673 24.213 52.8795 24.213V25.213ZM52.7559 25.1463C52.8545 25.5607 53.0643 25.9188 53.3764 26.2115L54.0604 25.4819C53.8888 25.3211 53.7812 25.1351 53.7287 24.9147L52.7559 25.1463ZM53.3891 26.223C53.7255 26.5173 54.1309 26.6641 54.58 26.6641V25.6641C54.3639 25.6641 54.1949 25.5993 54.0476 25.4704L53.3891 26.223ZM54.58 26.6641H58.4797V25.6641H54.58V26.6641ZM58.4797 26.6641C58.9937 26.6641 59.4431 26.4725 59.7955 26.0993L59.0685 25.4127C58.907 25.5837 58.7216 25.6641 58.4797 25.6641V26.6641ZM59.8046 26.0894C60.1418 25.7125 60.3175 25.262 60.3175 24.7584H59.3175C59.3175 25.0106 59.2361 25.2251 59.0594 25.4226L59.8046 26.0894ZM60.3175 24.7584C60.3175 24.2542 60.1411 23.806 59.7955 23.4401L59.0685 24.1268C59.2369 24.305 59.3175 24.5068 59.3175 24.7584H60.3175ZM59.7955 23.4401C59.4431 23.0669 58.9937 22.8753 58.4797 22.8753V23.8753C58.7216 23.8753 58.907 23.9558 59.0685 24.1268L59.7955 23.4401ZM58.4797 22.8753H54.7387V23.8753H58.4797V22.8753ZM54.7387 22.8753C54.4223 22.8753 54.1317 22.8187 53.8624 22.7085L53.4837 23.634C53.8794 23.7959 54.2993 23.8753 54.7387 23.8753V22.8753ZM53.87 22.7117C53.6075 22.5992 53.3694 22.443 53.1541 22.2403L52.4688 22.9685C52.7674 23.2496 53.1037 23.4712 53.4761 23.6308L53.87 22.7117ZM53.165 22.2509C52.9646 22.0505 52.8008 21.818 52.6734 21.5506L51.7705 21.9805C51.9455 22.3479 52.1747 22.6747 52.4579 22.958L53.165 22.2509ZM52.6847 21.5762C52.5745 21.3069 52.5179 21.0163 52.5179 20.6999H51.5179C51.5179 21.1393 51.5973 21.5591 51.7592 21.9549L52.6847 21.5762ZM52.5179 20.6999C52.5179 20.3833 52.5746 20.1034 52.6815 19.8539L51.7624 19.46C51.5973 19.8453 51.5179 20.2607 51.5179 20.6999H52.5179ZM52.6771 19.8638C52.8052 19.5821 52.9684 19.3456 53.165 19.1489L52.4579 18.4418C52.1709 18.7289 51.941 19.0667 51.7668 19.45L52.6771 19.8638ZM53.165 19.1489C53.3794 18.9345 53.6141 18.7751 53.87 18.6654L53.4761 17.7463C53.0972 17.9087 52.7575 18.1423 52.4579 18.4418L53.165 19.1489ZM53.8799 18.661C54.1452 18.5405 54.4296 18.4791 54.7387 18.4791V17.4791C54.2919 17.4791 53.8659 17.569 53.4661 17.7507L53.8799 18.661ZM54.7387 18.4791H58.4344V17.4791H54.7387V18.4791ZM58.4344 18.4791C58.7047 18.4791 58.959 18.528 59.201 18.6248L59.5724 17.6963C59.2097 17.5512 58.8292 17.4791 58.4344 17.4791V18.4791ZM59.2087 18.6278C59.4714 18.7279 59.6866 18.8614 59.8617 19.0249L60.5441 18.2938C60.2657 18.034 59.9368 17.835 59.5647 17.6933L59.2087 18.6278ZM59.8736 19.0356C60.0688 19.2064 60.2271 19.407 60.3499 19.6404L61.2349 19.1747C61.0554 18.8337 60.8207 18.5355 60.5322 18.283L59.8736 19.0356ZM60.3597 19.6581C60.493 19.8883 60.5778 20.1359 60.6144 20.4047L61.6052 20.2696C61.5512 19.8733 61.4244 19.5012 61.2251 19.157L60.3597 19.6581ZM60.6098 20.3371C60.6098 20.3885 60.5973 20.3353 60.6599 20.2727C60.7225 20.2101 60.7758 20.2226 60.7244 20.2226V21.2226C60.9299 21.2226 61.1759 21.1709 61.367 20.9798C61.5581 20.7887 61.6098 20.5427 61.6098 20.3371H60.6098ZM60.7244 20.2226H59.9988V21.2226H60.7244V20.2226ZM59.9988 20.2226C59.9596 20.2226 59.9973 20.2136 60.0503 20.2573C60.0757 20.2782 60.0924 20.3017 60.1017 20.3204C60.1102 20.3375 60.1098 20.3447 60.1084 20.3344L59.1184 20.4759C59.146 20.6689 59.2291 20.8764 59.4146 21.0292C59.5961 21.1787 59.8114 21.2226 59.9988 21.2226V20.2226ZM60.1027 20.3021C60.0186 19.9029 59.8133 19.5665 59.495 19.3119L58.8703 20.0927C59.0054 20.2009 59.0873 20.3331 59.1241 20.5082L60.1027 20.3021ZM59.5101 19.3244C59.1917 19.0485 58.8106 18.9075 58.389 18.9075V19.9075C58.5721 19.9075 58.7201 19.9631 58.8551 20.0801L59.5101 19.3244ZM58.389 18.9075H54.716V19.9075H58.389V18.9075ZM54.716 18.9075C54.2282 18.9075 53.8024 19.0947 53.4677 19.4503L54.1959 20.1357C54.3448 19.9774 54.5085 19.9075 54.716 19.9075V18.9075ZM53.4782 19.4394C53.1409 19.7768 52.969 20.1994 52.969 20.6772H53.969C53.969 20.4597 54.0389 20.2929 54.1853 20.1465L53.4782 19.4394ZM52.969 20.6772C52.969 21.1544 53.14 21.5787 53.4677 21.9268L54.1959 21.2415C54.0398 21.0757 53.969 20.8954 53.969 20.6772H52.969ZM53.4677 21.9268C53.8024 22.2825 54.2282 22.4696 54.716 22.4696V21.4696C54.5085 21.4696 54.3448 21.3998 54.1959 21.2415L53.4677 21.9268ZM54.716 22.4696H58.4571V21.4696H54.716V22.4696ZM58.4571 22.4696C58.784 22.4696 59.0863 22.5321 59.3687 22.6549L59.7674 21.7378C59.3545 21.5583 58.9161 21.4696 58.4571 21.4696V22.4696ZM59.3859 22.662C59.6711 22.7736 59.9146 22.9325 60.1214 23.1394L60.8285 22.4323C60.5214 22.1252 60.1603 21.8912 59.7503 21.7307L59.3859 22.662ZM60.1323 23.1499C60.3363 23.3419 60.5025 23.5793 60.6286 23.8694L61.5457 23.4707C61.3695 23.0655 61.1276 22.7134 60.8177 22.4217L60.1323 23.1499ZM60.632 23.877C60.7514 24.1397 60.8139 24.4313 60.8139 24.7584H61.8139C61.8139 24.2995 61.7252 23.8655 61.5423 23.4632L60.632 23.877ZM60.8139 24.7584C60.8139 25.0854 60.7514 25.3876 60.6286 25.67L61.5457 26.0687C61.7252 25.6559 61.8139 25.2174 61.8139 24.7584H60.8139ZM60.632 25.6625C60.5055 25.9407 60.3358 26.1857 60.1214 26.4001L60.8285 27.1072C61.1281 26.8076 61.3665 26.4631 61.5423 26.0763L60.632 25.6625ZM60.1214 26.4001C59.9107 26.6108 59.6613 26.78 59.3687 26.9073L59.7674 27.8243C60.1701 27.6493 60.5253 27.4104 60.8285 27.1072L60.1214 26.4001ZM59.3687 26.9073C59.0863 27.0301 58.784 27.0925 58.4571 27.0925V28.0925C58.9161 28.0925 59.3545 28.0038 59.7674 27.8243L59.3687 26.9073ZM58.4571 27.0925H54.5573V28.0925H58.4571V27.0925ZM54.5573 27.0925C54.2513 27.0925 53.9616 27.0417 53.6852 26.9412L53.3435 27.881C53.7322 28.0224 54.1377 28.0925 54.5573 28.0925V27.0925ZM53.7113 26.9516C53.4423 26.8363 53.2004 26.6834 52.9836 26.4921L52.3219 27.2419C52.6191 27.5041 52.9515 27.7139 53.3174 27.8707L53.7113 26.9516ZM52.9947 26.5022C52.7928 26.3129 52.6207 26.0906 52.4787 25.8325L51.6025 26.3144C51.793 26.6609 52.029 26.9676 52.3108 27.2318L52.9947 26.5022ZM52.4787 25.8325C52.3464 25.5919 52.2682 25.3343 52.2439 25.0552L51.2477 25.1418C51.2839 25.558 51.4023 25.9504 51.6025 26.3144L52.4787 25.8325ZM67.033 18.3646L67.4765 18.5954L67.4852 18.5788L67.4926 18.5615L67.033 18.3646ZM67.2597 18.0925L66.9947 17.6685L66.9817 17.6767L66.9691 17.6856L67.2597 18.0925ZM68.7335 18.0925L68.4429 18.4994L68.4554 18.5083L68.4685 18.5165L68.7335 18.0925ZM69.0056 18.3646L69.4472 18.1302L69.4435 18.1233L69.4397 18.1165L69.0056 18.3646ZM73.6989 27.2071L74.1732 27.049L74.1601 27.0095L74.1405 26.9727L73.6989 27.2071ZM72.0664 27.3205L71.6254 27.556L71.6298 27.5643L71.6345 27.5724L72.0664 27.3205ZM71.0008 25.3252L71.4418 25.0897L71.3006 24.8252H71.0008V25.3252ZM66.3981 24.9398L65.9538 24.7105L65.9361 24.7449L65.9238 24.7817L66.3981 24.9398ZM66.7609 24.2369L66.329 23.985L66.3225 23.9961L66.3166 24.0076L66.7609 24.2369ZM70.2752 23.9648V24.4648H71.0935L70.7202 23.7367L70.2752 23.9648ZM67.9853 19.4982L68.4302 19.2701L67.9842 18.4001L67.5399 19.271L67.9853 19.4982ZM63.9948 27.3205L63.5494 27.0932L63.539 27.1136L63.5306 27.1348L63.9948 27.3205ZM63.8134 27.5245L64.0707 27.9533L64.0809 27.9471L64.0908 27.9405L63.8134 27.5245ZM62.4304 27.2071L61.9868 26.9762L61.9685 27.0114L61.956 27.049L62.4304 27.2071ZM67.4926 18.5615C67.4974 18.5503 67.5091 18.5288 67.5503 18.4994L66.9691 17.6856C66.7987 17.8073 66.6593 17.9672 66.5734 18.1676L67.4926 18.5615ZM67.5247 18.5165C67.593 18.4738 67.615 18.4791 67.5998 18.4791V17.4791C67.3731 17.4791 67.1683 17.56 66.9947 17.6685L67.5247 18.5165ZM67.5998 18.4791H68.4161V17.4791H67.5998V18.4791ZM68.4161 18.4791C68.4082 18.4791 68.4043 18.4775 68.4066 18.4783C68.4097 18.4795 68.4218 18.4843 68.4429 18.4994L69.0241 17.6856C68.8532 17.5636 68.6479 17.4791 68.4161 17.4791V18.4791ZM68.4685 18.5165C68.5313 18.5558 68.5584 18.5899 68.5714 18.6126L69.4397 18.1165C69.3318 17.9277 69.1775 17.7804 68.9985 17.6685L68.4685 18.5165ZM68.5639 18.599L73.2572 27.4415L74.1405 26.9727L69.4472 18.1302L68.5639 18.599ZM73.2245 27.3652C73.2308 27.384 73.2359 27.3999 73.2398 27.4131C73.2438 27.4264 73.2463 27.4358 73.2478 27.4417C73.2494 27.4481 73.2491 27.4478 73.2482 27.4423C73.2477 27.4394 73.2468 27.4336 73.246 27.4255C73.2452 27.4176 73.2442 27.4049 73.2442 27.3885H74.2442C74.2442 27.3088 74.2273 27.2365 74.218 27.1992C74.2061 27.1518 74.1905 27.1008 74.1732 27.049L73.2245 27.3652ZM73.2442 27.3885C73.2442 27.365 73.2532 27.2598 73.3531 27.1699C73.443 27.089 73.5283 27.0925 73.5175 27.0925V28.0925C73.6579 28.0925 73.8566 28.0621 74.022 27.9132C74.1975 27.7552 74.2442 27.548 74.2442 27.3885H73.2442ZM73.5175 27.0925H72.4745V28.0925H73.5175V27.0925ZM72.4745 27.0925C72.479 27.0925 72.4879 27.0932 72.4992 27.0966C72.5105 27.1 72.5195 27.1047 72.5252 27.1085C72.5358 27.1156 72.5234 27.1115 72.4983 27.0685L71.6345 27.5724C71.8027 27.8606 72.0822 28.0925 72.4745 28.0925V27.0925ZM72.5075 27.0849L71.4418 25.0897L70.5598 25.5608L71.6254 27.556L72.5075 27.0849ZM71.0008 24.8252H66.5795V25.8252H71.0008V24.8252ZM66.5795 24.8252C66.5688 24.8252 66.6541 24.8217 66.744 24.9026C66.8439 24.9925 66.8528 25.0977 66.8528 25.1212H65.8528C65.8528 25.2807 65.8995 25.4879 66.075 25.6459C66.2405 25.7948 66.4391 25.8252 66.5795 25.8252V24.8252ZM66.8528 25.1212C66.8528 25.1376 66.8518 25.1503 66.851 25.1582C66.8502 25.1663 66.8493 25.1721 66.8488 25.175C66.8479 25.1805 66.8476 25.1808 66.8492 25.1744C66.8507 25.1685 66.8532 25.1591 66.8572 25.1458C66.8612 25.1326 66.8662 25.1167 66.8725 25.0979L65.9238 24.7817C65.9065 24.8335 65.8909 24.8845 65.8791 24.9319C65.8697 24.9692 65.8528 25.0415 65.8528 25.1212H66.8528ZM66.8425 25.1691L67.2052 24.4662L66.3166 24.0076L65.9538 24.7105L66.8425 25.1691ZM67.1928 24.4888C67.2179 24.4458 67.2303 24.4418 67.2197 24.4489C67.214 24.4527 67.205 24.4574 67.1937 24.4607C67.1824 24.4641 67.1735 24.4648 67.169 24.4648V23.4648C66.7767 23.4648 66.4971 23.6968 66.329 23.985L67.1928 24.4888ZM67.169 24.4648H70.2752V23.4648H67.169V24.4648ZM70.7202 23.7367L68.4302 19.2701L67.5403 19.7263L69.8303 24.1929L70.7202 23.7367ZM67.5399 19.271L63.5494 27.0932L64.4402 27.5477L68.4307 19.7254L67.5399 19.271ZM63.5306 27.1348C63.5393 27.1129 63.5494 27.1001 63.5531 27.096C63.5562 27.0925 63.5526 27.0975 63.5361 27.1085L64.0908 27.9405C64.2376 27.8426 64.3804 27.7027 64.459 27.5061L63.5306 27.1348ZM63.5562 27.0958C63.5499 27.0995 63.55 27.0985 63.5564 27.0966C63.5631 27.0946 63.5737 27.0925 63.5867 27.0925V28.0925C63.767 28.0925 63.9305 28.0374 64.0707 27.9533L63.5562 27.0958ZM63.5867 27.0925H62.6117V28.0925H63.5867V27.0925ZM62.6117 27.0925C62.601 27.0925 62.6863 27.089 62.7762 27.1699C62.8761 27.2598 62.885 27.365 62.885 27.3885H61.885C61.885 27.548 61.9317 27.7552 62.1072 27.9132C62.2727 28.0621 62.4713 28.0925 62.6117 28.0925V27.0925ZM62.885 27.3885C62.885 27.4049 62.884 27.4176 62.8832 27.4255C62.8824 27.4336 62.8815 27.4394 62.881 27.4423C62.8801 27.4478 62.8798 27.4481 62.8814 27.4417C62.8829 27.4358 62.8854 27.4264 62.8894 27.4131C62.8934 27.3999 62.8984 27.384 62.9047 27.3652L61.956 27.049C61.9387 27.1008 61.9231 27.1519 61.9113 27.1992C61.902 27.2365 61.885 27.3088 61.885 27.3885H62.885ZM62.8739 27.4379L67.4765 18.5954L66.5895 18.1337L61.9868 26.9762L62.8739 27.4379ZM78.5369 18.3646L78.9805 18.5954L78.9891 18.5788L78.9965 18.5615L78.5369 18.3646ZM78.7637 18.0925L78.4987 17.6685L78.4856 17.6767L78.4731 17.6856L78.7637 18.0925ZM80.2374 18.0925L79.9468 18.4994L79.9593 18.5083L79.9724 18.5165L80.2374 18.0925ZM80.5095 18.3646L80.9511 18.1302L80.9475 18.1233L80.9436 18.1165L80.5095 18.3646ZM85.2028 27.2071L85.6772 27.049L85.664 27.0095L85.6445 26.9727L85.2028 27.2071ZM83.5704 27.3205L83.1293 27.556L83.1338 27.5643L83.1385 27.5724L83.5704 27.3205ZM82.5047 25.3252L82.9458 25.0897L82.8045 24.8252H82.5047V25.3252ZM77.9021 24.9398L77.4578 24.7105L77.44 24.7449L77.4278 24.7817L77.9021 24.9398ZM78.2649 24.2369L77.833 23.985L77.8265 23.9961L77.8206 24.0076L78.2649 24.2369ZM81.7792 23.9648V24.4648H82.5974L82.2241 23.7367L81.7792 23.9648ZM79.4892 19.4982L79.9341 19.2701L79.4881 18.4001L79.0438 19.271L79.4892 19.4982ZM75.4987 27.3205L75.0534 27.0932L75.043 27.1136L75.0345 27.1348L75.4987 27.3205ZM75.3174 27.5245L75.5746 27.9533L75.5848 27.9471L75.5947 27.9405L75.3174 27.5245ZM73.9343 27.2071L73.4908 26.9762L73.4725 27.0114L73.46 27.049L73.9343 27.2071ZM78.9965 18.5615C79.0013 18.5503 79.0131 18.5288 79.0543 18.4994L78.4731 17.6856C78.3027 17.8073 78.1633 17.9672 78.0774 18.1676L78.9965 18.5615ZM79.0287 18.5165C79.0969 18.4738 79.1189 18.4791 79.1038 18.4791V17.4791C78.877 17.4791 78.6723 17.56 78.4987 17.6685L79.0287 18.5165ZM79.1038 18.4791H79.92V17.4791H79.1038V18.4791ZM79.92 18.4791C79.9121 18.4791 79.9083 18.4775 79.9105 18.4783C79.9137 18.4795 79.9258 18.4843 79.9468 18.4994L80.528 17.6856C80.3571 17.5636 80.1519 17.4791 79.92 17.4791V18.4791ZM79.9724 18.5165C80.0353 18.5558 80.0624 18.5899 80.0754 18.6126L80.9436 18.1165C80.8357 17.9277 80.6814 17.7804 80.5024 17.6685L79.9724 18.5165ZM80.0679 18.599L84.7612 27.4415L85.6445 26.9727L80.9511 18.1302L80.0679 18.599ZM84.7285 27.3652C84.7348 27.384 84.7398 27.3999 84.7438 27.4131C84.7478 27.4264 84.7503 27.4358 84.7518 27.4417C84.7534 27.4481 84.7531 27.4478 84.7521 27.4423C84.7517 27.4394 84.7508 27.4336 84.75 27.4255C84.7492 27.4176 84.7482 27.4049 84.7482 27.3885H85.7482C85.7482 27.3088 85.7312 27.2365 85.7219 27.1992C85.7101 27.1518 85.6945 27.1008 85.6772 27.049L84.7285 27.3652ZM84.7482 27.3885C84.7482 27.365 84.7571 27.2598 84.857 27.1699C84.9469 27.089 85.0322 27.0925 85.0215 27.0925V28.0925C85.1619 28.0925 85.3605 28.0621 85.526 27.9132C85.7015 27.7552 85.7482 27.548 85.7482 27.3885H84.7482ZM85.0215 27.0925H83.9785V28.0925H85.0215V27.0925ZM83.9785 27.0925C83.983 27.0925 83.9919 27.0932 84.0031 27.0966C84.0145 27.1 84.0234 27.1047 84.0291 27.1085C84.0398 27.1156 84.0274 27.1115 84.0023 27.0685L83.1385 27.5724C83.3066 27.8606 83.5862 28.0925 83.9785 28.0925V27.0925ZM84.0114 27.0849L82.9458 25.0897L82.0637 25.5608L83.1293 27.556L84.0114 27.0849ZM82.5047 24.8252H78.0835V25.8252H82.5047V24.8252ZM78.0835 24.8252C78.0727 24.8252 78.158 24.8217 78.2479 24.9026C78.3478 24.9925 78.3567 25.0977 78.3567 25.1212H77.3567C77.3567 25.2807 77.4035 25.4879 77.5789 25.6459C77.7444 25.7948 77.9431 25.8252 78.0835 25.8252V24.8252ZM78.3567 25.1212C78.3567 25.1376 78.3558 25.1503 78.355 25.1582C78.3542 25.1663 78.3533 25.1721 78.3528 25.175C78.3519 25.1805 78.3516 25.1808 78.3532 25.1744C78.3546 25.1685 78.3572 25.1591 78.3612 25.1458C78.3651 25.1326 78.3702 25.1167 78.3764 25.0979L77.4278 24.7817C77.4105 24.8335 77.3948 24.8845 77.383 24.9319C77.3737 24.9692 77.3567 25.0415 77.3567 25.1212H78.3567ZM78.3464 25.1691L78.7092 24.4662L77.8206 24.0076L77.4578 24.7105L78.3464 25.1691ZM78.6968 24.4888C78.7218 24.4458 78.7343 24.4418 78.7236 24.4489C78.7179 24.4527 78.7089 24.4574 78.6976 24.4607C78.6864 24.4641 78.6775 24.4648 78.673 24.4648V23.4648C78.2806 23.4648 78.0011 23.6968 77.833 23.985L78.6968 24.4888ZM78.673 24.4648H81.7792V23.4648H78.673V24.4648ZM82.2241 23.7367L79.9341 19.2701L79.0443 19.7263L81.3343 24.1929L82.2241 23.7367ZM79.0438 19.271L75.0534 27.0932L75.9441 27.5477L79.9346 19.7254L79.0438 19.271ZM75.0345 27.1348C75.0432 27.1129 75.0533 27.1001 75.057 27.096C75.0601 27.0925 75.0566 27.0975 75.04 27.1085L75.5947 27.9405C75.7415 27.8426 75.8844 27.7027 75.963 27.5061L75.0345 27.1348ZM75.0601 27.0958C75.0539 27.0995 75.054 27.0985 75.0603 27.0966C75.0671 27.0946 75.0776 27.0925 75.0906 27.0925V28.0925C75.271 28.0925 75.4344 28.0374 75.5746 27.9533L75.0601 27.0958ZM75.0906 27.0925H74.1157V28.0925H75.0906V27.0925ZM74.1157 27.0925C74.1049 27.0925 74.1902 27.089 74.2801 27.1699C74.38 27.2598 74.389 27.365 74.389 27.3885H73.389C73.389 27.548 73.4357 27.7552 73.6112 27.9132C73.7766 28.0621 73.9753 28.0925 74.1157 28.0925V27.0925ZM74.389 27.3885C74.389 27.4049 74.388 27.4176 74.3872 27.4255C74.3864 27.4336 74.3855 27.4394 74.385 27.4423C74.3841 27.4478 74.3838 27.4481 74.3854 27.4417C74.3868 27.4358 74.3894 27.4264 74.3934 27.4131C74.3973 27.3999 74.4024 27.384 74.4086 27.3652L73.46 27.049C73.4427 27.1008 73.427 27.1519 73.4152 27.1992C73.4059 27.2365 73.389 27.3088 73.389 27.3885H74.389ZM74.3778 27.4379L78.9805 18.5954L78.0934 18.1337L73.4908 26.9762L74.3778 27.4379ZM86.3905 25.0985H85.8905V25.1202L85.8924 25.1418L86.3905 25.0985ZM86.5039 24.8264L86.1503 24.4729L86.5039 24.8264ZM87.8869 25.0305L87.392 25.1012L87.3952 25.1239L87.4005 25.1463L87.8869 25.0305ZM88.3631 25.8467L88.0211 26.2115L88.0274 26.2173L88.0338 26.223L88.3631 25.8467ZM94.0767 25.756L94.4403 26.0994L94.4493 26.0894L94.0767 25.756ZM94.0767 23.7834L93.7132 24.1268H93.7132L94.0767 23.7834ZM88.3177 23.1713L88.1207 23.6309L88.1284 23.634L88.3177 23.1713ZM87.4562 22.6044L87.1026 22.958L87.108 22.9634L87.1135 22.9685L87.4562 22.6044ZM86.8666 21.7655L86.4039 21.9549L86.4092 21.9678L86.4152 21.9805L86.8666 21.7655ZM86.8666 19.6569L86.4114 19.45L86.4071 19.46L86.8666 19.6569ZM87.4562 18.7954L87.8097 19.1489V19.1489L87.4562 18.7954ZM88.3177 18.2059L88.5147 18.6655L88.5246 18.661L88.3177 18.2059ZM94.0313 18.1605L93.8456 18.6248L93.8534 18.6278L94.0313 18.1605ZM94.8476 18.6593L94.5064 19.0249L94.5123 19.0303L94.5183 19.0356L94.8476 18.6593ZM95.4371 19.4075L94.9946 19.6404L94.9993 19.6493L95.0044 19.6581L95.4371 19.4075ZM95.7545 20.3371H96.2545V20.3032L96.2499 20.2696L95.7545 20.3371ZM94.2581 20.4052L94.7531 20.3344L94.7507 20.3182L94.7474 20.3021L94.2581 20.4052ZM93.8273 19.7023L93.4998 20.0801L93.5073 20.0866L93.5149 20.0927L93.8273 19.7023ZM88.4764 19.793L88.83 20.1465L88.8354 20.1412L88.8405 20.1357L88.4764 19.793ZM88.4764 21.5842L88.8405 21.2415L88.4764 21.5842ZM94.2127 22.1963L94.0134 22.6549L94.0219 22.6586L94.0305 22.662L94.2127 22.1963ZM95.1197 22.7858L94.7661 23.1394L94.7715 23.1447L94.777 23.1499L95.1197 22.7858ZM95.7318 23.6701L95.2732 23.8695L95.2766 23.877L95.7318 23.6701ZM95.7318 25.8694L96.1871 26.0763L96.1904 26.0687L95.7318 25.8694ZM95.1197 26.7536L94.7661 26.4001L95.1197 26.7536ZM94.2127 27.3658L94.0134 26.9073L94.2127 27.3658ZM88.159 27.4111L87.9621 27.8707L87.975 27.8762L87.9881 27.881L88.159 27.4111ZM87.2974 26.867L86.9555 27.2318L86.961 27.2369L86.9666 27.2419L87.2974 26.867ZM86.6853 26.0734L86.2472 26.3144L86.6853 26.0734ZM86.8905 25.0985C86.8905 25.1065 86.8888 25.1233 86.8804 25.1434C86.872 25.1635 86.8617 25.1757 86.8574 25.18L86.1503 24.4729C85.9821 24.6411 85.8905 24.8586 85.8905 25.0985H86.8905ZM86.8574 25.18C86.8531 25.1843 86.8409 25.1946 86.8209 25.2029C86.8007 25.2113 86.7839 25.213 86.776 25.213V24.213C86.536 24.213 86.3186 24.3046 86.1503 24.4729L86.8574 25.18ZM86.776 25.213H87.5242V24.213H86.776V25.213ZM87.5242 25.213C87.5479 25.213 87.5006 25.218 87.4443 25.1687C87.3887 25.12 87.3881 25.0742 87.392 25.1012L88.3819 24.9598C88.3555 24.7751 88.2794 24.5706 88.1028 24.4161C87.9256 24.261 87.712 24.213 87.5242 24.213V25.213ZM87.4005 25.1463C87.4992 25.5607 87.709 25.9188 88.0211 26.2115L88.705 25.4819C88.5335 25.3211 88.4258 25.1351 88.3733 24.9147L87.4005 25.1463ZM88.0338 26.223C88.3702 26.5173 88.7756 26.6641 89.2247 26.6641V25.6641C89.0086 25.6641 88.8396 25.5993 88.6923 25.4704L88.0338 26.223ZM89.2247 26.6641H93.1244V25.6641H89.2247V26.6641ZM93.1244 26.6641C93.6384 26.6641 94.0877 26.4725 94.4402 26.0993L93.7132 25.4127C93.5517 25.5837 93.3663 25.6641 93.1244 25.6641V26.6641ZM94.4493 26.0894C94.7865 25.7125 94.9621 25.262 94.9621 24.7584H93.9621C93.9621 25.0106 93.8808 25.2251 93.7041 25.4226L94.4493 26.0894ZM94.9621 24.7584C94.9621 24.2542 94.7858 23.806 94.4402 23.4401L93.7132 24.1268C93.8815 24.305 93.9621 24.5068 93.9621 24.7584H94.9621ZM94.4402 23.4401C94.0877 23.0669 93.6384 22.8753 93.1244 22.8753V23.8753C93.3663 23.8753 93.5517 23.9558 93.7132 24.1268L94.4402 23.4401ZM93.1244 22.8753H89.3834V23.8753H93.1244V22.8753ZM89.3834 22.8753C89.067 22.8753 88.7764 22.8187 88.507 22.7085L88.1284 23.634C88.5241 23.7959 88.944 23.8753 89.3834 23.8753V22.8753ZM88.5147 22.7117C88.2522 22.5992 88.0141 22.443 87.7988 22.2403L87.1135 22.9685C87.4121 23.2496 87.7484 23.4712 88.1208 23.6308L88.5147 22.7117ZM87.8097 22.2509C87.6093 22.0505 87.4454 21.818 87.3181 21.5506L86.4152 21.9805C86.5902 22.3479 86.8193 22.6747 87.1026 22.958L87.8097 22.2509ZM87.3294 21.5762C87.2192 21.3069 87.1626 21.0163 87.1626 20.6999H86.1626C86.1626 21.1393 86.242 21.5591 86.4039 21.9549L87.3294 21.5762ZM87.1626 20.6999C87.1626 20.3833 87.2193 20.1034 87.3262 19.8539L86.4071 19.46C86.2419 19.8453 86.1626 20.2607 86.1626 20.6999H87.1626ZM87.3218 19.8638C87.4499 19.5821 87.6131 19.3456 87.8097 19.1489L87.1026 18.4418C86.8155 18.7289 86.5857 19.0667 86.4115 19.45L87.3218 19.8638ZM87.8097 19.1489C88.0241 18.9345 88.2588 18.7751 88.5147 18.6654L88.1208 17.7463C87.7419 17.9087 87.4022 18.1423 87.1026 18.4418L87.8097 19.1489ZM88.5246 18.661C88.7899 18.5405 89.0743 18.4791 89.3834 18.4791V17.4791C88.9366 17.4791 88.5106 17.569 88.1108 17.7507L88.5246 18.661ZM89.3834 18.4791H93.0791V17.4791H89.3834V18.4791ZM93.0791 18.4791C93.3494 18.4791 93.6037 18.528 93.8457 18.6248L94.217 17.6963C93.8544 17.5512 93.4738 17.4791 93.0791 17.4791V18.4791ZM93.8534 18.6278C94.1161 18.7279 94.3313 18.8614 94.5064 19.0249L95.1887 18.2938C94.9104 18.034 94.5814 17.835 94.2093 17.6933L93.8534 18.6278ZM94.5183 19.0356C94.7135 19.2064 94.8718 19.407 94.9946 19.6404L95.8795 19.1747C95.7001 18.8337 95.4654 18.5355 95.1768 18.283L94.5183 19.0356ZM95.0044 19.6581C95.1377 19.8883 95.2224 20.1359 95.2591 20.4047L96.2499 20.2696C96.1959 19.8733 96.0691 19.5012 95.8698 19.157L95.0044 19.6581ZM95.2545 20.3371C95.2545 20.3885 95.242 20.3353 95.3046 20.2727C95.3672 20.2101 95.4205 20.2226 95.3691 20.2226V21.2226C95.5746 21.2226 95.8206 21.1709 96.0117 20.9798C96.2028 20.7887 96.2545 20.5427 96.2545 20.3371H95.2545ZM95.3691 20.2226H94.6435V21.2226H95.3691V20.2226ZM94.6435 20.2226C94.6042 20.2226 94.642 20.2136 94.695 20.2573C94.7204 20.2782 94.737 20.3017 94.7464 20.3204C94.7549 20.3375 94.7545 20.3447 94.7531 20.3344L93.7631 20.4759C93.7907 20.6689 93.8738 20.8764 94.0593 21.0292C94.2408 21.1787 94.4561 21.2226 94.6435 21.2226V20.2226ZM94.7474 20.3021C94.6633 19.9029 94.4579 19.5665 94.1396 19.3119L93.5149 20.0927C93.6501 20.2009 93.7319 20.3331 93.7688 20.5082L94.7474 20.3021ZM94.1548 19.3244C93.8364 19.0485 93.4553 18.9075 93.0337 18.9075V19.9075C93.2168 19.9075 93.3648 19.9631 93.4998 20.0801L94.1548 19.3244ZM93.0337 18.9075H89.3607V19.9075H93.0337V18.9075ZM89.3607 18.9075C88.8728 18.9075 88.4471 19.0947 88.1123 19.4503L88.8405 20.1357C88.9895 19.9774 89.1532 19.9075 89.3607 19.9075V18.9075ZM88.1229 19.4394C87.7856 19.7768 87.6137 20.1994 87.6137 20.6772H88.6137C88.6137 20.4597 88.6836 20.2929 88.83 20.1465L88.1229 19.4394ZM87.6137 20.6772C87.6137 21.1544 87.7847 21.5787 88.1123 21.9268L88.8405 21.2415C88.6845 21.0757 88.6137 20.8954 88.6137 20.6772H87.6137ZM88.1123 21.9268C88.4471 22.2825 88.8728 22.4696 89.3607 22.4696V21.4696C89.1532 21.4696 88.9895 21.3998 88.8405 21.2415L88.1123 21.9268ZM89.3607 22.4696H93.1018V21.4696H89.3607V22.4696ZM93.1018 22.4696C93.4287 22.4696 93.7309 22.5321 94.0134 22.6549L94.4121 21.7378C93.9992 21.5583 93.5608 21.4696 93.1018 21.4696V22.4696ZM94.0305 22.662C94.3158 22.7736 94.5593 22.9325 94.7661 23.1394L95.4732 22.4323C95.1661 22.1252 94.805 21.8912 94.3949 21.7307L94.0305 22.662ZM94.777 23.1499C94.981 23.3419 95.1472 23.5793 95.2733 23.8694L96.1904 23.4707C96.0142 23.0655 95.7723 22.7134 95.4623 22.4217L94.777 23.1499ZM95.2766 23.877C95.3961 24.1397 95.4586 24.4313 95.4586 24.7584H96.4586C96.4586 24.2995 96.3699 23.8655 96.187 23.4632L95.2766 23.877ZM95.4586 24.7584C95.4586 25.0854 95.3961 25.3876 95.2733 25.67L96.1904 26.0687C96.3699 25.6559 96.4586 25.2174 96.4586 24.7584H95.4586ZM95.2766 25.6625C95.1502 25.9407 94.9804 26.1857 94.7661 26.4001L95.4732 27.1072C95.7728 26.8076 96.0112 26.4631 96.187 26.0763L95.2766 25.6625ZM94.7661 26.4001C94.5554 26.6108 94.306 26.78 94.0134 26.9073L94.4121 27.8243C94.8148 27.6493 95.17 27.4104 95.4732 27.1072L94.7661 26.4001ZM94.0134 26.9073C93.7309 27.0301 93.4287 27.0925 93.1018 27.0925V28.0925C93.5608 28.0925 93.9992 28.0038 94.4121 27.8243L94.0134 26.9073ZM93.1018 27.0925H89.202V28.0925H93.1018V27.0925ZM89.202 27.0925C88.896 27.0925 88.6063 27.0417 88.3299 26.9412L87.9881 27.881C88.3768 28.0224 88.7824 28.0925 89.202 28.0925V27.0925ZM88.356 26.9516C88.087 26.8363 87.8451 26.6834 87.6283 26.4921L86.9666 27.2419C87.2637 27.5041 87.5962 27.7139 87.9621 27.8707L88.356 26.9516ZM87.6394 26.5022C87.4375 26.3129 87.2653 26.0906 87.1234 25.8325L86.2472 26.3144C86.4377 26.6609 86.6737 26.9676 86.9555 27.2318L87.6394 26.5022ZM87.1234 25.8325C86.991 25.5919 86.9129 25.3343 86.8886 25.0552L85.8924 25.1418C85.9286 25.558 86.047 25.9504 86.2472 26.3144L87.1234 25.8325ZM104.487 18.9087L104.04 18.6851L104.036 18.6934L104.032 18.7018L104.487 18.9087ZM104.827 18.4326L104.474 18.079L104.827 18.4326ZM105.281 18.1152L105.488 18.5704L105.496 18.5665L105.504 18.5624L105.281 18.1152ZM113.692 18.1152L113.453 18.5541L113.469 18.5628L113.486 18.5704L113.692 18.1152ZM114.463 18.9087L114.002 19.101L114.012 19.1252L114.024 19.1482L114.463 18.9087ZM114.463 26.6856L114.016 26.462L114.012 26.4703L114.008 26.4787L114.463 26.6856ZM114.146 27.1391L113.792 26.7855L114.146 27.1391ZM113.692 27.4792L113.899 27.9343L113.916 27.9268L113.932 27.9181L113.692 27.4792ZM105.281 27.4792L105.041 27.9181L105.064 27.9306L105.088 27.9407L105.281 27.4792ZM104.827 27.1391L104.474 27.4926L104.827 27.1391ZM104.487 26.6856L104.026 26.8779L104.036 26.9021L104.048 26.925L104.487 26.6856ZM105.938 26.1641H105.438V26.6641H105.938V26.1641ZM113.035 26.1641V26.6641H113.535V26.1641H113.035ZM113.035 19.4075H113.535V18.9075H113.035V19.4075ZM105.938 19.4075V18.9075H105.438V19.4075H105.938ZM104.874 19.4075C104.874 19.3194 104.893 19.2234 104.942 19.1156L104.032 18.7018C103.93 18.9266 103.874 19.1631 103.874 19.4075H104.874ZM104.934 19.1323C105.002 18.9964 105.085 18.8822 105.181 18.7861L104.474 18.079C104.298 18.2551 104.153 18.4583 104.04 18.6851L104.934 19.1323ZM105.181 18.7861C105.277 18.6902 105.379 18.6198 105.488 18.5704L105.074 17.66C104.85 17.7617 104.65 17.9029 104.474 18.079L105.181 18.7861ZM105.504 18.5624C105.631 18.4989 105.729 18.4791 105.802 18.4791V17.4791C105.543 17.4791 105.293 17.5501 105.057 17.668L105.504 18.5624ZM105.802 18.4791H113.171V17.4791H105.802V18.4791ZM113.171 18.4791C113.265 18.4791 113.357 18.5017 113.453 18.5541L113.932 17.6762C113.696 17.5473 113.44 17.4791 113.171 17.4791V18.4791ZM113.486 18.5704C113.594 18.6198 113.696 18.6902 113.792 18.7861L114.499 18.079C114.323 17.9029 114.123 17.7617 113.899 17.66L113.486 18.5704ZM113.792 18.7861C113.881 18.875 113.951 18.9786 114.002 19.101L114.925 18.7164C114.825 18.4761 114.683 18.2623 114.499 18.079L113.792 18.7861ZM114.024 19.1482C114.081 19.2513 114.099 19.336 114.099 19.4075H115.099C115.099 19.1466 115.027 18.8987 114.902 18.6693L114.024 19.1482ZM114.099 19.4075V26.1641H115.099V19.4075H114.099ZM114.099 26.1641C114.099 26.2376 114.08 26.335 114.016 26.462L114.911 26.9092C115.028 26.6734 115.099 26.4232 115.099 26.1641H114.099ZM114.008 26.4787C113.959 26.5875 113.888 26.6896 113.792 26.7855L114.499 27.4926C114.676 27.3165 114.817 27.1162 114.919 26.8925L114.008 26.4787ZM113.792 26.7855C113.69 26.8883 113.577 26.9728 113.453 27.0402L113.932 27.9181C114.141 27.8042 114.33 27.6619 114.499 27.4926L113.792 26.7855ZM113.486 27.024C113.384 27.0702 113.28 27.0925 113.171 27.0925V28.0925C113.424 28.0925 113.669 28.0392 113.899 27.9343L113.486 27.024ZM113.171 27.0925H105.802V28.0925H113.171V27.0925ZM105.802 27.0925C105.713 27.0925 105.604 27.0724 105.473 27.0176L105.088 27.9407C105.32 28.0371 105.559 28.0925 105.802 28.0925V27.0925ZM105.52 27.0402C105.397 26.9728 105.284 26.8883 105.181 26.7855L104.474 27.4926C104.643 27.6619 104.832 27.8042 105.041 27.9181L105.52 27.0402ZM105.181 26.7855C105.078 26.6827 104.994 26.5699 104.926 26.4462L104.048 26.925C104.162 27.1339 104.304 27.3234 104.474 27.4926L105.181 26.7855ZM104.949 26.4933C104.894 26.362 104.874 26.2535 104.874 26.1641H103.874C103.874 26.4073 103.929 26.6465 104.026 26.8779L104.949 26.4933ZM104.874 26.1641V19.4075H103.874V26.1641H104.874ZM105.938 26.6641H113.035V25.6641H105.938V26.6641ZM113.535 26.1641V19.4075H112.535V26.1641H113.535ZM113.035 18.9075H105.938V19.9075H113.035V18.9075ZM105.438 19.4075V26.1641H106.438V19.4075H105.438ZM116.806 25.0985H116.306V25.1202L116.308 25.1418L116.806 25.0985ZM116.919 24.8264L116.566 24.4729L116.919 24.8264ZM118.303 25.0305L117.808 25.1012L117.811 25.1239L117.816 25.1463L118.303 25.0305ZM118.779 25.8467L118.437 26.2115L118.443 26.2173L118.449 26.223L118.779 25.8467ZM124.492 25.756L124.856 26.0994L124.865 26.0894L124.492 25.756ZM124.492 23.7834L124.129 24.1268L124.492 23.7834ZM118.733 23.1713L118.536 23.6309L118.544 23.634L118.733 23.1713ZM117.872 22.6044L117.518 22.958L117.524 22.9634L117.529 22.9685L117.872 22.6044ZM117.282 21.7655L116.819 21.9549L116.825 21.9678L116.831 21.9805L117.282 21.7655ZM117.282 19.6569L116.827 19.45L116.823 19.46L117.282 19.6569ZM117.872 18.7954L118.225 19.1489V19.1489L117.872 18.7954ZM118.733 18.2059L118.93 18.6655L118.94 18.661L118.733 18.2059ZM124.447 18.1605L124.261 18.6248L124.269 18.6278L124.447 18.1605ZM125.263 18.6593L124.922 19.0249L124.928 19.0303L124.934 19.0356L125.263 18.6593ZM125.853 19.4075L125.41 19.6404L125.415 19.6493L125.42 19.6581L125.853 19.4075ZM126.17 20.3371H126.67V20.3032L126.666 20.2696L126.17 20.3371ZM124.674 20.4052L125.169 20.3344L125.166 20.3182L125.163 20.3021L124.674 20.4052ZM124.243 19.7023L123.915 20.0801L123.923 20.0866L123.931 20.0927L124.243 19.7023ZM118.892 19.793L119.246 20.1465L119.251 20.1412L119.256 20.1357L118.892 19.793ZM118.892 21.5842L119.256 21.2415L118.892 21.5842ZM124.628 22.1963L124.429 22.6549L124.438 22.6586L124.446 22.662L124.628 22.1963ZM125.535 22.7858L125.182 23.1394L125.187 23.1447L125.193 23.1499L125.535 22.7858ZM126.147 23.6701L125.689 23.8695L125.692 23.877L126.147 23.6701ZM126.147 25.8694L126.603 26.0763L126.606 26.0687L126.147 25.8694ZM125.535 26.7536L125.182 26.4001L125.535 26.7536ZM124.628 27.3658L124.429 26.9073L124.628 27.3658ZM118.575 27.4111L118.378 27.8707L118.391 27.8762L118.404 27.881L118.575 27.4111ZM117.713 26.867L117.371 27.2318L117.377 27.2369L117.382 27.2419L117.713 26.867ZM117.101 26.0734L116.663 26.3144L117.101 26.0734ZM117.306 25.0985C117.306 25.1065 117.304 25.1233 117.296 25.1434C117.288 25.1635 117.277 25.1757 117.273 25.18L116.566 24.4729C116.398 24.6411 116.306 24.8586 116.306 25.0985H117.306ZM117.273 25.18C117.269 25.1843 117.257 25.1946 117.237 25.2029C117.216 25.2113 117.2 25.213 117.192 25.213V24.213C116.952 24.213 116.734 24.3046 116.566 24.4729L117.273 25.18ZM117.192 25.213H117.94V24.213H117.192V25.213ZM117.94 25.213C117.964 25.213 117.916 25.218 117.86 25.1687C117.804 25.12 117.804 25.0742 117.808 25.1012L118.798 24.9598C118.771 24.7751 118.695 24.5706 118.518 24.4161C118.341 24.261 118.128 24.213 117.94 24.213V25.213ZM117.816 25.1463C117.915 25.5607 118.125 25.9188 118.437 26.2115L119.121 25.4819C118.949 25.3211 118.841 25.1351 118.789 24.9147L117.816 25.1463ZM118.449 26.223C118.786 26.5173 119.191 26.6641 119.64 26.6641V25.6641C119.424 25.6641 119.255 25.5993 119.108 25.4704L118.449 26.223ZM119.64 26.6641H123.54V25.6641H119.64V26.6641ZM123.54 26.6641C124.054 26.6641 124.503 26.4725 124.856 26.0993L124.129 25.4127C123.967 25.5837 123.782 25.6641 123.54 25.6641V26.6641ZM124.865 26.0894C125.202 25.7125 125.378 25.262 125.378 24.7584H124.378C124.378 25.0106 124.296 25.2251 124.12 25.4226L124.865 26.0894ZM125.378 24.7584C125.378 24.2542 125.201 23.806 124.856 23.4401L124.129 24.1268C124.297 24.305 124.378 24.5068 124.378 24.7584H125.378ZM124.856 23.4401C124.503 23.0669 124.054 22.8753 123.54 22.8753V23.8753C123.782 23.8753 123.967 23.9558 124.129 24.1268L124.856 23.4401ZM123.54 22.8753H119.799V23.8753H123.54V22.8753ZM119.799 22.8753C119.483 22.8753 119.192 22.8187 118.923 22.7085L118.544 23.634C118.94 23.7959 119.36 23.8753 119.799 23.8753V22.8753ZM118.93 22.7117C118.668 22.5992 118.43 22.443 118.214 22.2403L117.529 22.9685C117.828 23.2496 118.164 23.4712 118.536 23.6308L118.93 22.7117ZM118.225 22.2509C118.025 22.0505 117.861 21.818 117.734 21.5506L116.831 21.9805C117.006 22.3479 117.235 22.6747 117.518 22.958L118.225 22.2509ZM117.745 21.5762C117.635 21.3069 117.578 21.0163 117.578 20.6999H116.578C116.578 21.1393 116.658 21.5591 116.819 21.9549L117.745 21.5762ZM117.578 20.6999C117.578 20.3833 117.635 20.1034 117.742 19.8539L116.823 19.46C116.658 19.8453 116.578 20.2607 116.578 20.6999H117.578ZM117.737 19.8638C117.865 19.5821 118.029 19.3456 118.225 19.1489L117.518 18.4418C117.231 18.7289 117.001 19.0667 116.827 19.45L117.737 19.8638ZM118.225 19.1489C118.44 18.9345 118.674 18.7751 118.93 18.6654L118.536 17.7463C118.157 17.9087 117.818 18.1423 117.518 18.4418L118.225 19.1489ZM118.94 18.661C119.206 18.5405 119.49 18.4791 119.799 18.4791V17.4791C119.352 17.4791 118.926 17.569 118.526 17.7507L118.94 18.661ZM119.799 18.4791H123.495V17.4791H119.799V18.4791ZM123.495 18.4791C123.765 18.4791 124.019 18.528 124.261 18.6248L124.633 17.6963C124.27 17.5512 123.889 17.4791 123.495 17.4791V18.4791ZM124.269 18.6278C124.532 18.7279 124.747 18.8614 124.922 19.0249L125.604 18.2938C125.326 18.034 124.997 17.835 124.625 17.6933L124.269 18.6278ZM124.934 19.0356C125.129 19.2064 125.287 19.407 125.41 19.6404L126.295 19.1747C126.116 18.8337 125.881 18.5355 125.592 18.283L124.934 19.0356ZM125.42 19.6581C125.553 19.8883 125.638 20.1359 125.675 20.4047L126.666 20.2696C126.612 19.8733 126.485 19.5012 126.285 19.157L125.42 19.6581ZM125.67 20.3371C125.67 20.3885 125.658 20.3353 125.72 20.2727C125.783 20.2101 125.836 20.2226 125.785 20.2226V21.2226C125.99 21.2226 126.236 21.1709 126.427 20.9798C126.618 20.7887 126.67 20.5427 126.67 20.3371H125.67ZM125.785 20.2226H125.059V21.2226H125.785V20.2226ZM125.059 20.2226C125.02 20.2226 125.058 20.2136 125.111 20.2573C125.136 20.2782 125.153 20.3017 125.162 20.3204C125.171 20.3375 125.17 20.3447 125.169 20.3344L124.179 20.4759C124.206 20.6689 124.289 20.8764 124.475 21.0292C124.656 21.1787 124.872 21.2226 125.059 21.2226V20.2226ZM125.163 20.3021C125.079 19.9029 124.874 19.5665 124.555 19.3119L123.931 20.0927C124.066 20.2009 124.148 20.3331 124.184 20.5082L125.163 20.3021ZM124.57 19.3244C124.252 19.0485 123.871 18.9075 123.449 18.9075V19.9075C123.632 19.9075 123.78 19.9631 123.915 20.0801L124.57 19.3244ZM123.449 18.9075H119.776V19.9075H123.449V18.9075ZM119.776 18.9075C119.288 18.9075 118.863 19.0947 118.528 19.4503L119.256 20.1357C119.405 19.9774 119.569 19.9075 119.776 19.9075V18.9075ZM118.539 19.4394C118.201 19.7768 118.029 20.1994 118.029 20.6772H119.029C119.029 20.4597 119.099 20.2929 119.246 20.1465L118.539 19.4394ZM118.029 20.6772C118.029 21.1544 118.2 21.5787 118.528 21.9268L119.256 21.2415C119.1 21.0757 119.029 20.8954 119.029 20.6772H118.029ZM118.528 21.9268C118.863 22.2825 119.288 22.4696 119.776 22.4696V21.4696C119.569 21.4696 119.405 21.3998 119.256 21.2415L118.528 21.9268ZM119.776 22.4696H123.517V21.4696H119.776V22.4696ZM123.517 22.4696C123.844 22.4696 124.147 22.5321 124.429 22.6549L124.828 21.7378C124.415 21.5583 123.976 21.4696 123.517 21.4696V22.4696ZM124.446 22.662C124.731 22.7736 124.975 22.9325 125.182 23.1394L125.889 22.4323C125.582 22.1252 125.221 21.8912 124.811 21.7307L124.446 22.662ZM125.193 23.1499C125.397 23.3419 125.563 23.5793 125.689 23.8694L126.606 23.4707C126.43 23.0655 126.188 22.7134 125.878 22.4217L125.193 23.1499ZM125.692 23.877C125.812 24.1397 125.874 24.4313 125.874 24.7584H126.874C126.874 24.2995 126.786 23.8655 126.603 23.4632L125.692 23.877ZM125.874 24.7584C125.874 25.0854 125.812 25.3876 125.689 25.67L126.606 26.0687C126.785 25.6559 126.874 25.2174 126.874 24.7584H125.874ZM125.692 25.6625C125.566 25.9407 125.396 26.1857 125.182 26.4001L125.889 27.1072C126.188 26.8076 126.427 26.4631 126.603 26.0763L125.692 25.6625ZM125.182 26.4001C124.971 26.6108 124.722 26.78 124.429 26.9073L124.828 27.8243C125.23 27.6493 125.586 27.4104 125.889 27.1072L125.182 26.4001ZM124.429 26.9073C124.147 27.0301 123.844 27.0925 123.517 27.0925V28.0925C123.976 28.0925 124.415 28.0038 124.828 27.8243L124.429 26.9073ZM123.517 27.0925H119.618V28.0925H123.517V27.0925ZM119.618 27.0925C119.312 27.0925 119.022 27.0417 118.746 26.9412L118.404 27.881C118.792 28.0224 119.198 28.0925 119.618 28.0925V27.0925ZM118.772 26.9516C118.503 26.8363 118.261 26.6834 118.044 26.4921L117.382 27.2419C117.679 27.5041 118.012 27.7139 118.378 27.8707L118.772 26.9516ZM118.055 26.5022C117.853 26.3129 117.681 26.0906 117.539 25.8325L116.663 26.3144C116.853 26.6609 117.089 26.9676 117.371 27.2318L118.055 26.5022ZM117.539 25.8325C117.407 25.5919 117.329 25.3343 117.304 25.0552L116.308 25.1418C116.344 25.558 116.463 25.9504 116.663 26.3144L117.539 25.8325Z" fill="black" mask="url(#path-4-outside-1_82_4390)"/>
</svg>
