<svg width="109" height="36" viewBox="0 0 109 36" fill="none" xmlns="http://www.w3.org/2000/svg">
<rect x="0.311523" width="36" height="36" rx="18" fill="#71E83A"/>
<path d="M27.4529 12.4397L25.1781 13.7456L18.396 9.99645L11.4033 14.0404V16.6522L18.396 12.7767L22.6928 15.262L20.2074 16.6522L18.396 15.599L8.91797 20.991V12.4397L18.396 7.08984L27.4529 12.4397Z" fill="#12121B"/>
<path d="M9.17116 23.5603L11.4459 22.2544L18.228 26.0035L25.2207 21.9596V19.3478L18.228 23.2233L13.9313 20.738L16.4166 19.3478L18.228 20.401L27.7061 15.009V23.5603L18.228 28.9102L9.17116 23.5603Z" fill="#12121B"/>
<mask id="path-4-outside-1_366_3150" maskUnits="userSpaceOnUse" x="43.7119" y="13.5" width="64" height="10" fill="black">
<rect fill="white" x="43.7119" y="13.5" width="64" height="10"/>
<path d="M44.1706 20.4162C44.1706 20.3278 44.2022 20.252 44.2653 20.1888C44.3285 20.1257 44.4042 20.0941 44.4926 20.0941H45.1178C45.2946 20.0941 45.3956 20.1825 45.4209 20.3593C45.484 20.6246 45.6166 20.8519 45.8187 21.0413C46.0208 21.2181 46.2607 21.3065 46.5386 21.3065H49.7969C50.1127 21.3065 50.3779 21.1929 50.5926 20.9655C50.8073 20.7256 50.9146 20.4477 50.9146 20.132C50.9146 19.8163 50.8073 19.5448 50.5926 19.3174C50.3779 19.0901 50.1127 18.9764 49.7969 18.9764H46.6712C46.3555 18.9764 46.0587 18.9196 45.7808 18.8059C45.5156 18.6923 45.2757 18.5344 45.061 18.3323C44.8589 18.1303 44.6947 17.8966 44.5684 17.6314C44.4548 17.3536 44.3979 17.0568 44.3979 16.7411C44.3979 16.4253 44.4548 16.1349 44.5684 15.8696C44.6947 15.5918 44.8589 15.3518 45.061 15.1498C45.2757 14.9351 45.5156 14.7709 45.7808 14.6572C46.0587 14.5309 46.3555 14.4678 46.6712 14.4678H49.759C50.0369 14.4678 50.3021 14.5183 50.5547 14.6193C50.8199 14.7204 51.0472 14.8593 51.2367 15.0361C51.4387 15.2129 51.6029 15.4213 51.7292 15.6613C51.8681 15.9012 51.9565 16.1601 51.9944 16.438C51.9944 16.6527 51.8871 16.76 51.6724 16.76H51.0662C50.8767 16.76 50.7694 16.6716 50.7441 16.4948C50.6936 16.2548 50.5736 16.0591 50.3842 15.9075C50.1947 15.7433 49.9737 15.6613 49.7211 15.6613H46.6522C46.3618 15.6613 46.1155 15.7686 45.9134 15.9833C45.7114 16.1854 45.6103 16.4316 45.6103 16.7221C45.6103 17.0126 45.7114 17.2652 45.9134 17.4799C46.1155 17.6946 46.3618 17.8019 46.6522 17.8019H49.778C50.1063 17.8019 50.4158 17.8651 50.7062 17.9914C50.9967 18.105 51.2493 18.2692 51.464 18.4839C51.6787 18.686 51.8492 18.9322 51.9755 19.2227C52.1018 19.5006 52.1649 19.8037 52.1649 20.132C52.1649 20.4604 52.1018 20.7698 51.9755 21.0603C51.8492 21.3381 51.6787 21.5844 51.464 21.7991C51.2493 22.0138 50.9967 22.1843 50.7062 22.3106C50.4158 22.4369 50.1063 22.5 49.778 22.5H46.5196C46.2165 22.5 45.9261 22.4495 45.6482 22.3484C45.383 22.2348 45.143 22.0832 44.9283 21.8938C44.7263 21.7044 44.5558 21.4833 44.4169 21.2308C44.2779 20.9782 44.1959 20.7066 44.1706 20.4162ZM56.9434 14.7898C56.9812 14.7014 57.0444 14.6257 57.1328 14.5625C57.2338 14.4994 57.3285 14.4678 57.417 14.4678H58.0989C58.1873 14.4678 58.2757 14.4994 58.3641 14.5625C58.4652 14.6257 58.541 14.7014 58.5915 14.7898L62.5129 22.178C62.5381 22.2537 62.5507 22.3042 62.5507 22.3295C62.5507 22.4432 62.4876 22.5 62.3613 22.5H61.4899C61.351 22.5 61.2373 22.4242 61.1489 22.2727L60.2585 20.6056H56.5645C56.4382 20.6056 56.375 20.5488 56.375 20.4351C56.375 20.4099 56.3877 20.3593 56.4129 20.2836L56.716 19.6963C56.8044 19.5448 56.9181 19.469 57.057 19.469H59.6523L57.739 15.737L54.4049 22.2727C54.3796 22.3358 54.3291 22.3927 54.2533 22.4432C54.1902 22.4811 54.127 22.5 54.0639 22.5H53.2493C53.123 22.5 53.0599 22.4432 53.0599 22.3295C53.0599 22.3042 53.0725 22.2537 53.0977 22.178L56.9434 14.7898ZM66.5552 14.7898C66.593 14.7014 66.6562 14.6257 66.7446 14.5625C66.8456 14.4994 66.9403 14.4678 67.0288 14.4678H67.7107C67.7991 14.4678 67.8875 14.4994 67.9759 14.5625C68.077 14.6257 68.1528 14.7014 68.2033 14.7898L72.1247 22.178C72.1499 22.2537 72.1625 22.3042 72.1625 22.3295C72.1625 22.4432 72.0994 22.5 71.9731 22.5H71.1017C70.9628 22.5 70.8491 22.4242 70.7607 22.2727L69.8703 20.6056H66.1763C66.05 20.6056 65.9868 20.5488 65.9868 20.4351C65.9868 20.4099 65.9995 20.3593 66.0247 20.2836L66.3278 19.6963C66.4162 19.5448 66.5299 19.469 66.6688 19.469H69.2641L67.3508 15.737L64.0167 22.2727C63.9914 22.3358 63.9409 22.3927 63.8651 22.4432C63.802 22.4811 63.7388 22.5 63.6757 22.5H62.8611C62.7348 22.5 62.6717 22.4432 62.6717 22.3295C62.6717 22.3042 62.6843 22.2537 62.7095 22.178L66.5552 14.7898ZM73.117 20.4162C73.117 20.3278 73.1486 20.252 73.2117 20.1888C73.2749 20.1257 73.3506 20.0941 73.439 20.0941H74.0642C74.241 20.0941 74.342 20.1825 74.3673 20.3593C74.4304 20.6246 74.563 20.8519 74.7651 21.0413C74.9672 21.2181 75.2071 21.3065 75.485 21.3065H78.7433C79.0591 21.3065 79.3243 21.1929 79.539 20.9655C79.7537 20.7256 79.861 20.4477 79.861 20.132C79.861 19.8163 79.7537 19.5448 79.539 19.3174C79.3243 19.0901 79.0591 18.9764 78.7433 18.9764H75.6176C75.3019 18.9764 75.0051 18.9196 74.7272 18.8059C74.462 18.6923 74.2221 18.5344 74.0074 18.3323C73.8053 18.1303 73.6411 17.8966 73.5148 17.6314C73.4011 17.3536 73.3443 17.0568 73.3443 16.7411C73.3443 16.4253 73.4011 16.1349 73.5148 15.8696C73.6411 15.5918 73.8053 15.3518 74.0074 15.1498C74.2221 14.9351 74.462 14.7709 74.7272 14.6572C75.0051 14.5309 75.3019 14.4678 75.6176 14.4678H78.7054C78.9833 14.4678 79.2485 14.5183 79.5011 14.6193C79.7663 14.7204 79.9936 14.8593 80.1831 15.0361C80.3851 15.2129 80.5493 15.4213 80.6756 15.6613C80.8145 15.9012 80.9029 16.1601 80.9408 16.438C80.9408 16.6527 80.8335 16.76 80.6188 16.76H80.0126C79.8231 16.76 79.7158 16.6716 79.6905 16.4948C79.64 16.2548 79.52 16.0591 79.3306 15.9075C79.1411 15.7433 78.9201 15.6613 78.6675 15.6613H75.5986C75.3082 15.6613 75.0619 15.7686 74.8598 15.9833C74.6578 16.1854 74.5567 16.4316 74.5567 16.7221C74.5567 17.0126 74.6578 17.2652 74.8598 17.4799C75.0619 17.6946 75.3082 17.8019 75.5986 17.8019H78.7244C79.0527 17.8019 79.3622 17.8651 79.6526 17.9914C79.9431 18.105 80.1957 18.2692 80.4104 18.4839C80.6251 18.686 80.7956 18.9322 80.9219 19.2227C81.0482 19.5006 81.1113 19.8037 81.1113 20.132C81.1113 20.4604 81.0482 20.7698 80.9219 21.0603C80.7956 21.3381 80.6251 21.5844 80.4104 21.7991C80.1957 22.0138 79.9431 22.1843 79.6526 22.3106C79.3622 22.4369 79.0527 22.5 78.7244 22.5H75.466C75.1629 22.5 74.8725 22.4495 74.5946 22.3484C74.3294 22.2348 74.0894 22.0832 73.8747 21.8938C73.6727 21.7044 73.5022 21.4833 73.3633 21.2308C73.2243 20.9782 73.1422 20.7066 73.117 20.4162ZM88.1424 15.6613C88.1424 15.5223 88.174 15.3834 88.2372 15.2445C88.3129 15.0929 88.4077 14.9603 88.5213 14.8467C88.635 14.733 88.7613 14.6446 88.9002 14.5815C89.0518 14.5057 89.197 14.4678 89.3359 14.4678H95.4927C95.6442 14.4678 95.7895 14.5057 95.9284 14.5815C96.0673 14.6446 96.1936 14.733 96.3073 14.8467C96.4209 14.9603 96.5093 15.0929 96.5725 15.2445C96.6483 15.3834 96.6861 15.5223 96.6861 15.6613V21.3065C96.6861 21.4455 96.6483 21.5907 96.5725 21.7422C96.5093 21.8812 96.4209 22.0075 96.3073 22.1211C96.1936 22.2348 96.0673 22.3295 95.9284 22.4053C95.7895 22.4684 95.6442 22.5 95.4927 22.5H89.3359C89.197 22.5 89.0518 22.4684 88.9002 22.4053C88.7613 22.3295 88.635 22.2348 88.5213 22.1211C88.4077 22.0075 88.3129 21.8812 88.2372 21.7422C88.174 21.5907 88.1424 21.4455 88.1424 21.3065V15.6613ZM89.4496 21.3065H95.379V15.6613H89.4496V21.3065ZM98.5299 20.4162C98.5299 20.3278 98.5615 20.252 98.6246 20.1888C98.6878 20.1257 98.7636 20.0941 98.852 20.0941H99.4771C99.6539 20.0941 99.7549 20.1825 99.7802 20.3593C99.8434 20.6246 99.976 20.8519 100.178 21.0413C100.38 21.2181 100.62 21.3065 100.898 21.3065H104.156C104.472 21.3065 104.737 21.1929 104.952 20.9655C105.167 20.7256 105.274 20.4477 105.274 20.132C105.274 19.8163 105.167 19.5448 104.952 19.3174C104.737 19.0901 104.472 18.9764 104.156 18.9764H101.031C100.715 18.9764 100.418 18.9196 100.14 18.8059C99.8749 18.6923 99.635 18.5344 99.4203 18.3323C99.2182 18.1303 99.054 17.8966 98.9277 17.6314C98.8141 17.3536 98.7572 17.0568 98.7572 16.7411C98.7572 16.4253 98.8141 16.1349 98.9277 15.8696C99.054 15.5918 99.2182 15.3518 99.4203 15.1498C99.635 14.9351 99.8749 14.7709 100.14 14.6572C100.418 14.5309 100.715 14.4678 101.031 14.4678H104.118C104.396 14.4678 104.661 14.5183 104.914 14.6193C105.179 14.7204 105.407 14.8593 105.596 15.0361C105.798 15.2129 105.962 15.4213 106.089 15.6613C106.227 15.9012 106.316 16.1601 106.354 16.438C106.354 16.6527 106.246 16.76 106.032 16.76H105.425C105.236 16.76 105.129 16.6716 105.103 16.4948C105.053 16.2548 104.933 16.0591 104.744 15.9075C104.554 15.7433 104.333 15.6613 104.08 15.6613H101.012C100.721 15.6613 100.475 15.7686 100.273 15.9833C100.071 16.1854 99.9696 16.4316 99.9696 16.7221C99.9696 17.0126 100.071 17.2652 100.273 17.4799C100.475 17.6946 100.721 17.8019 101.012 17.8019H104.137C104.466 17.8019 104.775 17.8651 105.066 17.9914C105.356 18.105 105.609 18.2692 105.823 18.4839C106.038 18.686 106.208 18.9322 106.335 19.2227C106.461 19.5006 106.524 19.8037 106.524 20.132C106.524 20.4604 106.461 20.7698 106.335 21.0603C106.208 21.3381 106.038 21.5844 105.823 21.7991C105.609 22.0138 105.356 22.1843 105.066 22.3106C104.775 22.4369 104.466 22.5 104.137 22.5H100.879C100.576 22.5 100.285 22.4495 100.008 22.3484C99.7423 22.2348 99.5024 22.0832 99.2877 21.8938C99.0856 21.7044 98.9151 21.4833 98.7762 21.2308C98.6373 20.9782 98.5552 20.7066 98.5299 20.4162Z"/>
</mask>
<path d="M44.1706 20.4162C44.1706 20.3278 44.2022 20.252 44.2653 20.1888C44.3285 20.1257 44.4042 20.0941 44.4926 20.0941H45.1178C45.2946 20.0941 45.3956 20.1825 45.4209 20.3593C45.484 20.6246 45.6166 20.8519 45.8187 21.0413C46.0208 21.2181 46.2607 21.3065 46.5386 21.3065H49.7969C50.1127 21.3065 50.3779 21.1929 50.5926 20.9655C50.8073 20.7256 50.9146 20.4477 50.9146 20.132C50.9146 19.8163 50.8073 19.5448 50.5926 19.3174C50.3779 19.0901 50.1127 18.9764 49.7969 18.9764H46.6712C46.3555 18.9764 46.0587 18.9196 45.7808 18.8059C45.5156 18.6923 45.2757 18.5344 45.061 18.3323C44.8589 18.1303 44.6947 17.8966 44.5684 17.6314C44.4548 17.3536 44.3979 17.0568 44.3979 16.7411C44.3979 16.4253 44.4548 16.1349 44.5684 15.8696C44.6947 15.5918 44.8589 15.3518 45.061 15.1498C45.2757 14.9351 45.5156 14.7709 45.7808 14.6572C46.0587 14.5309 46.3555 14.4678 46.6712 14.4678H49.759C50.0369 14.4678 50.3021 14.5183 50.5547 14.6193C50.8199 14.7204 51.0472 14.8593 51.2367 15.0361C51.4387 15.2129 51.6029 15.4213 51.7292 15.6613C51.8681 15.9012 51.9565 16.1601 51.9944 16.438C51.9944 16.6527 51.8871 16.76 51.6724 16.76H51.0662C50.8767 16.76 50.7694 16.6716 50.7441 16.4948C50.6936 16.2548 50.5736 16.0591 50.3842 15.9075C50.1947 15.7433 49.9737 15.6613 49.7211 15.6613H46.6522C46.3618 15.6613 46.1155 15.7686 45.9134 15.9833C45.7114 16.1854 45.6103 16.4316 45.6103 16.7221C45.6103 17.0126 45.7114 17.2652 45.9134 17.4799C46.1155 17.6946 46.3618 17.8019 46.6522 17.8019H49.778C50.1063 17.8019 50.4158 17.8651 50.7062 17.9914C50.9967 18.105 51.2493 18.2692 51.464 18.4839C51.6787 18.686 51.8492 18.9322 51.9755 19.2227C52.1018 19.5006 52.1649 19.8037 52.1649 20.132C52.1649 20.4604 52.1018 20.7698 51.9755 21.0603C51.8492 21.3381 51.6787 21.5844 51.464 21.7991C51.2493 22.0138 50.9967 22.1843 50.7062 22.3106C50.4158 22.4369 50.1063 22.5 49.778 22.5H46.5196C46.2165 22.5 45.9261 22.4495 45.6482 22.3484C45.383 22.2348 45.143 22.0832 44.9283 21.8938C44.7263 21.7044 44.5558 21.4833 44.4169 21.2308C44.2779 20.9782 44.1959 20.7066 44.1706 20.4162ZM56.9434 14.7898C56.9812 14.7014 57.0444 14.6257 57.1328 14.5625C57.2338 14.4994 57.3285 14.4678 57.417 14.4678H58.0989C58.1873 14.4678 58.2757 14.4994 58.3641 14.5625C58.4652 14.6257 58.541 14.7014 58.5915 14.7898L62.5129 22.178C62.5381 22.2537 62.5507 22.3042 62.5507 22.3295C62.5507 22.4432 62.4876 22.5 62.3613 22.5H61.4899C61.351 22.5 61.2373 22.4242 61.1489 22.2727L60.2585 20.6056H56.5645C56.4382 20.6056 56.375 20.5488 56.375 20.4351C56.375 20.4099 56.3877 20.3593 56.4129 20.2836L56.716 19.6963C56.8044 19.5448 56.9181 19.469 57.057 19.469H59.6523L57.739 15.737L54.4049 22.2727C54.3796 22.3358 54.3291 22.3927 54.2533 22.4432C54.1902 22.4811 54.127 22.5 54.0639 22.5H53.2493C53.123 22.5 53.0599 22.4432 53.0599 22.3295C53.0599 22.3042 53.0725 22.2537 53.0977 22.178L56.9434 14.7898ZM66.5552 14.7898C66.593 14.7014 66.6562 14.6257 66.7446 14.5625C66.8456 14.4994 66.9403 14.4678 67.0288 14.4678H67.7107C67.7991 14.4678 67.8875 14.4994 67.9759 14.5625C68.077 14.6257 68.1528 14.7014 68.2033 14.7898L72.1247 22.178C72.1499 22.2537 72.1625 22.3042 72.1625 22.3295C72.1625 22.4432 72.0994 22.5 71.9731 22.5H71.1017C70.9628 22.5 70.8491 22.4242 70.7607 22.2727L69.8703 20.6056H66.1763C66.05 20.6056 65.9868 20.5488 65.9868 20.4351C65.9868 20.4099 65.9995 20.3593 66.0247 20.2836L66.3278 19.6963C66.4162 19.5448 66.5299 19.469 66.6688 19.469H69.2641L67.3508 15.737L64.0167 22.2727C63.9914 22.3358 63.9409 22.3927 63.8651 22.4432C63.802 22.4811 63.7388 22.5 63.6757 22.5H62.8611C62.7348 22.5 62.6717 22.4432 62.6717 22.3295C62.6717 22.3042 62.6843 22.2537 62.7095 22.178L66.5552 14.7898ZM73.117 20.4162C73.117 20.3278 73.1486 20.252 73.2117 20.1888C73.2749 20.1257 73.3506 20.0941 73.439 20.0941H74.0642C74.241 20.0941 74.342 20.1825 74.3673 20.3593C74.4304 20.6246 74.563 20.8519 74.7651 21.0413C74.9672 21.2181 75.2071 21.3065 75.485 21.3065H78.7433C79.0591 21.3065 79.3243 21.1929 79.539 20.9655C79.7537 20.7256 79.861 20.4477 79.861 20.132C79.861 19.8163 79.7537 19.5448 79.539 19.3174C79.3243 19.0901 79.0591 18.9764 78.7433 18.9764H75.6176C75.3019 18.9764 75.0051 18.9196 74.7272 18.8059C74.462 18.6923 74.2221 18.5344 74.0074 18.3323C73.8053 18.1303 73.6411 17.8966 73.5148 17.6314C73.4011 17.3536 73.3443 17.0568 73.3443 16.7411C73.3443 16.4253 73.4011 16.1349 73.5148 15.8696C73.6411 15.5918 73.8053 15.3518 74.0074 15.1498C74.2221 14.9351 74.462 14.7709 74.7272 14.6572C75.0051 14.5309 75.3019 14.4678 75.6176 14.4678H78.7054C78.9833 14.4678 79.2485 14.5183 79.5011 14.6193C79.7663 14.7204 79.9936 14.8593 80.1831 15.0361C80.3851 15.2129 80.5493 15.4213 80.6756 15.6613C80.8145 15.9012 80.9029 16.1601 80.9408 16.438C80.9408 16.6527 80.8335 16.76 80.6188 16.76H80.0126C79.8231 16.76 79.7158 16.6716 79.6905 16.4948C79.64 16.2548 79.52 16.0591 79.3306 15.9075C79.1411 15.7433 78.9201 15.6613 78.6675 15.6613H75.5986C75.3082 15.6613 75.0619 15.7686 74.8598 15.9833C74.6578 16.1854 74.5567 16.4316 74.5567 16.7221C74.5567 17.0126 74.6578 17.2652 74.8598 17.4799C75.0619 17.6946 75.3082 17.8019 75.5986 17.8019H78.7244C79.0527 17.8019 79.3622 17.8651 79.6526 17.9914C79.9431 18.105 80.1957 18.2692 80.4104 18.4839C80.6251 18.686 80.7956 18.9322 80.9219 19.2227C81.0482 19.5006 81.1113 19.8037 81.1113 20.132C81.1113 20.4604 81.0482 20.7698 80.9219 21.0603C80.7956 21.3381 80.6251 21.5844 80.4104 21.7991C80.1957 22.0138 79.9431 22.1843 79.6526 22.3106C79.3622 22.4369 79.0527 22.5 78.7244 22.5H75.466C75.1629 22.5 74.8725 22.4495 74.5946 22.3484C74.3294 22.2348 74.0894 22.0832 73.8747 21.8938C73.6727 21.7044 73.5022 21.4833 73.3633 21.2308C73.2243 20.9782 73.1422 20.7066 73.117 20.4162ZM88.1424 15.6613C88.1424 15.5223 88.174 15.3834 88.2372 15.2445C88.3129 15.0929 88.4077 14.9603 88.5213 14.8467C88.635 14.733 88.7613 14.6446 88.9002 14.5815C89.0518 14.5057 89.197 14.4678 89.3359 14.4678H95.4927C95.6442 14.4678 95.7895 14.5057 95.9284 14.5815C96.0673 14.6446 96.1936 14.733 96.3073 14.8467C96.4209 14.9603 96.5093 15.0929 96.5725 15.2445C96.6483 15.3834 96.6861 15.5223 96.6861 15.6613V21.3065C96.6861 21.4455 96.6483 21.5907 96.5725 21.7422C96.5093 21.8812 96.4209 22.0075 96.3073 22.1211C96.1936 22.2348 96.0673 22.3295 95.9284 22.4053C95.7895 22.4684 95.6442 22.5 95.4927 22.5H89.3359C89.197 22.5 89.0518 22.4684 88.9002 22.4053C88.7613 22.3295 88.635 22.2348 88.5213 22.1211C88.4077 22.0075 88.3129 21.8812 88.2372 21.7422C88.174 21.5907 88.1424 21.4455 88.1424 21.3065V15.6613ZM89.4496 21.3065H95.379V15.6613H89.4496V21.3065ZM98.5299 20.4162C98.5299 20.3278 98.5615 20.252 98.6246 20.1888C98.6878 20.1257 98.7636 20.0941 98.852 20.0941H99.4771C99.6539 20.0941 99.7549 20.1825 99.7802 20.3593C99.8434 20.6246 99.976 20.8519 100.178 21.0413C100.38 21.2181 100.62 21.3065 100.898 21.3065H104.156C104.472 21.3065 104.737 21.1929 104.952 20.9655C105.167 20.7256 105.274 20.4477 105.274 20.132C105.274 19.8163 105.167 19.5448 104.952 19.3174C104.737 19.0901 104.472 18.9764 104.156 18.9764H101.031C100.715 18.9764 100.418 18.9196 100.14 18.8059C99.8749 18.6923 99.635 18.5344 99.4203 18.3323C99.2182 18.1303 99.054 17.8966 98.9277 17.6314C98.8141 17.3536 98.7572 17.0568 98.7572 16.7411C98.7572 16.4253 98.8141 16.1349 98.9277 15.8696C99.054 15.5918 99.2182 15.3518 99.4203 15.1498C99.635 14.9351 99.8749 14.7709 100.14 14.6572C100.418 14.5309 100.715 14.4678 101.031 14.4678H104.118C104.396 14.4678 104.661 14.5183 104.914 14.6193C105.179 14.7204 105.407 14.8593 105.596 15.0361C105.798 15.2129 105.962 15.4213 106.089 15.6613C106.227 15.9012 106.316 16.1601 106.354 16.438C106.354 16.6527 106.246 16.76 106.032 16.76H105.425C105.236 16.76 105.129 16.6716 105.103 16.4948C105.053 16.2548 104.933 16.0591 104.744 15.9075C104.554 15.7433 104.333 15.6613 104.08 15.6613H101.012C100.721 15.6613 100.475 15.7686 100.273 15.9833C100.071 16.1854 99.9696 16.4316 99.9696 16.7221C99.9696 17.0126 100.071 17.2652 100.273 17.4799C100.475 17.6946 100.721 17.8019 101.012 17.8019H104.137C104.466 17.8019 104.775 17.8651 105.066 17.9914C105.356 18.105 105.609 18.2692 105.823 18.4839C106.038 18.686 106.208 18.9322 106.335 19.2227C106.461 19.5006 106.524 19.8037 106.524 20.132C106.524 20.4604 106.461 20.7698 106.335 21.0603C106.208 21.3381 106.038 21.5844 105.823 21.7991C105.609 22.0138 105.356 22.1843 105.066 22.3106C104.775 22.4369 104.466 22.5 104.137 22.5H100.879C100.576 22.5 100.285 22.4495 100.008 22.3484C99.7423 22.2348 99.5024 22.0832 99.2877 21.8938C99.0856 21.7044 98.9151 21.4833 98.7762 21.2308C98.6373 20.9782 98.5552 20.7066 98.5299 20.4162Z" fill="white"/>
<path d="M44.1706 20.4162H43.7528V20.4343L43.7544 20.4524L44.1706 20.4162ZM44.2653 20.1888L43.9699 19.8934L43.9699 19.8934L44.2653 20.1888ZM45.4209 20.3593L45.0073 20.4184L45.01 20.4374L45.0145 20.4561L45.4209 20.3593ZM45.8187 21.0413L45.533 21.3461L45.5382 21.351L45.5436 21.3557L45.8187 21.0413ZM50.5926 20.9655L50.8964 21.2525L50.9039 21.2441L50.5926 20.9655ZM50.5926 19.3174L50.2889 19.6043L50.2889 19.6043L50.5926 19.3174ZM45.7808 18.8059L45.6162 19.19L45.6226 19.1926L45.7808 18.8059ZM45.061 18.3323L44.7654 18.6279L44.7746 18.6366L45.061 18.3323ZM44.5684 17.6314L44.1818 17.7896L44.1862 17.8004L44.1912 17.811L44.5684 17.6314ZM44.5684 15.8696L44.188 15.6967L44.1844 15.7051L44.5684 15.8696ZM45.061 15.1498L45.3564 15.4452L45.3564 15.4452L45.061 15.1498ZM45.7808 14.6572L45.9454 15.0413L45.9537 15.0375L45.7808 14.6572ZM50.5547 14.6193L50.3995 15.0073L50.406 15.0097L50.5547 14.6193ZM51.2367 15.0361L50.9515 15.3417L50.9616 15.3505L51.2367 15.0361ZM51.7292 15.6613L51.3595 15.8558L51.3634 15.8633L51.3677 15.8706L51.7292 15.6613ZM51.9944 16.438H52.4122V16.4096L52.4083 16.3815L51.9944 16.438ZM50.7441 16.4948L51.1577 16.4357L51.1557 16.4221L51.1529 16.4087L50.7441 16.4948ZM50.3842 15.9075L50.1106 16.2232L50.1168 16.2286L50.1232 16.2337L50.3842 15.9075ZM45.9134 15.9833L46.209 16.2788L46.2176 16.2696L45.9134 15.9833ZM45.9134 17.4799L46.2176 17.1936L46.2176 17.1936L45.9134 17.4799ZM50.7062 17.9914L50.5397 18.3745L50.5468 18.3776L50.554 18.3804L50.7062 17.9914ZM51.464 18.4839L51.1684 18.7794L51.1777 18.7881L51.464 18.4839ZM51.9755 19.2227L51.5923 19.3893L51.5952 19.3956L51.9755 19.2227ZM51.9755 21.0603L52.3558 21.2332L52.3586 21.2268L51.9755 21.0603ZM51.464 21.7991L51.1686 21.5037L51.1686 21.5037L51.464 21.7991ZM45.6482 22.3484L45.4837 22.7324L45.4944 22.7371L45.5054 22.7411L45.6482 22.3484ZM44.9283 21.8938L44.6425 22.1987L44.6519 22.207L44.9283 21.8938ZM44.4169 21.2308L44.0508 21.4321L44.0508 21.4321L44.4169 21.2308ZM44.5884 20.4162C44.5884 20.4228 44.5869 20.4369 44.5799 20.4537C44.5729 20.4705 44.5643 20.4806 44.5607 20.4842L43.9699 19.8934C43.8293 20.034 43.7528 20.2157 43.7528 20.4162H44.5884ZM44.5607 20.4842C44.5571 20.4878 44.5469 20.4965 44.5302 20.5034C44.5133 20.5104 44.4993 20.5119 44.4926 20.5119V19.6764C44.2922 19.6764 44.1105 19.7528 43.9699 19.8934L44.5607 20.4842ZM44.4926 20.5119H45.1178V19.6764H44.4926V20.5119ZM45.1178 20.5119C45.1376 20.5119 45.0981 20.516 45.0511 20.4748C45.0046 20.4341 45.0041 20.3959 45.0073 20.4184L45.8345 20.3003C45.8124 20.146 45.7488 19.9751 45.6013 19.846C45.4532 19.7165 45.2747 19.6764 45.1178 19.6764V20.5119ZM45.0145 20.4561C45.0969 20.8023 45.2722 21.1016 45.533 21.3461L46.1044 20.7365C45.9611 20.6022 45.8711 20.4468 45.8273 20.2626L45.0145 20.4561ZM45.5436 21.3557C45.8247 21.6017 46.1634 21.7243 46.5386 21.7243V20.8888C46.3581 20.8888 46.2169 20.8346 46.0938 20.7269L45.5436 21.3557ZM46.5386 21.7243H49.7969V20.8888H46.5386V21.7243ZM49.7969 21.7243C50.2263 21.7243 50.6018 21.5642 50.8963 21.2524L50.2889 20.6787C50.1539 20.8215 49.999 20.8888 49.7969 20.8888V21.7243ZM50.9039 21.2441C51.1856 20.9292 51.3324 20.5528 51.3324 20.132H50.4969C50.4969 20.3427 50.4289 20.522 50.2812 20.687L50.9039 21.2441ZM51.3324 20.132C51.3324 19.7108 51.185 19.3363 50.8963 19.0306L50.2889 19.6043C50.4295 19.7532 50.4969 19.9218 50.4969 20.132H51.3324ZM50.8963 19.0306C50.6018 18.7188 50.2263 18.5587 49.7969 18.5587V19.3942C49.999 19.3942 50.1539 19.4614 50.2889 19.6043L50.8963 19.0306ZM49.7969 18.5587H46.6712V19.3942H49.7969V18.5587ZM46.6712 18.5587C46.4068 18.5587 46.1641 18.5114 45.939 18.4193L45.6226 19.1926C45.9533 19.3279 46.3041 19.3942 46.6712 19.3942V18.5587ZM45.9454 18.422C45.7261 18.328 45.5272 18.1974 45.3473 18.0281L44.7746 18.6366C45.0241 18.8714 45.3051 19.0566 45.6163 19.1899L45.9454 18.422ZM45.3564 18.0369C45.1889 17.8695 45.052 17.6753 44.9456 17.4518L44.1912 17.811C44.3374 18.118 44.5289 18.3911 44.7656 18.6277L45.3564 18.0369ZM44.9551 17.4732C44.863 17.2482 44.8157 17.0054 44.8157 16.7411H43.9802C43.9802 17.1082 44.0465 17.459 44.1818 17.7896L44.9551 17.4732ZM44.8157 16.7411C44.8157 16.4765 44.863 16.2427 44.9524 16.0342L44.1844 15.7051C44.0465 16.027 43.9802 16.3741 43.9802 16.7411H44.8157ZM44.9487 16.0425C45.0557 15.8071 45.1921 15.6095 45.3564 15.4452L44.7656 14.8544C44.5257 15.0942 44.3337 15.3764 44.1881 15.6968L44.9487 16.0425ZM45.3564 15.4452C45.5355 15.2661 45.7315 15.1329 45.9454 15.0412L45.6163 14.2733C45.2997 14.4089 45.0158 14.6041 44.7656 14.8544L45.3564 15.4452ZM45.9537 15.0375C46.1754 14.9368 46.413 14.8856 46.6712 14.8856V14.05C46.2979 14.05 45.942 14.1251 45.608 14.2769L45.9537 15.0375ZM46.6712 14.8856H49.759V14.05H46.6712V14.8856ZM49.759 14.8856C49.9849 14.8856 50.1974 14.9264 50.3995 15.0072L50.7098 14.2315C50.4068 14.1103 50.0889 14.05 49.759 14.05V14.8856ZM50.406 15.0097C50.6255 15.0934 50.8053 15.205 50.9516 15.3415L51.5217 14.7307C51.2891 14.5136 51.0143 14.3474 50.7034 14.229L50.406 15.0097ZM50.9616 15.3505C51.1246 15.4932 51.2569 15.6608 51.3595 15.8558L52.0989 15.4667C51.9489 15.1818 51.7528 14.9327 51.5118 14.7217L50.9616 15.3505ZM51.3677 15.8706C51.479 16.0629 51.5499 16.2698 51.5805 16.4944L52.4083 16.3815C52.3632 16.0504 52.2572 15.7395 52.0907 15.4519L51.3677 15.8706ZM51.5767 16.438C51.5767 16.4809 51.5662 16.4364 51.6185 16.3841C51.6708 16.3318 51.7153 16.3422 51.6724 16.3422V17.1778C51.8441 17.1778 52.0497 17.1345 52.2093 16.9749C52.369 16.8152 52.4122 16.6097 52.4122 16.438H51.5767ZM51.6724 16.3422H51.0662V17.1778H51.6724V16.3422ZM51.0662 16.3422C51.0333 16.3422 51.0649 16.3347 51.1091 16.3712C51.1304 16.3887 51.1443 16.4084 51.1521 16.424C51.1592 16.4383 51.1589 16.4443 51.1577 16.4357L50.3306 16.5539C50.3536 16.7152 50.423 16.8885 50.578 17.0162C50.7296 17.1411 50.9095 17.1778 51.0662 17.1778V16.3422ZM51.1529 16.4087C51.0827 16.0751 50.9111 15.7941 50.6452 15.5813L50.1232 16.2337C50.2361 16.3241 50.3045 16.4345 50.3353 16.5809L51.1529 16.4087ZM50.6578 15.5918C50.3918 15.3613 50.0734 15.2435 49.7211 15.2435V16.079C49.8741 16.079 49.9977 16.1254 50.1106 16.2232L50.6578 15.5918ZM49.7211 15.2435H46.6522V16.079H49.7211V15.2435ZM46.6522 15.2435C46.2446 15.2435 45.8889 15.3998 45.6092 15.697L46.2176 16.2696C46.3421 16.1374 46.4789 16.079 46.6522 16.079V15.2435ZM45.618 15.6879C45.3362 15.9698 45.1926 16.3229 45.1926 16.7221H46.0281C46.0281 16.5404 46.0865 16.401 46.2088 16.2787L45.618 15.6879ZM45.1926 16.7221C45.1926 17.1208 45.3354 17.4753 45.6092 17.7662L46.2176 17.1936C46.0873 17.0551 46.0281 16.9044 46.0281 16.7221H45.1926ZM45.6092 17.7662C45.8889 18.0633 46.2446 18.2197 46.6522 18.2197V17.3842C46.4789 17.3842 46.3421 17.3258 46.2176 17.1936L45.6092 17.7662ZM46.6522 18.2197H49.778V17.3842H46.6522V18.2197ZM49.778 18.2197C50.0512 18.2197 50.3037 18.2719 50.5397 18.3745L50.8728 17.6082C50.5278 17.4583 50.1615 17.3842 49.778 17.3842V18.2197ZM50.554 18.3804C50.7923 18.4736 50.9958 18.6065 51.1686 18.7793L51.7594 18.1885C51.5028 17.9319 51.2011 17.7364 50.8585 17.6023L50.554 18.3804ZM51.1777 18.7881C51.3481 18.9485 51.487 19.1469 51.5924 19.3893L52.3586 19.0561C52.2114 18.7176 52.0093 18.4234 51.7503 18.1797L51.1777 18.7881ZM51.5952 19.3956C51.6949 19.6151 51.7471 19.8587 51.7471 20.132H52.5827C52.5827 19.7486 52.5086 19.386 52.3558 19.0498L51.5952 19.3956ZM51.7471 20.132C51.7471 20.4052 51.695 20.6577 51.5924 20.8937L52.3586 21.2268C52.5086 20.8819 52.5827 20.5155 52.5827 20.132H51.7471ZM51.5952 20.8874C51.4895 21.1199 51.3477 21.3246 51.1686 21.5037L51.7594 22.0945C52.0097 21.8442 52.2089 21.5563 52.3558 21.2331L51.5952 20.8874ZM51.1686 21.5037C50.9925 21.6797 50.7842 21.8211 50.5397 21.9274L50.8728 22.6937C51.2092 22.5474 51.506 22.3478 51.7594 22.0945L51.1686 21.5037ZM50.5397 21.9274C50.3037 22.03 50.0512 22.0822 49.778 22.0822V22.9178C50.1615 22.9178 50.5278 22.8437 50.8728 22.6937L50.5397 21.9274ZM49.778 22.0822H46.5196V22.9178H49.778V22.0822ZM46.5196 22.0822C46.264 22.0822 46.0219 22.0398 45.791 21.9558L45.5054 22.7411C45.8302 22.8592 46.1691 22.9178 46.5196 22.9178V22.0822ZM45.8128 21.9645C45.588 21.8682 45.3859 21.7404 45.2047 21.5805L44.6519 22.207C44.9002 22.4261 45.178 22.6014 45.4837 22.7324L45.8128 21.9645ZM45.2141 21.589C45.0453 21.4308 44.9015 21.2451 44.7829 21.0294L44.0508 21.4321C44.21 21.7216 44.4072 21.9779 44.6426 22.1986L45.2141 21.589ZM44.7829 21.0294C44.6723 20.8284 44.6071 20.6132 44.5868 20.38L43.7544 20.4524C43.7846 20.8001 43.8835 21.1279 44.0508 21.4321L44.7829 21.0294ZM56.9434 14.7898L57.3139 14.9827L57.3212 14.9688L57.3273 14.9544L56.9434 14.7898ZM57.1328 14.5625L56.9114 14.2083L56.9005 14.2151L56.89 14.2226L57.1328 14.5625ZM58.3641 14.5625L58.1213 14.9025L58.1318 14.9099L58.1427 14.9168L58.3641 14.5625ZM58.5915 14.7898L58.9607 14.5939L58.9542 14.5826L58.5915 14.7898ZM62.5129 22.178L62.9092 22.0458L62.8982 22.0128L62.8819 21.9821L62.5129 22.178ZM61.1489 22.2727L60.7804 22.4695L60.7841 22.4764L60.788 22.4832L61.1489 22.2727ZM60.2585 20.6056L60.627 20.4088L60.509 20.1879H60.2585V20.6056ZM56.4129 20.2836L56.0417 20.092L56.0268 20.1207L56.0166 20.1515L56.4129 20.2836ZM56.716 19.6963L56.3552 19.4858L56.3497 19.4951L56.3448 19.5047L56.716 19.6963ZM59.6523 19.469V19.8867H60.336L60.0241 19.2784L59.6523 19.469ZM57.739 15.737L58.1107 15.5464L57.7381 14.8195L57.3669 15.5472L57.739 15.737ZM54.4049 22.2727L54.0327 22.0828L54.0241 22.0998L54.017 22.1175L54.4049 22.2727ZM54.2533 22.4432L54.4683 22.8014L54.4768 22.7963L54.4851 22.7908L54.2533 22.4432ZM53.0977 22.178L52.7272 21.9851L52.7119 22.0144L52.7014 22.0458L53.0977 22.178ZM57.3273 14.9544C57.3313 14.945 57.3412 14.9271 57.3756 14.9025L56.89 14.2226C56.7476 14.3243 56.6311 14.4578 56.5594 14.6253L57.3273 14.9544ZM57.3542 14.9168C57.4112 14.8811 57.4296 14.8856 57.417 14.8856V14.05C57.2275 14.05 57.0564 14.1176 56.9114 14.2083L57.3542 14.9168ZM57.417 14.8856H58.0989V14.05H57.417V14.8856ZM58.0989 14.8856C58.0924 14.8856 58.0891 14.8842 58.091 14.8849C58.0936 14.8858 58.1038 14.8899 58.1213 14.9025L58.607 14.2226C58.4642 14.1206 58.2927 14.05 58.0989 14.05V14.8856ZM58.1427 14.9168C58.1952 14.9496 58.2179 14.9781 58.2288 14.9971L58.9542 14.5826C58.864 14.4248 58.7351 14.3017 58.5856 14.2083L58.1427 14.9168ZM58.2225 14.9857L62.1439 22.3738L62.8819 21.9821L58.9605 14.594L58.2225 14.9857ZM62.1165 22.3101C62.1218 22.3258 62.126 22.3391 62.1293 22.3501C62.1326 22.3612 62.1347 22.369 62.136 22.374C62.1373 22.3793 62.1371 22.3791 62.1363 22.3745C62.1359 22.372 62.1351 22.3672 62.1345 22.3604C62.1338 22.3539 62.133 22.3432 62.133 22.3295H62.9685C62.9685 22.2629 62.9543 22.2025 62.9466 22.1713C62.9367 22.1318 62.9236 22.0891 62.9092 22.0458L62.1165 22.3101ZM62.133 22.3295C62.133 22.3099 62.1404 22.222 62.2239 22.1469C62.299 22.0793 62.3703 22.0822 62.3613 22.0822V22.9178C62.4786 22.9178 62.6446 22.8923 62.7829 22.7679C62.9295 22.6359 62.9685 22.4628 62.9685 22.3295H62.133ZM62.3613 22.0822H61.4899V22.9178H62.3613V22.0822ZM61.4899 22.0822C61.4936 22.0822 61.5011 22.0828 61.5105 22.0856C61.5199 22.0885 61.5274 22.0924 61.5322 22.0956C61.5411 22.1015 61.5307 22.0981 61.5098 22.0622L60.788 22.4832C60.9285 22.724 61.1621 22.9178 61.4899 22.9178V22.0822ZM61.5174 22.0759L60.627 20.4088L59.89 20.8024L60.7804 22.4695L61.5174 22.0759ZM60.2585 20.1879H56.5645V21.0234H60.2585V20.1879ZM56.5645 20.1879C56.5555 20.1879 56.6268 20.1849 56.7019 20.2525C56.7853 20.3276 56.7928 20.4155 56.7928 20.4351H55.9573C55.9573 20.5684 55.9963 20.7416 56.1429 20.8735C56.2812 20.9979 56.4472 21.0234 56.5645 21.0234V20.1879ZM56.7928 20.4351C56.7928 20.4488 56.792 20.4595 56.7913 20.466C56.7906 20.4728 56.7899 20.4777 56.7895 20.4801C56.7887 20.4847 56.7885 20.485 56.7898 20.4796C56.791 20.4746 56.7932 20.4668 56.7965 20.4557C56.7998 20.4447 56.804 20.4314 56.8093 20.4157L56.0166 20.1515C56.0022 20.1948 55.9891 20.2374 55.9792 20.277C55.9714 20.3081 55.9573 20.3685 55.9573 20.4351H56.7928ZM56.7842 20.4752L57.0873 19.8879L56.3448 19.5047L56.0417 20.092L56.7842 20.4752ZM57.0769 19.9068C57.0979 19.8709 57.1082 19.8675 57.0993 19.8734C57.0946 19.8766 57.0871 19.8805 57.0776 19.8833C57.0682 19.8862 57.0608 19.8867 57.057 19.8867V19.0512C56.7292 19.0512 56.4956 19.245 56.3552 19.4858L57.0769 19.9068ZM57.057 19.8867H59.6523V19.0512H57.057V19.8867ZM60.0241 19.2784L58.1107 15.5464L57.3672 15.9276L59.2806 19.6596L60.0241 19.2784ZM57.3669 15.5472L54.0327 22.0828L54.777 22.4625L58.1111 15.9269L57.3669 15.5472ZM54.017 22.1175C54.0243 22.0993 54.0327 22.0886 54.0358 22.0851C54.0384 22.0822 54.0354 22.0864 54.0216 22.0956L54.4851 22.7908C54.6077 22.709 54.7271 22.592 54.7928 22.4278L54.017 22.1175ZM54.0384 22.0849C54.0332 22.0881 54.0333 22.0872 54.0386 22.0856C54.0442 22.084 54.053 22.0822 54.0639 22.0822V22.9178C54.2146 22.9178 54.3511 22.8717 54.4683 22.8014L54.0384 22.0849ZM54.0639 22.0822H53.2493V22.9178H54.0639V22.0822ZM53.2493 22.0822C53.2403 22.0822 53.3116 22.0793 53.3867 22.1469C53.4702 22.222 53.4776 22.3099 53.4776 22.3295H52.6421C52.6421 22.4628 52.6811 22.6359 52.8278 22.7679C52.966 22.8923 53.132 22.9178 53.2493 22.9178V22.0822ZM53.4776 22.3295C53.4776 22.3432 53.4768 22.3539 53.4761 22.3604C53.4755 22.3672 53.4747 22.372 53.4743 22.3745C53.4735 22.3791 53.4733 22.3793 53.4746 22.374C53.4759 22.369 53.478 22.3612 53.4813 22.3501C53.4846 22.3391 53.4888 22.3258 53.4941 22.3101L52.7014 22.0458C52.687 22.0891 52.6739 22.1318 52.664 22.1714C52.6563 22.2025 52.6421 22.2629 52.6421 22.3295H53.4776ZM53.4683 22.3708L57.3139 14.9827L56.5728 14.597L52.7272 21.9851L53.4683 22.3708ZM66.5552 14.7898L66.9257 14.9827L66.933 14.9688L66.9391 14.9544L66.5552 14.7898ZM66.7446 14.5625L66.5232 14.2083L66.5123 14.2151L66.5018 14.2226L66.7446 14.5625ZM67.9759 14.5625L67.7331 14.9025L67.7436 14.9099L67.7545 14.9168L67.9759 14.5625ZM68.2033 14.7898L68.5725 14.5939L68.566 14.5826L68.2033 14.7898ZM72.1247 22.178L72.521 22.0458L72.51 22.0128L72.4937 21.9821L72.1247 22.178ZM70.7607 22.2727L70.3922 22.4695L70.3959 22.4764L70.3998 22.4832L70.7607 22.2727ZM69.8703 20.6056L70.2388 20.4088L70.1208 20.1879H69.8703V20.6056ZM66.0247 20.2836L65.6535 20.092L65.6386 20.1207L65.6284 20.1515L66.0247 20.2836ZM66.3278 19.6963L65.967 19.4858L65.9615 19.4951L65.9566 19.5047L66.3278 19.6963ZM69.2641 19.469V19.8867H69.9478L69.6359 19.2784L69.2641 19.469ZM67.3508 15.737L67.7225 15.5464L67.3499 14.8195L66.9787 15.5472L67.3508 15.737ZM64.0167 22.2727L63.6445 22.0828L63.6359 22.0998L63.6288 22.1175L64.0167 22.2727ZM63.8651 22.4432L64.0801 22.8014L64.0886 22.7963L64.0969 22.7908L63.8651 22.4432ZM62.7095 22.178L62.339 21.9851L62.3237 22.0144L62.3132 22.0458L62.7095 22.178ZM66.9391 14.9544C66.9431 14.945 66.953 14.9271 66.9874 14.9025L66.5018 14.2226C66.3594 14.3243 66.2429 14.4578 66.1712 14.6253L66.9391 14.9544ZM66.966 14.9168C67.023 14.8811 67.0414 14.8856 67.0288 14.8856V14.05C66.8393 14.05 66.6682 14.1176 66.5232 14.2083L66.966 14.9168ZM67.0288 14.8856H67.7107V14.05H67.0288V14.8856ZM67.7107 14.8856C67.7042 14.8856 67.7009 14.8842 67.7028 14.8849C67.7054 14.8858 67.7156 14.8899 67.7331 14.9025L68.2188 14.2226C68.076 14.1206 67.9045 14.05 67.7107 14.05V14.8856ZM67.7545 14.9168C67.807 14.9496 67.8297 14.9781 67.8406 14.9971L68.566 14.5826C68.4758 14.4248 68.3469 14.3017 68.1974 14.2083L67.7545 14.9168ZM67.8343 14.9857L71.7557 22.3738L72.4937 21.9821L68.5723 14.594L67.8343 14.9857ZM71.7283 22.3101C71.7336 22.3258 71.7378 22.3391 71.7411 22.3501C71.7444 22.3612 71.7465 22.369 71.7478 22.374C71.7491 22.3793 71.7489 22.3791 71.7481 22.3745C71.7477 22.372 71.7469 22.3672 71.7463 22.3604C71.7456 22.3539 71.7448 22.3432 71.7448 22.3295H72.5803C72.5803 22.2629 72.5661 22.2025 72.5584 22.1713C72.5485 22.1318 72.5354 22.0891 72.521 22.0458L71.7283 22.3101ZM71.7448 22.3295C71.7448 22.3099 71.7522 22.222 71.8357 22.1469C71.9108 22.0793 71.9821 22.0822 71.9731 22.0822V22.9178C72.0904 22.9178 72.2564 22.8923 72.3947 22.7679C72.5413 22.6359 72.5803 22.4628 72.5803 22.3295H71.7448ZM71.9731 22.0822H71.1017V22.9178H71.9731V22.0822ZM71.1017 22.0822C71.1054 22.0822 71.1129 22.0828 71.1223 22.0856C71.1317 22.0885 71.1392 22.0924 71.144 22.0956C71.1529 22.1015 71.1425 22.0981 71.1216 22.0622L70.3998 22.4832C70.5403 22.724 70.7739 22.9178 71.1017 22.9178V22.0822ZM71.1292 22.0759L70.2388 20.4088L69.5018 20.8024L70.3922 22.4695L71.1292 22.0759ZM69.8703 20.1879H66.1763V21.0234H69.8703V20.1879ZM66.1763 20.1879C66.1673 20.1879 66.2386 20.1849 66.3137 20.2525C66.3971 20.3276 66.4046 20.4155 66.4046 20.4351H65.5691C65.5691 20.5684 65.6081 20.7416 65.7547 20.8735C65.893 20.9979 66.059 21.0234 66.1763 21.0234V20.1879ZM66.4046 20.4351C66.4046 20.4488 66.4038 20.4595 66.4031 20.466C66.4024 20.4728 66.4017 20.4777 66.4013 20.4801C66.4005 20.4847 66.4003 20.485 66.4016 20.4796C66.4028 20.4746 66.405 20.4668 66.4083 20.4557C66.4116 20.4447 66.4158 20.4314 66.4211 20.4157L65.6284 20.1515C65.614 20.1948 65.6009 20.2374 65.591 20.277C65.5832 20.3081 65.5691 20.3685 65.5691 20.4351H66.4046ZM66.396 20.4752L66.6991 19.8879L65.9566 19.5047L65.6535 20.092L66.396 20.4752ZM66.6887 19.9068C66.7097 19.8709 66.72 19.8675 66.7111 19.8734C66.7064 19.8766 66.6989 19.8805 66.6894 19.8833C66.68 19.8862 66.6726 19.8867 66.6688 19.8867V19.0512C66.341 19.0512 66.1074 19.245 65.967 19.4858L66.6887 19.9068ZM66.6688 19.8867H69.2641V19.0512H66.6688V19.8867ZM69.6359 19.2784L67.7225 15.5464L66.979 15.9276L68.8924 19.6596L69.6359 19.2784ZM66.9787 15.5472L63.6445 22.0828L64.3888 22.4625L67.7229 15.9269L66.9787 15.5472ZM63.6288 22.1175C63.6361 22.0993 63.6445 22.0886 63.6476 22.0851C63.6502 22.0822 63.6472 22.0864 63.6334 22.0956L64.0969 22.7908C64.2195 22.709 64.3389 22.592 64.4046 22.4278L63.6288 22.1175ZM63.6502 22.0849C63.645 22.0881 63.6451 22.0872 63.6504 22.0856C63.656 22.084 63.6648 22.0822 63.6757 22.0822V22.9178C63.8264 22.9178 63.9629 22.8717 64.0801 22.8014L63.6502 22.0849ZM63.6757 22.0822H62.8611V22.9178H63.6757V22.0822ZM62.8611 22.0822C62.8521 22.0822 62.9234 22.0793 62.9985 22.1469C63.082 22.222 63.0894 22.3099 63.0894 22.3295H62.2539C62.2539 22.4628 62.2929 22.6359 62.4396 22.7679C62.5778 22.8923 62.7438 22.9178 62.8611 22.9178V22.0822ZM63.0894 22.3295C63.0894 22.3432 63.0886 22.3539 63.0879 22.3604C63.0873 22.3672 63.0865 22.372 63.0861 22.3745C63.0853 22.3791 63.0851 22.3793 63.0864 22.374C63.0877 22.369 63.0898 22.3612 63.0931 22.3501C63.0964 22.3391 63.1006 22.3258 63.1059 22.3101L62.3132 22.0458C62.2988 22.0891 62.2857 22.1318 62.2758 22.1714C62.2681 22.2025 62.2539 22.2629 62.2539 22.3295H63.0894ZM63.0801 22.3708L66.9257 14.9827L66.1846 14.597L62.339 21.9851L63.0801 22.3708ZM73.117 20.4162H72.6992V20.4343L72.7008 20.4524L73.117 20.4162ZM73.2117 20.1888L72.9163 19.8934L72.9163 19.8934L73.2117 20.1888ZM74.3673 20.3593L73.9537 20.4184L73.9564 20.4374L73.9609 20.4561L74.3673 20.3593ZM74.7651 21.0413L74.4794 21.3461L74.4846 21.351L74.49 21.3557L74.7651 21.0413ZM79.539 20.9655L79.8428 21.2525L79.8503 21.2441L79.539 20.9655ZM79.539 19.3174L79.2352 19.6043L79.2352 19.6043L79.539 19.3174ZM74.7272 18.8059L74.5626 19.19L74.569 19.1926L74.7272 18.8059ZM74.0074 18.3323L73.7118 18.6279L73.721 18.6366L74.0074 18.3323ZM73.5148 17.6314L73.1282 17.7896L73.1326 17.8004L73.1376 17.811L73.5148 17.6314ZM73.5148 15.8696L73.1344 15.6967L73.1308 15.7051L73.5148 15.8696ZM74.0074 15.1498L74.3028 15.4452L74.3028 15.4452L74.0074 15.1498ZM74.7272 14.6572L74.8918 15.0413L74.9001 15.0375L74.7272 14.6572ZM79.5011 14.6193L79.3459 15.0073L79.3524 15.0097L79.5011 14.6193ZM80.1831 15.0361L79.8979 15.3417L79.908 15.3505L80.1831 15.0361ZM80.6756 15.6613L80.3059 15.8558L80.3098 15.8633L80.3141 15.8706L80.6756 15.6613ZM80.9408 16.438H81.3586V16.4096L81.3547 16.3815L80.9408 16.438ZM79.6905 16.4948L80.1041 16.4357L80.1021 16.4221L80.0993 16.4087L79.6905 16.4948ZM79.3306 15.9075L79.057 16.2232L79.0632 16.2286L79.0696 16.2337L79.3306 15.9075ZM74.8598 15.9833L75.1554 16.2788L75.164 16.2696L74.8598 15.9833ZM74.8598 17.4799L75.164 17.1936L75.164 17.1936L74.8598 17.4799ZM79.6526 17.9914L79.4861 18.3745L79.4932 18.3776L79.5004 18.3804L79.6526 17.9914ZM80.4104 18.4839L80.1148 18.7794L80.1241 18.7881L80.4104 18.4839ZM80.9219 19.2227L80.5387 19.3893L80.5416 19.3956L80.9219 19.2227ZM80.9219 21.0603L81.3022 21.2332L81.305 21.2268L80.9219 21.0603ZM80.4104 21.7991L80.115 21.5037L80.115 21.5037L80.4104 21.7991ZM74.5946 22.3484L74.43 22.7324L74.4408 22.7371L74.4518 22.7411L74.5946 22.3484ZM73.8747 21.8938L73.5889 22.1987L73.5983 22.207L73.8747 21.8938ZM73.3633 21.2308L72.9972 21.4321L72.9972 21.4321L73.3633 21.2308ZM73.5348 20.4162C73.5348 20.4228 73.5333 20.4369 73.5263 20.4537C73.5193 20.4705 73.5107 20.4806 73.5071 20.4842L72.9163 19.8934C72.7757 20.034 72.6992 20.2157 72.6992 20.4162H73.5348ZM73.5071 20.4842C73.5035 20.4878 73.4933 20.4965 73.4766 20.5034C73.4597 20.5104 73.4457 20.5119 73.439 20.5119V19.6764C73.2386 19.6764 73.0569 19.7528 72.9163 19.8934L73.5071 20.4842ZM73.439 20.5119H74.0642V19.6764H73.439V20.5119ZM74.0642 20.5119C74.084 20.5119 74.0445 20.516 73.9975 20.4748C73.951 20.4341 73.9505 20.3959 73.9537 20.4184L74.7808 20.3003C74.7588 20.146 74.6952 19.9751 74.5477 19.846C74.3996 19.7165 74.2211 19.6764 74.0642 19.6764V20.5119ZM73.9609 20.4561C74.0433 20.8023 74.2186 21.1016 74.4794 21.3461L75.0508 20.7365C74.9075 20.6022 74.8175 20.4468 74.7737 20.2626L73.9609 20.4561ZM74.49 21.3557C74.7711 21.6017 75.1098 21.7243 75.485 21.7243V20.8888C75.3045 20.8888 75.1633 20.8346 75.0402 20.7269L74.49 21.3557ZM75.485 21.7243H78.7433V20.8888H75.485V21.7243ZM78.7433 21.7243C79.1727 21.7243 79.5482 21.5642 79.8427 21.2524L79.2352 20.6787C79.1003 20.8215 78.9454 20.8888 78.7433 20.8888V21.7243ZM79.8503 21.2441C80.132 20.9292 80.2788 20.5528 80.2788 20.132H79.4433C79.4433 20.3427 79.3753 20.522 79.2276 20.687L79.8503 21.2441ZM80.2788 20.132C80.2788 19.7108 80.1314 19.3363 79.8427 19.0306L79.2352 19.6043C79.3759 19.7532 79.4433 19.9218 79.4433 20.132H80.2788ZM79.8427 19.0306C79.5482 18.7188 79.1727 18.5587 78.7433 18.5587V19.3942C78.9454 19.3942 79.1003 19.4614 79.2352 19.6043L79.8427 19.0306ZM78.7433 18.5587H75.6176V19.3942H78.7433V18.5587ZM75.6176 18.5587C75.3532 18.5587 75.1105 18.5114 74.8854 18.4193L74.569 19.1926C74.8997 19.3279 75.2505 19.3942 75.6176 19.3942V18.5587ZM74.8918 18.422C74.6725 18.328 74.4736 18.1974 74.2937 18.0281L73.721 18.6366C73.9705 18.8714 74.2515 19.0566 74.5627 19.1899L74.8918 18.422ZM74.3028 18.0369C74.1353 17.8695 73.9984 17.6753 73.892 17.4518L73.1376 17.811C73.2838 18.118 73.4753 18.3911 73.712 18.6277L74.3028 18.0369ZM73.9015 17.4732C73.8094 17.2482 73.7621 17.0054 73.7621 16.7411H72.9266C72.9266 17.1082 72.9929 17.459 73.1282 17.7896L73.9015 17.4732ZM73.7621 16.7411C73.7621 16.4765 73.8094 16.2427 73.8988 16.0342L73.1308 15.7051C72.9929 16.027 72.9266 16.3741 72.9266 16.7411H73.7621ZM73.8951 16.0425C74.0021 15.8071 74.1385 15.6095 74.3028 15.4452L73.712 14.8544C73.4721 15.0942 73.2801 15.3764 73.1345 15.6968L73.8951 16.0425ZM74.3028 15.4452C74.4819 15.2661 74.6779 15.1329 74.8918 15.0412L74.5627 14.2733C74.2461 14.4089 73.9622 14.6041 73.712 14.8544L74.3028 15.4452ZM74.9001 15.0375C75.1218 14.9368 75.3594 14.8856 75.6176 14.8856V14.05C75.2443 14.05 74.8884 14.1251 74.5543 14.2769L74.9001 15.0375ZM75.6176 14.8856H78.7054V14.05H75.6176V14.8856ZM78.7054 14.8856C78.9313 14.8856 79.1438 14.9264 79.3459 15.0072L79.6562 14.2315C79.3532 14.1103 79.0353 14.05 78.7054 14.05V14.8856ZM79.3524 15.0097C79.5719 15.0934 79.7517 15.205 79.898 15.3415L80.4681 14.7307C80.2355 14.5136 79.9607 14.3474 79.6498 14.229L79.3524 15.0097ZM79.908 15.3505C80.071 15.4932 80.2033 15.6608 80.3059 15.8558L81.0453 15.4667C80.8953 15.1818 80.6992 14.9327 80.4582 14.7217L79.908 15.3505ZM80.3141 15.8706C80.4254 16.0629 80.4963 16.2698 80.5269 16.4944L81.3547 16.3815C81.3096 16.0504 81.2036 15.7395 81.0371 15.4519L80.3141 15.8706ZM80.5231 16.438C80.5231 16.4809 80.5126 16.4364 80.5649 16.3841C80.6172 16.3318 80.6617 16.3422 80.6188 16.3422V17.1778C80.7905 17.1778 80.9961 17.1345 81.1557 16.9749C81.3154 16.8152 81.3586 16.6097 81.3586 16.438H80.5231ZM80.6188 16.3422H80.0126V17.1778H80.6188V16.3422ZM80.0126 16.3422C79.9797 16.3422 80.0113 16.3347 80.0555 16.3712C80.0768 16.3887 80.0907 16.4084 80.0985 16.424C80.1056 16.4383 80.1053 16.4443 80.1041 16.4357L79.277 16.5539C79.3 16.7152 79.3694 16.8885 79.5244 17.0162C79.676 17.1411 79.8559 17.1778 80.0126 17.1778V16.3422ZM80.0993 16.4087C80.0291 16.0751 79.8575 15.7941 79.5916 15.5813L79.0696 16.2337C79.1825 16.3241 79.2509 16.4345 79.2817 16.5809L80.0993 16.4087ZM79.6042 15.5918C79.3382 15.3613 79.0198 15.2435 78.6675 15.2435V16.079C78.8205 16.079 78.9441 16.1254 79.057 16.2232L79.6042 15.5918ZM78.6675 15.2435H75.5986V16.079H78.6675V15.2435ZM75.5986 15.2435C75.191 15.2435 74.8353 15.3998 74.5556 15.697L75.164 16.2696C75.2885 16.1374 75.4253 16.079 75.5986 16.079V15.2435ZM74.5644 15.6879C74.2826 15.9698 74.139 16.3229 74.139 16.7221H74.9745C74.9745 16.5404 75.0329 16.401 75.1552 16.2787L74.5644 15.6879ZM74.139 16.7221C74.139 17.1208 74.2818 17.4753 74.5556 17.7662L75.164 17.1936C75.0337 17.0551 74.9745 16.9044 74.9745 16.7221H74.139ZM74.5556 17.7662C74.8353 18.0633 75.191 18.2197 75.5986 18.2197V17.3842C75.4253 17.3842 75.2885 17.3258 75.164 17.1936L74.5556 17.7662ZM75.5986 18.2197H78.7244V17.3842H75.5986V18.2197ZM78.7244 18.2197C78.9976 18.2197 79.2501 18.2719 79.4861 18.3745L79.8192 17.6082C79.4742 17.4583 79.1079 17.3842 78.7244 17.3842V18.2197ZM79.5004 18.3804C79.7387 18.4736 79.9422 18.6065 80.115 18.7793L80.7058 18.1885C80.4492 17.9319 80.1475 17.7364 79.8049 17.6023L79.5004 18.3804ZM80.1241 18.7881C80.2945 18.9485 80.4334 19.1469 80.5388 19.3893L81.305 19.0561C81.1578 18.7176 80.9557 18.4234 80.6967 18.1797L80.1241 18.7881ZM80.5416 19.3956C80.6413 19.6151 80.6935 19.8587 80.6935 20.132H81.5291C81.5291 19.7486 81.455 19.386 81.3022 19.0498L80.5416 19.3956ZM80.6935 20.132C80.6935 20.4052 80.6414 20.6577 80.5388 20.8937L81.305 21.2268C81.455 20.8819 81.5291 20.5155 81.5291 20.132H80.6935ZM80.5416 20.8874C80.4359 21.1199 80.2941 21.3246 80.115 21.5037L80.7058 22.0945C80.9561 21.8442 81.1553 21.5563 81.3022 21.2331L80.5416 20.8874ZM80.115 21.5037C79.9389 21.6797 79.7306 21.8211 79.4861 21.9274L79.8192 22.6937C80.1556 22.5474 80.4524 22.3478 80.7058 22.0945L80.115 21.5037ZM79.4861 21.9274C79.2501 22.03 78.9976 22.0822 78.7244 22.0822V22.9178C79.1079 22.9178 79.4742 22.8437 79.8192 22.6937L79.4861 21.9274ZM78.7244 22.0822H75.466V22.9178H78.7244V22.0822ZM75.466 22.0822C75.2104 22.0822 74.9683 22.0398 74.7374 21.9558L74.4518 22.7411C74.7766 22.8592 75.1155 22.9178 75.466 22.9178V22.0822ZM74.7592 21.9645C74.5344 21.8682 74.3323 21.7404 74.1511 21.5805L73.5983 22.207C73.8466 22.4261 74.1244 22.6014 74.43 22.7324L74.7592 21.9645ZM74.1605 21.589C73.9917 21.4308 73.8479 21.2451 73.7293 21.0294L72.9972 21.4321C73.1564 21.7216 73.3536 21.9779 73.589 22.1986L74.1605 21.589ZM73.7293 21.0294C73.6187 20.8284 73.5535 20.6132 73.5332 20.38L72.7008 20.4524C72.731 20.8001 72.8299 21.1279 72.9972 21.4321L73.7293 21.0294ZM88.2372 15.2445L87.8635 15.0577L87.8601 15.0646L87.8569 15.0716L88.2372 15.2445ZM88.5213 14.8467L88.2259 14.5513L88.2259 14.5513L88.5213 14.8467ZM88.9002 14.5815L89.0731 14.9618L89.0801 14.9586L89.087 14.9551L88.9002 14.5815ZM95.9284 14.5815L95.7283 14.9482L95.7417 14.9555L95.7555 14.9618L95.9284 14.5815ZM96.5725 15.2445L96.1869 15.4052L96.1953 15.4253L96.2057 15.4445L96.5725 15.2445ZM96.5725 21.7422L96.1988 21.5554L96.1954 21.5623L96.1922 21.5694L96.5725 21.7422ZM96.3073 22.1211L96.0119 21.8257L96.0119 21.8257L96.3073 22.1211ZM95.9284 22.4053L96.1013 22.7856L96.1151 22.7793L96.1284 22.772L95.9284 22.4053ZM88.9002 22.4053L88.7002 22.772L88.7193 22.7825L88.7395 22.7909L88.9002 22.4053ZM88.5213 22.1211L88.2259 22.4165L88.2259 22.4165L88.5213 22.1211ZM88.2372 21.7422L87.8515 21.9029L87.8599 21.9231L87.8704 21.9423L88.2372 21.7422ZM89.4496 21.3065H89.0318V21.7243H89.4496V21.3065ZM95.379 21.3065V21.7243H95.7968V21.3065H95.379ZM95.379 15.6613H95.7968V15.2435H95.379V15.6613ZM89.4496 15.6613V15.2435H89.0318V15.6613H89.4496ZM88.5602 15.6613C88.5602 15.5876 88.5766 15.5074 88.6175 15.4174L87.8569 15.0716C87.7715 15.2594 87.7247 15.457 87.7247 15.6613H88.5602ZM88.6108 15.4313C88.6676 15.3177 88.7365 15.2223 88.8167 15.1421L88.2259 14.5513C88.0788 14.6984 87.9583 14.8681 87.8635 15.0577L88.6108 15.4313ZM88.8167 15.1421C88.8969 15.0619 88.9822 15.0031 89.0731 14.9618L88.7273 14.2011C88.5404 14.2861 88.3731 14.4041 88.2259 14.5513L88.8167 15.1421ZM89.087 14.9551C89.1931 14.9021 89.2746 14.8856 89.3359 14.8856V14.05C89.1194 14.05 88.9104 14.1093 88.7134 14.2078L89.087 14.9551ZM89.3359 14.8856H95.4927V14.05H89.3359V14.8856ZM95.4927 14.8856C95.5712 14.8856 95.648 14.9044 95.7283 14.9482L96.1284 14.2147C95.931 14.107 95.7173 14.05 95.4927 14.05V14.8856ZM95.7555 14.9618C95.8464 15.0031 95.9317 15.0619 96.0119 15.1421L96.6027 14.5513C96.4555 14.4041 96.2882 14.2861 96.1013 14.2011L95.7555 14.9618ZM96.0119 15.1421C96.0861 15.2163 96.1442 15.3029 96.1869 15.4052L96.9581 15.0838C96.8744 14.883 96.7557 14.7044 96.6027 14.5513L96.0119 15.1421ZM96.2057 15.4445C96.2527 15.5307 96.2684 15.6015 96.2684 15.6613H97.1039C97.1039 15.4432 97.0438 15.2361 96.9392 15.0444L96.2057 15.4445ZM96.2684 15.6613V21.3065H97.1039V15.6613H96.2684ZM96.2684 21.3065C96.2684 21.3679 96.2519 21.4493 96.1988 21.5554L96.9461 21.9291C97.0446 21.7321 97.1039 21.523 97.1039 21.3065H96.2684ZM96.1922 21.5694C96.1508 21.6603 96.092 21.7456 96.0119 21.8257L96.6027 22.4165C96.7498 22.2693 96.8678 22.102 96.9528 21.9151L96.1922 21.5694ZM96.0119 21.8257C95.926 21.9116 95.8317 21.9822 95.7283 22.0385L96.1284 22.772C96.3029 22.6768 96.4612 22.558 96.6027 22.4165L96.0119 21.8257ZM95.7555 22.025C95.6705 22.0636 95.5842 22.0822 95.4927 22.0822V22.9178C95.7043 22.9178 95.9084 22.8732 96.1013 22.7856L95.7555 22.025ZM95.4927 22.0822H89.3359V22.9178H95.4927V22.0822ZM89.3359 22.0822C89.2612 22.0822 89.1706 22.0654 89.0609 22.0197L88.7395 22.7909C88.9329 22.8715 89.1328 22.9178 89.3359 22.9178V22.0822ZM89.1002 22.0385C88.9969 21.9822 88.9026 21.9116 88.8167 21.8257L88.2259 22.4165C88.3674 22.558 88.5257 22.6768 88.7002 22.772L89.1002 22.0385ZM88.8167 21.8257C88.7308 21.7398 88.6603 21.6455 88.6039 21.5422L87.8704 21.9423C87.9656 22.1168 88.0845 22.2751 88.2259 22.4165L88.8167 21.8257ZM88.6228 21.5816C88.5771 21.4718 88.5602 21.3812 88.5602 21.3065H87.7247C87.7247 21.5097 87.771 21.7096 87.8515 21.9029L88.6228 21.5816ZM88.5602 21.3065V15.6613H87.7247V21.3065H88.5602ZM89.4496 21.7243H95.379V20.8888H89.4496V21.7243ZM95.7968 21.3065V15.6613H94.9612V21.3065H95.7968ZM95.379 15.2435H89.4496V16.079H95.379V15.2435ZM89.0318 15.6613V21.3065H89.8673V15.6613H89.0318ZM98.5299 20.4162H98.1121V20.4343L98.1137 20.4524L98.5299 20.4162ZM98.6246 20.1888L98.3292 19.8934L98.3292 19.8934L98.6246 20.1888ZM99.7802 20.3593L99.3666 20.4184L99.3694 20.4374L99.3738 20.4561L99.7802 20.3593ZM100.178 21.0413L99.8923 21.3461L99.8975 21.351L99.9029 21.3557L100.178 21.0413ZM104.952 20.9655L105.256 21.2525L105.263 21.2441L104.952 20.9655ZM104.952 19.3174L104.648 19.6043L104.648 19.6043L104.952 19.3174ZM100.14 18.8059L99.9756 19.19L99.982 19.1926L100.14 18.8059ZM99.4203 18.3323L99.1247 18.6279L99.134 18.6366L99.4203 18.3323ZM98.9277 17.6314L98.5411 17.7896L98.5455 17.8004L98.5506 17.811L98.9277 17.6314ZM98.9277 15.8696L98.5473 15.6967L98.5437 15.7051L98.9277 15.8696ZM99.4203 15.1498L99.7157 15.4452L99.7157 15.4452L99.4203 15.1498ZM100.14 14.6572L100.305 15.0413L100.313 15.0375L100.14 14.6572ZM104.914 14.6193L104.759 15.0073L104.765 15.0097L104.914 14.6193ZM105.596 15.0361L105.311 15.3417L105.321 15.3505L105.596 15.0361ZM106.089 15.6613L105.719 15.8558L105.723 15.8633L105.727 15.8706L106.089 15.6613ZM106.354 16.438H106.771V16.4096L106.768 16.3815L106.354 16.438ZM105.103 16.4948L105.517 16.4357L105.515 16.4221L105.512 16.4087L105.103 16.4948ZM104.744 15.9075L104.47 16.2232L104.476 16.2286L104.483 16.2337L104.744 15.9075ZM100.273 15.9833L100.568 16.2788L100.577 16.2696L100.273 15.9833ZM100.273 17.4799L100.577 17.1936L100.577 17.1936L100.273 17.4799ZM105.066 17.9914L104.899 18.3745L104.906 18.3776L104.913 18.3804L105.066 17.9914ZM105.823 18.4839L105.528 18.7794L105.537 18.7881L105.823 18.4839ZM106.335 19.2227L105.952 19.3893L105.954 19.3956L106.335 19.2227ZM106.335 21.0603L106.715 21.2332L106.718 21.2268L106.335 21.0603ZM105.823 21.7991L105.528 21.5037L105.528 21.5037L105.823 21.7991ZM100.008 22.3484L99.843 22.7324L99.8537 22.7371L99.8648 22.7411L100.008 22.3484ZM99.2877 21.8938L99.0018 22.1987L99.0113 22.207L99.2877 21.8938ZM98.7762 21.2308L98.4101 21.4321L98.4101 21.4321L98.7762 21.2308ZM98.9477 20.4162C98.9477 20.4228 98.9462 20.4369 98.9392 20.4537C98.9322 20.4705 98.9236 20.4806 98.92 20.4842L98.3292 19.8934C98.1886 20.034 98.1121 20.2157 98.1121 20.4162H98.9477ZM98.92 20.4842C98.9164 20.4878 98.9063 20.4965 98.8895 20.5034C98.8727 20.5104 98.8586 20.5119 98.852 20.5119V19.6764C98.6515 19.6764 98.4698 19.7528 98.3292 19.8934L98.92 20.4842ZM98.852 20.5119H99.4771V19.6764H98.852V20.5119ZM99.4771 20.5119C99.497 20.5119 99.4574 20.516 99.4104 20.4748C99.3639 20.4341 99.3634 20.3959 99.3666 20.4184L100.194 20.3003C100.172 20.146 100.108 19.9751 99.9606 19.846C99.8125 19.7165 99.6341 19.6764 99.4771 19.6764V20.5119ZM99.3738 20.4561C99.4562 20.8023 99.6315 21.1016 99.8923 21.3461L100.464 20.7365C100.32 20.6022 100.23 20.4468 100.187 20.2626L99.3738 20.4561ZM99.9029 21.3557C100.184 21.6017 100.523 21.7243 100.898 21.7243V20.8888C100.717 20.8888 100.576 20.8346 100.453 20.7269L99.9029 21.3557ZM100.898 21.7243H104.156V20.8888H100.898V21.7243ZM104.156 21.7243C104.586 21.7243 104.961 21.5642 105.256 21.2524L104.648 20.6787C104.513 20.8215 104.358 20.8888 104.156 20.8888V21.7243ZM105.263 21.2441C105.545 20.9292 105.692 20.5528 105.692 20.132H104.856C104.856 20.3427 104.788 20.522 104.641 20.687L105.263 21.2441ZM105.692 20.132C105.692 19.7108 105.544 19.3363 105.256 19.0306L104.648 19.6043C104.789 19.7532 104.856 19.9218 104.856 20.132H105.692ZM105.256 19.0306C104.961 18.7188 104.586 18.5587 104.156 18.5587V19.3942C104.358 19.3942 104.513 19.4614 104.648 19.6043L105.256 19.0306ZM104.156 18.5587H101.031V19.3942H104.156V18.5587ZM101.031 18.5587C100.766 18.5587 100.523 18.5114 100.298 18.4193L99.982 19.1926C100.313 19.3279 100.663 19.3942 101.031 19.3942V18.5587ZM100.305 18.422C100.085 18.328 99.8865 18.1974 99.7066 18.0281L99.134 18.6366C99.3835 18.8714 99.6644 19.0566 99.9756 19.1899L100.305 18.422ZM99.7157 18.0369C99.5482 17.8695 99.4113 17.6753 99.3049 17.4518L98.5506 17.811C98.6967 18.118 98.8882 18.3911 99.1249 18.6277L99.7157 18.0369ZM99.3144 17.4732C99.2223 17.2482 99.175 17.0054 99.175 16.7411H98.3395C98.3395 17.1082 98.4058 17.459 98.5411 17.7896L99.3144 17.4732ZM99.175 16.7411C99.175 16.4765 99.2224 16.2427 99.3117 16.0342L98.5437 15.7051C98.4058 16.027 98.3395 16.3741 98.3395 16.7411H99.175ZM99.308 16.0425C99.415 15.8071 99.5514 15.6095 99.7157 15.4452L99.1249 14.8544C98.885 15.0942 98.693 15.3764 98.5474 15.6968L99.308 16.0425ZM99.7157 15.4452C99.8948 15.2661 100.091 15.1329 100.305 15.0412L99.9756 14.2733C99.659 14.4089 99.3752 14.6041 99.1249 14.8544L99.7157 15.4452ZM100.313 15.0375C100.535 14.9368 100.772 14.8856 101.031 14.8856V14.05C100.657 14.05 100.301 14.1251 99.9673 14.2769L100.313 15.0375ZM101.031 14.8856H104.118V14.05H101.031V14.8856ZM104.118 14.8856C104.344 14.8856 104.557 14.9264 104.759 15.0072L105.069 14.2315C104.766 14.1103 104.448 14.05 104.118 14.05V14.8856ZM104.765 15.0097C104.985 15.0934 105.165 15.205 105.311 15.3415L105.881 14.7307C105.648 14.5136 105.374 14.3474 105.063 14.229L104.765 15.0097ZM105.321 15.3505C105.484 15.4932 105.616 15.6608 105.719 15.8558L106.458 15.4667C106.308 15.1818 106.112 14.9327 105.871 14.7217L105.321 15.3505ZM105.727 15.8706C105.838 16.0629 105.909 16.2698 105.94 16.4944L106.768 16.3815C106.723 16.0504 106.617 15.7395 106.45 15.4519L105.727 15.8706ZM105.936 16.438C105.936 16.4809 105.926 16.4364 105.978 16.3841C106.03 16.3318 106.075 16.3422 106.032 16.3422V17.1778C106.203 17.1778 106.409 17.1345 106.569 16.9749C106.728 16.8152 106.771 16.6097 106.771 16.438H105.936ZM106.032 16.3422H105.425V17.1778H106.032V16.3422ZM105.425 16.3422C105.393 16.3422 105.424 16.3347 105.468 16.3712C105.49 16.3887 105.504 16.4084 105.511 16.424C105.519 16.4383 105.518 16.4443 105.517 16.4357L104.69 16.5539C104.713 16.7152 104.782 16.8885 104.937 17.0162C105.089 17.1411 105.269 17.1778 105.425 17.1778V16.3422ZM105.512 16.4087C105.442 16.0751 105.27 15.7941 105.004 15.5813L104.483 16.2337C104.595 16.3241 104.664 16.4345 104.695 16.5809L105.512 16.4087ZM105.017 15.5918C104.751 15.3613 104.433 15.2435 104.08 15.2435V16.079C104.233 16.079 104.357 16.1254 104.47 16.2232L105.017 15.5918ZM104.08 15.2435H101.012V16.079H104.08V15.2435ZM101.012 15.2435C100.604 15.2435 100.248 15.3998 99.9685 15.697L100.577 16.2696C100.701 16.1374 100.838 16.079 101.012 16.079V15.2435ZM99.9773 15.6879C99.6955 15.9698 99.5519 16.3229 99.5519 16.7221H100.387C100.387 16.5404 100.446 16.401 100.568 16.2787L99.9773 15.6879ZM99.5519 16.7221C99.5519 17.1208 99.6947 17.4753 99.9685 17.7662L100.577 17.1936C100.447 17.0551 100.387 16.9044 100.387 16.7221H99.5519ZM99.9685 17.7662C100.248 18.0633 100.604 18.2197 101.012 18.2197V17.3842C100.838 17.3842 100.701 17.3258 100.577 17.1936L99.9685 17.7662ZM101.012 18.2197H104.137V17.3842H101.012V18.2197ZM104.137 18.2197C104.41 18.2197 104.663 18.2719 104.899 18.3745L105.232 17.6082C104.887 17.4583 104.521 17.3842 104.137 17.3842V18.2197ZM104.913 18.3804C105.152 18.4736 105.355 18.6065 105.528 18.7793L106.119 18.1885C105.862 17.9319 105.56 17.7364 105.218 17.6023L104.913 18.3804ZM105.537 18.7881C105.707 18.9485 105.846 19.1469 105.952 19.3893L106.718 19.0561C106.571 18.7176 106.369 18.4234 106.11 18.1797L105.537 18.7881ZM105.954 19.3956C106.054 19.6151 106.106 19.8587 106.106 20.132H106.942C106.942 19.7486 106.868 19.386 106.715 19.0498L105.954 19.3956ZM106.106 20.132C106.106 20.4052 106.054 20.6577 105.952 20.8937L106.718 21.2268C106.868 20.8819 106.942 20.5155 106.942 20.132H106.106ZM105.954 20.8874C105.849 21.1199 105.707 21.3246 105.528 21.5037L106.119 22.0945C106.369 21.8442 106.568 21.5563 106.715 21.2331L105.954 20.8874ZM105.528 21.5037C105.352 21.6797 105.143 21.8211 104.899 21.9274L105.232 22.6937C105.569 22.5474 105.865 22.3478 106.119 22.0945L105.528 21.5037ZM104.899 21.9274C104.663 22.03 104.41 22.0822 104.137 22.0822V22.9178C104.521 22.9178 104.887 22.8437 105.232 22.6937L104.899 21.9274ZM104.137 22.0822H100.879V22.9178H104.137V22.0822ZM100.879 22.0822C100.623 22.0822 100.381 22.0398 100.15 21.9558L99.8648 22.7411C100.19 22.8592 100.528 22.9178 100.879 22.9178V22.0822ZM100.172 21.9645C99.9474 21.8682 99.7452 21.7404 99.5641 21.5805L99.0113 22.207C99.2595 22.4261 99.5373 22.6014 99.843 22.7324L100.172 21.9645ZM99.5734 21.589C99.4047 21.4308 99.2609 21.2451 99.1422 21.0294L98.4101 21.4321C98.5694 21.7216 98.7665 21.9779 99.0019 22.1986L99.5734 21.589ZM99.1422 21.0294C99.0317 20.8284 98.9664 20.6132 98.9461 20.38L98.1137 20.4524C98.144 20.8001 98.2429 21.1279 98.4101 21.4321L99.1422 21.0294Z" fill="white" mask="url(#path-4-outside-1_366_3150)"/>
</svg>
