<svg width="149" height="54" viewBox="0 0 149 54" fill="none" xmlns="http://www.w3.org/2000/svg">
<g opacity="0.2">
<path d="M20.155 23.8745V18.8041H37.1272C37.3005 19.6987 37.403 20.7594 37.403 21.9121C37.403 25.7132 36.3634 30.4195 33.0114 33.7715C29.7513 37.1659 25.5896 38.9763 20.0666 38.9763C9.83725 38.9763 1.23798 30.6493 1.23798 20.42C1.23798 10.1907 9.83725 1.86365 20.0666 1.86365C25.724 1.86365 29.7513 4.08065 32.7851 6.97654L29.2104 10.5513C27.0393 8.51465 24.0975 6.93057 20.0666 6.93057C12.5988 6.93057 6.76103 12.9486 6.76103 20.42C6.76103 27.8913 12.5988 33.9094 20.0666 33.9094C24.9107 33.9094 27.6687 31.9646 29.4367 30.1967C30.8758 28.7576 31.8234 26.6962 32.1911 23.8745H20.155Z" fill="black"/>
<path d="M63.263 27.0256C63.263 33.9065 57.8779 38.9734 51.2693 38.9734C44.6607 38.9734 39.2756 33.9029 39.2756 27.0256C39.2756 20.1024 44.6607 15.0779 51.2693 15.0779C57.8779 15.0779 63.263 20.1024 63.263 27.0256ZM58.0122 27.0256C58.0122 22.726 54.89 19.7841 51.2693 19.7841C47.6485 19.7841 44.5264 22.726 44.5264 27.0256C44.5264 31.2793 47.6485 34.2671 51.2693 34.2671C54.89 34.2707 58.0122 31.2828 58.0122 27.0256Z" fill="black"/>
<path d="M89.0763 27.0256C89.0763 33.9065 83.6912 38.9734 77.0826 38.9734C70.474 38.9734 65.0889 33.9029 65.0889 27.0256C65.0889 20.1024 70.474 15.0779 77.0826 15.0779C83.6912 15.0779 89.0763 20.1024 89.0763 27.0256ZM83.8256 27.0256C83.8256 22.726 80.7034 19.7841 77.0826 19.7841C73.4619 19.7841 70.3397 22.726 70.3397 27.0256C70.3397 31.2793 73.4619 34.2671 77.0826 34.2671C80.7034 34.2707 83.8256 31.2828 83.8256 27.0256Z" fill="black"/>
<path d="M113.855 15.7951V37.2543C113.855 46.0799 108.65 49.7006 102.495 49.7006C96.7027 49.7006 93.2164 45.8076 91.9046 42.6395L96.4765 40.7372C97.2897 42.6819 99.2839 44.9908 102.495 44.9908C106.433 44.9908 108.877 42.5476 108.877 37.9757V36.2572H108.696C107.519 37.7069 105.256 38.9728 102.406 38.9728C96.4305 38.9728 90.9534 33.768 90.9534 27.0674C90.9534 20.3245 96.4305 15.0737 102.406 15.0737C105.256 15.0737 107.519 16.3396 108.696 17.7433H108.877V15.7915H113.855V15.7951ZM109.237 27.071C109.237 22.8597 106.43 19.7835 102.855 19.7835C99.2344 19.7835 96.2007 22.8597 96.2007 27.071C96.2007 31.2363 99.2344 34.2665 102.855 34.2665C106.434 34.27 109.237 31.2363 109.237 27.071Z" fill="black"/>
<path d="M122.696 3.24597V38.2512H117.445V3.24597H122.696Z" fill="black"/>
<path d="M142.617 30.9646L146.69 33.6802C145.379 35.6249 142.21 38.9769 136.733 38.9769C129.944 38.9769 124.874 33.7261 124.874 27.0292C124.874 19.922 129.987 15.0814 136.143 15.0814C142.345 15.0814 145.375 20.014 146.372 22.6836L146.917 24.0414L130.938 30.6499C132.161 33.0472 134.06 34.2707 136.73 34.2707C139.403 34.2707 141.259 32.9553 142.617 30.9646ZM130.079 26.665L140.761 22.231C140.174 20.7388 138.406 19.6957 136.327 19.6957C133.654 19.6957 129.944 22.0471 130.079 26.665Z" fill="black"/>
</g>
</svg>
