<svg width="200" height="200" viewBox="0 0 200 200" fill="none" xmlns="http://www.w3.org/2000/svg">
<path d="M105.755 109.277C97.2073 117.825 97.2073 131.619 105.755 140.108C114.303 148.655 128.097 148.655 136.585 140.108C145.133 131.56 145.133 117.766 136.585 109.277C128.038 100.788 114.303 100.788 105.755 109.277ZM128.804 132.385C124.56 136.63 117.722 136.63 113.536 132.385C109.292 128.141 109.292 121.303 113.536 117.117C117.781 112.873 124.619 112.873 128.804 117.117C133.048 121.303 133.048 128.141 128.804 132.385ZM136.232 1.98954L122.85 15.371C120.256 17.9648 120.256 22.2681 122.85 24.9208L175.02 77.0909C177.614 79.6846 181.917 79.6846 184.57 77.0909L197.952 63.7094C200.545 61.1156 200.545 56.8123 197.952 54.1596L145.781 1.98954C143.129 -0.663179 138.825 -0.663179 136.232 1.98954ZM42.6203 172.765C44.9783 170.407 44.9783 166.517 42.6203 164.159L35.8411 157.38C33.4832 155.022 29.5925 155.022 27.2345 157.38L13.1457 171.351L9.31398 167.519C7.19181 165.397 3.7138 165.397 1.59163 167.519C-0.530543 169.641 -0.530543 173.119 1.59163 175.241L24.7587 198.408C26.8809 200.531 30.3588 200.531 32.481 198.408C34.6032 196.286 34.6032 192.808 32.481 190.686L28.6493 186.854L42.6203 172.765Z" fill="#F5A800"/>
<path d="M113.301 40.3067L83.5903 70.0171C80.9376 72.6698 80.9376 76.9731 83.5903 79.6258L101.924 97.959C114.892 88.645 133.049 89.7651 144.721 101.437L159.576 86.5818C162.229 83.9291 162.229 79.6258 159.576 76.9731L122.909 40.3067C120.257 37.7129 115.953 37.7129 113.301 40.3067ZM94.2602 105.74L83.4135 94.8936C80.8787 92.3588 76.7522 92.3588 74.2174 94.8936L36.0183 133.093C33.4835 135.628 33.4835 139.754 36.0183 142.289L57.6527 163.923C60.1875 166.458 64.3139 166.458 66.8488 163.923L91.4306 139.341C86.243 128.613 87.1862 115.644 94.2602 105.74Z" fill="#425CC7"/>
</svg>
