<svg width="177" height="70" viewBox="0 0 177 70" fill="none" xmlns="http://www.w3.org/2000/svg">
<g opacity="0.2">
<path d="M39.8999 29.5325V45.9451C39.8999 46.2111 39.7942 46.4663 39.6061 46.6544C39.418 46.8425 39.1628 46.9482 38.8968 46.9482H33.7158C33.4498 46.9481 33.1947 46.8424 33.0066 46.6543C32.8185 46.4662 32.7128 46.2111 32.7127 45.9451V19.2493C32.7127 18.9832 32.8184 18.7281 33.0065 18.5399C33.1946 18.3518 33.4497 18.2461 33.7158 18.2461H38.5102C38.7763 18.2461 39.0314 18.3518 39.2195 18.5399C39.4077 18.7281 39.5133 18.9832 39.5133 19.2493V23.0087C39.5133 23.0087 41.2272 17.6459 46.3136 17.6459C46.3136 17.6459 51.3446 17.0378 53.3902 22.6217C53.3902 22.6217 55.1041 17.6459 60.301 17.6459C60.301 17.6459 68.0296 17.1864 68.0296 25.1835L68.0885 29.5878V46.0004C68.0885 46.2664 67.9828 46.5216 67.7947 46.7097C67.6065 46.8978 67.3514 47.0035 67.0854 47.0035H61.9039C61.6379 47.0034 61.3828 46.8976 61.1947 46.7096C61.0066 46.5215 60.9009 46.2664 60.9008 46.0004L60.8535 28.0951C61.0007 24.0406 57.7207 24.3356 57.7207 24.3356C53.5928 24.4095 53.99 29.5878 53.99 29.5878V46.0004C53.99 46.2664 53.8843 46.5216 53.6962 46.7097C53.5081 46.8978 53.2529 47.0035 52.9869 47.0035H47.8059C47.5399 47.0034 47.2848 46.8976 47.0967 46.7096C46.9086 46.5215 46.8029 46.2664 46.8027 46.0004V28.5002C46.8027 28.5002 47.1057 24.2985 43.4197 24.2985C43.4201 24.2985 39.7712 23.8195 39.8999 29.5325ZM173.452 29.4834V45.8956C173.452 46.1616 173.346 46.4166 173.158 46.6047C172.97 46.7928 172.715 46.8986 172.449 46.8987L167.06 47.003C166.794 47.0029 166.539 46.8972 166.351 46.7091C166.163 46.521 166.057 46.2659 166.057 45.9999V28.5002C166.057 28.5002 166.36 24.2985 162.675 24.2985C162.675 24.2985 159.155 24.1251 159.155 30.713V45.9446C159.154 46.2107 159.049 46.4657 158.861 46.6538C158.672 46.8419 158.417 46.9476 158.151 46.9478H152.97C152.704 46.9476 152.449 46.8419 152.261 46.6538C152.073 46.4657 151.967 46.2107 151.967 45.9446V19.2493C151.967 18.9832 152.073 18.7282 152.261 18.5401C152.449 18.352 152.704 18.2463 152.97 18.2461H157.764C158.03 18.2461 158.286 18.3518 158.474 18.5399C158.662 18.7281 158.768 18.9832 158.768 19.2493V23.0087C158.768 23.0087 160.481 17.6459 165.568 17.6459C165.568 17.6459 171.016 16.8193 172.851 22.5178C172.852 22.5173 173.452 23.693 173.452 29.4834ZM136.043 17.5354C129.417 17.5354 124.046 23.1193 124.046 32.518C124.046 40.7928 128.192 47.5006 136.043 47.5006C143.451 47.5006 148.04 40.7928 148.04 32.518C148.04 23.2852 142.669 17.5354 136.043 17.5354ZM140.225 32.8497C140.225 36.3881 139.783 38.2678 139.783 38.2678C139.153 42.0082 136.438 42.0136 136.038 41.9937C135.606 42.0109 132.867 41.972 132.301 38.2678C132.301 38.2678 131.858 36.3881 131.858 32.8497V32.2601C131.858 28.7218 132.301 26.8421 132.301 26.8421C132.867 23.1379 135.606 23.099 136.038 23.1158C136.438 23.0959 139.153 23.1007 139.783 26.8421C139.783 26.8421 140.225 28.7218 140.225 32.2601V32.8497ZM121.039 22.9716V19.1413C121.039 18.8753 120.933 18.6202 120.745 18.4322C120.557 18.2441 120.302 18.1383 120.036 18.1382H102.91C102.644 18.1382 102.389 18.2439 102.201 18.432C102.013 18.6201 101.907 18.8753 101.907 19.1413V22.9419C101.907 23.208 102.013 23.463 102.201 23.6511C102.389 23.8392 102.644 23.9449 102.91 23.9451H111.843L101.27 39.2837C101.27 39.2837 100.853 39.9056 100.867 40.5925V45.2582C100.867 45.2582 100.798 46.858 102.612 45.9296C102.612 45.9296 105.835 43.9826 111.238 43.9826C111.238 43.9826 116.574 43.9163 120.132 46.0972C120.132 46.0972 121.609 46.7686 121.609 45.2923V41.2311C121.609 41.2311 121.743 40.1564 120.333 39.4854C120.333 39.4854 116.239 37.2368 110.869 37.6057L121.039 22.9716ZM28.7139 42.1741L27.092 39.7052C26.5759 38.7835 26.613 37.7512 26.613 37.7512V26.3626C26.8342 16.5216 15.9242 17.3695 15.9242 17.3695C6.22561 17.3695 4.79303 24.9172 4.79303 24.9172C4.38877 26.4347 5.56438 26.4714 5.56438 26.4714L10.3035 26.9522C10.3035 26.9522 11.1116 27.1371 11.4057 26.1751C11.4057 26.1751 12.0298 22.8822 15.5199 22.8822C19.3174 22.8822 19.2781 26.1415 19.2781 26.1415V28.87C11.6972 29.1234 8.18407 31.2278 8.18407 31.2278C3.5033 33.8816 3.79787 39.1524 3.79787 39.1524C3.79787 47.7399 11.9803 47.371 11.9803 47.371C17.2139 47.371 20.3099 43.5381 20.3099 43.5381C21.2312 45.1605 22.927 46.7076 22.927 46.7076C23.7753 47.6276 24.6594 46.8553 24.6594 46.8553L28.4928 43.5753C29.3402 42.9481 28.7139 42.1741 28.7139 42.1741ZM14.5345 42.068C12.0727 42.068 11.1576 39.6216 11.5663 37.2173C11.9754 34.813 14.1002 32.9236 19.2785 32.9789V34.4406C19.4621 40.8264 16.5836 42.068 14.5345 42.068ZM97.5637 42.1741L95.9422 39.7052C95.4261 38.7835 95.4628 37.7512 95.4628 37.7512V26.3626C95.6839 16.5216 84.7739 17.3695 84.7739 17.3695C75.0753 17.3695 73.6428 24.9172 73.6428 24.9172C73.2385 26.4347 74.4141 26.4714 74.4141 26.4714L79.1533 26.9522C79.1533 26.9522 79.9613 27.1371 80.2555 26.1751C80.2555 26.1751 80.8795 22.8822 84.3697 22.8822C88.1672 22.8822 88.1278 26.1415 88.1278 26.1415V28.87C80.5474 29.1234 77.0338 31.2278 77.0338 31.2278C72.353 33.8816 72.6476 39.1524 72.6476 39.1524C72.6476 47.7399 80.83 47.371 80.83 47.371C86.0636 47.371 89.1597 43.5381 89.1597 43.5381C90.0814 45.1605 91.7763 46.7076 91.7763 46.7076C92.6246 47.6276 93.5092 46.8553 93.5092 46.8553L97.3421 43.5753C98.1899 42.9481 97.5637 42.1741 97.5637 42.1741ZM83.3842 42.068C80.9224 42.068 80.0073 39.6216 80.416 37.2173C80.8251 34.813 82.9499 32.9236 88.1278 32.9789V34.4406C88.3118 40.8264 85.4338 42.068 83.3842 42.068Z" fill="black"/>
<path d="M110.609 63.7298C110.609 63.7298 110.176 64.484 110.709 64.6525C110.709 64.6525 111.31 64.8873 112.06 64.1912C112.06 64.1912 117.531 59.4122 117.663 50.7114C117.663 50.7114 117.703 49.6247 117.267 49.3275C117.267 49.3275 115.553 47.8113 109.39 48.2726C109.39 48.2726 104.018 48.6353 101.085 51.2391C101.085 51.2391 100.822 51.4695 100.822 51.7659C100.822 51.7659 100.758 52.4059 102.37 52.1285C102.37 52.1285 107.742 51.37 110.939 51.7659C110.939 51.7659 112.587 51.9636 113.049 52.5244C113.049 52.5244 113.807 53.1507 113.411 55.2264C113.411 55.2272 112.323 60.5002 110.609 63.7298Z" fill="black"/>
<path d="M109.526 55.3828C109.526 55.3828 110.328 56.4222 109.034 57.3187C109.034 57.3187 95.2047 68.3804 71.9844 68.3804C71.9844 68.3804 48.082 69.5595 28.1236 51.4256C28.1236 51.4256 27.4239 50.8112 27.8583 50.2402C27.8583 50.2402 28.2466 49.7148 29.2519 50.2862C29.2519 50.2862 48.0268 61.9853 72.6845 61.9853C72.6845 61.9853 89.8233 62.6487 107.404 55.1298C107.404 55.1298 108.805 54.404 109.526 55.3828Z" fill="black"/>
</g>
</svg>
