<svg width="144" height="40" viewBox="0 0 144 40" fill="none" xmlns="http://www.w3.org/2000/svg">
<path opacity="0.2" d="M20.0702 36.7959C17.916 37.1741 15.7227 37.2882 13.4549 37.5904L6.53695 17.3266L6.53695 38.4599C4.38278 38.6865 2.41661 38.9892 0.374908 39.2913L0.374908 0.580078H6.12123L13.9842 22.5442L13.9842 0.580078H20.0702L20.0702 36.7959ZM31.9785 14.7562L40.0693 14.6426V20.6855L31.9785 20.7991V29.7962L42.6766 29.1528V34.974L25.9301 36.2973L25.9301 0.580078H42.6766V6.62294H31.9785V14.7506V14.7562ZM65.1695 6.62854H58.8956V34.452L52.8527 34.5275V6.62854H46.5715V0.580078H65.1701L65.1695 6.62854ZM74.9987 14.3405H83.278V20.3833H74.9987V34.1124H69.0633V0.580078H85.962V6.62294H74.9987V14.3349V14.3405ZM95.7906 28.8193C99.2317 28.8948 102.709 29.1595 106.073 29.3486V35.321L89.7422 34.5264V0.580078H95.785V28.8193H95.7906ZM111.178 35.7372C113.106 35.8508 115.147 35.9644 117.112 36.1905V0.580078H111.178V35.7372ZM143.613 0.580078L135.939 18.9907L143.613 39.2913C141.345 38.9892 139.077 38.5729 136.808 38.1947L132.461 27.0053L128.038 37.2882C125.845 36.91 123.728 36.7959 121.537 36.4937L129.324 18.7635L122.292 0.580078H128.794L132.763 10.7494L136.997 0.580078H143.613Z" fill="black"/>
</svg>
