<svg width="596" height="213" viewBox="0 0 596 213" fill="none" xmlns="http://www.w3.org/2000/svg">
<path d="M73.7016 86.7002C60.2016 85.1002 59.2016 67.0002 41.9016 68.6002C33.5016 68.6002 25.7016 72.1002 25.7016 79.8002C25.7016 91.4002 43.6016 92.5002 54.4016 95.4002C72.8016 101 90.6016 104.8 90.6016 124.8C90.6016 150.2 70.7016 159 44.4016 159C22.4016 159 0.101562 151.2 0.101562 131C0.101562 125.4 5.50156 121 10.7016 121C17.3016 121 19.6016 123.8 21.9016 128.4C27.0016 137.4 32.7016 142.2 46.9016 142.2C55.9016 142.2 65.1016 138.8 65.1016 131C65.1016 119.9 53.8016 117.5 42.1016 114.8C21.4016 109 3.60156 106 1.50156 83.0002C-0.698438 43.8002 81.0016 42.3002 85.7016 76.7002C85.6016 82.9002 79.8016 86.7002 73.7016 86.7002ZM170.902 52.3002C199.602 52.3002 215.902 76.3002 215.902 105.9C215.902 135.6 200.102 159.5 170.902 159.5C154.702 159.5 144.602 152.6 137.302 142V181.2C137.302 193 133.502 198.7 124.902 198.7C114.402 198.7 112.502 192 112.502 181.2V67.2002C112.502 57.9002 116.402 52.2002 124.902 52.2002C132.902 52.2002 137.302 58.5002 137.302 67.2002V70.4002C145.402 60.2002 154.702 52.3002 170.902 52.3002ZM164.102 139.1C180.902 139.1 188.402 123.6 188.402 105.5C188.402 87.8002 180.802 71.9002 164.102 71.9002C146.602 71.9002 138.502 86.3002 138.502 105.5C138.502 124.2 146.702 139.1 164.102 139.1ZM235.402 80.3002C235.402 59.7002 259.102 52.3002 282.102 52.3002C314.402 52.3002 327.702 61.7002 327.702 92.9002V122.9C327.702 130 332.102 144.2 332.102 148.5C332.102 155 326.102 159.1 319.702 159.1C312.602 159.1 307.302 150.7 303.502 144.7C293.002 153.1 281.902 159.1 264.902 159.1C246.102 159.1 231.302 148 231.302 129.7C231.302 113.5 242.902 104.2 256.902 101C256.902 101.1 301.902 90.4002 301.902 90.3002C301.902 76.5002 297.002 70.4002 282.502 70.4002C269.702 70.4002 263.202 73.9002 258.202 81.6002C254.202 87.4002 254.702 90.9002 247.002 90.9002C240.802 90.8002 235.402 86.6002 235.402 80.3002ZM273.802 142.2C293.502 142.2 301.802 131.8 301.802 111.1V106.7C296.502 108.5 275.102 113.8 269.302 114.7C263.102 115.9 256.902 120.5 256.902 127.8C257.102 135.8 265.302 142.2 273.802 142.2ZM418.502 13.2002C446.302 13.2002 476.402 29.8002 476.402 56.2002C476.402 63.0002 471.302 68.6002 464.602 68.6002C455.502 68.6002 454.202 63.7002 450.202 56.8002C443.502 44.5002 435.602 36.3002 418.402 36.3002C391.802 36.1002 379.902 58.9002 379.902 87.3002C379.902 115.9 389.802 136.5 417.302 136.5C435.602 136.5 445.702 125.9 450.902 112.2C453.002 105.9 456.802 99.8002 464.702 99.8002C470.902 99.8002 477.102 106.1 477.102 112.9C477.102 140.9 448.502 160.3 419.102 160.3C386.902 160.3 368.702 146.7 358.702 124.1C353.802 113.3 350.702 102.1 350.702 86.7002C350.502 43.3002 375.802 13.2002 418.502 13.2002ZM577.502 52.3002C584.602 52.3002 588.702 56.9002 588.702 64.1002C588.702 67.0002 586.402 72.8002 585.502 75.9002L551.302 165.8C543.702 185.3 538.002 198.8 512.102 198.8C499.802 198.8 489.102 197.7 489.102 187C489.102 180.8 493.802 177.7 500.302 177.7C501.502 177.7 503.502 178.3 504.702 178.3C506.602 178.3 507.902 178.9 509.102 178.9C522.102 178.9 523.902 165.6 528.502 156.4L495.502 74.7002C493.602 70.3002 492.302 67.3002 492.302 64.7002C492.302 57.5002 497.902 52.3002 505.402 52.3002C513.802 52.3002 517.102 58.9002 519.202 66.1002L541.002 130.9L562.802 71.0002C566.102 61.7002 566.402 52.3002 577.502 52.3002Z" fill="#09A3D5"/>
</svg>
