<svg width="225" height="200" viewBox="0 0 225 200" fill="none" xmlns="http://www.w3.org/2000/svg">
<path d="M63.1382 104.723C61.5639 106.297 60.2415 108.06 59.2969 109.949C60.3044 108.123 61.5639 106.297 63.1382 104.723Z" fill="url(#paint0_linear_373_3226)"/>
<path d="M63.1403 66.4987C70.5711 59.068 82.7248 59.005 90.1556 66.4987L95.7601 72.1033L113.266 54.597C121.768 46.0957 135.496 46.0957 143.997 54.597L150.735 61.335L167.549 44.5214L130.899 7.93451C120.319 -2.64484 103.065 -2.64484 92.5485 7.93451L16.9185 83.5642C7.97635 92.5063 6.65392 106.36 12.8882 116.751L13.1401 116.499L63.1403 66.4987Z" fill="url(#paint1_linear_373_3226)"/>
<path d="M161.881 132.305C154.387 139.799 142.296 139.736 134.865 132.305L128.19 125.63L106.15 147.67C97.6486 156.171 83.9206 156.171 75.4193 147.67L69.7518 142.003L53.3789 158.375L87.0692 192.066C97.6486 202.645 114.903 202.645 125.42 192.066L201.05 116.436C208.921 108.564 210.936 96.9145 207.032 87.1538L204.576 89.6097L161.881 132.305Z" fill="url(#paint2_linear_373_3226)"/>
<path d="M98.974 140.554C97.8405 141.688 96.518 142.506 95.1326 143.073C93.7472 143.64 92.2359 143.892 90.7875 143.892C87.8278 143.892 84.8681 142.758 82.6011 140.491L76.9336 134.824L70.3844 128.275C68.1174 126.008 66.9839 123.048 66.9839 120.088C66.9839 118.577 67.2988 117.129 67.8025 115.743C68.3693 114.358 69.1879 113.035 70.3214 111.902L102.941 79.2823L120.448 61.776C122.148 60.0757 124.226 59.0052 126.43 58.5644C127.186 58.4384 127.878 58.3755 128.634 58.3755C131.594 58.3755 134.553 59.509 136.82 61.776L143.559 68.514L150.737 61.3352L143.999 54.5971C135.498 46.0959 121.77 46.0959 113.269 54.5971L95.7624 72.1034L63.1426 104.723C61.5683 106.297 60.2458 108.061 59.3012 109.95C58.9864 110.58 58.6715 111.209 58.4196 111.902C56.0267 117.758 56.3415 124.496 59.3012 130.164C60.3088 132.053 61.5683 133.816 63.1426 135.391L69.6917 141.94L75.3593 147.607C83.8606 156.108 97.5886 156.108 106.09 147.607L128.13 125.567L120.951 118.388L98.974 140.554Z" fill="white"/>
<path d="M204.575 89.6096L207.031 87.1537C206.15 84.8867 204.89 82.7456 203.379 80.7935C203.946 83.6902 204.323 86.6499 204.575 89.6096Z" fill="#2C256C"/>
<path d="M13.1386 116.499L12.8867 116.75C13.0127 117.002 13.2016 117.254 13.3275 117.506C13.2646 117.191 13.2016 116.813 13.1386 116.499Z" fill="#5B2D82"/>
<path d="M120.826 91.247L143.559 68.514L136.821 61.776C134.554 59.509 131.594 58.3755 128.635 58.3755C127.879 58.3755 127.123 58.4385 126.431 58.5644C124.226 59.0052 122.148 60.0757 120.448 61.776L102.942 79.2823L104.201 80.5417C111.632 87.9725 111.632 100.126 104.201 107.557L76.8711 134.887L82.5386 140.554C84.8056 142.821 87.7653 143.955 90.7251 143.955C92.2364 143.955 93.6848 143.64 95.0702 143.136C96.4556 142.569 97.778 141.751 98.9115 140.617L120.952 118.577L120.763 118.388C113.332 110.831 113.332 98.7407 120.826 91.247Z" fill="url(#paint3_linear_373_3226)"/>
<path d="M120.826 91.247L143.559 68.514L136.821 61.776C134.554 59.509 131.594 58.3755 128.635 58.3755C127.879 58.3755 127.123 58.4385 126.431 58.5644C124.226 59.0052 122.148 60.0757 120.448 61.776L102.942 79.2823L104.201 80.5417C111.632 87.9725 111.632 100.126 104.201 107.557L76.8711 134.887L82.5386 140.554C84.8056 142.821 87.7653 143.955 90.7251 143.955C92.2364 143.955 93.6848 143.64 95.0702 143.136C96.4556 142.569 97.778 141.751 98.9115 140.617L120.952 118.577L120.763 118.388C113.332 110.831 113.332 98.7407 120.826 91.247Z" fill="url(#paint4_linear_373_3226)"/>
<path d="M120.445 61.776C122.146 60.0758 124.224 59.0053 126.428 58.5645C124.224 59.0682 122.146 60.0758 120.445 61.776Z" fill="white"/>
<path d="M120.445 61.776C122.146 60.0758 124.224 59.0053 126.428 58.5645C124.224 59.0682 122.146 60.0758 120.445 61.776Z" fill="url(#paint5_linear_373_3226)"/>
<path d="M16.9193 121.914C15.5339 120.529 14.4004 119.08 13.3298 117.506C13.1409 117.254 13.015 117.002 12.889 116.75L5.71015 123.929C-1.78359 131.423 -1.78359 143.514 5.71015 150.944L19.753 164.987C25.7984 171.033 34.8035 172.166 41.9824 168.451C43.6826 167.569 45.3199 166.436 46.7683 164.987L51.2393 160.516L52.8136 158.942L53.3804 158.375L16.9193 121.914Z" fill="#2C256C"/>
<path d="M63.1408 135.453C61.5665 133.879 60.2441 132.116 59.2995 130.227C56.3398 124.559 56.0249 117.821 58.4179 111.965C58.6698 111.335 58.9847 110.642 59.2995 110.012C60.3071 108.123 61.5665 106.36 63.1408 104.786L95.7606 72.1661L90.1561 66.5615C82.6623 59.0678 70.5716 59.1308 63.1408 66.5615L13.1406 116.562C13.2036 116.876 13.2666 117.254 13.3295 117.569C14.3371 119.143 15.5336 120.592 16.919 121.977L53.3801 158.438L69.753 142.065L63.1408 135.453Z" fill="#5B2D82"/>
<path d="M58.4196 111.902C56.0267 117.758 56.3415 124.496 59.3012 130.164C56.3415 124.559 56.0267 117.821 58.4196 111.902ZM76.8706 134.887L104.201 107.557C111.631 100.126 111.631 87.9724 104.201 80.5417L102.941 79.2822L70.3214 111.902C69.1879 113.035 68.3693 114.358 67.8025 115.743C67.2358 117.129 66.9839 118.64 66.9839 120.088C66.9839 123.048 68.1174 126.008 70.3844 128.275L76.8706 134.887Z" fill="#5B2D82"/>
<path d="M70.3185 128.275C68.0515 126.008 66.918 123.048 66.918 120.088C66.918 123.048 68.0515 126.071 70.3185 128.275Z" fill="#5B2D82"/>
<path d="M143.557 68.5137L120.823 91.2467C113.33 98.7404 113.33 110.831 120.823 118.262L121.012 118.451L149.035 90.428C150.735 88.7278 151.806 86.6497 152.247 84.4457C152.373 83.69 152.436 82.9973 152.436 82.2416C152.436 79.2819 151.302 76.3222 149.035 74.0552L143.557 68.5137Z" fill="#2C256C"/>
<path d="M149.098 90.4282C150.798 88.7279 151.868 86.6498 152.309 84.4458C151.805 86.6498 150.735 88.7279 149.098 90.4282Z" fill="#2C256C"/>
<path d="M149.096 74.0552C151.363 76.3222 152.497 79.2819 152.497 82.2416C152.434 79.2819 151.363 76.3222 149.096 74.0552Z" fill="#623393"/>
<path d="M160.999 90.4278C161.251 89.7981 161.503 89.1054 161.692 88.4127C163.896 81.045 162.07 72.6697 156.213 66.8762L150.672 61.3346L143.493 68.5135L149.035 74.055C151.302 76.322 152.435 79.2817 152.435 82.2414C152.435 82.9971 152.372 83.7528 152.246 84.4455C151.805 86.6495 150.735 88.7276 149.035 90.4278L121.012 118.451L128.191 125.629L156.213 97.6067C158.354 95.4656 159.929 93.0097 160.999 90.4278ZM219.312 47.8586L205.269 33.8157C198.279 26.8258 187.133 26.385 179.639 32.5563C179.135 32.9341 178.695 33.3749 178.254 33.8157L169.186 42.8838L167.611 44.4581L167.548 44.521L201.05 78.0223C201.931 78.9039 202.687 79.7855 203.38 80.7931C204.891 82.7452 206.088 84.8863 207.032 87.1533L219.312 74.8737C226.743 67.443 226.743 55.3523 219.312 47.8586Z" fill="#623393"/>
<path d="M156.214 66.8766C162.071 72.7331 163.834 81.0454 161.693 88.4132C161.504 89.1059 161.252 89.7356 161 90.4283C159.93 93.0731 158.355 95.4661 156.214 97.6071L128.191 125.63L134.867 132.305C142.36 139.799 154.451 139.799 161.882 132.305L204.577 89.6096C204.325 86.6499 203.947 83.6902 203.381 80.7935C202.688 79.8489 201.869 78.9044 201.051 78.0227L167.549 44.5215L150.736 61.3351L156.214 66.8766Z" fill="#2C256C"/>
<path d="M156.213 66.8765C162.07 72.7329 163.833 81.0453 161.692 88.413C163.896 81.0453 162.07 72.67 156.213 66.8765Z" fill="#2C256C"/>
<defs>
<linearGradient id="paint0_linear_373_3226" x1="31.7703" y1="136.877" x2="145.769" y2="22.8746" gradientUnits="userSpaceOnUse">
<stop stop-color="#623393"/>
<stop offset="0.574" stop-color="#452B7C"/>
<stop offset="1" stop-color="#2C256C"/>
</linearGradient>
<linearGradient id="paint1_linear_373_3226" x1="25.6113" y1="130.717" x2="139.61" y2="16.7139" gradientUnits="userSpaceOnUse">
<stop stop-color="#754FA0"/>
<stop offset="0.181" stop-color="#6E4A99"/>
<stop offset="0.457" stop-color="#5C3F8B"/>
<stop offset="0.791" stop-color="#413079"/>
<stop offset="1" stop-color="#2C256C"/>
</linearGradient>
<linearGradient id="paint2_linear_373_3226" x1="79.7794" y1="184.884" x2="193.778" y2="70.8807" gradientUnits="userSpaceOnUse">
<stop stop-color="#754FA0"/>
<stop offset="0.181" stop-color="#6E4A99"/>
<stop offset="0.457" stop-color="#5C3F8B"/>
<stop offset="0.791" stop-color="#413079"/>
<stop offset="1" stop-color="#2C256C"/>
</linearGradient>
<linearGradient id="paint3_linear_373_3226" x1="52.9144" y1="158.016" x2="166.913" y2="44.0134" gradientUnits="userSpaceOnUse">
<stop stop-color="#623393"/>
<stop offset="0.574" stop-color="#452B7C"/>
<stop offset="1" stop-color="#2C256C"/>
</linearGradient>
<linearGradient id="paint4_linear_373_3226" x1="42.1072" y1="168.824" x2="179.015" y2="31.9107" gradientUnits="userSpaceOnUse">
<stop stop-color="#754FA0"/>
<stop offset="0.181" stop-color="#6E4A99"/>
<stop offset="0.457" stop-color="#5C3F8B"/>
<stop offset="0.791" stop-color="#413079"/>
<stop offset="1" stop-color="#2C256C"/>
</linearGradient>
<linearGradient id="paint5_linear_373_3226" x1="28.4825" y1="155.203" x2="165.39" y2="18.2894" gradientUnits="userSpaceOnUse">
<stop stop-color="#623393"/>
<stop offset="0.574" stop-color="#452B7C"/>
<stop offset="1" stop-color="#2C256C"/>
</linearGradient>
</defs>
</svg>
