<svg width="190" height="42" viewBox="0 0 190 42" fill="none" xmlns="http://www.w3.org/2000/svg">
<g opacity="0.2">
<g clip-path="url(#clip0_82_3356)">
<path d="M7.71398 27.442C7.71398 29.7874 8.22855 31.5879 8.90161 32.6772C9.78384 34.1041 11.0996 34.7097 12.4411 34.7097C14.1711 34.7097 15.7539 34.2803 18.804 30.0616C21.2482 26.6804 24.1269 21.9343 26.0643 18.9588L29.3452 13.9178C31.6242 10.4169 34.2622 6.52524 37.2868 3.8873C39.7567 1.73408 42.4196 0.537964 45.1003 0.537964C49.601 0.537964 53.8878 3.14606 57.1687 8.03756C60.7594 13.3945 62.5022 20.1423 62.5022 27.1054C62.5022 31.2452 61.6864 34.2868 60.2978 36.6898C58.9566 39.0136 56.3421 41.3356 51.9441 41.3356V34.7087C55.7099 34.7087 56.6495 31.2482 56.6495 27.2881C56.6495 21.6448 55.3338 15.3823 52.4352 10.9073C50.3785 7.73319 47.7127 5.79378 44.78 5.79378C41.6079 5.79378 39.0554 8.18652 36.1866 12.4515C34.6615 14.718 33.0959 17.4797 31.3379 20.5961L29.4026 24.0245C25.5155 30.9184 24.5306 32.4878 22.5868 35.0782C19.1801 39.6146 16.2708 41.3346 12.4411 41.3346C7.89768 41.3346 5.02484 39.3671 3.24546 36.4024C1.79309 33.9868 1.07964 30.8168 1.07964 27.205L7.71398 27.442Z" fill="black"/>
<path d="M6.31085 8.50372C9.35247 3.81521 13.742 0.536377 18.7766 0.536377C21.6921 0.536377 24.5912 1.39931 27.6174 3.87079C30.9281 6.57228 34.4568 11.0233 38.8592 18.3559L40.4376 20.9867C44.2483 27.3349 46.4161 30.6009 47.6851 32.141C49.3168 34.1187 50.4596 34.7084 51.9442 34.7084C55.71 34.7084 56.6496 31.2479 56.6496 27.2878L62.5023 27.1041C62.5023 31.2438 61.6865 34.2855 60.2979 36.6885C58.9567 39.0123 56.3422 41.3343 51.9442 41.3343C49.21 41.3343 46.7879 40.7405 44.1093 38.2134C42.051 36.274 39.6429 32.8287 37.7909 29.7315L32.2822 20.5297C29.5184 15.9117 26.9821 12.4685 25.5156 10.9091C23.9369 9.23209 21.9077 7.20726 18.6695 7.20726C16.0488 7.20726 13.8231 9.04633 11.9606 11.8595L6.31085 8.50372Z" fill="black"/>
<path d="M18.6694 7.20725C16.0487 7.20725 13.8229 9.04633 11.9605 11.8595C9.32664 15.8345 7.71527 21.7554 7.71527 27.4414C7.71527 29.7868 8.22984 31.5873 8.90289 32.6766L3.24546 36.4019C1.79309 33.9862 1.07964 30.8162 1.07964 27.2045C1.07964 20.6362 2.88243 13.7904 6.31075 8.50371C9.35237 3.81521 13.7419 0.536377 18.7765 0.536377L18.6694 7.20725Z" fill="black"/>
</g>
<path d="M75.0911 3.23755H81.9716L93.671 24.4009L105.37 3.23755H112.102V38.0129H106.488V11.3602L96.2295 29.816H90.9635L80.7048 11.3602V38.0129H75.0911V3.23755Z" fill="black"/>
<path d="M130.211 38.6342C127.611 38.6342 125.325 38.0584 123.355 36.9078C121.384 35.7569 119.848 34.1628 118.747 32.1262C117.646 30.0893 117.095 27.7545 117.095 25.1215C117.095 22.4554 117.633 20.0956 118.71 18.0421C119.786 15.989 121.281 14.3826 123.193 13.2231C125.106 12.0643 127.304 11.4844 129.788 11.4844C132.256 11.4844 134.379 12.0681 136.16 13.2355C137.94 14.4032 139.31 16.0386 140.271 18.1415C141.231 20.2447 141.711 22.7118 141.711 25.5437V27.0835H122.659C123.007 29.2036 123.864 30.8716 125.23 32.0888C126.597 33.306 128.323 33.9144 130.409 33.9144C132.082 33.9144 133.523 33.666 134.731 33.1693C135.94 32.6725 137.075 31.919 138.135 30.909L141.115 34.5603C138.151 37.2764 134.516 38.6342 130.211 38.6342ZM134.309 18.0047C133.133 16.8043 131.593 16.2038 129.689 16.2038C127.834 16.2038 126.282 16.8167 125.032 18.0421C123.781 19.2676 122.99 20.9153 122.659 22.9852H136.321C136.155 20.8655 135.485 19.2057 134.309 18.0047Z" fill="black"/>
<path d="M148.518 16.6999H143.352V12.1045H148.518V4.50366H153.933V12.1045H161.783V16.6999H153.933V28.3495C153.933 30.2868 154.264 31.6696 154.927 32.4976C155.589 33.3259 156.724 33.7395 158.33 33.7395C159.042 33.7395 159.646 33.711 160.143 33.6526C160.64 33.5949 161.186 33.5159 161.783 33.4166V37.9622C161.17 38.1443 160.479 38.2934 159.708 38.4095C158.938 38.525 158.131 38.5834 157.287 38.5834C151.441 38.5834 148.518 35.3876 148.518 28.9954V16.6999Z" fill="black"/>
<path d="M190 38.013H184.684V34.3865C183.74 35.7445 182.539 36.792 181.083 37.5286C179.625 38.2653 177.969 38.6342 176.115 38.6342C173.829 38.6342 171.805 38.0501 170.041 36.8827C168.278 35.7154 166.891 34.1092 165.881 32.064C164.871 30.0188 164.366 27.6799 164.366 25.0469C164.366 22.3974 164.879 20.054 165.906 18.0171C166.932 15.9805 168.352 14.3826 170.166 13.2231C171.979 12.0643 174.061 11.4844 176.413 11.4844C178.185 11.4844 179.774 11.8283 181.182 12.5154C182.589 13.2025 183.757 14.1758 184.684 15.4339V12.1055H190V38.013H190ZM184.585 21.172C184.005 19.6981 183.09 18.5352 181.84 17.6818C180.59 16.8291 179.145 16.4027 177.506 16.4027C175.187 16.4027 173.341 17.1812 171.967 18.7375C170.592 20.2942 169.905 22.3974 169.905 25.0469C169.905 27.7132 170.567 29.8244 171.892 31.381C173.217 32.9377 175.013 33.7159 177.282 33.7159C178.954 33.7159 180.445 33.2854 181.753 32.4241C183.061 31.5634 184.005 30.404 184.585 28.9466V21.172Z" fill="black"/>
</g>
<defs>
<clipPath id="clip0_82_3356">
<rect width="62.3527" height="40.7988" fill="white" transform="translate(0.421814 0.536499)"/>
</clipPath>
</defs>
</svg>
