<svg width="207" height="200" viewBox="0 0 207 200" fill="none" xmlns="http://www.w3.org/2000/svg">
<g clip-path="url(#clip0_373_3219)">
<path d="M203.527 103.277C202.557 103.358 201.583 103.396 200.549 103.396C194.544 103.396 188.718 101.988 183.463 99.4091C185.213 89.3717 185.957 79.2593 185.761 69.1841C180.064 60.9425 173.552 53.1663 166.201 46.0022C169.39 40.0227 174.105 34.8778 179.991 31.2296L182.517 29.6675L180.548 27.4467C170.403 16.0223 158.294 7.18968 144.566 1.19644L141.828 0.00537109L141.133 2.89877C139.496 9.64278 136.074 15.7271 131.375 20.6091C122.38 15.8277 112.939 11.9371 103.187 8.99281C93.4504 11.9329 84.024 15.8153 75.0413 20.585C70.3625 15.7086 66.9482 9.63955 65.3184 2.9149L64.6176 0.0214993L61.8904 1.20692C48.3354 7.11387 35.8933 16.186 25.914 27.4394L23.9391 29.6651L26.4632 31.2271C32.3306 34.8608 37.032 39.9759 40.2157 45.9224C32.887 53.0591 26.3825 60.8103 20.6893 69.0139C20.4675 79.0852 21.1731 89.2709 22.9311 99.4478C17.7023 102.002 11.9091 103.394 5.94405 103.394C4.89733 103.394 3.91754 103.356 2.96598 103.277L0 103.052L0.278211 106.013C1.73136 120.994 6.38274 135.243 14.1114 148.368L15.6194 150.929L17.8854 149.007C23.1278 144.569 29.4557 141.605 36.2207 140.418C40.6247 149.419 45.8795 157.978 51.9135 165.978C61.4517 169.314 71.3891 171.805 81.6522 173.287C82.6361 180.074 81.8522 187.094 79.1749 193.585L78.046 196.336L80.9491 196.975C88.3842 198.61 95.8862 199.443 103.231 199.443L125.506 196.975L128.413 196.336L127.281 193.58C124.611 187.088 123.827 180.061 124.811 173.272C135.033 171.788 144.934 169.305 154.437 165.978C160.478 157.97 165.738 149.403 170.148 140.394C176.943 141.576 183.301 144.543 188.573 148.99L190.838 150.91L192.339 148.355C200.081 135.213 204.732 120.965 206.163 106.008L206.441 103.052L203.527 103.277ZM135.066 139.482C124.527 142.348 113.825 143.795 103.187 143.795C92.5194 143.795 81.8305 142.349 71.2826 139.482C65.5099 130.523 60.9205 120.854 57.6285 110.717C54.3496 100.624 52.4312 90.0491 51.8747 79.1593C58.6857 70.738 66.4321 63.361 74.9905 57.15C83.6797 50.831 93.159 45.6769 103.187 41.8193C113.191 45.676 122.651 50.8184 131.329 57.1169C139.92 63.361 147.7 70.7953 154.545 79.269C153.961 90.0967 152.02 100.611 148.736 110.688C145.445 120.837 140.85 130.516 135.066 139.482ZM111.889 88.6798C111.889 96.1246 117.923 102.147 125.358 102.147C132.791 102.147 138.817 96.1262 138.817 88.6798C138.817 81.2641 132.791 75.2192 125.358 75.2192C117.923 75.2192 111.89 81.2641 111.89 88.6798H111.889ZM94.4887 88.6798C94.4887 96.1246 88.4567 102.147 81.0216 102.147C73.5817 102.147 67.5667 96.1262 67.5667 88.6798C67.5667 81.2665 73.5825 75.2216 81.0224 75.2216C88.4575 75.2216 94.4895 81.2665 94.4895 88.6806L94.4887 88.6798Z" fill="#419EDA"/>
</g>
<defs>
<clipPath id="clip0_373_3219">
<rect width="206.441" height="200" fill="white"/>
</clipPath>
</defs>
</svg>
