<svg width="216" height="200" viewBox="0 0 216 200" fill="none" xmlns="http://www.w3.org/2000/svg">
<g clip-path="url(#clip0_373_3211)">
<path d="M214.4 146.816C213.839 144.699 212.93 142.69 211.711 140.87C211.972 139.911 212.171 138.938 212.304 137.955C213.169 131.713 211.006 125.995 206.927 121.576C204.718 119.161 202.35 117.567 199.842 116.588C201.488 109.545 202.322 102.34 202.326 95.1016C202.326 91.7987 202.139 88.5626 201.825 85.3746C201.661 83.7827 201.464 82.1939 201.233 80.6103C200.514 75.938 199.449 71.3252 198.045 66.8116C197.125 63.8461 196.06 60.9265 194.856 58.0644C193.05 53.8255 190.941 49.7225 188.546 45.7907C186.974 43.173 185.263 40.641 183.419 38.2061C182.515 36.9766 181.574 35.7764 180.595 34.6065C177.693 31.079 174.54 27.7677 171.159 24.6967C170.037 23.6645 168.883 22.6682 167.697 21.7082C166.53 20.7349 165.338 19.7925 164.121 18.8826C161.671 17.0599 159.139 15.3489 156.534 13.757C142.14 5.01392 125.26 0 107.209 0C54.6782 0 12.1016 42.5766 12.1016 95.1079C12.1003 102.432 12.9489 109.732 14.6305 116.856C12.3743 117.836 10.211 119.362 8.20643 121.571C4.12844 125.991 1.96409 131.685 2.83004 137.929C2.96061 138.921 3.15908 139.903 3.42231 140.868C2.20434 142.689 1.29557 144.699 0.733591 146.816C-0.51989 151.58 -0.107286 155.877 1.48568 159.643C-0.245169 164.564 0.187282 169.804 2.4425 174.361C4.08247 177.688 6.42962 180.261 9.32202 182.562C12.7618 185.296 17.0675 187.62 22.2642 189.848C28.4606 192.491 36.0212 194.974 39.4578 195.885C48.3429 198.186 56.8603 199.644 65.4989 199.714C77.8039 199.829 88.3958 196.935 95.9793 189.533C99.7053 189.989 103.455 190.218 107.208 190.217C111.175 190.208 115.137 189.958 119.075 189.469C126.642 196.919 137.271 199.838 149.618 199.72C158.251 199.652 166.77 198.194 175.628 195.89C179.09 194.979 186.648 192.496 192.853 189.854C198.047 187.621 202.352 185.298 205.816 182.567C208.686 180.267 211.031 177.693 212.672 174.367C214.95 169.811 215.361 164.572 213.652 159.649C215.23 155.885 215.64 151.579 214.387 146.821L214.4 146.816ZM205.585 159.32C207.33 162.632 207.442 166.375 205.901 169.859C203.566 175.143 197.764 179.303 186.493 183.773C179.487 186.552 173.071 188.328 173.018 188.345C163.751 190.748 155.365 191.969 148.116 191.969C136.103 191.969 127.162 188.654 121.49 182.107C111.902 183.739 102.113 183.795 92.503 182.271C86.8268 188.709 77.9418 191.969 66.0232 191.969C58.7666 191.969 50.3861 190.748 41.1207 188.345C41.0633 188.328 34.6507 186.552 27.6458 183.773C16.3749 179.305 10.5776 175.147 8.23776 169.859C6.69703 166.373 6.8088 162.631 8.55427 159.32C8.71618 159.012 8.88853 158.712 9.07342 158.422C8.02676 156.851 7.32586 155.075 7.01458 153.214C6.7035 151.353 6.7901 149.445 7.26861 147.619C7.96221 144.985 9.39535 142.793 11.3403 141.219C10.4038 139.68 9.78916 137.966 9.53324 136.182C8.97335 132.303 10.2603 128.429 13.1579 125.267C15.4131 122.809 18.6022 121.456 22.1339 121.456H22.2279C19.5653 112.923 18.2157 104.033 18.224 95.0912C18.224 46.3412 57.7505 6.81476 106.5 6.81476C155.261 6.81476 194.777 46.3412 194.777 95.0912C194.783 104.054 193.424 112.964 190.746 121.519C191.172 121.477 191.59 121.455 191.999 121.455C195.53 121.455 198.72 122.807 200.975 125.265C203.871 128.42 205.161 132.298 204.6 136.18C204.344 137.964 203.73 139.679 202.793 141.218C204.738 142.791 206.171 144.983 206.865 147.618C207.342 149.444 207.429 151.351 207.117 153.213C206.806 155.074 206.105 156.849 205.06 158.421C205.244 158.707 205.419 159.008 205.579 159.315L205.585 159.32Z" fill="white"/>
<path d="M205 158.411C206.046 156.839 206.747 155.064 207.058 153.202C207.369 151.34 207.282 149.434 206.805 147.608C206.111 144.973 204.678 142.782 202.733 141.208C203.669 139.668 204.285 137.955 204.54 136.171C205.1 132.291 203.813 128.417 200.916 125.255C198.661 122.797 195.47 121.444 191.94 121.444C191.529 121.444 191.113 121.465 190.686 121.508C193.361 112.955 194.718 104.043 194.71 95.0806C194.71 46.3306 155.184 6.8042 106.434 6.8042C57.6836 6.8042 18.1572 46.3202 18.1572 95.0806C18.1487 104.019 19.4984 112.911 22.161 121.445H22.067C18.5364 121.445 15.3473 122.798 13.0921 125.256C10.1966 128.412 8.90756 132.288 9.46745 136.172C9.72305 137.956 10.3378 139.669 11.2745 141.209C9.32956 142.783 7.89642 144.974 7.20387 147.61C6.72566 149.436 6.63938 151.343 6.95087 153.206C7.26236 155.067 7.96442 156.843 9.01076 158.414C8.82378 158.703 8.65247 159.004 8.49161 159.311C6.74718 162.623 6.63437 166.366 8.17511 169.851C10.5097 175.133 16.3123 179.296 27.5832 183.764C34.5891 186.544 41.0059 188.32 41.0581 188.336C50.3255 190.74 58.7113 191.961 65.9606 191.961C77.8791 191.961 86.7684 188.702 92.4404 182.262C102.046 183.786 111.838 183.731 121.427 182.098C127.096 188.646 136.041 191.961 148.053 191.961C155.309 191.961 163.69 190.74 172.956 188.336C173.012 188.32 179.426 186.544 186.431 183.764C197.701 179.298 203.499 175.135 205.839 169.851C207.379 166.365 207.268 162.622 205.522 159.311C205.362 159.001 205.187 158.701 205.002 158.414L205 158.411ZM88.4263 172.178C87.9374 173.034 87.4141 173.868 86.8563 174.68C85.3887 176.828 83.4583 178.469 81.2188 179.691C76.935 182.025 71.5148 182.842 66.0099 182.842C57.3107 182.842 48.388 180.806 43.395 179.509C43.1495 179.445 12.7578 170.86 16.6018 163.548C17.2495 162.319 18.316 161.828 19.6572 161.828C25.0754 161.828 34.9392 169.897 39.1802 169.897C40.1265 169.897 40.7951 169.492 41.0677 168.51C42.8748 162.028 13.606 159.304 16.0712 149.916C16.5068 148.255 17.6861 147.582 19.3459 147.582C26.5085 147.581 42.5875 160.179 45.9511 160.179C46.2091 160.179 46.394 160.104 46.4942 159.945L46.5381 159.873C48.1154 157.267 47.2108 155.372 36.3974 148.748L35.3591 148.116C23.4615 140.914 15.105 136.584 19.8578 131.414C20.4041 130.816 21.1781 130.552 22.1192 130.552C23.2359 130.552 24.5865 130.926 26.074 131.552C32.3581 134.202 41.0635 141.429 44.7091 144.577C45.7818 145.511 46.4138 146.082 46.4138 146.082C46.4138 146.082 51.0203 150.872 53.8062 150.872C54.4476 150.872 54.9907 150.62 55.3595 149.995C57.3358 146.664 37.0169 131.265 35.8678 124.914C35.0917 120.609 36.4131 118.429 38.8584 118.429C40.02 118.429 41.4385 118.923 43.0043 119.916C47.8616 123 57.2418 139.115 60.6784 145.383C61.8295 147.484 63.7944 148.372 65.5649 148.372C69.0778 148.372 71.8239 144.88 65.8866 140.443C56.9629 133.765 60.0945 122.853 64.3532 122.184C64.535 122.156 64.7188 122.141 64.9016 122.14C68.7749 122.14 70.4838 128.815 70.4838 128.815C70.4838 128.815 75.4904 141.391 84.0945 149.988C91.9005 157.79 92.99 164.194 88.443 172.175L88.4263 172.178ZM116.243 173.651L115.797 173.704L115.036 173.792C114.636 173.833 114.235 173.872 113.833 173.91L113.441 173.945L113.083 173.976L112.575 174.016C112.388 174.03 112.201 174.045 112.014 174.056L111.454 174.094L111.331 174.101L110.89 174.127L110.703 174.137L110.18 174.163L109.574 174.188L109.022 174.207L108.654 174.217H108.468C108.354 174.217 108.24 174.223 108.125 174.224H107.942C107.827 174.224 107.713 174.224 107.598 174.231L107.131 174.236H106.477C105.965 174.236 105.454 174.231 104.943 174.221L104.529 174.212C104.412 174.212 104.294 174.206 104.177 174.202L103.74 174.189L103.194 174.168L102.704 174.147L102.577 174.142L102.11 174.117C101.981 174.109 101.851 174.103 101.723 174.095L101.421 174.077C101.042 174.053 100.662 174.026 100.283 173.997L99.8862 173.965L99.3849 173.922L98.7989 173.868C98.4719 173.838 98.145 173.804 97.818 173.768H97.8023C102.576 163.113 100.162 153.169 90.5154 143.538C84.1895 137.221 79.9758 127.89 79.1088 125.843C77.3414 119.779 72.6627 113.037 64.8922 113.037C64.2352 113.038 63.5802 113.09 62.9315 113.192C59.5273 113.727 56.5524 115.687 54.4298 118.635C52.137 115.782 49.9068 113.514 47.8908 112.232C44.8511 110.306 41.8187 109.328 38.8626 109.328C35.1753 109.328 31.8776 110.843 29.5795 113.59L29.5221 113.66L29.3926 113.116L29.3873 113.093C28.9503 111.223 28.5831 109.337 28.2864 107.44C28.2864 107.426 28.2864 107.414 28.2801 107.401L28.2153 106.972C28.1803 106.74 28.1462 106.507 28.113 106.275C28.0858 106.082 28.0587 105.889 28.0336 105.697C28.0085 105.504 27.9814 105.311 27.9584 105.118C27.9333 104.924 27.9103 104.73 27.8873 104.537C27.8653 104.353 27.8441 104.169 27.8236 103.986L27.8175 103.939C27.7232 103.09 27.6425 102.241 27.575 101.391L27.5385 100.899C27.528 100.764 27.5186 100.628 27.5103 100.491C27.5103 100.46 27.5061 100.428 27.504 100.398L27.4696 99.8532C27.4571 99.6558 27.4476 99.4584 27.4371 99.261C27.4267 99.0646 27.4162 98.8672 27.4079 98.6687L27.387 98.1516L27.3807 97.9949L27.3651 97.5165L27.3537 97.1112C27.3537 96.9493 27.3463 96.7864 27.3431 96.6245L27.3348 96.1137C27.3327 95.9434 27.3348 95.7742 27.3306 95.6039C27.3254 95.4326 27.3306 95.2624 27.3306 95.091C27.3306 51.3759 62.7728 15.9337 106.498 15.9337C150.224 15.9337 185.666 51.3759 185.666 95.091V96.1137C185.666 96.2839 185.662 96.4553 185.658 96.6245C185.658 96.7665 185.653 96.9055 185.648 97.0475C185.648 97.1739 185.643 97.2993 185.638 97.4215C185.638 97.5813 185.629 97.7401 185.623 97.8999V97.9135C185.61 98.2603 185.595 98.6071 185.58 98.9539L185.574 99.0688L185.547 99.5869L185.522 99.9974C185.463 100.97 185.387 101.942 185.294 102.913V102.926C185.278 103.108 185.259 103.291 185.239 103.473C185.193 103.896 185.146 104.319 185.099 104.742L185.046 105.167L184.98 105.666C184.957 105.849 184.932 106.031 184.906 106.213C184.877 106.416 184.847 106.619 184.818 106.822L184.745 107.3L184.659 107.843C184.63 108.024 184.601 108.203 184.566 108.384C184.531 108.564 184.504 108.744 184.472 108.924C184.41 109.284 184.345 109.642 184.275 110C184.136 110.714 183.991 111.425 183.837 112.135C183.798 112.312 183.759 112.489 183.718 112.666C181.49 110.501 178.54 109.321 175.285 109.321C172.332 109.321 169.297 110.298 166.258 112.225C164.241 113.506 162.013 115.775 159.718 118.627C157.592 115.678 154.617 113.72 151.217 113.184C150.569 113.083 149.913 113.03 149.256 113.029C141.485 113.029 136.804 119.77 135.039 125.836C134.163 127.884 129.953 137.211 123.622 143.541C113.983 153.149 111.547 163.054 116.249 173.656L116.243 173.651ZM197.97 152.331L197.939 152.424C197.917 152.484 197.895 152.543 197.871 152.602C197.833 152.691 197.794 152.777 197.752 152.864C197.65 153.071 197.536 153.271 197.409 153.464C197.235 153.724 197.044 153.972 196.836 154.206C196.788 154.261 196.742 154.314 196.687 154.367C196.614 154.448 196.536 154.526 196.459 154.604C195.052 155.999 192.908 157.22 190.485 158.342C190.21 158.466 189.932 158.59 189.65 158.715L189.37 158.839C189.183 158.921 188.997 159.004 188.801 159.084C188.61 159.166 188.418 159.246 188.225 159.326L187.642 159.567C186.279 160.128 184.883 160.662 183.52 161.19L182.938 161.416L182.361 161.641C181.979 161.791 181.601 161.94 181.228 162.09L180.673 162.313L180.129 162.537L179.86 162.648C179.683 162.724 179.507 162.797 179.334 162.872C175.325 164.591 172.442 166.341 173.048 168.513C173.064 168.574 173.083 168.633 173.104 168.689C173.158 168.85 173.233 169.003 173.325 169.145C173.379 169.23 173.442 169.311 173.512 169.384C174.224 170.123 175.52 170.006 177.155 169.419C177.288 169.371 177.423 169.32 177.56 169.266C177.654 169.23 177.747 169.193 177.841 169.155L177.982 169.096C178.356 168.937 178.752 168.76 179.157 168.567C179.259 168.52 179.361 168.474 179.463 168.42C181.462 167.443 183.727 166.126 185.975 164.928C186.32 164.741 186.666 164.562 187.009 164.385C187.571 164.093 188.139 163.812 188.711 163.544C190.84 162.543 192.84 161.833 194.45 161.833C195.204 161.833 195.872 161.987 196.426 162.342L196.519 162.404C196.8 162.602 197.045 162.846 197.244 163.126C197.29 163.192 197.338 163.26 197.379 163.33C197.423 163.402 197.465 163.476 197.504 163.551C198.299 165.059 197.634 166.623 196.077 168.155C194.583 169.626 192.257 171.069 189.614 172.405C189.418 172.504 189.221 172.603 189.022 172.699C181.156 176.562 170.857 179.471 170.711 179.508C167.966 180.219 164.04 181.154 159.618 181.853L158.963 181.954L158.856 181.97C157.853 182.12 156.848 182.253 155.84 182.368L155.747 182.377C153.913 182.586 152.033 182.738 150.15 182.801H150.122C149.445 182.826 148.769 182.838 148.092 182.838H147.313C146.281 182.823 145.25 182.777 144.221 182.698C144.197 182.698 144.172 182.698 144.147 182.693C143.779 182.664 143.41 182.63 143.044 182.589C142.413 182.521 141.783 182.438 141.155 182.34C140.911 182.299 140.649 182.256 140.398 182.212C140.283 182.191 140.169 182.17 140.055 182.147L140.028 182.142C139.665 182.073 139.305 181.997 138.946 181.914C138.738 181.867 138.529 181.82 138.323 181.765L138.2 181.733C138.098 181.708 137.997 181.68 137.897 181.653L137.842 181.639L137.519 181.546C137.402 181.512 137.286 181.478 137.169 181.443L137.127 181.431L136.823 181.338C136.708 181.302 136.594 181.265 136.481 181.228C136.387 181.197 136.294 181.164 136.2 181.134L135.994 181.062C135.795 180.993 135.599 180.92 135.403 180.845L135.217 180.773L135.063 180.711C134.767 180.592 134.473 180.468 134.181 180.337L133.987 180.244L133.955 180.23C133.886 180.197 133.818 180.165 133.749 180.136C133.614 180.071 133.481 180.004 133.348 179.936L133.308 179.916L133.116 179.815C132.774 179.637 132.439 179.447 132.111 179.245L131.931 179.135C131.839 179.078 131.754 179.021 131.665 178.964L131.431 178.808C131.347 178.751 131.262 178.694 131.179 178.635L131.029 178.528C130.87 178.414 130.715 178.298 130.561 178.178C130.48 178.115 130.399 178.051 130.319 177.991C130.14 177.848 129.966 177.701 129.793 177.549L129.786 177.543C129.618 177.398 129.454 177.247 129.294 177.094L129.286 177.083C129.202 177.004 129.121 176.925 129.039 176.842C128.959 176.759 128.877 176.678 128.799 176.596C128.719 176.512 128.64 176.427 128.563 176.341C128.488 176.259 128.414 176.177 128.341 176.093L128.316 176.065C127.939 175.627 127.586 175.169 127.259 174.691L127.13 174.5C127.044 174.374 126.959 174.246 126.876 174.119L126.629 173.74C126.508 173.555 126.39 173.368 126.275 173.18C126.193 173.046 126.111 172.912 126.031 172.778C125.963 172.663 125.895 172.549 125.83 172.436C125.794 172.374 125.759 172.312 125.725 172.249C125.69 172.184 125.649 172.118 125.613 172.053L125.554 171.949C125.535 171.915 125.528 171.904 125.518 171.881C125.447 171.757 125.378 171.631 125.311 171.502C125.281 171.447 125.25 171.39 125.218 171.335L125.124 171.155L125.031 170.977L124.851 170.614C124.822 170.555 124.794 170.495 124.766 170.436C124.704 170.307 124.646 170.181 124.587 170.054C124.564 170.003 124.54 169.952 124.519 169.901C124.439 169.726 124.363 169.55 124.29 169.371C124.241 169.253 124.196 169.136 124.148 169.019C124.014 168.675 123.887 168.327 123.771 167.975C123.737 167.87 123.702 167.767 123.672 167.662C123.597 167.425 123.529 167.186 123.468 166.945C123.394 166.664 123.328 166.38 123.273 166.094C123.238 165.926 123.206 165.757 123.18 165.587C123.152 165.419 123.128 165.25 123.108 165.083C123.065 164.75 123.035 164.416 123.017 164.081C123.017 164.025 123.012 163.969 123.011 163.913C123.006 163.803 123.003 163.692 123.001 163.581C122.943 159.119 125.202 154.827 130.031 150.002C138.632 141.408 143.642 128.828 143.642 128.828C143.642 128.828 143.777 128.301 144.058 127.543C144.152 127.291 144.25 127.04 144.353 126.793C144.472 126.513 144.598 126.236 144.734 125.964L144.773 125.885C144.948 125.538 145.137 125.201 145.343 124.872C145.39 124.795 145.436 124.719 145.49 124.644C145.642 124.416 145.804 124.196 145.975 123.982C146.106 123.818 146.246 123.659 146.394 123.508C146.893 122.995 147.462 122.575 148.107 122.35L148.188 122.324C148.242 122.306 148.296 122.289 148.351 122.274C148.416 122.257 148.481 122.241 148.545 122.228L148.575 122.223C148.711 122.195 148.848 122.177 148.987 122.167H149C149.072 122.167 149.144 122.16 149.218 122.16C149.403 122.161 149.587 122.176 149.77 122.204C150.545 122.326 151.283 122.788 151.918 123.5L152.004 123.6C152.211 123.843 152.399 124.102 152.566 124.373C152.691 124.575 152.809 124.787 152.921 125.01C152.966 125.104 153.009 125.189 153.052 125.281C153.072 125.328 153.093 125.374 153.113 125.422C153.155 125.515 153.194 125.609 153.232 125.707C153.451 126.267 153.62 126.845 153.739 127.434C153.865 128.07 153.938 128.716 153.959 129.364C153.967 129.65 153.967 129.938 153.959 130.23C153.954 130.341 153.949 130.453 153.941 130.565C153.855 131.807 153.584 133.029 153.137 134.191C153.092 134.306 153.043 134.423 152.997 134.54C152.773 135.077 152.512 135.597 152.217 136.099C152.049 136.385 151.867 136.669 151.673 136.951L151.554 137.12C151.093 137.764 150.579 138.367 150.017 138.925C149.464 139.48 148.87 139.993 148.242 140.462C147.613 140.927 147.022 141.443 146.477 142.004C144.907 143.652 144.542 145.105 144.895 146.207C144.936 146.331 144.985 146.453 145.042 146.572C145.172 146.827 145.342 147.062 145.544 147.267L145.6 147.323C145.657 147.378 145.718 147.431 145.779 147.482L145.842 147.534C145.995 147.651 146.155 147.755 146.324 147.846C146.372 147.872 146.417 147.898 146.472 147.923C146.703 148.038 146.944 148.13 147.193 148.2L147.262 148.218L147.355 148.243L147.436 148.263L147.523 148.281L147.609 148.299L147.692 148.313C147.754 148.324 147.816 148.334 147.878 148.342L147.938 148.35L148.046 148.362L148.113 148.368L148.224 148.377H148.287L148.402 148.382H148.765L148.868 148.377L148.987 148.369L149.132 148.356L149.268 148.339C149.298 148.339 149.33 148.331 149.361 148.325C149.84 148.255 150.305 148.121 150.746 147.924C150.84 147.885 150.933 147.841 151.019 147.795C151.203 147.703 151.381 147.599 151.553 147.486C151.792 147.329 152.017 147.152 152.23 146.96L152.377 146.82C152.4 146.797 152.424 146.775 152.446 146.751C152.59 146.607 152.726 146.455 152.852 146.295C153.076 146.013 153.274 145.713 153.446 145.397C155.491 141.681 157.633 138.019 159.872 134.419L160.179 133.927L160.489 133.434C160.645 133.185 160.8 132.939 160.956 132.695L161.114 132.45L161.428 131.96C161.85 131.307 162.273 130.662 162.699 130.022L163.018 129.546C163.657 128.6 164.295 127.678 164.926 126.802L165.242 126.37C165.928 125.421 166.644 124.495 167.386 123.59L167.682 123.237C167.73 123.177 167.775 123.12 167.828 123.062L168.117 122.727C168.165 122.672 168.211 122.617 168.262 122.564L168.541 122.248L168.683 122.095C168.818 121.948 168.956 121.803 169.096 121.659C169.19 121.566 169.277 121.472 169.368 121.385C169.897 120.843 170.481 120.357 171.111 119.936L171.256 119.843L171.404 119.749C171.498 119.691 171.593 119.634 171.69 119.581C174.159 118.18 176.204 118.077 177.381 119.253C178.094 119.966 178.488 121.148 178.467 122.791C178.467 122.864 178.467 122.936 178.461 123.011V123.093C178.461 123.167 178.454 123.243 178.449 123.319C178.449 123.412 178.438 123.506 178.428 123.599C178.419 123.693 178.415 123.764 178.405 123.847C178.405 123.871 178.4 123.895 178.397 123.919C178.39 123.992 178.38 124.066 178.371 124.139C178.371 124.162 178.371 124.184 178.361 124.207C178.351 124.307 178.336 124.406 178.319 124.504C178.307 124.595 178.293 124.686 178.275 124.777C178.267 124.829 178.257 124.88 178.249 124.932C178.222 125.081 178.186 125.228 178.143 125.372C178.063 125.642 177.965 125.906 177.849 126.163C177.798 126.275 177.745 126.386 177.691 126.496C177.578 126.723 177.451 126.955 177.311 127.195C177.241 127.313 177.169 127.435 177.091 127.557L176.974 127.743C176.855 127.93 176.731 128.119 176.601 128.31C176.472 128.502 176.333 128.697 176.184 128.894C175.99 129.158 175.787 129.426 175.571 129.698L175.408 129.903C174.948 130.477 174.476 131.041 173.993 131.596L173.61 132.029L173.414 132.248C173.148 132.546 172.881 132.842 172.611 133.135L172.404 133.359C172.267 133.507 172.124 133.658 171.988 133.807C171.848 133.958 171.705 134.109 171.563 134.259L171.133 134.713L170.697 135.167C170.552 135.318 170.406 135.472 170.259 135.623L169.372 136.537C165.136 140.882 160.673 145.211 159.162 147.913C159.062 148.089 158.971 148.27 158.889 148.455C158.675 148.946 158.585 149.366 158.645 149.705C158.665 149.817 158.705 149.925 158.762 150.022C158.848 150.169 158.951 150.305 159.07 150.426C159.126 150.48 159.183 150.531 159.246 150.577C159.556 150.799 159.932 150.913 160.313 150.901H160.433L160.555 150.893L160.678 150.878L160.779 150.864C160.793 150.863 160.806 150.859 160.82 150.856L160.913 150.839L160.938 150.832L161.04 150.81L161.187 150.773L161.317 150.734C161.403 150.708 161.489 150.679 161.576 150.646C161.765 150.58 161.95 150.502 162.131 150.416C162.177 150.394 162.224 150.373 162.269 150.349L162.408 150.28C162.59 150.188 162.77 150.089 162.952 149.981C163.097 149.895 163.241 149.808 163.386 149.715L163.525 149.622C163.571 149.592 163.618 149.562 163.664 149.528L163.803 149.435L163.876 149.383L164.077 149.244C164.264 149.114 164.438 148.981 164.616 148.847L164.632 148.835L164.912 148.618C165.295 148.315 165.66 148.01 165.989 147.723L166.208 147.529L166.229 147.511L166.343 147.409C166.612 147.168 166.852 146.942 167.053 146.755L167.134 146.676L167.332 146.489L167.45 146.374L167.491 146.332L167.502 146.321C167.602 146.221 167.602 146.221 167.703 146.119L167.711 146.111L167.749 146.077C167.76 146.065 167.776 146.052 167.794 146.037L167.808 146.023L167.848 145.988L168.06 145.801L168.179 145.693C168.238 145.643 168.301 145.585 168.366 145.524L168.509 145.398C168.534 145.378 168.559 145.354 168.585 145.331L168.735 145.2L168.955 145.008L169.071 144.906C169.525 144.511 170.079 144.033 170.713 143.495L170.973 143.276L171.404 142.916L171.842 142.548C172.417 142.072 173.035 141.565 173.689 141.038L174.118 140.694C174.484 140.403 174.86 140.106 175.24 139.807C175.393 139.687 175.548 139.567 175.707 139.448C176.097 139.147 176.489 138.847 176.881 138.551C177.778 137.874 178.702 137.197 179.637 136.535L180.039 136.256C180.319 136.062 180.599 135.869 180.88 135.68L181.134 135.507C181.636 135.169 182.143 134.838 182.654 134.514L182.907 134.354L183.159 134.198C183.411 134.042 183.663 133.887 183.911 133.738L184.161 133.59L184.661 133.298C184.825 133.203 184.988 133.11 185.151 133.018L185.249 132.963L185.638 132.751C185.799 132.663 185.961 132.578 186.121 132.496L186.361 132.373L186.593 132.255C187.123 131.988 187.663 131.742 188.213 131.516C188.288 131.485 188.362 131.455 188.436 131.422C188.584 131.361 188.73 131.304 188.875 131.254C189.02 131.205 189.163 131.154 189.304 131.104C189.433 131.061 189.557 131.021 189.678 130.983L189.719 130.971C189.784 130.951 189.849 130.932 189.913 130.916L189.932 130.91C190.064 130.873 190.195 130.838 190.328 130.807H190.338C190.534 130.76 190.724 130.72 190.91 130.689C190.974 130.678 191.036 130.668 191.097 130.66C191.278 130.632 191.459 130.614 191.641 130.601C191.756 130.593 191.872 130.59 191.987 130.59H192.075C192.192 130.59 192.304 130.597 192.416 130.608C192.467 130.608 192.518 130.618 192.569 130.625H192.59C192.64 130.63 192.691 130.639 192.74 130.649C192.789 130.66 192.839 130.667 192.887 130.678H192.904C192.952 130.689 192.997 130.702 193.047 130.716C193.446 130.824 193.813 131.026 194.117 131.306L194.144 131.333L194.197 131.386L194.249 131.441C194.668 131.882 195.015 132.386 195.276 132.936L195.317 133.029C195.406 133.238 195.476 133.454 195.525 133.675C195.661 134.293 195.624 134.936 195.418 135.534C195.329 135.794 195.221 136.046 195.092 136.289L195.007 136.443C194.681 136.99 194.296 137.498 193.859 137.96L193.765 138.059C193.559 138.278 193.345 138.49 193.124 138.693C193.054 138.759 192.982 138.825 192.909 138.891L192.798 138.991C192.569 139.195 192.334 139.393 192.095 139.588C192.054 139.621 192.011 139.654 191.97 139.69C191.804 139.824 191.633 139.959 191.455 140.095C190.843 140.563 190.219 141.014 189.584 141.45C189.21 141.706 188.824 141.964 188.425 142.226C187.681 142.714 186.932 143.191 186.176 143.659C185.958 143.794 185.738 143.931 185.515 144.067C183.46 145.331 181.182 146.682 178.752 148.152L178.123 148.534C177.435 148.954 176.785 149.355 176.174 149.737L175.866 149.931L175.283 150.305C175.052 150.451 174.828 150.595 174.609 150.737C174.444 150.843 174.283 150.947 174.126 151.051L173.814 151.255C173.663 151.355 173.513 151.454 173.362 151.555L173.216 151.648C173.061 151.752 172.911 151.853 172.765 151.953L172.525 152.116L172.244 152.311L171.985 152.492C171.576 152.779 171.172 153.073 170.771 153.372L170.631 153.478C170.473 153.597 170.32 153.716 170.173 153.832L169.981 153.986C169.657 154.246 169.364 154.496 169.098 154.734L168.969 154.853C168.895 154.921 168.821 154.989 168.752 155.055C168.703 155.101 168.658 155.148 168.609 155.194L168.541 155.261C168.392 155.411 168.247 155.564 168.106 155.722L168.037 155.801C167.883 155.979 167.75 156.149 167.632 156.315L167.579 156.39C167.444 156.589 167.324 156.799 167.221 157.017L167.186 157.093L167.164 157.147L167.146 157.193L167.122 157.256C167.115 157.278 167.1 157.317 167.092 157.35C167.049 157.475 167.017 157.603 166.997 157.734L166.986 157.804L166.978 157.867L166.973 157.929V158.257C166.973 158.284 166.973 158.312 166.979 158.341C166.98 158.357 166.982 158.374 166.984 158.391C166.984 158.418 166.991 158.445 166.994 158.473L167.014 158.588V158.593C167.022 158.63 167.029 158.667 167.038 158.703C167.048 158.74 167.057 158.78 167.069 158.819C167.102 158.937 167.143 159.054 167.19 159.168C167.19 159.176 167.197 159.186 167.2 159.194C167.213 159.222 167.224 159.252 167.238 159.28C167.289 159.399 167.347 159.515 167.409 159.629L167.475 159.747L167.544 159.866L167.616 159.985C167.629 160.005 167.642 160.022 167.658 160.04L167.682 160.065L167.707 160.088L167.735 160.11C167.754 160.124 167.774 160.135 167.795 160.147C167.816 160.156 167.838 160.167 167.861 160.175C167.887 160.183 167.912 160.191 167.937 160.197C168.539 160.333 169.778 159.833 171.423 158.964L171.719 158.808L172.219 158.535L172.465 158.399C172.638 158.305 172.817 158.201 172.998 158.097L173.329 157.91C175.505 156.658 178.105 155.048 180.791 153.477C181.042 153.33 181.295 153.184 181.547 153.037L182.055 152.714C182.309 152.567 182.562 152.423 182.816 152.281C183.896 151.667 184.99 151.077 186.096 150.512L186.593 150.26C186.923 150.097 187.25 149.938 187.572 149.784C188.198 149.487 188.83 149.206 189.468 148.94L189.818 148.797L189.861 148.781C191.714 148.046 193.395 147.592 194.755 147.592C195.049 147.59 195.343 147.614 195.633 147.664H195.642C195.736 147.681 195.82 147.7 195.906 147.722H195.922C196.047 147.752 196.17 147.791 196.289 147.839C196.384 147.873 196.476 147.914 196.565 147.962C196.955 148.159 197.288 148.451 197.537 148.81C197.557 148.84 197.577 148.872 197.596 148.904C197.688 149.044 197.767 149.191 197.832 149.346C197.871 149.435 197.906 149.527 197.94 149.626C197.973 149.726 198.002 149.822 198.033 149.926C198.254 150.717 198.232 151.555 197.97 152.334V152.331Z" fill="#FF9D00"/>
<path d="M185.571 95.5695V95.0577C185.571 51.3426 150.139 15.9004 106.413 15.9004C62.6982 15.9004 27.2456 51.3426 27.2456 95.0577L27.2434 95.229C27.2434 95.3429 27.2434 95.4557 27.2434 95.5695C27.2496 95.7398 27.2514 95.9101 27.2498 96.0803L27.2561 96.4564L27.2582 96.5922L27.2634 96.7781C27.2655 96.8784 27.2686 96.9776 27.2686 97.0779L27.279 97.4842L27.2958 97.9616L27.301 98.1183L27.3219 98.6124V98.6354L27.3511 99.213V99.2276C27.3616 99.425 27.372 99.6225 27.3845 99.8189C27.395 100.002 27.4065 100.183 27.419 100.365L27.4221 100.398C27.4313 100.553 27.4418 100.71 27.4535 100.866L27.4566 100.906C27.4671 101.057 27.4786 101.208 27.4911 101.357L27.4932 101.387L27.5141 101.648C27.5766 102.401 27.6498 103.154 27.7334 103.905L27.7387 103.952L27.8013 104.504L27.8734 105.085C27.9218 105.471 27.9734 105.856 28.028 106.242C28.0606 106.475 28.0944 106.707 28.1293 106.939L28.1345 106.967C28.2126 107.491 28.2968 108.016 28.3873 108.538C28.6471 110.054 28.9522 111.562 29.3024 113.06L29.3076 113.084L29.341 113.225C29.3724 113.359 29.4037 113.492 29.4371 113.627L29.4946 113.557C31.7926 110.81 35.0893 109.295 38.7776 109.295C41.7338 109.295 44.7672 110.272 47.8058 112.199C49.8219 113.48 52.051 115.749 54.3448 118.601C56.4674 115.652 59.4423 113.694 62.8455 113.159C63.4952 113.057 64.1512 113.004 64.8072 113.003C72.5757 113.003 77.2585 119.745 79.0238 125.81C79.896 127.859 84.1056 137.185 90.4514 143.505C100.098 153.143 102.516 163.09 97.7383 173.735H97.7539C98.0798 173.77 98.4068 173.803 98.7348 173.834C98.9301 173.853 99.1254 173.871 99.3208 173.888L99.3897 173.894C99.5328 173.908 99.677 173.92 99.8211 173.931L100.218 173.963C100.596 173.993 100.975 174.019 101.357 174.044L101.657 174.061L101.897 174.075L102.046 174.083L102.512 174.108L102.639 174.114L103.13 174.135L103.675 174.155L104.113 174.168L104.186 174.171C104.278 174.174 104.372 174.178 104.465 174.178L104.565 174.181C105.181 174.195 105.796 174.203 106.412 174.203H107.066L107.534 174.197C107.649 174.191 107.763 174.191 107.878 174.191H108.06L108.217 174.188C108.279 174.186 108.342 174.184 108.403 174.184H108.59L108.957 174.173L109.508 174.154L110.116 174.128C110.291 174.121 110.464 174.113 110.639 174.103L110.826 174.093L111.102 174.077L111.266 174.068L111.389 174.06L111.95 174.023C112.137 174.011 112.324 173.997 112.511 173.982L113.018 173.942L113.376 173.912L113.768 173.877C114.17 173.839 114.571 173.799 114.97 173.758C115.225 173.729 115.478 173.701 115.732 173.671L116.178 173.618C111.478 163.015 113.911 153.113 123.519 143.513C129.851 137.186 134.059 127.855 134.936 125.808C136.705 119.744 141.379 113.001 149.153 113.001C149.81 113.002 150.466 113.054 151.115 113.157C154.515 113.692 157.491 115.651 159.616 118.599C161.911 115.746 164.139 113.478 166.155 112.197C169.194 110.27 172.23 109.293 175.182 109.293C178.437 109.293 181.388 110.473 183.616 112.638C183.739 112.093 183.857 111.547 183.969 111C184.038 110.658 184.106 110.316 184.173 109.972C184.255 109.55 184.332 109.126 184.403 108.702C184.422 108.587 184.442 108.472 184.463 108.356C184.498 108.175 184.528 107.997 184.556 107.815L184.568 107.746L184.642 107.273L184.715 106.793L184.716 106.788C184.745 106.588 184.776 106.386 184.803 106.184C184.825 106.032 184.846 105.879 184.866 105.726L184.878 105.638L184.943 105.139L184.996 104.714C185.029 104.434 185.06 104.154 185.09 103.873C185.104 103.761 185.115 103.648 185.127 103.535L185.137 103.445C185.157 103.258 185.175 103.072 185.192 102.885L185.233 102.45C185.32 101.487 185.39 100.524 185.444 99.5588V99.5525L185.473 99.0406L185.478 98.9257L185.499 98.44C185.507 98.2572 185.514 98.0723 185.521 97.8854V97.8718L185.526 97.737C185.531 97.6221 185.535 97.5072 185.535 97.3934L185.537 97.3464C185.541 97.2398 185.546 97.1291 185.546 97.0194L185.549 96.9254C185.552 96.8157 185.555 96.7071 185.555 96.5974L185.557 96.5044C185.56 96.3645 185.563 96.2255 185.563 96.0856L185.571 95.5695ZM86.786 174.654C93.0544 165.459 92.6105 158.557 84.0085 149.96C75.4064 141.363 70.3977 128.787 70.3977 128.787C70.3977 128.787 68.529 121.483 64.2672 122.155C60.0053 122.825 56.8789 133.739 65.8016 140.414C74.7243 147.094 64.0269 151.622 60.5924 145.355C57.1568 139.085 47.786 122.97 42.9183 119.888C38.0569 116.806 34.638 118.533 35.7839 124.886C36.3532 128.04 41.6471 133.422 46.5952 138.445C51.6133 143.548 56.2731 148.285 55.2776 149.956C53.3003 153.286 46.3361 146.044 46.3361 146.044C46.3361 146.044 24.5256 126.197 19.7832 131.368C15.4075 136.134 22.1554 140.186 32.5583 146.431C33.443 146.962 34.3539 147.51 35.2867 148.074C47.1843 155.277 48.114 157.177 46.4218 159.898C45.7982 160.905 41.8152 158.514 36.9162 155.573C28.5649 150.559 17.5499 143.947 15.9935 149.865C14.6471 154.987 22.7488 158.125 30.0952 160.969C36.2164 163.34 41.8152 165.509 40.99 168.452C40.1366 171.503 35.5102 168.959 30.4504 166.176C24.7731 163.052 18.5527 159.629 16.5158 163.492C12.6676 170.793 43.0583 179.39 43.309 179.453C53.1279 181.999 78.0617 187.395 86.7839 174.623L86.786 174.654ZM127.169 174.654C120.899 165.459 121.344 158.557 129.946 149.96C138.548 141.363 143.557 128.787 143.557 128.787C143.557 128.787 145.425 121.483 149.687 122.155C153.949 122.825 157.076 133.739 148.152 140.414C139.228 147.089 149.927 151.622 153.363 145.355C156.797 139.085 166.169 122.97 171.026 119.888C175.883 116.807 179.307 118.533 178.162 124.886C177.592 128.04 172.298 133.423 167.35 138.455C162.333 143.557 157.673 148.294 158.669 149.966C160.645 153.297 167.616 146.05 167.616 146.05C167.616 146.05 189.426 126.204 194.169 131.374C198.544 136.141 191.795 140.193 181.393 146.437C180.509 146.967 179.599 147.514 178.666 148.079C166.768 155.281 165.839 157.182 167.531 159.903C168.155 160.91 172.138 158.519 177.036 155.579C185.388 150.565 196.402 143.953 197.958 149.87C199.305 154.992 191.203 158.131 183.857 160.974C177.735 163.345 172.137 165.513 172.962 168.457C173.815 171.509 178.439 168.963 183.491 166.18C189.168 163.056 195.389 159.632 197.426 163.496C201.274 170.802 170.883 179.394 170.632 179.457C160.813 182.011 135.88 187.407 127.168 174.635L127.169 174.654Z" fill="#FFD21E"/>
<path d="M132.193 73.5082C133.427 73.9448 134.345 75.2745 135.219 76.5385C136.399 78.2484 137.498 79.8382 139.184 78.942C141.174 77.8849 142.804 76.2616 143.871 74.277C144.937 72.2923 145.391 70.0371 145.174 67.7944C145.013 66.1178 144.483 64.4977 143.62 63.051C142.757 61.6043 141.584 60.3665 140.187 59.4274C138.788 58.4885 137.198 57.872 135.533 57.6213C133.867 57.3707 132.166 57.4929 130.554 57.9787C128.396 58.6283 126.481 59.9028 125.048 61.6409C123.615 63.3791 122.73 65.5027 122.503 67.7433C122.277 69.9849 122.721 72.2433 123.778 74.2322C124.56 75.7019 126.294 75.0093 128.124 74.2771C129.559 73.7036 131.053 73.106 132.193 73.5082ZM78.5236 73.5092C77.29 73.9458 76.3708 75.2756 75.4975 76.5395C74.3171 78.2484 73.2183 79.8393 71.5323 78.943C70.0459 78.1523 68.7538 77.0409 67.7479 75.6903C66.7419 74.3396 66.0483 72.7832 65.7162 71.1318C65.384 69.4814 65.4216 67.7766 65.8269 66.1429C66.2332 64.5082 66.9958 62.9841 68.0602 61.6795C69.1267 60.3759 70.4679 59.325 71.9888 58.6011C73.5097 57.8773 75.1726 57.5012 76.8565 57.497C78.5403 57.4934 80.2043 57.8631 81.7283 58.5792C83.2524 59.2957 84.5988 60.3414 85.6705 61.6398C87.1037 63.3779 87.9895 65.5016 88.2162 67.7432C88.4418 69.9848 87.9978 72.2432 86.9397 74.232C86.1563 75.7018 84.4223 75.0082 82.5922 74.2759C81.158 73.7025 79.6643 73.105 78.5236 73.5082V73.5092ZM123.889 122.343C132.395 115.641 135.515 104.7 135.515 97.9625C135.515 92.6352 131.93 94.3118 126.192 97.152L125.87 97.3128C120.602 99.9211 113.586 103.393 105.898 103.393C98.2001 103.393 91.19 99.9201 85.9254 97.3118C80.0017 94.3776 76.2862 92.537 76.2862 97.9636C76.2862 104.915 79.61 116.327 88.7374 122.96C89.9407 120.516 91.635 118.346 93.7158 116.587C95.7955 114.828 98.2168 113.518 100.827 112.738C101.738 112.466 102.676 114.034 103.637 115.639C104.564 117.188 105.51 118.771 106.474 118.771C107.5 118.771 108.509 117.211 109.494 115.687C110.523 114.095 111.526 112.543 112.496 112.853C117.38 114.421 121.466 117.821 123.892 122.34L123.889 122.343Z" fill="#32343D"/>
<path d="M123.835 122.373C119.405 125.864 113.517 128.205 105.848 128.205C98.6434 128.205 93.0101 126.139 88.6855 122.994C89.8899 120.55 91.5853 118.381 93.665 116.623C95.7447 114.864 98.166 113.553 100.775 112.772C102.565 112.238 104.46 118.805 106.421 118.805C108.522 118.805 110.545 112.28 112.444 112.886C117.327 114.455 121.411 117.855 123.84 122.373H123.835Z" fill="#FF323D"/>
<path d="M58.1644 82.9931C57.3562 83.5373 56.4482 83.9165 55.4935 84.1087C54.5383 84.3009 53.5548 84.303 52.599 84.115C51.6431 83.9259 50.7334 83.5509 49.9228 83.0109C49.1122 82.4698 48.4165 81.7752 47.8755 80.9646C47.3341 80.155 46.9579 79.2452 46.7682 78.2905C46.5788 77.3347 46.5799 76.3507 46.7713 75.3949C46.9628 74.4402 47.3411 73.5325 47.8838 72.7229C48.427 71.9142 49.1248 71.2208 49.9364 70.6819C51.569 69.5986 53.5652 69.2059 55.4862 69.5913C57.4071 69.9768 59.0983 71.108 60.1867 72.7365C61.2752 74.366 61.6742 76.3601 61.295 78.2821C60.9158 80.2052 59.7898 81.8995 58.1644 82.9931ZM164.084 82.9931C163.275 83.5373 162.367 83.9165 161.413 84.1087C160.458 84.3009 159.474 84.303 158.518 84.115C157.562 83.9259 156.653 83.5509 155.842 83.0109C155.031 82.4698 154.336 81.7752 153.795 80.9646C153.252 80.155 152.876 79.2452 152.687 78.2905C152.498 77.3347 152.499 76.3507 152.69 75.3949C152.882 74.4402 153.26 73.5325 153.803 72.7229C154.346 71.9142 155.044 71.2208 155.856 70.6819C157.488 69.5986 159.484 69.2059 161.405 69.5913C163.326 69.9768 165.016 71.108 166.106 72.7365C167.194 74.366 167.593 76.3601 167.214 78.2821C166.835 80.2052 165.709 81.8995 164.084 82.9931Z" fill="#FFAD03"/>
</g>
<defs>
<clipPath id="clip0_373_3211">
<rect width="215.126" height="200" fill="white"/>
</clipPath>
</defs>
</svg>
