<svg width="200" height="200" viewBox="0 0 200 200" fill="none" xmlns="http://www.w3.org/2000/svg">
<g clip-path="url(#clip0_373_3209)">
<path d="M134.609 106.883C129.359 105.358 126.026 108.133 123.126 113.933C118.293 123.35 109.434 127.633 99.0592 127.217C88.6842 126.8 80.2509 121.967 75.8259 112.417C73.8842 108.267 71.6759 106.883 67.1092 106.75C59.3592 106.608 53.4175 106.883 48.9925 115.6C43.7342 126.108 30.1759 129.708 18.8342 126.108C13.1861 124.324 8.2831 120.729 4.88333 115.879C1.48356 111.028 -0.22358 105.193 0.025875 99.275C0.108471 93.5938 2.00467 88.0876 5.43774 83.5602C8.8708 79.0327 13.661 75.721 19.1092 74.1084C24.7555 72.3643 30.8152 72.4995 36.3781 74.4935C41.941 76.4876 46.7067 80.2328 49.9592 85.1667C51.7592 87.7917 51.7592 92.3584 54.9342 92.9167C60.3342 93.75 66.0009 93.1917 71.5342 93.1917C74.0259 93.1917 74.1675 90.9751 74.8592 89.3167C79.6925 78.5251 88.2759 72.9917 99.7509 72.8584C111.093 72.7167 119.668 78.25 124.376 88.625C126.168 92.5 128.376 93.6084 132.259 93.1917C133.643 93.05 135.026 93.325 136.409 93.1917C140.276 92.5 145.259 95.5417 147.609 89.4584C149.959 83.375 144.426 81.85 141.943 79.0834C134.884 71.2 126.859 64.1417 119.668 56.5334C116.209 52.6584 113.309 51.4167 107.918 53.075C92.2842 58.1917 77.7592 49.4834 73.3342 33.4334C69.6009 19.4667 79.2842 3.97505 93.6675 0.791714C100.747 -0.849699 108.189 0.384197 114.36 4.22269C120.531 8.06119 124.927 14.1908 126.584 21.2667C126.726 21.6834 126.726 21.9584 126.859 22.375C127.834 27.075 127.834 31.9167 125.759 35.925C123.401 40.35 124.651 42.8417 127.834 45.8834C137.099 54.8275 146.228 63.9119 155.218 73.1334C157.709 75.625 159.368 76.0417 162.826 74.8C175.409 70.0917 187.576 73.9667 195.193 84.475C198.417 89.1525 200.097 94.7218 199.997 100.402C199.897 106.082 198.022 111.589 194.634 116.15C187.168 126.108 174.993 129.842 162.684 125.142C159.509 123.892 157.851 124.308 155.634 126.658C146.32 136.202 136.866 145.609 127.276 154.875C124.784 157.375 123.818 159.308 125.343 163.042C127.699 168.865 127.923 175.334 125.975 181.306C124.026 187.279 120.03 192.371 114.693 195.683C109.377 199.038 103.072 200.47 96.8285 199.739C90.5853 199.008 84.7813 196.159 80.3842 191.667C71.5342 182.817 70.1509 169.267 76.9259 158.058C80.1898 152.849 85.1555 148.929 90.9806 146.963C96.8056 144.998 103.131 145.108 108.884 147.275C113.034 148.792 115.384 147.967 118.426 144.917C126.859 136.208 135.576 127.767 144.151 119.058C146.368 116.842 149.818 115.317 147.751 110.475C145.809 105.917 142.493 107.025 139.168 106.883H134.609ZM99.7509 41.1834C107.359 41.3167 113.443 35.2334 113.584 27.625V27.2084C113.493 25.3854 113.04 23.5988 112.25 21.9534C111.459 20.308 110.349 18.8368 108.983 17.6261C107.617 16.4154 106.023 15.4894 104.295 14.9026C102.566 14.3157 100.738 14.0797 98.9175 14.2084C95.5856 14.3801 92.4333 15.7721 90.0618 18.1189C87.6904 20.4658 86.2656 23.6034 86.0592 26.9334C85.9788 28.7338 86.2557 30.5322 86.874 32.225C87.4922 33.9178 88.4395 35.4714 89.6613 36.7962C90.883 38.121 92.355 39.1908 93.9924 39.9438C95.6297 40.6968 97.3999 41.1181 99.2009 41.1834H99.7509ZM100.026 86.2667C96.4039 86.2259 92.9106 87.6091 90.2984 90.1184C87.6862 92.6278 86.1638 96.0626 86.0592 99.6834V100.383C86.2005 103.983 87.6843 107.399 90.2183 109.959C92.7524 112.519 96.1531 114.038 99.7509 114.217C106.809 114.35 113.443 107.717 113.726 100.658C113.866 97.0279 112.561 93.4898 110.098 90.819C107.635 88.1482 104.214 86.5622 100.584 86.4084C100.443 86.2751 100.168 86.2667 100.026 86.2667ZM159.093 100.383C159.226 107.85 165.318 113.8 172.643 114.075C176.363 113.939 179.886 112.363 182.466 109.679C185.047 106.996 186.485 103.415 186.476 99.6917C186.355 96.0997 184.846 92.6946 182.266 90.1924C179.686 87.6902 176.237 86.286 172.643 86.275C169.092 86.2299 165.666 87.5827 163.105 90.0414C160.543 92.5001 159.051 95.8675 158.951 99.4167C159.093 99.8334 159.093 100.108 159.093 100.383ZM27.0009 86.275C23.401 86.3404 19.9625 87.7805 17.3904 90.2999C14.8183 92.8193 13.3074 96.2273 13.1675 99.825C13.0259 106.883 20.3592 114.217 27.2759 114.075C30.9977 113.943 34.5149 112.339 37.0554 109.615C39.5958 106.892 40.9519 103.272 40.8259 99.55C40.802 97.7784 40.4285 96.0288 39.7269 94.4018C39.0252 92.7748 38.0092 91.3024 36.7371 90.069C35.465 88.8356 33.9619 87.8655 32.314 87.2145C30.666 86.5634 28.9058 86.2442 27.1342 86.275H27.0009ZM99.3342 186.275C107.501 186.55 113.584 180.883 113.726 173C113.894 171.19 113.7 169.365 113.157 167.631C112.613 165.896 111.73 164.287 110.56 162.897C109.389 161.507 107.953 160.363 106.337 159.533C104.72 158.702 102.955 158.201 101.143 158.058C99.3328 157.89 97.5077 158.084 95.7733 158.627C94.0389 159.171 92.4299 160.054 91.0396 161.225C89.6494 162.395 88.5057 163.831 87.675 165.448C86.8444 167.064 86.3433 168.83 86.2009 170.642V172.583C86.0858 176.119 87.3728 179.557 89.7812 182.148C92.1897 184.739 95.5245 186.273 99.0592 186.417C99.0592 186.275 99.2009 186.275 99.3342 186.275Z" fill="#3D8AE9"/>
</g>
<defs>
<clipPath id="clip0_373_3209">
<rect width="200" height="200" fill="white"/>
</clipPath>
</defs>
</svg>
