<svg width="256" height="233" viewBox="0 0 256 233" fill="none" xmlns="http://www.w3.org/2000/svg">
<g clip-path="url(#clip0_373_3181)">
<path d="M232.727 0H186.182V46.5455H232.727V0Z" fill="black"/>
<path d="M256.001 0H209.455V46.5455H256.001V0Z" fill="#F7D046"/>
<path d="M46.5455 0H0V46.5455H46.5455V0Z" fill="black"/>
<path d="M46.5455 46.5454H0V93.0909H46.5455V46.5454Z" fill="black"/>
<path d="M46.5455 93.0908H0V139.636H46.5455V93.0908Z" fill="black"/>
<path d="M46.5455 139.636H0V186.182H46.5455V139.636Z" fill="black"/>
<path d="M46.5455 186.182H0V232.727H46.5455V186.182Z" fill="black"/>
<path d="M69.8189 0H23.2734V46.5455H69.8189V0Z" fill="#F7D046"/>
<path d="M256.001 46.5454H209.455V93.0909H256.001V46.5454Z" fill="#F2A73B"/>
<path d="M69.8189 46.5454H23.2734V93.0909H69.8189V46.5454Z" fill="#F2A73B"/>
<path d="M186.182 46.5454H139.637V93.0909H186.182V46.5454Z" fill="black"/>
<path d="M209.454 46.5454H162.908V93.0909H209.454V46.5454Z" fill="#F2A73B"/>
<path d="M116.364 46.5454H69.8184V93.0909H116.364V46.5454Z" fill="#F2A73B"/>
<path d="M162.909 93.0908H116.363V139.636H162.909V93.0908Z" fill="#EE792F"/>
<path d="M209.454 93.0908H162.908V139.636H209.454V93.0908Z" fill="#EE792F"/>
<path d="M116.364 93.0908H69.8184V139.636H116.364V93.0908Z" fill="#EE792F"/>
<path d="M139.637 139.636H93.0918V186.182H139.637V139.636Z" fill="black"/>
<path d="M162.909 139.636H116.363V186.182H162.909V139.636Z" fill="#EB5829"/>
<path d="M256.001 93.0908H209.455V139.636H256.001V93.0908Z" fill="#EE792F"/>
<path d="M69.8189 93.0908H23.2734V139.636H69.8189V93.0908Z" fill="#EE792F"/>
<path d="M232.727 139.636H186.182V186.182H232.727V139.636Z" fill="black"/>
<path d="M256.001 139.636H209.455V186.182H256.001V139.636Z" fill="#EB5829"/>
<path d="M232.727 186.182H186.182V232.727H232.727V186.182Z" fill="black"/>
<path d="M69.8189 139.636H23.2734V186.182H69.8189V139.636Z" fill="#EB5829"/>
<path d="M256.001 186.182H209.455V232.727H256.001V186.182Z" fill="#EA3326"/>
<path d="M69.8189 186.182H23.2734V232.727H69.8189V186.182Z" fill="#EA3326"/>
</g>
<defs>
<clipPath id="clip0_373_3181">
<rect width="256" height="233" fill="white"/>
</clipPath>
</defs>
</svg>
