<svg width="200" height="200" viewBox="0 0 200 200" fill="none" xmlns="http://www.w3.org/2000/svg">
<g clip-path="url(#clip0_373_3166)">
<path d="M148.303 145.593C149.577 134.992 149.194 133.445 157.085 135.156L159.092 135.335C165.163 135.609 173.1 134.359 177.842 132.195C187.881 127.539 193.835 119.757 183.936 121.804C161.358 126.46 159.717 118.812 159.717 118.812C183.569 83.4214 193.545 38.4995 184.928 27.5073C161.46 -2.49267 120.827 11.6948 120.147 12.0698L119.928 12.1089C115.475 11.1714 110.553 10.6245 104.85 10.5464C94.6314 10.3901 86.8814 13.2261 80.9907 17.687C80.9907 17.687 8.51419 -12.1724 11.8814 55.2417C12.6001 69.5855 32.4283 163.835 56.1001 135.32C64.7642 124.898 73.1236 116.093 73.1236 116.093C77.2642 118.851 82.2407 120.257 87.4517 119.75L87.8579 119.406C87.7377 120.756 87.7928 122.116 88.022 123.453C81.9282 130.265 83.7251 131.46 71.5376 133.968C59.2095 136.507 66.4595 141.031 71.1783 142.218C76.9126 143.656 90.1782 145.687 99.147 133.14L98.7876 134.57C101.178 136.484 101.014 148.32 101.366 156.773C101.717 165.226 102.272 173.125 103.999 177.773C105.725 182.421 107.749 194.414 123.764 191.054C137.147 188.187 147.381 184.054 148.319 145.664" fill="black"/>
<path d="M148.303 145.593C149.577 134.992 149.194 133.445 157.085 135.156L159.092 135.335C165.163 135.609 173.1 134.359 177.842 132.195C187.881 127.539 193.835 119.757 183.936 121.804C161.358 126.46 159.717 118.812 159.717 118.812C183.569 83.4214 193.545 38.4995 184.928 27.5073C161.46 -2.49267 120.827 11.6948 120.147 12.0698L119.928 12.1089C115.475 11.1714 110.553 10.6245 104.85 10.5464C94.6314 10.3901 86.8814 13.2261 80.9907 17.687C80.9907 17.687 8.51419 -12.1724 11.8814 55.2417C12.6001 69.5855 32.4283 163.835 56.1001 135.32C64.7642 124.898 73.1236 116.093 73.1236 116.093C77.2642 118.851 82.2407 120.257 87.4517 119.75L87.8579 119.406C87.7377 120.756 87.7928 122.116 88.022 123.453C81.9282 130.265 83.7251 131.46 71.5376 133.968C59.2095 136.507 66.4595 141.031 71.1783 142.218C76.9126 143.656 90.1782 145.687 99.147 133.14L98.7876 134.57C101.178 136.484 101.014 148.32 101.366 156.773C101.717 165.226 102.272 173.125 103.999 177.773C105.725 182.421 107.749 194.414 123.764 191.054C137.147 188.187 147.381 184.054 148.319 145.664" stroke="black" stroke-width="16.7891"/>
<path d="M183.866 121.874C161.288 126.531 159.648 118.882 159.648 118.882C183.499 83.4916 193.476 38.5698 184.866 27.5776C161.398 -2.42242 120.765 11.7729 120.085 12.1401L119.866 12.1791C114.903 11.1833 109.858 10.6576 104.796 10.6088C94.5772 10.4526 86.8272 13.2885 80.9366 17.7495C80.9366 17.7495 8.4522 -12.1099 11.8272 55.3041C12.5459 69.6479 32.3741 163.898 56.0459 135.382C64.7647 124.898 73.1241 116.093 73.1241 116.093C77.2647 118.851 82.2413 120.257 87.4522 119.749L87.8585 119.406C87.7391 120.756 87.7942 122.116 88.0225 123.453C81.9288 130.265 83.7256 131.46 71.5381 133.968C59.21 136.507 66.46 141.031 71.1788 142.218C76.9131 143.656 90.1788 145.687 99.1475 133.14L98.7881 134.57C101.179 136.484 102.851 147.015 102.569 156.562C102.288 166.109 102.101 172.656 103.976 177.781C105.851 182.906 107.726 194.421 123.741 191.062C137.124 188.195 144.054 180.749 145.03 168.359C145.718 159.546 147.265 160.843 147.374 152.968L148.624 149.234C150.054 137.281 148.858 133.429 157.101 135.226L159.108 135.406C165.179 135.679 173.124 134.429 177.78 132.265C187.819 127.609 193.765 119.828 183.866 121.874Z" fill="#336791"/>
<path d="M100.108 128.649C99.4834 150.883 100.265 173.274 102.437 178.649C104.608 184.024 109.272 194.664 125.296 191.242C138.679 188.375 143.554 182.82 145.663 170.563L150.608 131.367M80.9052 17.1876C80.9052 17.1876 8.374 -12.4687 11.749 54.9454C12.4677 69.2891 32.2959 163.539 55.9678 135.024C64.6084 124.609 72.4209 116.461 72.4209 116.461M120.077 11.7735C117.577 12.5548 160.421 -3.89055 184.78 27.2266C193.374 38.2188 183.413 83.1407 159.561 118.531" stroke="white" stroke-width="5.59375" stroke-linecap="round" stroke-linejoin="round"/>
<path d="M159.569 118.516C159.569 118.516 161.132 126.172 183.788 121.5C193.687 119.453 187.726 127.235 177.694 131.891C169.46 135.719 150.991 136.696 150.687 131.422C149.905 117.789 160.405 121.93 159.647 118.516C158.96 115.438 154.257 112.422 151.163 104.891C148.452 98.3284 113.976 47.9377 160.726 55.4143C162.444 55.0627 148.538 10.8831 104.788 10.2424C61.0381 9.6018 62.4209 64.0315 62.4209 64.0315" stroke="white" stroke-width="5.59375" stroke-linecap="round" stroke-linejoin="bevel"/>
<path d="M87.8688 123.187C81.7751 130 83.572 131.195 71.3845 133.703C59.0563 136.242 66.3063 140.766 71.0251 141.953C76.7595 143.391 90.0251 145.422 98.9938 132.867C101.728 129.039 98.9782 122.945 95.2282 121.398C93.4157 120.648 90.9938 119.711 87.8845 123.195L87.8688 123.187Z" stroke="white" stroke-width="5.59375" stroke-linejoin="round"/>
<path d="M87.4694 123.071C86.8444 119.063 88.7818 114.305 90.8522 108.727C93.9615 100.367 101.133 92.0081 95.399 65.469C91.1256 45.7034 62.4303 61.3519 62.4303 64.0315C62.4303 66.7112 63.7272 77.6253 61.9615 90.3206C59.6412 106.899 72.5084 120.914 87.3209 119.485" stroke="white" stroke-width="5.59375" stroke-linecap="round" stroke-linejoin="round"/>
<path d="M80.6416 63.6331C80.5088 64.5472 82.3213 66.9925 84.6729 67.3206C87.0244 67.6488 89.0323 65.7425 89.1651 64.8206C89.2979 63.8988 87.4854 62.8988 85.1338 62.5706C82.7823 62.2425 80.7588 62.7269 80.6416 63.6331Z" fill="white" stroke="white" stroke-width="1.86719"/>
<path d="M152.238 61.7659C152.363 62.68 150.558 65.1253 148.207 65.4534C145.855 65.7816 143.832 63.8753 143.714 62.9534C143.597 62.0316 145.394 61.0316 147.746 60.7034C150.097 60.3753 152.121 60.8597 152.238 61.7659Z" fill="white" stroke="white" stroke-width="0.929688"/>
<path d="M160.639 55.4297C161.029 62.6172 159.092 67.5 158.842 75.1484C158.482 86.2578 164.139 98.9766 155.615 111.711" stroke="white" stroke-width="5.59375" stroke-linecap="round" stroke-linejoin="round"/>
</g>
<defs>
<clipPath id="clip0_373_3166">
<rect width="200" height="200" fill="white"/>
</clipPath>
</defs>
</svg>
