<svg width="200" height="200" viewBox="0 0 200 200" fill="none" xmlns="http://www.w3.org/2000/svg">
<g clip-path="url(#clip0_373_3163)">
<path d="M198.715 97.5547L190.324 92.3477C190.27 91.5234 190.16 90.7031 190.105 89.8789L197.344 83.1328C198.055 82.4766 198.387 81.4336 198.223 80.4453C198.004 79.457 197.344 78.6367 196.414 78.3086L187.203 74.8555C186.984 74.0313 186.711 73.2656 186.492 72.4961L192.25 64.4922C192.852 63.668 192.961 62.6289 192.578 61.6953C192.195 60.7617 191.371 60.1055 190.387 59.9414L180.625 58.3516C180.242 57.6406 179.855 56.8711 179.473 56.1602L183.586 47.168C184.023 46.2344 183.914 45.1953 183.367 44.3711C182.82 43.5469 181.887 43.0547 180.844 43.1094L170.973 43.4375C170.48 42.7812 169.93 42.1758 169.438 41.5195L171.687 31.9258C171.906 30.9375 171.633 29.9531 170.918 29.2383C170.207 28.5273 169.164 28.25 168.23 28.4687L158.637 30.7188C158.035 30.1719 157.375 29.6758 156.719 29.1836L157.047 19.3125C157.102 18.3242 156.609 17.3398 155.785 16.7891C154.961 16.2422 153.867 16.1328 152.988 16.5703L143.996 20.6836C143.285 20.3008 142.57 19.9141 141.805 19.5313L140.051 9.76953C139.887 8.78125 139.227 7.96094 138.297 7.57813C137.367 7.19531 136.324 7.30469 135.5 7.90625L127.496 13.6641C126.727 13.3906 125.906 13.1719 125.137 12.9531L121.684 3.74219C121.355 2.80859 120.531 2.09766 119.547 1.93359C118.559 1.71484 117.574 2.04297 116.859 2.8125L110.113 10.0508C109.289 9.94141 108.469 9.88672 107.645 9.83203L102.488 1.32812C101.941 0.449219 101.008 -0.0429688 100.02 -0.0429688C99.0312 -0.0429688 98.1016 0.449219 97.5508 1.32812L92.3437 9.71875C91.5195 9.77344 90.6992 9.88281 89.875 9.9375L83.1328 2.69922C82.4766 1.98828 81.4336 1.65625 80.4453 1.82031C79.457 2.03906 78.6367 2.69922 78.3086 3.62891L74.8555 12.8398C74.0313 13.0586 73.2656 13.332 72.4961 13.5508L64.5469 7.90234C63.7227 7.30078 62.6836 7.19141 61.75 7.57422C60.8164 7.95703 60.1602 8.78125 59.9961 9.76563L58.4023 19.5313C57.6914 19.9141 56.9219 20.3008 56.2109 20.6836L47.2188 16.5703C46.2852 16.1328 45.2461 16.2422 44.4219 16.7891C43.5977 17.3359 43.1055 18.2695 43.1602 19.3125L43.4883 29.1836C42.832 29.6758 42.2266 30.2266 41.5703 30.7188L31.9766 28.4687C30.9883 28.25 29.9492 28.5234 29.2891 29.2383C28.5781 29.9492 28.3008 30.9922 28.5195 31.9258L30.7695 41.5195C30.2227 42.1211 29.7266 42.7812 29.2344 43.4375L19.3633 43.1094C18.375 43.0547 17.3906 43.5469 16.8398 44.3711C16.293 45.1953 16.1836 46.2891 16.6211 47.168L20.7344 56.1602C20.3516 56.8711 19.9648 57.5859 19.582 58.3516L9.76563 59.9961C8.77734 60.1602 7.95703 60.8203 7.57422 61.75C7.19141 62.6836 7.30078 63.7227 7.90234 64.5469L13.6602 72.5508C13.3867 73.3203 13.168 74.1406 12.9492 74.9102L3.73828 78.3633C2.80469 78.6914 2.09375 79.5156 1.92969 80.5C1.71094 81.4883 2.03906 82.4727 2.80859 83.1875L10.0469 89.9336C9.9375 90.7578 9.88281 91.5781 9.82813 92.4023L1.32422 97.5547C0.445312 98.1016 -0.046875 99.0351 -0.046875 100.023C-0.046875 101.012 0.445312 101.941 1.32422 102.492L9.71484 107.699C9.76953 108.523 9.87891 109.344 9.93359 110.168L2.69531 116.91C1.98437 117.566 1.65234 118.609 1.81641 119.598C2.03516 120.586 2.69531 121.406 3.625 121.734L12.8359 125.187C13.0547 126.012 13.3281 126.777 13.5469 127.547L7.89844 135.496C7.29688 136.32 7.1875 137.359 7.57031 138.293C7.95313 139.227 8.77734 139.883 9.76172 140.047L19.4687 141.637C19.8516 142.348 20.2383 143.117 20.6211 143.828L16.5078 152.82C16.0703 153.754 16.1797 154.793 16.7266 155.617C17.2734 156.441 18.2617 156.934 19.25 156.879L29.1211 156.551C29.6133 157.207 30.1641 157.812 30.6563 158.469L28.4063 168.117C28.1875 169.105 28.4609 170.09 29.1758 170.805C29.8867 171.516 30.9297 171.793 31.8633 171.574L41.457 169.324C42.0586 169.871 42.7188 170.367 43.375 170.859L43.0469 180.73C42.9922 181.719 43.4844 182.703 44.3086 183.254C45.1328 183.801 46.2266 183.91 47.1055 183.473L56.0977 179.359C56.8086 179.742 57.5234 180.129 58.2891 180.512L59.8789 190.219C60.043 191.207 60.7031 192.027 61.6328 192.41C62.5664 192.793 63.6055 192.684 64.4297 192.082L72.4375 186.328C73.207 186.602 74.0273 186.82 74.7969 187.039L78.25 196.25C78.5781 197.184 79.4023 197.895 80.3867 198.059C81.375 198.277 82.3594 197.949 83.0742 197.18L89.8203 189.941C90.6445 190.051 91.4648 190.105 92.2891 190.16L97.4961 198.551C98.043 199.375 98.9766 199.922 99.9648 199.922C100.953 199.922 101.883 199.43 102.434 198.551L107.641 190.16C108.465 190.105 109.285 189.996 110.109 189.941L116.855 197.18C117.512 197.891 118.555 198.223 119.543 198.059C120.531 197.84 121.352 197.18 121.68 196.25L125.133 187.039C125.957 186.82 126.723 186.547 127.492 186.328L135.496 192.086C136.32 192.687 137.359 192.797 138.293 192.414C139.227 192.031 139.883 191.207 140.047 190.223L141.637 180.516C142.348 180.133 143.117 179.746 143.828 179.363L152.82 183.477C153.754 183.914 154.793 183.805 155.617 183.258C156.441 182.711 156.934 181.777 156.879 180.734L156.551 170.863C157.207 170.371 157.812 169.82 158.469 169.328L168.062 171.578C169.051 171.797 170.09 171.523 170.75 170.809C171.461 170.098 171.738 169.055 171.52 168.121L169.27 158.473C169.816 157.871 170.313 157.211 170.805 156.555L180.676 156.883C181.664 156.937 182.648 156.445 183.199 155.621C183.746 154.797 183.855 153.703 183.418 152.824L179.305 143.832C179.687 143.121 180.074 142.406 180.457 141.641L190.219 140.051C191.207 139.887 192.027 139.227 192.41 138.297C192.793 137.363 192.684 136.324 192.082 135.5L186.324 127.496C186.598 126.727 186.816 125.906 187.035 125.137L196.246 121.684C197.18 121.355 197.891 120.531 198.055 119.547C198.273 118.559 197.945 117.574 197.176 116.859L189.937 110.113C190.047 109.289 190.102 108.469 190.156 107.645L198.547 102.437C199.426 101.891 199.918 100.957 199.918 99.9687C200.086 99.0352 199.594 98.1055 198.715 97.5547ZM142.457 167.246C139.223 166.535 137.191 163.406 137.906 160.172C138.617 156.937 141.746 154.906 144.98 155.621C148.215 156.332 150.246 159.461 149.531 162.695C148.875 165.93 145.695 167.961 142.457 167.246ZM139.605 147.945C136.699 147.344 133.793 149.207 133.191 152.113L130.23 166.039C121.02 170.207 110.82 172.562 100.02 172.562C89 172.562 78.582 170.148 69.2031 165.762L66.2422 151.836C65.6406 148.93 62.7344 147.066 59.8281 147.668L47.5469 150.301C45.2422 147.941 43.1602 145.477 41.1875 142.789H101.008C101.664 142.789 102.16 142.68 102.16 142.078V120.914C102.16 120.312 101.723 120.203 101.008 120.203H83.5156V106.77H102.434C104.133 106.77 111.645 107.262 114.059 116.859C114.828 119.82 116.473 129.414 117.566 132.484C118.719 135.937 123.27 142.793 128.148 142.793H157.922C158.25 142.793 158.633 142.738 159.02 142.684C156.937 145.48 154.687 148.168 152.219 150.633L139.605 147.945ZM56.9219 166.973C53.6875 167.684 50.5625 165.602 49.8477 162.422C49.1367 159.187 51.2187 156.062 54.3984 155.348C57.6328 154.637 60.7578 156.719 61.4727 159.898C62.1875 163.133 60.1562 166.312 56.9219 166.973ZM34.2227 75.0195C35.5391 78.0352 34.2227 81.543 31.207 82.8594C28.1914 84.1758 24.6836 82.8594 23.3672 79.8437C22.0508 76.8281 23.3672 73.3203 26.3828 72.0039C29.3984 70.6328 32.9063 72.0039 34.2227 75.0195ZM27.2578 91.5234L40.0352 85.8203C42.7773 84.6133 43.9844 81.3789 42.7773 78.6367L40.1445 72.6602H50.5078V119.375H29.5625C27.7539 113.016 26.7656 106.27 26.7656 99.3086C26.875 96.7344 26.9844 94.1016 27.2578 91.5234ZM83.4609 86.9727V73.2109H108.137C109.398 73.2109 117.129 74.6914 117.129 80.4492C117.129 85.2734 111.207 86.9727 106.328 86.9727H83.4609ZM173.164 99.3672C173.164 101.176 173.109 102.984 172.945 104.797H165.434C164.664 104.797 164.391 105.289 164.391 106.004V109.457C164.391 117.57 159.84 119.328 155.781 119.766C151.941 120.203 147.723 118.176 147.227 115.816C144.977 103.152 141.195 100.465 135.273 95.75C142.621 91.0898 150.297 84.1797 150.297 74.9687C150.297 64.9883 143.441 58.7383 138.836 55.668C132.313 51.3359 125.074 50.5156 123.098 50.5156H45.5156C56.043 38.7813 70.3008 30.4492 86.4727 27.4336L95.6289 37.0273C97.7109 39.2188 101.113 39.2773 103.305 37.1914L113.559 27.375C134.996 31.3789 153.203 44.7031 163.676 63.0703L156.656 78.918C155.449 81.6602 156.656 84.8398 159.398 86.1016L172.887 92.0781C173.055 94.4844 173.164 96.9531 173.164 99.3672ZM95.5781 19.3125C97.9375 17.0625 101.719 17.1211 103.969 19.5313C106.219 21.8906 106.16 25.6719 103.75 27.9219C101.391 30.1719 97.6094 30.1133 95.3594 27.7031C93.1641 25.3437 93.2187 21.5586 95.5781 19.3125ZM165.16 75.293C166.477 72.2773 169.984 70.9062 173 72.2773C176.016 73.5937 177.332 77.1016 176.016 80.1172C174.699 83.1328 171.191 84.5039 168.176 83.1328C165.215 81.8203 163.844 78.3125 165.16 75.293Z" fill="#888888"/>
</g>
<defs>
<clipPath id="clip0_373_3163">
<rect width="200" height="200" fill="white"/>
</clipPath>
</defs>
</svg>
