<svg width="415" height="156" viewBox="0 0 415 156" fill="none" xmlns="http://www.w3.org/2000/svg">
<path d="M31.125 47.4571C30.4766 47.4571 29.8281 46.8087 30.4766 46.1602L35.0156 40.9727C35.6641 40.3243 36.3125 39.6759 36.9609 39.6759H108.937C109.586 39.6759 110.234 40.3243 109.586 40.9727L106.344 46.1602C105.695 46.8087 105.047 47.4571 104.398 47.4571H31.125ZM0.648438 66.2618C0 66.2618 0 65.6134 0 64.9649L4.53906 59.7774C4.53906 59.129 5.83594 58.4806 6.48438 58.4806H98.5625C99.2109 58.4806 99.8594 59.129 99.8594 59.7774L98.5625 64.3165C98.5625 64.9649 97.2656 65.6134 96.6172 65.6134L0.648438 66.2618ZM49.9297 84.4181C49.2812 84.4181 48.6328 83.7696 49.2812 83.1212L51.875 78.5821C52.5234 77.9337 53.1719 77.2852 53.8203 77.2852H94.0234C94.6719 77.2852 95.3203 77.9337 95.3203 78.5821L94.6719 83.1212C94.6719 83.7696 94.0234 84.4181 93.375 84.4181H49.9297ZM259.375 43.5665L225.656 52.6446C222.414 53.2931 222.414 53.9415 219.82 50.6993C216.578 47.4571 214.633 44.8634 210.094 42.9181C197.125 36.4337 184.805 38.379 173.781 46.1602C160.164 55.2384 153.031 68.2071 153.031 84.4181C153.031 100.629 164.055 113.598 180.266 116.191C193.883 118.137 205.555 112.949 214.633 102.574C216.578 100.629 217.875 98.0352 219.82 94.793H180.914C176.375 94.793 175.727 92.1993 177.023 88.9571C179.617 82.4727 184.805 72.0977 187.398 66.9102C188.047 65.6134 189.344 63.668 192.586 63.668H265.859C265.211 68.8555 265.211 74.6915 264.562 79.879C262.617 94.1446 256.781 107.762 247.703 119.434C233.438 138.887 213.984 150.559 189.992 153.801C169.891 156.395 151.734 152.504 135.523 140.184C120.609 129.16 112.18 113.598 109.586 95.4415C106.992 73.3946 113.477 53.9415 126.445 36.4337C140.711 17.629 159.516 5.95712 182.859 1.41805C201.664 -1.82413 219.82 0.121179 236.68 11.1446C247.703 18.2774 254.836 28.004 260.023 39.6759C262.617 42.2696 261.969 42.9181 259.375 43.5665Z" fill="#00ACD7"/>
<path d="M326.158 155.747C308.001 155.098 291.142 149.911 276.876 138.239C265.205 127.864 257.423 114.895 254.829 99.3329C250.939 76.6376 257.423 56.536 271.04 38.3797C285.954 18.9266 303.462 9.20006 327.455 4.661C348.204 0.770374 367.658 3.36412 385.165 15.036C401.376 26.0594 411.103 40.9735 413.697 59.7782C416.939 87.0126 409.158 109.059 390.353 128.513C376.736 142.13 360.525 150.559 341.72 154.45C337.181 154.45 331.345 155.098 326.158 155.747ZM374.142 74.0438C374.142 71.4501 374.142 69.5047 373.494 67.5594C369.603 47.4579 351.447 36.4344 331.994 40.9735C313.189 45.5126 300.869 57.1844 296.33 75.9891C292.439 91.5516 300.22 107.763 315.134 114.247C326.158 118.786 337.181 118.786 348.205 112.95C364.415 103.872 373.494 90.9032 374.142 74.0438Z" fill="#00ACD7"/>
</svg>
