<svg width="220" height="220" viewBox="0 0 220 220" fill="none" xmlns="http://www.w3.org/2000/svg">
<g clip-path="url(#clip0_373_3151)">
<path d="M109.314 3.27323C107.347 3.38881 105.423 3.89848 103.656 4.77198L27.0343 41.3195C23.033 43.2239 20.1249 46.847 19.128 51.1645L0.373023 133.19C-0.520727 137.04 0.201148 141.076 2.43552 144.376C2.69677 144.774 2.97177 145.159 3.26052 145.531L56.198 211.352C58.9961 214.789 63.1968 216.763 67.6243 216.742H152.531C156.972 216.749 161.179 214.679 163.971 211.29L216.881 145.455C219.658 142.018 220.696 137.48 219.631 133.176L200.752 51.082C199.755 46.7645 196.833 43.1414 192.846 41.237L116.347 4.77885C114.143 3.69163 111.701 3.174 109.246 3.27323H109.314Z" fill="#326CE5"/>
<path d="M110.016 31.2261C107.376 31.4117 105.375 33.6736 105.513 36.3136V37.6061C105.637 39.0704 105.857 40.5211 106.145 41.958C106.567 44.7095 106.719 47.4956 106.599 50.2767C106.338 51.1911 105.815 52.0161 105.1 52.6486L104.997 54.5873C102.213 54.8211 99.4491 55.2473 96.7266 55.8661C85.2729 58.4511 74.8435 64.3911 66.7929 72.9505L65.1429 71.7817C64.2354 72.0567 63.2591 71.9536 62.4273 71.5067C60.1957 69.855 58.1304 67.99 56.2604 65.9379C55.3211 64.8156 54.318 63.7482 53.256 62.7411L52.2385 61.9298C51.331 61.2011 50.2173 60.7817 49.0554 60.7267C48.362 60.6899 47.6698 60.8178 47.0353 61.0998C46.4008 61.3817 45.8421 61.8099 45.4048 62.3492C43.851 64.5286 44.3598 67.5467 46.5323 69.1073L47.481 69.8636C48.7023 70.6761 49.9694 71.4176 51.276 72.0842C53.7098 73.4386 56.006 75.0267 58.1373 76.8967C58.6825 77.6741 58.9992 78.5886 59.0516 79.5367L60.5504 80.9117C52.4585 93.053 49.1379 107.759 51.2141 122.203L49.2891 122.753C48.7873 123.55 48.1204 124.231 47.3229 124.733C44.6372 125.45 41.8879 125.904 39.1141 126.087C37.6421 126.117 36.173 126.232 34.7141 126.431L33.4973 126.706H33.3598C32.5153 126.823 31.7199 127.173 31.0622 127.715C30.4045 128.257 29.9102 128.972 29.6344 129.779C29.3586 130.585 29.3121 131.453 29.5001 132.284C29.6881 133.116 30.1032 133.879 30.6991 134.489C31.3007 135.095 32.0591 135.522 32.8895 135.723C33.7199 135.923 34.5897 135.889 35.4016 135.623H35.491L36.7285 135.485C38.1241 135.073 39.4991 134.564 40.8398 133.987C43.4179 132.955 46.0923 132.165 48.8285 131.649C49.7773 131.704 50.6848 132.027 51.4548 132.577L53.5173 132.234C57.986 146.1 67.3773 157.85 79.9173 165.254L79.0785 167.007C79.4635 167.812 79.6079 168.705 79.491 169.592C78.3566 172.219 76.9679 174.735 75.3454 177.1C74.4553 178.273 73.6335 179.497 72.8841 180.764L72.2998 182.002C71.8758 182.737 71.6633 183.576 71.6858 184.424C71.7083 185.273 71.9648 186.099 72.4272 186.811C72.8895 187.523 73.5396 188.093 74.3058 188.459C75.0719 188.825 75.9242 188.972 76.7685 188.884C77.6149 188.788 78.4182 188.46 79.0894 187.936C79.7605 187.412 80.2732 186.712 80.5704 185.914L81.141 184.745C81.6635 183.37 82.1035 181.967 82.461 180.551C83.6779 177.547 84.3379 174.322 86.0016 172.329C86.5454 171.817 87.2306 171.482 87.9679 171.366L88.9991 169.489C102.593 174.714 117.634 174.751 131.253 169.592L132.167 171.345C133.102 171.483 133.941 171.999 134.505 172.755C135.797 175.216 136.842 177.794 137.64 180.455C138.003 181.879 138.449 183.282 138.974 184.655L139.544 185.824C139.844 186.619 140.358 187.316 141.03 187.837C141.701 188.358 142.504 188.683 143.348 188.776C144.193 188.869 145.047 188.727 145.816 188.365C146.585 188.003 147.239 187.435 147.705 186.725C148.166 186.01 148.421 185.181 148.441 184.331C148.46 183.48 148.243 182.641 147.815 181.905L147.217 180.668C146.467 179.405 145.645 178.186 144.755 177.017C143.174 174.735 141.813 172.301 140.63 169.75C140.52 169.284 140.505 168.8 140.585 168.328C140.665 167.856 140.84 167.404 141.098 167C140.805 166.401 140.55 165.783 140.335 165.151C152.847 157.692 162.197 145.901 166.618 132.014L168.57 132.357C169.272 131.718 170.193 131.381 171.135 131.409C173.864 131.931 176.539 132.784 179.124 133.746C180.464 134.365 181.839 134.887 183.235 135.327C183.565 135.417 184.046 135.492 184.417 135.582H184.507C185.318 135.844 186.186 135.875 187.015 135.673C187.843 135.471 188.599 135.043 189.199 134.436C189.798 133.83 190.217 133.069 190.41 132.238C190.602 131.407 190.56 130.539 190.289 129.731C190.011 128.924 189.514 128.209 188.853 127.668C188.193 127.126 187.395 126.779 186.549 126.665L185.215 126.349C183.756 126.15 182.287 126.035 180.815 126.005C178.037 125.826 175.287 125.372 172.606 124.65C171.781 124.19 171.094 123.502 170.626 122.67L168.77 122.12C170.749 107.683 167.358 93.0212 159.241 80.9186L160.864 79.4198C160.795 78.478 161.104 77.5429 161.716 76.8211C163.827 75.0061 166.116 73.4042 168.522 72.0361C169.829 71.3692 171.096 70.6277 172.317 69.8154L173.321 69.0042C174.06 68.5455 174.654 67.8869 175.034 67.1047C175.415 66.3224 175.566 65.4485 175.47 64.5839C175.375 63.7194 175.036 62.8996 174.494 62.2194C173.952 61.5393 173.228 61.0265 172.407 60.7405C171.586 60.4548 170.701 60.4071 169.854 60.603C169.008 60.7988 168.234 61.2302 167.622 61.8473L166.604 62.6586C165.542 63.6659 164.539 64.7333 163.6 65.8555C161.785 67.9317 159.777 69.8223 157.598 71.5136C156.718 71.8716 155.756 71.9764 154.82 71.8161L153.081 73.0536C143.044 62.5348 129.52 56.0036 115.028 54.6973C115.028 54.0098 114.939 52.9786 114.925 52.6554C114.148 52.1192 113.605 51.3011 113.426 50.373C113.331 47.5965 113.506 44.8174 113.949 42.0748C114.244 40.6311 114.45 39.1873 114.581 37.723V36.348C114.719 33.708 112.725 31.4461 110.078 31.2605L110.016 31.2261ZM104.282 66.7423L102.907 90.7567H102.804C102.735 92.2417 101.862 93.5067 100.522 94.2217C99.181 94.9367 97.5929 94.7236 96.3966 93.8505L76.6998 79.8942C82.9691 73.7364 90.8341 69.4527 99.4079 67.5261C101.017 67.1823 102.639 66.9211 104.269 66.7423H104.282ZM115.75 66.7423C126.097 68.028 135.729 72.6755 143.181 79.9698L123.67 93.8367C122.467 94.7992 120.817 94.9917 119.421 94.3317C118.025 93.6717 117.132 92.2692 117.111 90.7292L115.75 66.7423ZM69.5498 88.928L87.5623 105.002V105.105C88.6829 106.081 89.171 107.6 88.841 109.051C88.511 110.502 87.3973 111.65 85.9741 112.042V112.11L62.8604 118.759C61.7166 108.345 64.0726 97.8472 69.5566 88.9211L69.5498 88.928ZM150.352 88.928C155.824 97.8311 158.244 108.274 157.24 118.676L134.092 112.007V111.918C132.649 111.526 131.549 110.378 131.225 108.927C130.902 107.477 131.384 105.971 132.504 104.981L150.379 88.9829L150.352 88.928ZM106.324 106.253H113.694L118.197 111.973L116.561 119.123L109.94 122.306L103.306 119.123L101.745 111.973L106.324 106.253ZM129.933 125.764C130.242 125.73 130.62 125.73 130.861 125.764L154.697 129.786C151.259 139.686 144.474 148.142 135.619 153.8L126.406 131.498C126.153 130.9 126.047 130.249 126.097 129.601C126.148 128.954 126.353 128.327 126.696 127.776C127.039 127.224 127.51 126.762 128.068 126.43C128.627 126.098 129.257 125.905 129.905 125.867L129.933 125.764ZM89.8998 125.867C91.2473 125.888 92.4917 126.582 93.2273 127.71C93.9629 128.837 94.0798 130.254 93.5504 131.491V131.58L84.3929 153.704C75.6273 148.087 68.9723 139.734 65.4316 129.937L89.061 125.929C89.3223 125.902 89.5904 125.902 89.8585 125.929L89.8998 125.867ZM109.865 135.492C110.616 135.469 111.359 135.654 112.011 136.028C112.663 136.402 113.198 136.95 113.557 137.61H113.646L125.292 158.627L120.638 160.002C112.072 161.961 103.127 161.5 94.8016 158.668L106.489 137.651C107.197 136.414 108.504 135.657 109.927 135.623L109.865 135.492Z" fill="white" stroke="white" stroke-width="0.378125"/>
</g>
<defs>
<clipPath id="clip0_373_3151">
<rect width="220" height="220" fill="white"/>
</clipPath>
</defs>
</svg>
